<svg width="240" height="240" viewBox="0 0 240 240" fill="none" xmlns="http://www.w3.org/2000/svg">
<path d="M106.763 40.0774C106.576 40.1326 106.08 40.3533 105.651 40.5603C105.115 40.8224 104.767 40.919 104.526 40.8638C104.338 40.8086 103.989 40.8362 103.748 40.919C103.386 41.0432 103.185 41.0156 102.623 40.781C101.792 40.4499 101.671 40.4361 101.671 40.7121C101.671 40.988 100.881 40.988 100.519 40.7121C100.184 40.4499 99.9961 40.4499 99.7415 40.7121C99.6343 40.8362 99.259 40.9742 98.924 41.0432C98.5756 41.1122 98.2272 41.2363 98.1468 41.3191C97.9726 41.4985 97.3829 41.5261 97.3829 41.3467C97.3829 41.2777 96.9675 41.1398 96.4583 41.057C95.6141 40.8914 95.2388 40.9052 93.4029 41.1536C93.0277 41.195 92.8267 41.1674 92.8267 41.0708C92.8267 40.8224 92.5855 40.8914 92.2371 41.2639C91.9289 41.5675 91.7949 41.6089 90.8434 41.6089C88.9673 41.6089 87.2788 42.1193 86.3944 42.9334C85.8584 43.43 85.6439 43.5128 85.5635 43.2369C85.5233 43.1127 85.4027 43.1265 85.1481 43.3059C84.9605 43.43 84.6523 43.5404 84.4647 43.5404C84.2771 43.5404 83.8751 43.7612 83.5266 44.0785C82.8298 44.6994 82.3608 44.8787 81.2619 44.9615C80.5919 45.0167 80.4311 44.9753 80.1229 44.7132C79.8146 44.4372 79.7342 44.4234 79.3724 44.5752C79.1178 44.6718 78.3272 44.7269 77.4025 44.7269C75.915 44.7132 75.8346 44.6994 75.3656 44.3268C75.0172 44.0647 74.8698 43.8302 74.8698 43.5818C74.8698 43.2507 74.8564 43.2369 74.2534 43.3335C73.9049 43.3749 73.5565 43.4576 73.4761 43.4852C73.3823 43.5266 73.0875 44.1061 72.8061 44.7959C72.5247 45.4858 72.0288 46.4102 71.7072 46.8379C71.1444 47.5967 71.0506 47.6795 69.4693 48.3693C68.0622 48.9764 67.6736 49.2247 66.9232 49.9422C66.1861 50.632 66.0253 50.8665 66.0253 51.2115C66.0253 51.4874 65.8511 51.8737 65.5295 52.3152C65.1007 52.8947 65.0069 53.1292 64.9399 53.957C64.8729 54.6883 64.8863 54.978 65.0337 55.1436C65.1409 55.2539 65.2213 55.4471 65.2213 55.5575C65.2213 55.8058 63.5596 57.4752 62.5009 58.3168C62.0721 58.648 61.5093 59.0895 61.2681 59.2826C60.9197 59.5586 60.5578 59.6689 59.593 59.7931C58.4137 59.9449 57.4891 60.3036 57.5427 60.5933C57.5561 60.6623 57.5159 60.7727 57.4489 60.8555C57.3953 60.9245 57.2345 61.3797 57.1139 61.8488C56.8459 62.8146 56.7789 62.8974 55.7202 63.4769C55.0502 63.8494 54.9296 63.9874 54.5141 64.8566C54.2595 65.4222 54.0317 66.1673 53.9647 66.6363C53.8709 67.5055 53.9513 67.3952 52.37 68.7611C51.9948 69.0922 51.6196 69.4923 51.5392 69.6579L51.3784 69.9614L51.7 69.6855L52.0082 69.4095L51.7 69.8924C51.4186 70.3477 51.1908 70.8306 50.6413 72.1413C50.5207 72.4448 50.2929 72.7346 50.1321 72.8035C49.9579 72.8587 49.7435 73.0933 49.6363 73.3002C49.3951 73.7831 49.0735 75.8802 49.1941 76.1976C49.2745 76.4045 49.3281 76.3769 49.5961 76.032L49.9043 75.6319L50.1991 76.2114C50.4805 76.777 50.7485 76.9702 50.7485 76.6115C50.7619 76.5287 50.8691 76.6667 51.0166 76.9288C51.3382 77.5359 51.3784 78.474 51.0836 78.3637C50.963 78.3085 50.8423 78.3775 50.7887 78.5292C50.7351 78.6672 50.7619 78.7914 50.8557 78.8328C50.963 78.8604 50.963 78.9707 50.8557 79.2191C50.7217 79.495 50.7485 79.6054 51.0032 79.8675C51.365 80.2814 51.4856 80.7229 51.6062 82.0474C51.7 83.0408 51.6866 83.165 51.2176 84.3929C50.896 85.2345 50.7083 85.9933 50.6681 86.5728C50.6011 87.6352 50.2259 88.3802 49.3415 89.1804C48.6848 89.7737 48.6178 89.8978 48.9528 89.8978C49.2611 89.8978 50.0785 90.7808 50.0785 91.1258C50.0785 91.3051 50.1589 91.4155 50.3063 91.4155C50.4805 91.4155 50.4939 91.4569 50.3733 91.581C50.1455 91.8156 50.1723 92.0088 50.4001 91.926C50.5341 91.8708 50.5743 91.9122 50.5341 92.0363C50.4805 92.1605 50.6279 92.3399 50.9094 92.5192C51.2444 92.7262 51.2846 92.7952 51.097 92.7952C50.9496 92.7952 50.7351 92.6986 50.6011 92.5744C50.3867 92.3813 50.3599 92.3813 50.2259 92.6296C50.1455 92.7814 50.1187 92.9331 50.1723 92.9883C50.2125 93.0297 50.2393 93.4988 50.2259 94.0369C50.1991 94.9061 50.2259 95.0441 50.5073 95.2786C50.6815 95.4304 50.8825 95.5407 50.9496 95.5545C51.03 95.5545 51.097 95.6925 51.1104 95.8443C51.1238 96.0098 51.2042 96.2168 51.2846 96.2996C51.4454 96.4651 52.3298 96.4789 52.6782 96.3134C52.8793 96.2306 52.9061 96.2444 52.8256 96.3686C52.705 96.5893 52.9731 96.7825 53.4287 96.8101C53.7101 96.8239 53.7235 96.8376 53.4957 96.8928C53.3483 96.9342 53.1473 97.0308 53.0535 97.0998C52.8659 97.2654 52.8391 97.5413 53.0267 97.4171C53.1071 97.3757 53.1607 97.4309 53.1607 97.5551C53.1607 97.8034 53.4689 98.1759 53.6833 98.1759C53.7503 98.1759 53.8575 98.3001 53.8977 98.4519C54.0049 98.7968 54.2193 98.8106 54.4471 98.4795C54.6079 98.2725 54.6213 98.2863 54.6347 98.6312C54.6347 98.8934 54.6883 98.99 54.7956 98.921C54.8894 98.8658 54.9028 98.8796 54.8492 98.9762C54.7956 99.0589 54.8626 99.2935 54.9832 99.4866C55.2244 99.873 56.3232 100.715 56.7655 100.866C56.9799 100.935 57.0469 101.046 57.0067 101.211C56.9665 101.363 57.0737 101.584 57.2479 101.763C57.4221 101.929 57.5963 102.218 57.6365 102.398C57.6901 102.577 57.7839 102.729 57.8643 102.729C57.9447 102.729 57.9313 102.839 57.8375 103.032C57.7035 103.281 57.7303 103.364 57.9313 103.529C58.1725 103.708 58.1591 103.722 57.8107 103.639L57.4221 103.543L57.6633 103.957C57.7839 104.178 58.0385 104.426 58.2127 104.509C58.3869 104.591 58.5209 104.743 58.4941 104.854C58.4673 104.964 58.6013 105.185 58.7756 105.337C59.0838 105.612 59.0838 105.626 58.8158 105.626C58.3601 105.626 58.3467 105.875 58.8158 105.971C59.5796 106.151 61.5897 107.213 61.8443 107.585C61.9381 107.723 62.2597 107.958 62.5546 108.11C62.836 108.261 63.0772 108.455 63.0772 108.537C63.0772 108.606 63.3586 108.8 63.6936 108.937C64.042 109.103 64.7657 109.669 65.4089 110.303C66.3067 111.186 66.749 111.504 67.8478 112.042C68.5715 112.4 69.3353 112.773 69.5497 112.883C69.8847 113.077 69.9919 113.063 71.0908 112.649C71.734 112.414 72.3237 112.166 72.4041 112.097C72.7659 111.793 73.8647 111.531 75.4728 111.338C77.2149 111.131 79.56 111.117 79.56 111.311C79.56 111.38 79.8146 111.421 80.1363 111.421C80.4445 111.435 80.9403 111.531 81.2351 111.642C82.1866 112.014 82.2536 112.014 82.6422 111.724C82.8432 111.573 83.3792 111.338 83.8214 111.214C84.2771 111.104 85.1481 110.759 85.7511 110.455C86.3676 110.152 87.0912 109.862 87.3726 109.807C87.6406 109.765 87.8685 109.683 87.8685 109.614C87.8685 109.462 87.4664 109.075 87.3056 109.075C87.2252 109.075 87.185 109.034 87.2252 108.993C87.3592 108.855 87.8417 109.2 87.9355 109.489C88.0427 109.848 88.4715 109.752 88.9003 109.269C89.3157 108.813 90.6558 108.51 92.3443 108.51C93.3359 108.51 93.7782 108.455 94.006 108.303C94.1802 108.179 94.3544 108.123 94.408 108.165C94.4482 108.206 94.408 108.248 94.3276 108.248C94.2338 108.248 94.1668 108.289 94.1668 108.344C94.1668 108.413 94.5152 108.455 94.944 108.468C95.9223 108.468 96.8067 108.951 97.1819 109.683C97.3293 109.958 97.5304 110.179 97.6242 110.179C97.718 110.179 97.7582 110.248 97.718 110.331C97.6644 110.414 97.7448 110.51 97.9056 110.552C98.1468 110.621 98.1602 110.662 98.0262 110.841C97.8922 111.007 97.8922 111.062 98.0262 111.104C98.1066 111.145 98.187 111.297 98.187 111.435C98.187 112.042 98.8838 112.952 99.4869 113.132C99.6477 113.187 99.8085 113.173 99.8487 113.09C99.8889 113.021 100.05 112.994 100.197 113.035C100.344 113.077 100.68 113.063 100.948 113.021C101.336 112.939 101.39 112.883 101.269 112.718C101.068 112.483 101.283 112.456 101.51 112.69C101.631 112.814 101.711 112.814 101.832 112.69C102.06 112.456 102.355 112.483 102.261 112.732C102.207 112.842 102.247 112.939 102.328 112.939C102.422 112.939 102.515 112.856 102.556 112.759C102.596 112.621 102.917 112.552 103.52 112.538C104.016 112.525 104.445 112.456 104.459 112.373C104.539 112.166 104.753 112.235 104.753 112.456C104.753 112.594 104.887 112.663 105.129 112.663C105.41 112.663 105.544 112.773 105.691 113.104C105.946 113.67 106.683 114.139 106.951 113.918C107.085 113.808 107.165 113.794 107.232 113.904C107.273 113.973 107.246 114.042 107.179 114.042C106.924 114.042 107.018 114.401 107.447 115.008L107.862 115.588L107.661 116.595C107.554 117.147 107.5 117.767 107.527 117.961C107.581 118.195 107.474 118.54 107.219 118.968C106.656 119.92 106.603 120.113 106.83 120.196C106.938 120.251 107.031 120.43 107.031 120.61C107.031 120.844 106.938 120.955 106.696 121.024L106.348 121.106L106.643 121.617C106.79 121.893 106.844 122.031 106.75 121.934C106.455 121.644 106.402 121.741 106.415 122.527C106.415 123.217 106.375 123.341 106.013 123.686C105.718 123.962 105.544 124.045 105.41 123.962C105.303 123.893 105.182 123.838 105.115 123.838C104.995 123.838 105.356 124.735 105.665 125.218C105.879 125.549 105.906 125.618 105.946 125.908C105.946 125.977 106.093 126.046 106.254 126.046C106.482 126.046 106.509 126.087 106.388 126.211C106.134 126.473 106.187 126.584 106.67 126.804C106.911 126.915 106.964 126.97 106.79 126.929L106.482 126.846L106.844 127.425C107.139 127.881 107.286 127.991 107.527 127.936C107.688 127.908 107.795 127.922 107.768 127.991C107.728 128.046 107.809 128.129 107.929 128.157C108.063 128.184 108.01 128.198 107.795 128.184C107.273 128.157 107.393 128.363 108.291 129.053C108.707 129.384 109.377 130.074 109.765 130.571C110.167 131.081 110.703 131.716 110.985 131.978C111.253 132.24 111.588 132.682 111.708 132.944C111.842 133.206 112.07 133.661 112.231 133.951C112.392 134.241 112.512 134.641 112.499 134.848C112.486 135.055 112.821 135.979 113.236 136.904C113.651 137.828 114.053 138.821 114.12 139.111C114.201 139.401 114.442 140.008 114.67 140.449C115.192 141.512 115.192 141.953 114.67 142.284C114.455 142.409 114.268 142.616 114.268 142.712C114.268 143.03 115.367 145.789 115.715 146.382C116.037 146.906 116.037 146.975 115.916 148.259C115.769 149.804 115.514 150.3 114.656 150.742C114.348 150.908 114.134 151.128 114.134 151.266C114.134 151.404 113.919 151.722 113.665 151.984C113.343 152.301 113.196 152.577 113.196 152.853C113.196 153.06 113.129 153.377 113.035 153.543C112.955 153.708 112.834 154.15 112.78 154.536C112.633 155.667 112.151 157.157 111.802 157.544C111.521 157.861 111.494 157.944 111.614 158.675C111.681 159.117 111.708 159.544 111.668 159.627C111.641 159.71 111.601 159.669 111.601 159.531C111.588 159.406 111.521 159.296 111.44 159.296C111.346 159.296 111.333 159.393 111.4 159.531C111.454 159.669 111.521 160.372 111.534 161.09C111.547 162.18 111.614 162.524 111.896 163.159C112.097 163.587 112.445 164.111 112.673 164.332C112.901 164.566 113.223 165.022 113.397 165.367C113.571 165.712 113.919 166.346 114.187 166.801C114.442 167.243 114.764 167.919 114.884 168.305C115.005 168.692 115.38 169.409 115.688 169.892C116.01 170.375 116.278 170.844 116.278 170.941C116.278 171.037 116.439 171.258 116.626 171.451C116.814 171.63 117.082 171.962 117.216 172.196C117.497 172.665 117.725 173.728 117.524 173.603C117.444 173.548 117.417 174.1 117.457 175.066C117.511 176.321 117.578 176.735 117.832 177.246C118.02 177.632 118.181 178.336 118.275 179.108C118.449 180.723 118.556 181.247 118.77 181.592C118.878 181.743 118.918 181.909 118.878 181.964C118.757 182.088 119.28 183.413 119.789 184.31C120.151 184.944 121.317 186.172 121.732 186.365C122.027 186.49 122.616 187.538 123.059 188.697C123.688 190.367 123.943 190.877 124.747 192.105C125.109 192.671 125.498 193.333 125.605 193.581C125.993 194.533 125.752 195.444 125.109 195.444C124.747 195.444 124.787 195.858 125.189 196.258C125.377 196.437 125.524 196.644 125.524 196.713C125.524 196.782 125.645 197.03 125.806 197.251C126.047 197.61 126.06 197.72 125.926 198.148C125.833 198.41 125.806 198.714 125.846 198.824C125.953 199.128 126.288 199.072 126.369 198.755C126.462 198.382 126.838 198.41 126.891 198.783C126.918 199.031 127.039 199.114 127.374 199.141C127.615 199.169 127.856 199.279 127.896 199.39C128.057 199.831 129.665 200.217 129.88 199.859C130.094 199.5 131.193 199.183 132.238 199.183C133.216 199.183 133.377 199.141 133.86 198.81C134.355 198.451 134.516 198.424 135.763 198.382C138.094 198.327 138.402 198.341 139.166 198.548C139.823 198.714 139.944 198.714 140.131 198.548C140.279 198.41 140.627 198.341 141.109 198.341C141.779 198.341 141.86 198.313 141.9 198.024C141.94 197.748 142.007 197.72 142.945 197.706C143.83 197.706 144.071 197.637 144.888 197.21C146.202 196.52 147.649 195.416 148.909 194.174C149.498 193.595 150.302 192.878 150.691 192.588C151.415 192.05 153.036 189.925 153.518 188.89C153.84 188.2 154.443 187.566 155.435 186.862C156.306 186.255 156.507 185.924 156.748 184.751C156.842 184.296 157.029 183.62 157.177 183.234C157.324 182.861 157.405 182.447 157.378 182.323C157.338 182.199 157.351 181.674 157.405 181.178C157.485 180.364 157.472 180.24 157.244 180.088C156.989 179.922 156.989 179.895 157.204 179.467C157.512 178.86 157.941 178.612 159.897 177.936C161.103 177.508 161.706 177.218 162.108 176.846C162.832 176.211 163.368 175.011 162.832 175.218C162.658 175.287 162.631 175.218 162.711 174.721C162.765 174.39 162.886 173.948 162.993 173.728C163.113 173.465 163.14 173.286 163.06 173.231C162.979 173.189 162.939 172.803 162.953 172.375C162.979 171.575 162.778 171.272 162.631 171.879C162.591 172.058 162.551 171.851 162.564 171.437C162.564 170.941 162.47 170.485 162.282 170.127C162.108 169.768 162.028 169.423 162.068 169.133C162.122 168.761 162.068 168.609 161.72 168.278C161.331 167.905 161.291 167.795 161.318 167.174C161.344 166.581 161.398 166.47 161.612 166.47C161.773 166.47 162.282 166.043 162.832 165.463C163.368 164.911 163.971 164.415 164.212 164.332C164.494 164.235 164.963 163.808 165.552 163.09C166.061 162.483 166.705 161.821 167 161.614C167.616 161.186 169.318 160.441 170.015 160.317C170.269 160.262 170.631 160.082 170.819 159.917C171.006 159.737 171.408 159.475 171.73 159.31C172.052 159.144 172.346 158.896 172.387 158.772C172.507 158.454 173.405 157.213 173.753 156.895C174.276 156.412 174.651 154.536 174.249 154.384C174.142 154.343 174.088 154.205 174.129 154.039C174.169 153.901 174.142 153.777 174.075 153.777C174.021 153.777 173.954 153.17 173.941 152.425C173.914 151.432 173.861 151.101 173.74 151.128C173.646 151.156 173.686 151.045 173.82 150.894C174.008 150.687 174.035 150.563 173.928 150.438C173.861 150.342 173.753 149.666 173.7 148.948C173.633 147.927 173.66 147.5 173.82 147.017C173.928 146.672 173.968 146.382 173.901 146.355C173.834 146.327 173.82 146.217 173.861 146.106C173.954 145.844 173.472 145.32 172.735 144.864C172.413 144.685 172.159 144.506 172.159 144.492C172.145 144.05 171.851 142.795 171.73 142.643C171.636 142.519 171.556 142.353 171.556 142.271C171.542 142.188 171.462 141.953 171.355 141.746C171.207 141.429 171.207 141.236 171.355 140.629C171.502 139.967 171.502 139.842 171.288 139.525C171.073 139.18 171.073 139.139 171.341 138.697C171.502 138.435 171.623 138.145 171.623 138.049C171.623 137.952 171.301 137.538 170.899 137.124C170.497 136.711 170.135 136.228 170.095 136.048C170.041 135.855 170.162 135.331 170.403 134.71C170.618 134.158 170.846 133.537 170.886 133.33C170.939 133.123 171.1 132.916 171.248 132.861C171.422 132.806 171.743 132.282 172.186 131.344C172.547 130.557 172.909 129.881 172.976 129.84C173.043 129.785 173.097 129.55 173.097 129.315C173.097 128.736 173.405 128.294 173.874 128.198C174.316 128.088 175.214 127.274 175.134 127.039C175.107 126.942 175.201 126.873 175.335 126.873C175.67 126.873 176.005 126.487 176.661 125.356C177.238 124.362 179.73 121.575 181.512 119.947C182.303 119.23 183.121 118.637 184.018 118.154C185.211 117.519 185.546 117.243 187.101 115.643C189.178 113.49 189.968 112.594 190.29 111.959C190.411 111.697 190.906 110.91 191.389 110.207C191.858 109.517 192.287 108.786 192.327 108.593C192.367 108.399 192.421 108.11 192.461 107.93C192.488 107.765 192.769 107.24 193.064 106.758C193.372 106.288 193.721 105.626 193.855 105.309C193.989 104.992 194.203 104.633 194.324 104.522C194.458 104.426 194.779 103.888 195.034 103.364C195.288 102.825 195.61 102.26 195.757 102.108C195.905 101.942 196.066 101.418 196.159 100.797C196.253 100.232 196.414 99.6522 196.521 99.5142C196.776 99.2107 196.963 97.7344 196.776 97.5965C196.682 97.5413 196.722 97.2791 196.87 96.8652C197.017 96.4789 197.071 96.1754 196.99 96.0926C196.923 96.0236 196.588 95.9271 196.226 95.8857C195.637 95.8029 195.57 95.8167 195.208 96.2168C195.007 96.4513 194.659 96.6859 194.444 96.7273C194.243 96.7687 193.734 96.9066 193.332 97.0308C192.93 97.155 192.206 97.2654 191.724 97.2654C191.241 97.2791 190.705 97.3619 190.531 97.4723C190.303 97.5965 189.968 97.6379 189.392 97.5689C188.628 97.4861 188.561 97.5137 187.677 98.0518L186.752 98.6312L185.948 98.3967L185.157 98.1759L184.447 98.5761C184.072 98.7968 183.469 99.0589 183.134 99.1417C182.585 99.2797 182.424 99.2659 181.914 99.0313C181.579 98.8796 181.11 98.5071 180.856 98.1759C180.601 97.8586 180.266 97.4309 180.105 97.2378C179.851 96.9066 179.73 96.8652 179.02 96.8652C178.149 96.8652 178.162 96.8101 179.234 96.3134C180.038 95.9271 180.146 95.7477 179.945 95.113C179.784 94.6302 179.208 93.8851 179.033 93.9127C178.752 93.9679 178.591 93.8851 178.591 93.6782C178.591 93.554 178.417 93.3884 178.189 93.3057C177.934 93.2091 177.774 93.0297 177.72 92.7814C177.626 92.3675 177.238 91.9674 176.608 91.6362C176.38 91.5121 176.032 91.1671 175.857 90.8774C175.415 90.16 174.96 89.8151 174.29 89.7047C173.686 89.6081 172.963 89.2632 172.963 89.0838C172.963 89.0286 172.842 88.8355 172.708 88.6699C172.561 88.4906 172.413 88.2836 172.387 88.2008C172.293 87.8973 171.998 88.2836 172.078 88.6423C172.132 88.9596 172.119 88.9459 171.958 88.5595C171.851 88.325 171.69 88.0766 171.596 88.0077C171.355 87.8559 171.087 87.0971 170.886 85.9657C170.698 84.9172 170.618 84.6964 169.921 83.165C169.653 82.5717 169.385 82.1716 169.264 82.1716C169.157 82.1716 168.782 81.8957 168.433 81.5645C168.085 81.2334 167.67 80.9299 167.509 80.8747C167.348 80.8195 167.16 80.5988 167.08 80.3642C166.892 79.8123 166.624 77.1495 166.705 76.6115C166.732 76.3493 166.691 76.101 166.584 75.9906C166.329 75.7285 166.343 75.4663 166.598 75.6871C167 76.032 166.946 75.7147 166.531 75.218C166.262 74.9145 166.075 74.5144 166.021 74.1418C165.941 73.6589 165.793 73.4244 165.19 72.8449C164.788 72.4586 164.252 72.0309 164.025 71.9067C163.489 71.6308 162.912 70.5409 162.912 69.8096C162.912 69.3405 162.939 69.3129 163.247 69.3957C163.435 69.4509 163.582 69.4509 163.582 69.4095C163.582 69.3819 163.301 69.0784 162.966 68.7611C162.604 68.4161 162.162 67.7953 161.921 67.271C161.679 66.7743 161.117 65.7533 160.674 64.9945C160.219 64.2357 159.723 63.2147 159.562 62.7318C159.401 62.2489 159.12 61.6419 158.932 61.3797C158.637 60.9796 158.611 60.8831 158.772 60.7727C158.919 60.6761 158.825 60.5243 158.316 60.0277C157.967 59.6689 157.539 59.1447 157.351 58.8549C157.177 58.5652 156.962 58.2893 156.895 58.2479C156.815 58.1927 156.788 58.0685 156.828 57.9581C156.869 57.8478 156.788 57.5442 156.627 57.2959C156.319 56.7854 156.266 56.3025 156.48 56.1645C156.56 56.1231 156.614 56.1921 156.614 56.3301C156.614 56.4681 156.882 56.951 157.217 57.4063C157.579 57.9029 157.82 58.372 157.82 58.5928C157.82 58.8687 158.048 59.186 158.745 59.8483C159.241 60.345 159.777 60.7727 159.937 60.8141C160.326 60.9245 160.701 60.4554 160.715 59.8345C160.728 59.3654 160.862 58.8825 161.465 57.2269C161.653 56.7302 161.693 56.4543 161.599 56.3301C161.519 56.2473 161.197 55.4747 160.862 54.6193L160.259 53.074L160.581 52.7705C160.755 52.605 160.902 52.4118 160.902 52.3428C160.902 52.1359 160.54 52.2324 160.286 52.5222C159.79 53.0878 159.321 53.2396 158.343 53.143C157.766 53.074 157.418 53.1016 157.351 53.1844C157.23 53.4052 156.534 53.3638 156.346 53.1292C156.266 53.0189 156.051 52.8947 155.904 52.8395C155.743 52.7981 155.529 52.6739 155.421 52.5912C155.234 52.4394 154.59 52.3704 153.264 52.3704C151.83 52.3704 151.656 52.398 151.656 52.6739C151.656 52.8671 151.575 52.9361 151.348 52.8947C151.187 52.8809 150.865 52.9913 150.651 53.143C150.048 53.5845 149.418 53.8881 149.136 53.8881C148.989 53.8881 148.614 53.7639 148.292 53.6121C147.971 53.4604 147.475 53.3362 147.207 53.3362C146.939 53.3362 146.671 53.2672 146.63 53.1982C146.59 53.1154 146.362 53.0602 146.148 53.0602C145.934 53.0602 145.612 52.9637 145.451 52.8533C145.277 52.7429 144.701 52.5912 144.165 52.5084C143.629 52.4256 142.932 52.3014 142.61 52.2186C142.208 52.1083 141.9 52.1083 141.525 52.2186C140.788 52.4256 140.694 52.4118 140.587 52.0531C140.399 51.4046 140.145 51.2667 139.166 51.2667C138.657 51.2667 138.108 51.1977 137.947 51.1011C137.786 51.0183 137.357 50.8803 136.982 50.7976C136.392 50.6596 136.312 50.5906 136.272 50.2595C136.232 49.9284 136.124 49.8594 135.106 49.5283C133.846 49.1281 133.257 49.1281 131.809 49.5696C130.63 49.9284 129.813 50.4113 129.451 50.9769C129.076 51.5564 129.062 52.0807 129.411 52.7843C129.719 53.419 129.638 53.7639 129.062 54.3158C128.459 54.8952 127.829 55.1712 127.347 55.0746C127.119 55.0194 126.596 54.7435 126.181 54.4399C125.203 53.7363 123.34 53.1016 121.799 52.9361C121.062 52.8533 120.446 52.7153 120.231 52.5636C119.843 52.3014 119.494 51.6944 119.494 51.2942C119.494 50.7838 118.998 50.3423 118.328 50.2319C117.98 50.1767 117.484 50.0249 117.216 49.887C116.961 49.7628 116.452 49.5972 116.077 49.542C115.715 49.4869 115.3 49.3903 115.166 49.3075C115.005 49.2247 114.616 49.2247 114.013 49.3489C113.129 49.5007 113.062 49.5007 112.352 49.1419C111.494 48.728 111.119 48.6866 110.944 49.0178C110.757 49.3351 110.382 49.1419 110.382 48.7142C110.382 48.3417 109.966 48.052 109.872 48.3417C109.805 48.5625 109.43 48.5487 109.47 48.3417C109.497 48.2451 109.363 48.1486 109.176 48.121C108.439 48.0244 107.889 47.5139 108.036 47.0862C108.077 46.9896 108.318 46.7965 108.573 46.6723C108.827 46.5481 109.189 46.3136 109.377 46.1342C109.872 45.7065 110.542 44.6718 110.395 44.589C110.341 44.5476 110.248 44.3268 110.207 44.1061C110.14 43.8026 109.98 43.6094 109.578 43.4025C109.135 43.1679 109.042 43.0575 109.042 42.7126C109.042 42.4781 109.095 42.2987 109.162 42.2987C109.47 42.2987 110.114 41.5537 110.194 41.1122C110.234 40.85 110.248 40.5879 110.194 40.5465C110.154 40.5051 109.886 40.6155 109.618 40.8086C108.908 41.2777 108.64 41.3743 108.64 41.1122C108.64 41.0018 108.546 40.8776 108.425 40.8224C108.278 40.7673 108.264 40.7121 108.372 40.6431C108.653 40.4637 108.358 40.2016 107.956 40.2568C107.742 40.2982 107.594 40.2568 107.608 40.174C107.648 39.9946 107.192 39.9394 106.763 40.0774ZM52.1958 92.6158C52.0618 92.6434 51.8474 92.6434 51.7268 92.6158C51.5928 92.5744 51.7 92.5468 51.9546 92.5468C52.2092 92.5468 52.3164 92.5744 52.1958 92.6158ZM53.9647 96.1064C53.9647 96.1754 53.8441 96.2444 53.6833 96.2444C53.5359 96.2444 53.4555 96.1754 53.4957 96.1064C53.5359 96.0236 53.6699 95.9684 53.7771 95.9684C53.8843 95.9684 53.9647 96.0236 53.9647 96.1064Z" fill="#1AAB9B"/>
<path d="M55.7467 58.0824C55.4251 58.3584 55.4117 58.4411 55.5591 58.6343C55.8003 58.924 55.8673 58.9102 56.2961 58.5101C56.993 57.8341 56.4837 57.434 55.7467 58.0824Z" fill="#1AAB9B"/>
<path d="M46.514 58.7861C46.4067 59.0482 46.8222 59.7242 47.0366 59.6415C47.1974 59.5863 47.4118 58.7723 47.2912 58.6481C47.1438 58.4963 46.581 58.5929 46.514 58.7861Z" fill="#1AAB9B"/>
<path d="M54.9562 59.2966C54.8356 59.545 54.5809 59.9175 54.3933 60.1244L54.0449 60.5107H54.4201C55.0098 60.5107 55.5592 60.1382 55.6798 59.6415C55.7468 59.407 55.7736 59.1173 55.7334 59.0207C55.6262 58.6896 55.184 58.8551 54.9562 59.2966Z" fill="#1AAB9B"/>
<path d="M50.0116 59.3239C49.8642 59.4205 49.5426 59.5584 49.3148 59.6136C49.0736 59.655 48.8726 59.7378 48.8726 59.7792C48.8726 60.0275 49.4488 60.7588 49.5962 60.7036C49.8776 60.5932 50.7755 59.4205 50.6817 59.2687C50.561 59.0756 50.3198 59.1031 50.0116 59.3239Z" fill="#1AAB9B"/>
<path d="M48.0666 60.166C47.8656 60.4144 47.9996 60.6489 48.3346 60.6489C48.4686 60.6489 48.6294 60.5799 48.6696 60.511C48.7634 60.3592 48.5088 59.9591 48.3346 59.9591C48.281 59.9591 48.1604 60.0557 48.0666 60.166Z" fill="#1AAB9B"/>
<path d="M51.446 60.2618C51.0038 60.7171 51.5264 61.5173 52.0759 61.2138C52.3975 61.0344 52.4779 60.7861 52.3439 60.3998C52.2233 60.0686 51.7141 59.9858 51.446 60.2618Z" fill="#1AAB9B"/>
<path d="M46.3396 60.9385C46.085 61.0488 46.0582 61.104 46.1922 61.2696C46.4201 61.5593 46.7685 61.5317 46.9561 61.2144C47.0901 60.9937 47.0767 60.9385 46.9159 60.8695C46.7953 60.8281 46.7015 60.7867 46.6881 60.8005C46.6747 60.8005 46.5139 60.8695 46.3396 60.9385Z" fill="#1AAB9B"/>
<path d="M159.428 61.3102C159.428 61.3792 159.522 61.4896 159.643 61.5309C159.777 61.5861 159.83 61.5447 159.803 61.4482C159.736 61.2412 159.428 61.1308 159.428 61.3102Z" fill="#1AAB9B"/>
<path d="M36.1817 84.8758C36.0343 84.9448 35.9271 85.4829 36.0611 85.4829C36.3157 85.4829 36.9456 85.138 36.9054 85.0138C36.8518 84.8483 36.4364 84.7655 36.1817 84.8758Z" fill="#1AAB9B"/>
<path d="M36.7187 85.4415C36.4507 85.5518 36.5177 85.7588 36.8125 85.7588C36.9599 85.7588 37.0805 85.6622 37.0805 85.5518C37.0805 85.3449 37.0001 85.3173 36.7187 85.4415Z" fill="#1AAB9B"/>
<path d="M41.047 85.4554C40.9397 85.6348 41.181 86.1729 41.3686 86.1729C41.5562 86.1729 41.5294 85.8555 41.3284 85.552C41.1944 85.3864 41.114 85.3588 41.047 85.4554Z" fill="#1AAB9B"/>
<path d="M37.2821 85.7585C37.2419 85.8275 37.2687 85.8965 37.3357 85.8965C37.4161 85.8965 37.4831 85.8275 37.4831 85.7585C37.4831 85.6757 37.4563 85.6205 37.4295 85.6205C37.3893 85.6205 37.3223 85.6757 37.2821 85.7585Z" fill="#1AAB9B"/>
<path d="M38.1114 85.9794C37.9238 86.1725 38.1918 86.3933 38.5536 86.3381C39.036 86.2691 39.0762 86.1035 38.6608 85.9794C38.2722 85.8828 38.2186 85.8828 38.1114 85.9794Z" fill="#1AAB9B"/>
<path d="M172.425 86.8351C172.425 86.9178 172.492 87.0006 172.573 87.0282C172.68 87.0696 172.653 87.1662 172.506 87.318C172.372 87.4421 172.331 87.5525 172.412 87.5525C172.492 87.5525 172.519 87.6491 172.479 87.7594C172.372 88.0216 172.613 88.0216 172.827 87.7594C172.908 87.6491 172.934 87.4835 172.881 87.3869C172.814 87.2904 172.76 87.1248 172.76 87.0144C172.76 86.7937 172.425 86.6281 172.425 86.8351Z" fill="#1AAB9B"/>
<path d="M41.1797 87.0827C41.0189 87.5242 41.4611 87.7312 41.7559 87.3586C41.89 87.1931 41.8632 87.1241 41.6487 87.0137C41.3003 86.8206 41.2735 86.8206 41.1797 87.0827Z" fill="#1AAB9B"/>
<path d="M173.164 87.6901C173.057 87.8695 173.151 88.0212 173.352 87.9522C173.432 87.9109 173.445 87.8143 173.378 87.7039C173.298 87.5659 173.244 87.5659 173.164 87.6901Z" fill="#1AAB9B"/>
<path d="M40.564 89.2079C40.564 89.3597 40.631 89.4839 40.698 89.4839C40.7784 89.4839 40.832 89.3597 40.832 89.2079C40.832 89.0562 40.7784 88.932 40.698 88.932C40.631 88.932 40.564 89.0562 40.564 89.2079Z" fill="#1AAB9B"/>
<path d="M39.451 89.1665C39.1294 89.4838 39.6654 90.1598 40.1076 89.9805C40.3623 89.8839 40.3488 89.6769 40.0272 89.3458C39.7458 89.0561 39.5984 89.0147 39.451 89.1665Z" fill="#1AAB9B"/>
<path d="M178.39 91.2765C178.296 91.4421 178.417 91.6904 178.604 91.6904C178.765 91.6904 178.765 91.3179 178.604 91.2075C178.537 91.1661 178.444 91.1937 178.39 91.2765Z" fill="#1AAB9B"/>
<path d="M178.189 92.1052C178.189 92.1742 178.243 92.2432 178.31 92.2432C178.39 92.2432 178.484 92.1742 178.524 92.1052C178.564 92.0224 178.511 91.9672 178.403 91.9672C178.283 91.9672 178.189 92.0224 178.189 92.1052Z" fill="#1AAB9B"/>
<path d="M201.506 94.3814C201.386 94.5194 201.426 94.6435 201.627 94.8505C201.989 95.223 202.726 95.223 203.516 94.8505C204.079 94.5884 204.093 94.5608 203.851 94.409C203.449 94.1745 201.694 94.1607 201.506 94.3814Z" fill="#1AAB9B"/>
<path d="M198.691 95.265C198.691 95.403 199.361 95.6099 199.469 95.4858C199.576 95.3892 199.482 95.334 199.067 95.2236C198.852 95.1822 198.691 95.196 198.691 95.265Z" fill="#1AAB9B"/>
<path d="M200.703 95.4162C200.703 95.4852 200.77 95.5542 200.837 95.5542C200.918 95.5542 200.971 95.4852 200.971 95.4162C200.971 95.3334 200.918 95.2783 200.837 95.2783C200.77 95.2783 200.703 95.3334 200.703 95.4162Z" fill="#1AAB9B"/>
<path d="M50.9362 96.9614C50.8692 97.0718 50.9094 97.0856 51.0568 97.0304C51.1908 96.9752 51.2846 97.0028 51.2846 97.0856C51.2846 97.1684 51.365 97.2098 51.4722 97.1684C51.566 97.127 51.7268 97.1684 51.8072 97.2511C51.9278 97.3753 51.9948 97.3615 52.0887 97.2098C52.2763 96.92 52.2495 96.7958 52.0216 96.7958C51.9144 96.7958 51.8206 96.851 51.8206 96.9338C51.8206 97.0166 51.7 97.0166 51.4722 96.9338C51.0434 96.7683 51.0568 96.7683 50.9362 96.9614Z" fill="#1AAB9B"/>
<path d="M52.4233 97.072C52.3831 97.141 52.3965 97.21 52.4769 97.21C52.5439 97.21 52.6511 97.141 52.6913 97.072C52.7315 96.9892 52.7181 96.934 52.6377 96.934C52.5707 96.934 52.4635 96.9892 52.4233 97.072Z" fill="#1AAB9B"/>
<path d="M51.3504 97.4861C51.3102 97.555 51.337 97.624 51.404 97.624C51.4844 97.624 51.5514 97.555 51.5514 97.4861C51.5514 97.4033 51.5246 97.3481 51.4978 97.3481C51.4576 97.3481 51.3906 97.4033 51.3504 97.4861Z" fill="#1AAB9B"/>
<path d="M52.4903 97.4722C52.4903 97.555 52.4099 97.5826 52.3295 97.555C52.0615 97.4584 51.8069 97.693 51.9007 97.9413C51.9945 98.1896 52.2223 98.2586 52.2223 98.0379C52.2223 97.9551 52.1553 97.8999 52.0749 97.8999C52.0079 97.8999 51.9811 97.8309 52.0213 97.7619C52.0883 97.6516 52.1687 97.6516 52.2893 97.7619C52.4099 97.8585 52.5037 97.8447 52.6109 97.7067C52.7182 97.5688 52.7316 97.486 52.6243 97.417C52.5573 97.3756 52.4903 97.3894 52.4903 97.4722Z" fill="#1AAB9B"/>
<path d="M51.3114 97.9275C51.3784 98.1345 51.6866 98.1759 51.7 97.9689C51.7 97.8861 51.6062 97.8034 51.4722 97.7896C51.3382 97.7482 51.2712 97.8034 51.3114 97.9275Z" fill="#1AAB9B"/>
<path d="M105.329 114.001C105.236 114.042 105.155 114.139 105.155 114.236C105.155 114.346 105.021 114.594 104.86 114.801C104.579 115.174 104.579 115.188 104.82 115.367C105.222 115.67 105.396 115.601 105.691 115.022C106.04 114.318 105.852 113.808 105.329 114.001Z" fill="#1AAB9B"/>
<path d="M102.394 118.885C102.354 118.968 102.381 119.106 102.461 119.189C102.569 119.299 102.609 119.258 102.609 119.037C102.609 118.706 102.542 118.651 102.394 118.885Z" fill="#1AAB9B"/>
<path d="M171.837 133.868C171.851 134.241 171.904 134.517 171.945 134.489C171.985 134.476 172.079 134.462 172.146 134.462C172.32 134.462 172.414 133.593 172.266 133.386C171.971 133.027 171.811 133.22 171.837 133.868Z" fill="#1AAB9B"/>
<path d="M170.872 135.345C170.765 135.634 170.872 136.462 171.006 136.421C171.073 136.393 171.181 136.462 171.248 136.586C171.315 136.711 171.422 136.807 171.475 136.807C171.703 136.807 171.757 136.352 171.583 136.131C171.475 136.007 171.355 135.745 171.301 135.524C171.207 135.124 170.993 135.027 170.872 135.345Z" fill="#1AAB9B"/>
<path d="M171.998 139.76C171.783 139.925 171.623 140.105 171.623 140.16C171.623 140.353 171.984 140.257 172.212 139.994C172.574 139.58 172.413 139.415 171.998 139.76Z" fill="#1AAB9B"/>
<path d="M186.498 143.982C186.498 144.051 186.565 144.12 186.632 144.12C186.712 144.12 186.766 144.051 186.766 143.982C186.766 143.899 186.712 143.844 186.632 143.844C186.565 143.844 186.498 143.899 186.498 143.982Z" fill="#1AAB9B"/>
<path d="M179.475 147.789C179.328 148.175 179.395 148.493 179.663 148.741C180.078 149.127 180.266 148.851 180.051 148.134C179.89 147.555 179.622 147.403 179.475 147.789Z" fill="#1AAB9B"/>
<path d="M192.3 149.183C192.166 149.597 191.831 149.914 191.549 149.914C191.295 149.914 191.295 149.928 191.496 150.162C191.63 150.3 191.723 150.562 191.723 150.756C191.723 151.252 191.295 152.011 190.96 152.135C190.692 152.232 190.651 152.204 190.651 151.915C190.651 151.721 190.584 151.57 190.517 151.57C190.303 151.57 190.169 152.025 190.357 152.094C190.544 152.149 190.571 152.618 190.397 152.742C190.33 152.784 190.236 152.687 190.182 152.535C190.142 152.384 190.048 152.259 189.981 152.259C189.767 152.259 189.419 152.922 189.526 153.115C189.593 153.211 189.646 153.46 189.66 153.667C189.673 153.956 189.62 154.053 189.432 154.053C189.11 154.053 189.003 154.26 189.151 154.564C189.298 154.839 188.99 155.267 188.842 155.019C188.695 154.77 188.521 154.881 188.159 155.433C187.904 155.819 187.837 156.081 187.891 156.33C187.944 156.523 187.918 156.674 187.837 156.674C187.77 156.674 187.703 156.564 187.703 156.426C187.703 156.04 187.569 155.971 187.181 156.178C186.618 156.481 186.189 157.033 186.269 157.364C186.31 157.516 186.283 157.613 186.216 157.557C186.149 157.516 186.095 157.392 186.095 157.281C186.095 157.13 186.042 157.116 185.841 157.226C185.693 157.295 185.425 157.364 185.238 157.364C185.05 157.364 184.849 157.447 184.795 157.544C184.648 157.792 184.112 157.93 184.045 157.737C184.018 157.64 183.844 157.695 183.616 157.889C183.388 158.082 183.053 158.192 182.758 158.192C182.142 158.192 181.941 158.385 181.941 159.02C181.941 159.351 181.794 159.71 181.472 160.179C181.003 160.869 181.003 160.869 181.083 161.972C181.137 162.621 181.284 163.311 181.418 163.6C181.566 163.89 181.673 164.29 181.673 164.497C181.673 164.704 181.767 165.008 181.887 165.16C182.021 165.353 182.062 165.587 182.008 165.932C181.954 166.222 181.981 166.484 182.062 166.525C182.142 166.581 182.062 166.815 181.861 167.119C181.686 167.395 181.338 168.029 181.097 168.54C180.869 169.05 180.561 169.519 180.413 169.588C180.279 169.657 180.011 170.085 179.837 170.54C179.368 171.699 179.435 172.624 180.105 173.714C180.507 174.362 180.561 174.569 180.44 174.79C180.212 175.231 180.373 176.501 180.708 176.859C180.869 177.039 181.003 177.259 181.003 177.356C181.003 177.646 182.075 178.611 182.383 178.611C182.544 178.611 182.959 178.763 183.308 178.956C183.656 179.15 184.018 179.301 184.112 179.301C184.219 179.301 184.715 179.094 185.224 178.846C185.747 178.584 186.457 178.335 186.819 178.294C187.743 178.156 188.038 177.908 188.306 177.066C188.44 176.666 188.655 176.1 188.789 175.824C188.936 175.535 189.218 174.541 189.432 173.617C189.646 172.679 190.022 171.478 190.249 170.954C190.477 170.416 190.759 169.602 190.866 169.119C190.973 168.636 191.187 167.933 191.335 167.533C191.496 167.132 191.978 165.739 192.407 164.442C193.077 162.428 193.198 161.917 193.198 161.103C193.198 160.317 193.238 160.11 193.452 159.958C193.586 159.862 193.774 159.517 193.868 159.199C194.015 158.689 194.015 158.565 193.814 158.261C193.693 158.068 193.626 157.847 193.667 157.778C193.707 157.709 193.667 157.53 193.586 157.392C193.425 157.116 193.492 156.674 193.707 156.674C193.774 156.674 193.921 156.923 194.042 157.226C194.27 157.82 194.631 158.068 194.819 157.764C194.886 157.654 195.033 157.268 195.154 156.909C195.368 156.247 195.368 156.247 195.007 155.709C194.739 155.322 194.658 155.046 194.685 154.646C194.712 154.357 194.685 154.039 194.631 153.956C194.578 153.86 194.564 153.639 194.605 153.46C194.658 153.239 194.591 152.908 194.417 152.563C194.256 152.246 194.136 151.818 194.136 151.583C194.136 151.335 193.988 151.032 193.734 150.742C193.519 150.493 193.332 150.218 193.332 150.121C193.332 150.011 193.224 149.845 193.077 149.748C192.943 149.652 192.809 149.445 192.782 149.307C192.715 148.948 192.42 148.865 192.3 149.183Z" fill="#1AAB9B"/>
<path d="M181.981 149.196C181.593 149.252 181.593 149.431 181.968 149.693C182.33 149.955 182.584 149.776 182.397 149.403C182.316 149.238 182.169 149.169 181.981 149.196Z" fill="#1AAB9B"/>
<path d="M180.333 149.638C180.333 149.817 180.708 149.983 180.842 149.859C180.882 149.804 180.842 149.707 180.735 149.638C180.467 149.459 180.333 149.472 180.333 149.638Z" fill="#1AAB9B"/>
<path d="M183.456 150.811C183.456 151.018 183.523 151.156 183.63 151.156C183.737 151.156 183.817 151.059 183.817 150.949C183.817 150.838 183.898 150.742 183.992 150.742C184.099 150.742 184.085 150.687 183.951 150.604C183.616 150.383 183.456 150.452 183.456 150.811Z" fill="#1AAB9B"/>
<path d="M193.948 159.696C193.814 159.848 193.733 160.082 193.76 160.22C193.8 160.414 193.867 160.372 194.055 160.013C194.323 159.462 194.283 159.324 193.948 159.696Z" fill="#1AAB9B"/>
<path d="M178.39 160.261C178.43 160.33 178.497 160.399 178.537 160.399C178.564 160.399 178.591 160.33 178.591 160.261C178.591 160.179 178.524 160.123 178.444 160.123C178.377 160.123 178.35 160.179 178.39 160.261Z" fill="#1AAB9B"/>
<path d="M162.645 170.472C162.645 170.623 162.712 170.748 162.779 170.748C162.859 170.748 162.913 170.623 162.913 170.472C162.913 170.32 162.859 170.196 162.779 170.196C162.712 170.196 162.645 170.32 162.645 170.472Z" fill="#1AAB9B"/>
</svg>
