<svg width="240" height="240" viewBox="0 0 240 240" fill="none" xmlns="http://www.w3.org/2000/svg">
<path d="M68.5411 35.1979C68.2833 35.3521 67.7505 35.4719 67.3896 35.4719C66.6333 35.4719 66.4615 35.6603 66.7365 36.174C66.9255 36.5336 67.0115 36.5336 68.6787 36.448C69.624 36.3795 70.8099 36.2939 71.274 36.2425C72.0646 36.174 72.0302 36.1911 70.8615 36.4994C69.4005 36.8932 69.3833 36.8932 69.538 37.2871C69.624 37.4926 69.7787 37.5439 70.174 37.4583C70.4662 37.4069 70.9474 37.4583 71.274 37.5953C71.5833 37.7323 72.4427 37.8864 73.1818 37.9549C73.938 38.0234 75.0724 38.1775 75.7255 38.3145C77.2552 38.6056 78.063 38.2803 77.2552 37.6638C77.0834 37.5439 76.8599 37.2871 76.7568 37.0987C76.5849 36.8076 76.3787 36.7562 75.4677 36.7562C74.8662 36.7562 74.1958 36.6535 74.0068 36.5507C73.8005 36.4309 73.3193 36.2939 72.9412 36.2254C72.4083 36.1398 72.2708 36.0541 72.3396 35.8315C72.4599 35.3349 72.0302 35.1637 70.5005 35.0438C69.349 34.9582 68.9365 34.9924 68.5411 35.1979Z" fill="#1AAB9B"/>
<path d="M79.4709 37.5433C79.024 37.7145 78.6803 38.468 78.8178 38.9988C78.9553 39.4954 79.4709 39.6496 80.1928 39.4098C80.5022 39.3071 81.3787 39.2386 82.1522 39.2557C83.6819 39.3071 84.1975 39.1016 83.9053 38.5536C83.7334 38.2454 82.8397 38.0741 81.035 37.9885C80.6053 37.9714 80.2959 37.8858 80.2959 37.7659C80.2959 37.4748 79.935 37.372 79.4709 37.5433Z" fill="#1AAB9B"/>
<path d="M83.0642 40.2493C82.9267 40.4719 82.9267 40.7288 83.047 41.037C83.2876 41.6877 83.2876 41.6877 82.4626 41.5678C81.8095 41.4651 81.7064 41.4993 81.6204 41.8076C81.5517 42.0644 81.397 42.1501 80.9158 42.1501C80.5892 42.1501 79.9361 42.2357 79.4548 42.3384C78.7673 42.4754 78.5095 42.4583 78.0798 42.2528C77.3236 41.859 75.622 41.8932 75.3642 42.2871C75.2095 42.561 74.8657 42.6295 73.422 42.7323C72.2704 42.8008 71.497 42.9378 71.136 43.1433C70.8267 43.2974 70.311 43.4686 69.9845 43.52C69.0564 43.657 69.2626 43.9995 70.6548 44.7016C71.3595 45.044 71.9095 45.3865 71.8579 45.4893C71.8236 45.592 71.2564 45.6434 70.5001 45.6091C69.7954 45.5749 69.0907 45.5578 68.9532 45.5749C68.8157 45.592 67.7845 45.6263 66.6673 45.6605C65.5673 45.6776 64.6048 45.7461 64.5532 45.7975C64.3642 45.9859 64.8282 46.5852 65.2064 46.6366C65.447 46.6708 65.6189 46.8421 65.6876 47.116C65.7907 47.5099 65.8595 47.5442 66.5985 47.4928C67.097 47.4585 67.561 47.527 67.8704 47.6983C68.1282 47.8524 68.7814 48.1264 69.297 48.3147C69.8126 48.5031 70.2079 48.6572 70.1564 48.6572C70.1048 48.6743 69.486 48.6743 68.7814 48.6743C67.3204 48.6743 66.0657 48.5202 65.9282 48.2976C65.8767 48.212 65.5845 48.1435 65.2923 48.1435C64.9829 48.1435 64.347 47.9894 63.8485 47.801C62.886 47.4414 62.5079 47.5784 63.0063 48.1264C63.3845 48.5373 63.3501 48.7086 62.9548 48.486C62.4392 48.2291 61.3735 48.2634 61.4938 48.5545C61.6485 48.9312 62.336 49.1538 63.3157 49.1024C64.1063 49.0682 64.347 49.1196 64.7423 49.462C65.0001 49.6847 65.172 49.9244 65.1204 49.9758C65.0001 50.0785 61.1329 49.3936 60.5829 49.1709C60.3595 49.0853 60.1876 48.8627 60.1876 48.6743C60.1876 48.1092 59.8267 47.5099 59.3798 47.3044C58.7267 47.0133 58.5376 47.0818 58.9501 47.4757C59.3798 47.8524 59.311 48.1435 58.8126 48.1435C58.6235 48.1435 58.4001 48.2976 58.297 48.4689C58.1595 48.76 58.2282 48.897 58.6751 49.3251C58.9845 49.6162 59.3282 49.8559 59.4485 49.8559C59.7923 49.8559 60.1876 50.3696 60.1876 50.8491C60.2048 51.1402 60.4626 51.6026 60.8579 52.0649L61.5282 52.8012L63.5907 52.8355C65.3095 52.8697 65.722 52.9211 66.1345 53.1951C66.4095 53.3835 66.7876 53.6061 66.9767 53.7088C67.1657 53.8116 67.3376 54.0342 67.372 54.2225C67.4579 54.6849 67.7501 54.9931 68.2142 55.1815C68.7985 55.4041 68.6954 55.6781 68.0423 55.6781C67.4235 55.6781 67.011 55.3527 66.8048 54.6678C66.7189 54.4109 66.3751 54.1369 65.7392 53.8458C64.8798 53.452 64.6735 53.4177 63.8142 53.5547C63.1267 53.6574 62.8345 53.7944 62.8001 53.9999C62.7657 54.154 62.886 54.3253 63.0751 54.3938C63.3501 54.4623 63.436 54.6849 63.4876 55.387C63.5735 56.3288 63.436 56.637 62.8517 56.8939C62.6626 56.9795 62.3188 57.185 62.0782 57.3734C61.6829 57.6816 61.5454 57.6816 60.0501 57.4932C59.1735 57.3734 58.3657 57.185 58.2626 57.0823C58.1423 56.9624 57.9188 56.8768 57.747 56.8768C57.5751 56.8768 57.4376 56.7912 57.4376 56.7055C57.4376 56.4829 57.8845 56.4829 58.3313 56.7227C58.5204 56.8254 59.1048 56.9624 59.6204 57.0309C60.6173 57.1679 60.7032 57.1165 61.511 55.7637C61.9235 55.0787 61.9407 54.976 61.6657 54.6678C61.511 54.4965 61.3907 54.2568 61.4251 54.1198C61.4595 53.9999 61.1673 53.7431 60.7892 53.5376C60.411 53.3321 59.9298 52.904 59.7235 52.5786C59.5173 52.2533 59.1907 51.8423 59.0188 51.6539C58.8298 51.4656 58.6407 51.106 58.572 50.8491C58.5204 50.6094 58.0735 50.0443 57.5923 49.6162C57.111 49.1881 56.7673 48.76 56.836 48.6572C57.0079 48.3832 56.6126 47.5099 56.2688 47.3558C56.097 47.2873 55.1688 47.1503 54.1891 47.0476C52.6251 46.8763 52.3673 46.8763 52.0751 47.116C51.7829 47.3558 51.7657 47.4414 51.9548 47.8524C52.247 48.5031 51.9548 49.1024 51.2501 49.2566C50.6313 49.3936 50.5798 49.9073 51.1813 49.9929C51.5938 50.0443 52.1095 50.8491 52.1095 51.4656C52.1095 51.9622 52.5391 52.2533 53.2782 52.2533C53.5532 52.2533 53.9141 52.4074 54.086 52.5958C54.2579 52.7841 54.5673 52.9382 54.7735 52.9382C55.2204 52.9382 55.7188 53.4348 55.7188 53.8629C55.7188 54.2054 55.7188 54.2054 53.6048 53.7259C52.9516 53.5718 52.2813 53.3835 52.1095 53.2807C51.4907 52.9382 51.4391 53.1266 51.9376 53.9143C52.2298 54.3595 52.4532 54.8561 52.4532 55.0103C52.4532 55.1986 52.0751 55.524 51.4735 55.8665C50.2876 56.5514 49.1876 57.5104 49.1876 57.8529C49.1876 58.007 49.4282 58.5892 49.7032 59.1714C49.9954 59.7365 50.3735 60.7468 50.5626 61.4147C51.2845 63.9148 52.4532 69.3089 52.4532 70.1651C52.4532 70.7644 52.5391 71.124 52.7282 71.2781C53.1579 71.6206 53.9141 72.8193 54.2407 73.6413C54.4985 74.3091 54.4985 74.429 54.2579 74.7886C54.1032 75.0283 53.6563 75.2852 53.1579 75.4393C51.1126 76.0386 50.872 76.4325 51.7657 77.8195C52.4704 78.9326 53.536 79.4463 54.4813 79.1723C54.8938 79.0353 55.4266 78.6757 55.8735 78.1963L56.5954 77.4257L57.0079 77.8367C57.3345 78.162 57.4376 78.4531 57.4376 78.984C57.4376 79.3778 57.5235 80.1998 57.6266 80.7991C57.7298 81.3985 57.7642 82.306 57.6954 82.8198C57.5923 83.6588 57.5063 83.8301 56.8532 84.3609L56.1141 84.9603L54.7563 84.3952C54.0001 84.0698 53.0204 83.6075 52.5391 83.3677C51.3016 82.717 50.3563 82.6143 49.5313 83.0081L48.861 83.3335L49.2048 83.8815C49.4969 84.3267 49.5141 84.4808 49.3423 84.7719C49.1016 85.1315 48.5688 85.2514 46.6954 85.4055C45.3204 85.5254 45.0454 85.7137 44.461 86.8439C44.2376 87.272 43.8594 87.8029 43.6188 88.0426C43.2407 88.3851 43.1032 88.4193 42.8626 88.2481C42.3297 87.8714 42.1407 87.8371 41.8657 88.0597C41.6594 88.231 41.6079 88.4878 41.6766 89.1214C41.7454 89.8406 41.8485 90.0633 42.4672 90.6112C43.1376 91.2277 43.1719 91.3133 43.1719 92.2551C43.1891 92.8887 43.3094 93.4881 43.4985 93.8477L43.8079 94.4299L44.1688 93.9162C44.461 93.5052 44.7016 93.3853 45.3548 93.2997C45.9907 93.2312 46.2485 93.1113 46.6094 92.649L47.0735 92.101L47.8469 92.4606C48.5001 92.786 48.6719 92.8031 49.1704 92.6147C49.6688 92.4264 49.7548 92.4435 49.9782 92.7346C50.1157 92.9401 50.2188 93.471 50.2188 94.0532C50.2188 94.6011 50.3048 95.0977 50.3907 95.1491C50.8204 95.4231 50.4766 95.4916 49.5657 95.3375C48.9985 95.2519 48.4313 95.2347 48.2766 95.2861C47.9157 95.4231 47.8985 96.1937 48.2423 96.3307C48.586 96.4505 48.5688 96.9471 48.2251 96.9471C48.0876 96.9471 47.8126 96.8615 47.6235 96.7588C47.3657 96.6389 47.211 96.6389 47.0391 96.7759C46.7126 97.0499 47.0048 97.6321 47.4688 97.6321C47.6407 97.6321 47.8298 97.7862 47.8985 97.9575C47.9501 98.1458 48.1907 98.4027 48.4141 98.5568C48.6548 98.7109 48.8438 98.9507 48.8438 99.0877C48.8438 99.2418 48.9985 99.3445 49.2391 99.3445C49.4798 99.3445 49.686 99.4986 49.7891 99.7212C49.9094 99.9952 50.1157 100.115 50.4766 100.115C50.9407 100.132 50.9923 100.184 51.1126 100.886C51.2845 101.896 51.9548 103.471 52.1782 103.403C52.3673 103.334 52.4016 102.804 52.2641 102.17C52.2126 101.93 52.3329 101.793 52.6766 101.673C53.1235 101.519 53.2095 101.554 53.8454 102.307C54.2235 102.752 54.6532 103.112 54.7735 103.112C54.8938 103.112 55.1345 103.232 55.272 103.386C55.4782 103.591 55.5126 103.728 55.3579 104.002C55.2032 104.293 55.0657 104.328 54.5501 104.242C54.1891 104.174 53.5876 104.088 53.1923 104.037L52.4532 103.934V104.636C52.4532 105.287 52.4876 105.355 52.986 105.458C53.622 105.578 53.7595 105.852 53.5016 106.537C53.2782 107.204 53.3641 107.393 54.1032 107.872C54.722 108.283 54.911 108.609 55.3063 110.098C55.7704 111.845 55.8735 111.759 53.1923 111.811C50.9407 111.862 50.8376 111.845 50.4079 111.451C49.6344 110.749 49.136 110.475 48.586 110.475C47.8641 110.475 47.3657 110.081 47.2282 109.413C46.9188 107.907 46.9188 107.735 47.2282 107.256C47.4173 106.999 47.5891 106.52 47.6407 106.194C47.7266 105.629 47.761 105.595 48.3798 105.612C49.4626 105.646 49.0157 104.876 47.7782 104.584C47.5204 104.533 47.0391 104.139 46.6954 103.728C46.0251 102.906 46.1626 102.958 43.2235 102.615C41.6422 102.444 40.1641 101.828 38.9094 100.8C38.1704 100.201 37.2938 100.012 37.0704 100.372C36.8469 100.714 35.9704 100.543 35.386 100.029C34.4063 99.1733 33.1172 98.8993 32.4125 99.413C32.0516 99.687 32.0344 99.6527 32.8938 100.184C33.3922 100.475 33.5813 100.749 33.7704 101.365C34.0797 102.41 33.925 102.684 32.8079 103.18C32.086 103.489 31.6391 103.557 30.4532 103.54C29.6453 103.523 28.786 103.42 28.511 103.317C28.2532 103.197 27.686 103.129 27.2563 103.146C26.586 103.18 26.3969 103.112 26.0875 102.735C25.6235 102.17 24.9188 102.033 22.2031 102.016C20.2953 101.999 19.9688 102.05 19.3328 102.375C18.9375 102.598 18.5078 102.923 18.3531 103.129C18.1125 103.471 17.9922 103.489 16.9266 103.403C16.2734 103.352 15.6375 103.283 15.5 103.249C15.1563 103.18 15.0703 103.814 15.3969 104.002C16.1875 104.447 15.225 104.79 12.9734 104.858C11.9938 104.893 11.1344 104.995 11.0484 105.081C10.9797 105.184 10.8594 105.543 10.8078 105.903C10.7047 106.537 10.7219 106.571 11.4781 106.879C12.3375 107.256 12.4578 107.684 11.8734 108.266C11.6328 108.506 11.4094 108.592 11.1516 108.506C10.2234 108.215 10 108.215 10 108.455C10 108.883 10.6188 109.294 11.4094 109.396C12.2688 109.516 12.5781 109.705 12.5781 110.133C12.5781 110.304 12.7328 110.475 12.9391 110.527C13.2484 110.612 13.2656 110.664 13.0766 110.972C12.8875 111.263 12.9047 111.366 13.1625 111.657C13.4203 111.931 13.6953 112.016 14.4 112.016C15.225 112.016 15.3625 112.068 15.7063 112.53C16.05 112.992 16.1703 113.044 17.0297 113.044C17.9235 113.044 18.0094 112.992 18.2844 112.53C18.7141 111.777 19.3328 111.691 20.3813 112.273C20.8625 112.53 21.3781 112.855 21.5328 112.975C21.9453 113.352 23.3375 113.078 24.1969 112.479C24.8328 112.033 24.9875 111.999 25.4516 112.153C25.8641 112.307 26.1219 112.29 26.586 112.085C27.1188 111.879 27.1875 111.879 27.1875 112.085C27.1875 112.222 27.1016 112.393 26.9985 112.462C26.8782 112.53 26.8266 113.301 26.8266 114.568C26.8438 117.171 26.6891 118.849 26.4141 119.277C26.2766 119.482 26.0532 120.133 25.8985 120.75C25.6063 121.897 25.2453 122.719 24.9703 122.89C24.8844 122.942 24.1282 122.907 23.3031 122.805C22.4781 122.719 21.7563 122.668 21.7219 122.702C21.636 122.805 22.8219 125.305 23.0281 125.442C23.1313 125.493 23.3375 125.955 23.475 126.452C23.6125 126.949 24.0078 127.668 24.3172 128.027C24.6438 128.404 24.936 128.866 24.9703 129.055C25.0907 129.62 25.6063 129.569 25.9844 128.935C26.225 128.541 26.3282 128.079 26.3282 127.377C26.3282 126.846 26.3969 126.401 26.4828 126.401C26.7407 126.401 26.861 126.914 26.6719 127.257C26.4828 127.616 26.4485 128.781 26.6032 129.209C26.6547 129.363 26.8782 129.483 27.0844 129.483C27.6344 129.483 28.15 129.911 28.8203 130.904C29.1469 131.401 29.7657 132.257 30.1782 132.822C30.5907 133.387 30.986 134.124 31.0375 134.466C31.0891 134.791 31.2954 135.219 31.4844 135.391C31.6735 135.562 31.8282 135.802 31.8282 135.939C31.8282 136.059 32.0344 136.247 32.2922 136.35C33.3579 136.744 34.4579 138.268 34.5266 139.415C34.6297 141.504 34.75 141.983 35.4032 142.977C35.9016 143.73 36.1594 143.97 36.5375 144.004C37.2938 144.09 37.9813 144.895 38.2219 145.956C38.3422 146.538 38.5657 146.984 38.8235 147.172C39.0297 147.343 39.2188 147.583 39.2188 147.703C39.2188 147.823 39.5626 148.319 39.9922 148.816C40.4219 149.313 40.7657 149.861 40.7657 150.049C40.7657 150.237 40.9547 150.46 41.1782 150.563C41.5907 150.751 41.9688 151.367 41.9688 151.83C41.9688 151.967 41.8141 152.155 41.6251 152.258C41.1782 152.498 41.1782 153.097 41.6422 153.97C41.8313 154.347 42.0376 154.981 42.0891 155.375C42.1579 155.786 42.2954 156.282 42.4329 156.488C42.5876 156.727 42.6391 157.053 42.5704 157.429C42.4672 157.943 42.5188 158.063 42.8969 158.303C43.5672 158.748 44.186 158.662 46.111 157.823C47.0907 157.412 48.0704 157.053 48.2938 157.053C48.8094 157.053 49.7376 156.659 50.0298 156.316C50.2016 156.111 50.3391 156.077 50.5626 156.196C50.9579 156.402 51.611 156.179 52.0751 155.666C52.4876 155.238 54.7735 154.159 55.2891 154.142C55.4782 154.142 56.0454 153.953 56.561 153.713L57.4891 153.285L57.4032 152.532C57.3173 151.813 57.3345 151.761 57.9876 151.333C58.3657 151.094 59.0017 150.837 59.3798 150.785C59.7751 150.717 60.3938 150.528 60.7548 150.34C61.236 150.1 61.4767 150.066 61.7173 150.203C62.147 150.426 62.7142 150.426 62.8517 150.203C62.9204 150.1 62.8345 149.826 62.6798 149.587C62.2845 148.97 62.4563 148.713 63.3157 148.576C64.2095 148.422 64.4845 148.234 64.4845 147.737C64.4845 147.515 64.811 147.052 65.2579 146.607C66.0142 145.871 66.547 144.758 66.547 143.919C66.547 143.627 66.6501 143.525 66.9423 143.525C67.3892 143.525 67.7501 143.234 67.7501 142.857C67.7501 142.72 68.0767 142.275 68.472 141.864C69.0735 141.264 69.1767 141.025 69.1939 140.408C69.211 139.86 69.1423 139.672 68.9532 139.672C68.5235 139.672 67.7157 138.747 67.836 138.37C67.922 138.131 67.836 138.011 67.4923 137.874C67.2517 137.788 66.8735 137.702 66.6673 137.702C65.8595 137.702 65.0517 137.309 64.1923 136.521C63.4017 135.802 63.2642 135.596 63.1782 134.86C63.1095 134.398 62.9204 133.85 62.7313 133.644C62.422 133.319 62.422 133.267 62.6798 133.113C62.8345 133.028 62.9376 132.822 62.9204 132.651C62.8345 132.274 62.422 132.103 62.422 132.445C62.422 132.582 62.1985 132.959 61.9063 133.267C61.6313 133.593 61.3907 133.935 61.3907 134.038C61.3907 134.141 61.236 134.363 61.047 134.535C60.8579 134.706 60.7032 134.98 60.7032 135.134C60.7032 135.562 59.8267 136.298 58.9329 136.607C58.1938 136.863 58.1079 136.846 57.6266 136.572C57.2141 136.333 57.0595 136.298 56.8876 136.47C56.647 136.709 56.1657 136.744 55.7532 136.521C55.5985 136.435 55.3235 136.315 55.1516 136.264C54.8766 136.178 54.8595 136.024 54.9626 134.723C55.0829 133.267 55.0829 133.267 54.6188 133.062C54.3782 132.942 54.1204 132.908 54.0516 132.976C53.9829 133.045 53.9485 133.541 53.9657 134.106C53.9829 134.654 53.9313 135.151 53.8454 135.202C53.5876 135.374 53.1063 134.774 53.2095 134.398C53.261 134.158 53.1235 133.901 52.7798 133.576C52.3845 133.199 52.247 132.908 52.1782 132.274C52.1266 131.675 52.0063 131.367 51.7141 131.161C50.9407 130.579 50.2188 129.706 49.7376 128.781C48.8782 127.137 48.5688 126.692 48.1907 126.555C47.6235 126.332 47.7266 126.092 48.6719 125.51C49.1532 125.219 49.5313 124.911 49.5313 124.842C49.5313 124.568 50.2016 124.688 50.3735 124.979C50.4938 125.219 50.5798 125.236 50.786 125.065C51.0266 124.859 51.5938 124.945 51.5938 125.185C51.5938 125.236 51.9032 125.698 52.2813 126.178C52.6423 126.675 53.1923 127.634 53.4845 128.318C53.7766 129.003 54.1032 129.62 54.2235 129.688C54.3438 129.757 54.722 129.825 55.0657 129.825C55.4095 129.825 55.736 129.894 55.7876 129.98C55.9595 130.236 57.747 131.195 58.0735 131.195C58.2454 131.195 58.6407 131.349 58.9501 131.538C59.7235 132 59.9126 131.983 60.7204 131.247C61.3392 130.699 61.5282 130.613 62.2845 130.613C63.0407 130.613 63.2126 130.682 63.6423 131.161C64.0032 131.555 64.1407 131.897 64.1407 132.326C64.1407 133.165 64.897 133.832 65.8939 133.867C67.1142 133.918 69.3314 134.278 70.1564 134.569C71.0673 134.894 71.6001 134.894 73.6798 134.62C74.5392 134.5 75.4329 134.415 75.7079 134.432C75.9657 134.432 76.6189 134.466 77.1689 134.483C77.8907 134.517 78.3033 134.449 78.6298 134.226C79.4892 133.661 80.4001 133.918 80.1939 134.689C80.1079 135.082 80.1595 135.168 80.7095 135.391C81.122 135.562 81.4314 135.87 81.672 136.333C81.8611 136.709 82.2564 137.137 82.5486 137.291C82.8408 137.428 83.4251 137.874 83.8548 138.25C84.6454 138.987 85.7283 139.312 86.4501 139.055C87.0173 138.85 87.0517 139.175 86.5361 139.586C86.1923 139.843 85.9173 139.929 85.5392 139.86C85.2642 139.809 84.9033 139.843 84.7658 139.929C84.5595 140.066 84.8173 140.391 86.1236 141.641C87.0001 142.48 87.8251 143.182 87.9283 143.182C88.0486 143.182 88.5298 143.062 89.0111 142.925C89.9908 142.634 90.2658 142.189 90.1455 141.11C90.0939 140.716 90.1455 140.442 90.3173 140.305C90.5408 140.117 90.6267 140.203 90.8673 140.853C91.022 141.264 91.108 141.692 91.0392 141.795C90.9876 141.898 91.0908 142.189 91.2798 142.429C91.7095 142.977 91.7439 143.559 91.383 144.107C91.0564 144.586 91.1595 145.049 92.0533 147.549C92.483 148.765 92.672 149.552 92.672 150.237C92.672 151.076 92.7408 151.299 93.1705 151.778C93.4283 152.087 93.9095 152.84 94.2189 153.457C94.5283 154.073 94.9752 154.792 95.2158 155.049C95.6627 155.512 95.7314 155.734 96.2642 158.731C96.3673 159.245 96.5736 159.621 96.9861 160.015C97.708 160.666 99.0314 163.714 99.1689 164.964C99.2205 165.512 99.3752 165.889 99.6502 166.146C99.8736 166.351 100.063 166.676 100.063 166.831C100.063 167.224 100.561 167.498 101.317 167.498C101.85 167.498 101.936 167.43 102.211 166.728C102.366 166.283 102.761 165.735 103.088 165.478C103.431 165.204 103.672 164.861 103.672 164.639C103.672 164.433 103.758 164.211 103.844 164.159C103.947 164.091 103.981 163.902 103.93 163.714C103.844 163.457 103.913 163.389 104.239 163.389C104.91 163.389 105.133 162.978 104.892 162.207C104.617 161.248 104.652 160.341 105.064 159.142C105.356 158.286 105.391 157.977 105.236 157.601C105.15 157.344 105.064 156.779 105.064 156.351C105.064 155.922 104.978 155.238 104.875 154.827C104.566 153.679 105.081 152.772 106.044 152.772C106.285 152.772 106.405 152.618 106.491 152.241C106.577 151.778 106.645 151.727 107.006 151.813C107.539 151.95 108.227 151.402 108.485 150.631C108.588 150.306 108.88 149.878 109.138 149.672C109.395 149.484 109.636 149.158 109.688 148.953C109.739 148.73 109.945 148.559 110.152 148.525C110.375 148.491 110.736 148.131 111.063 147.617C111.63 146.744 113.606 144.895 113.967 144.895C114.088 144.895 114.363 144.706 114.586 144.466C114.93 144.124 115.016 143.884 115.016 143.131C115.016 142.446 115.102 142.138 115.325 141.932C115.497 141.761 115.703 141.641 115.789 141.641C115.875 141.641 116.081 141.504 116.253 141.35C116.528 141.11 116.614 141.093 116.717 141.281C116.821 141.453 116.958 141.47 117.164 141.333C117.336 141.247 117.766 141.213 118.127 141.247C118.935 141.367 119.656 141.196 119.656 140.888C119.656 140.733 119.794 140.682 120.069 140.733C120.292 140.785 120.533 140.733 120.585 140.631C120.653 140.528 120.86 140.442 121.031 140.442C121.272 140.442 121.375 140.288 121.41 139.809C121.444 139.295 121.53 139.158 121.805 139.158C122.355 139.158 122.956 140.596 122.991 141.966C123.008 142.994 123.077 143.182 123.678 143.953C124.039 144.415 124.366 144.843 124.383 144.86C124.417 144.895 124.675 144.792 124.967 144.621C125.621 144.244 126.222 144.466 126.617 145.22C126.858 145.699 126.858 145.751 126.531 145.922C125.861 146.282 126.274 147.104 126.978 146.83C127.425 146.658 128.027 147.429 128.422 148.679C128.766 149.706 128.783 149.98 128.611 150.528C128.353 151.402 128.371 152.172 128.663 152.412C128.8 152.532 129.35 152.583 130.055 152.549C131.086 152.498 131.275 152.429 131.602 152.035C131.791 151.778 132.083 151.573 132.255 151.573C132.478 151.573 132.547 151.419 132.547 150.888C132.547 150.032 132.96 149.775 133.441 150.357C133.613 150.58 133.75 150.871 133.75 151.025C133.75 151.179 133.956 151.504 134.197 151.761C134.541 152.121 134.678 152.481 134.781 153.32C134.85 153.919 135.039 154.707 135.211 155.083C135.4 155.512 135.469 155.957 135.4 156.351C135.314 156.864 135.383 157.018 135.744 157.31C136.139 157.635 136.174 157.772 136.191 159.21C136.225 160.597 136.26 160.786 136.569 160.923C137.067 161.128 137.119 161.659 136.689 161.95C136.225 162.276 136.208 163.2 136.655 163.748C136.981 164.142 136.981 164.159 136.586 164.844C136.311 165.324 136.174 165.854 136.139 166.557C136.105 167.567 136.105 167.584 136.552 167.533C136.913 167.498 137.222 167.704 138.064 168.56C138.631 169.159 139.233 169.862 139.371 170.153C139.508 170.427 139.835 170.872 140.075 171.146C140.436 171.523 140.556 171.865 140.677 172.944C140.763 173.663 140.814 174.451 140.814 174.673C140.797 174.896 141.021 175.324 141.296 175.632C141.571 175.941 141.966 176.711 142.172 177.345C142.464 178.201 142.653 178.526 142.997 178.68C143.255 178.8 143.788 179.211 144.183 179.605C144.596 179.999 145.283 180.427 145.73 180.581C146.452 180.821 146.572 180.821 146.933 180.598C147.225 180.41 147.328 180.17 147.328 179.725C147.328 179.143 147.157 178.886 146.228 178.15C146.005 177.978 145.953 177.567 145.953 176.095C145.953 174.519 145.885 174.143 145.541 173.372C145.3 172.892 144.922 172.362 144.699 172.208C144.458 172.053 144.235 171.779 144.183 171.608C144.131 171.403 143.942 171.266 143.753 171.266C143.53 171.266 143.341 171.094 143.238 170.769C143.1 170.409 142.894 170.221 142.396 170.067C141.296 169.742 141.003 169.536 140.694 168.885C140.539 168.543 140.178 167.892 139.886 167.447C139.611 167.002 139.319 166.385 139.267 166.077C139.181 165.7 139.027 165.512 138.752 165.443C138.46 165.375 138.253 165.118 138.03 164.536C137.652 163.577 137.755 162.926 138.477 161.556C138.838 160.888 138.906 160.529 138.906 159.262C138.906 157.909 138.941 157.738 139.285 157.498C139.491 157.344 139.852 157.224 140.058 157.224C140.419 157.224 140.453 157.292 140.419 157.943L140.367 158.662L141.21 158.799C141.794 158.885 142.189 159.056 142.464 159.347C142.688 159.587 143.049 159.793 143.272 159.793C143.53 159.793 143.736 159.947 143.856 160.221C143.96 160.46 144.131 160.649 144.235 160.649C144.321 160.649 144.406 160.957 144.406 161.334C144.406 161.882 144.475 162.019 144.716 162.019C144.888 162.019 145.163 162.241 145.317 162.532C145.558 162.926 145.747 163.046 146.177 163.046C146.555 163.063 146.933 163.252 147.363 163.628C147.982 164.159 147.999 164.211 147.81 164.793C147.569 165.598 147.758 166.642 148.153 166.642C148.549 166.642 148.789 166.454 149.03 165.991C149.133 165.786 149.339 165.615 149.477 165.615C149.786 165.615 151.11 163.954 151.11 163.56C151.11 163.132 151.419 162.943 152.296 162.806C153.327 162.652 153.533 162.515 154.358 161.454C155.063 160.529 155.063 160.495 155.097 159.09C155.114 157.344 154.942 156.419 154.53 155.871C154.341 155.649 154.203 155.272 154.203 155.049C154.203 154.57 153.825 153.782 153.447 153.474C153.292 153.337 153.172 153.063 153.172 152.823C153.172 152.532 153 152.326 152.639 152.121C152.347 151.967 151.78 151.573 151.385 151.265C151.007 150.957 150.491 150.58 150.267 150.409C149.339 149.724 148.875 149.193 148.875 148.765C148.875 148.439 148.789 148.319 148.532 148.319C148.342 148.319 148.188 148.251 148.188 148.165C148.188 148.08 148.05 147.874 147.896 147.72C147.741 147.549 147.552 146.967 147.466 146.402C147.328 145.408 147.346 145.34 147.844 144.775C148.205 144.381 148.36 144.021 148.36 143.61C148.36 143.114 148.428 143.011 148.738 143.011C148.944 143.011 149.305 142.823 149.546 142.6C150.199 142.018 151.385 141.59 151.797 141.812C151.969 141.898 152.296 141.966 152.519 141.932C152.88 141.898 152.914 141.949 152.863 142.531C152.811 143.148 153.052 143.833 153.413 144.073C153.722 144.278 154.496 144.227 154.702 143.97C154.822 143.833 154.857 143.439 154.788 142.96C154.633 141.864 154.857 141.641 156.077 141.641C156.661 141.641 157.332 141.504 157.796 141.299C158.208 141.11 158.638 140.956 158.775 140.956C158.896 140.956 159.136 140.768 159.291 140.528C159.532 140.168 159.652 140.117 160.288 140.203C161.044 140.305 161.732 140.066 162.608 139.398C162.832 139.209 163.278 139.072 163.605 139.072C164.052 139.072 164.224 138.987 164.327 138.679C164.413 138.473 164.877 137.976 165.358 137.565C165.839 137.154 166.235 136.709 166.235 136.572C166.235 136.435 166.51 136.161 166.836 135.973C167.249 135.716 167.438 135.493 167.438 135.202C167.438 134.963 167.61 134.689 167.85 134.535C168.246 134.278 168.263 134.158 168.28 132.651C168.28 131.606 168.366 130.87 168.521 130.562C168.658 130.305 168.813 129.86 168.882 129.603C168.95 129.312 169.157 129.072 169.414 128.969C169.638 128.884 169.878 128.627 169.913 128.421C170.067 127.634 170.188 125.75 170.085 125.493C170.016 125.322 169.621 125.202 168.796 125.116C167.489 124.979 167.335 124.757 168.314 124.431C168.761 124.277 168.916 124.123 168.95 123.763C168.985 123.507 168.933 123.198 168.847 123.096C168.761 122.976 168.641 122.548 168.572 122.137C168.417 121.143 168.194 120.75 167.764 120.75C166.939 120.75 166.063 120.03 165.444 118.849C164.653 117.342 163.846 116.434 162.986 116.04C161.886 115.561 161.886 115.441 163.192 113.147C163.502 112.581 163.708 112.444 164.344 112.29C164.928 112.153 165.169 111.982 165.341 111.622C165.702 110.869 165.496 110.578 164.705 110.715C164.258 110.783 163.863 110.732 163.553 110.561C162.625 110.081 161.199 110.321 161.027 110.972C160.975 111.177 160.821 111.331 160.666 111.331C160.322 111.331 159.067 110.218 158.93 109.773C158.861 109.55 158.655 109.448 158.311 109.448C157.692 109.448 156.266 108.369 156.266 107.907C156.266 107.667 156.438 107.615 157.332 107.598C158.053 107.581 158.466 107.496 158.655 107.307C158.913 107.05 158.913 107.016 158.638 106.811C158.208 106.502 158.242 106.314 158.827 105.886C159.102 105.68 159.411 105.269 159.514 104.961C159.669 104.482 159.841 104.345 160.477 104.156C161.353 103.9 161.594 104.002 162.024 104.824C162.23 105.235 162.23 105.338 161.921 105.852C161.628 106.314 161.594 106.485 161.766 106.896C161.886 107.153 161.921 107.598 161.852 107.889C161.663 108.797 162.264 108.557 163.141 107.376C163.313 107.136 163.828 106.793 164.292 106.622C165.014 106.348 165.238 106.331 166.407 106.52C167.111 106.639 167.816 106.811 167.971 106.896C168.383 107.102 168.503 107.787 168.297 108.643C168.16 109.157 168.16 109.516 168.28 109.842C168.452 110.304 168.503 110.321 169.621 110.287C171.082 110.235 171.803 110.527 171.872 111.229C171.907 111.503 171.855 111.794 171.752 111.896C171.408 112.239 171.546 112.838 172.061 113.198C172.577 113.575 172.938 114.568 172.938 115.664C172.938 117.102 173.436 118.01 174.227 118.01C174.76 118.01 174.88 117.804 174.657 117.239C174.261 116.212 174.811 115.801 176.805 115.63C177.871 115.544 178.025 115.475 178.214 115.099C178.489 114.499 178.249 113.472 177.682 112.89C177.441 112.633 177.235 112.307 177.235 112.17C177.235 112.033 176.358 111.057 175.292 109.996C173.814 108.54 173.23 108.078 172.886 108.078C172.388 108.078 172.147 107.804 172.216 107.341C172.25 107.153 172.164 107.05 171.924 107.05C171.735 107.05 171.477 106.879 171.374 106.674C171.202 106.348 171.219 106.263 171.563 106.04C171.786 105.886 172.216 105.526 172.525 105.218C173.213 104.584 173.299 103.831 172.766 103.026C172.353 102.41 172.336 101.982 172.697 101.845C172.852 101.776 172.938 101.622 172.869 101.485C172.817 101.348 172.869 101.228 172.989 101.228C173.11 101.228 173.282 100.988 173.367 100.68C173.471 100.389 173.694 100.047 173.883 99.9267C174.175 99.7384 174.33 99.7726 174.983 100.201C176.203 101.023 177.046 100.886 178.369 99.6527C178.85 99.2075 178.902 99.0705 178.833 98.4198C178.764 97.9232 178.833 97.5465 179.005 97.2725C179.142 97.0499 179.314 96.5875 179.383 96.2622C179.435 95.9368 179.624 95.3375 179.761 94.9265C179.985 94.31 180.002 94.0189 179.83 93.0086C179.555 91.3476 179.589 90.9537 180.019 90.4914C180.328 90.1489 180.363 90.029 180.191 89.7893C180.088 89.6352 179.744 89.0016 179.469 88.3851C179.177 87.7686 178.678 86.998 178.369 86.6727C177.664 85.9535 177.321 85.2856 177.046 84.1726C176.908 83.5732 176.65 83.1451 176.135 82.6485C175.757 82.2718 175.172 81.604 174.88 81.1416C174.536 80.6621 174.192 80.3368 174.003 80.3368C173.814 80.3368 173.419 80.1655 173.092 79.9429C172.405 79.4806 170.446 78.8299 169.861 78.8641C169.466 78.8812 169.277 79.0867 169.088 79.6861C168.95 80.1655 168.417 80.0457 168.091 79.4806C167.85 79.0696 167.678 78.9669 167.214 78.9669C166.802 78.9669 166.51 78.8299 166.149 78.4531C165.685 77.9737 165.564 77.9394 164.464 77.9394C163.313 77.9394 163.278 77.9223 163.382 77.5456C163.433 77.3401 163.485 77.0318 163.485 76.8777C163.485 76.6893 163.725 76.4667 164.086 76.3297C164.533 76.1414 164.688 75.9701 164.688 75.679C164.688 75.4564 164.757 75.1824 164.842 75.0454C164.946 74.8913 164.928 74.6858 164.825 74.5146C164.567 74.1207 164.774 73.6584 165.203 73.6584C165.427 73.6584 165.547 73.5385 165.547 73.3159C165.547 73.1275 165.633 72.8193 165.753 72.6309C165.908 72.3741 165.908 72.22 165.736 71.8946C165.547 71.5521 165.564 71.3809 165.839 70.8158L166.149 70.1479H168.555C169.878 70.1308 171.064 70.0794 171.185 69.9938C171.305 69.9253 171.563 69.9253 171.786 70.011C171.992 70.0794 172.56 70.1479 173.024 70.1651C173.505 70.1822 174.038 70.2164 174.227 70.2507C174.502 70.3021 174.553 70.2336 174.519 69.9596C174.502 69.7541 174.588 69.4972 174.725 69.3945C174.949 69.2061 175.103 69.2404 175.585 69.5486C176.083 69.8397 176.341 69.8911 176.994 69.7883C177.888 69.6513 178.317 69.9425 178.146 70.576C178.06 70.8843 178.146 70.9185 178.85 70.9185C179.297 70.9185 179.796 70.85 179.967 70.7644C180.139 70.6617 180.363 70.6617 180.5 70.7473C180.672 70.85 180.861 70.8158 181.05 70.6274C181.239 70.4733 181.721 70.3534 182.339 70.3363C183.113 70.3192 183.353 70.2507 183.388 70.0281C183.439 69.737 183.044 69.6 181.703 69.5144C181.188 69.463 181.102 69.3945 181.05 68.9835C181.016 68.7095 181.085 68.3842 181.222 68.23C181.36 68.0588 181.428 67.5965 181.377 66.8772L181.325 65.7813H182.168C182.614 65.7984 183.439 65.7471 183.972 65.6786C184.935 65.5758 184.952 65.5929 185.674 66.2779C186.086 66.6718 186.585 66.98 186.791 66.98C186.997 66.98 187.203 67.0999 187.272 67.2369C187.427 67.665 188.046 67.5451 188.269 67.0142C188.389 66.7574 188.613 66.3635 188.785 66.1409C189.214 65.5758 189.18 65.4902 188.407 65.0963C188.028 64.908 187.719 64.6854 187.719 64.5997C187.719 64.4285 189.06 64.1888 189.283 64.3429C189.369 64.3943 189.747 64.8395 190.125 65.319C190.503 65.8156 190.985 66.4149 191.191 66.6718L191.569 67.1512L191.174 67.5622C190.693 68.0588 190.486 69.0178 190.469 70.6274C190.469 72.0658 190.28 72.4597 189.61 72.4597C189.043 72.4597 189.008 72.5111 189.266 72.9734C189.369 73.1618 189.472 73.6413 189.489 74.0351C189.558 75.0968 190.778 76.5866 193.253 78.5559C194.371 79.4463 195.453 80.4395 195.66 80.7649C195.883 81.0902 196.536 81.6211 197.155 81.9636C197.791 82.3403 198.822 83.1794 199.613 84.0013C201.16 85.5939 201.349 85.5767 201.263 83.8301C201.211 83.0081 201.091 82.6485 200.73 82.1691C200.472 81.8266 200.266 81.5183 200.266 81.467C200.266 81.4327 200.472 81.3642 200.747 81.33C201.435 81.2615 201.486 80.4738 200.85 79.8059C200.249 79.1723 200.386 78.8299 201.332 78.7614C202.294 78.6929 202.414 78.2476 201.607 77.8367C201.297 77.6825 200.678 77.2373 200.232 76.8435C199.372 76.1243 199.389 75.8845 200.318 75.8845C200.593 75.8845 200.833 75.7646 200.902 75.6105C201.039 75.2509 200.146 74.5317 199.544 74.5146C199.235 74.5146 198.96 74.3433 198.685 73.9837C197.791 72.7851 197.172 72.2542 196.811 72.3398C196.021 72.5453 194.766 71.6891 194.766 70.9357C194.766 70.6959 194.543 70.2849 194.25 69.9767C193.649 69.3602 193.683 68.7438 194.319 68.9493C195.196 69.2404 195.539 69.1376 195.711 68.5554C195.918 67.8533 196.45 67.8533 196.794 68.5554C197.103 69.2061 197.43 69.1547 197.808 68.3842C198.049 67.9047 198.238 67.7334 198.616 67.6992C199.578 67.5793 200.61 67.8533 201.177 68.3328C201.761 68.8294 202.758 69.1376 202.93 68.8636C202.982 68.778 202.913 68.4698 202.758 68.1787C202.518 67.7163 202.518 67.6478 202.758 67.5622C202.896 67.5108 203.016 67.2711 203.016 67.0314C203.016 66.3293 203.325 65.9525 203.893 65.9525C204.271 65.9525 204.443 65.8498 204.563 65.5416C204.649 65.3018 204.872 65.0278 205.078 64.9251C205.268 64.8224 205.422 64.5826 205.422 64.4114C205.422 64.0518 205.835 63.949 206.024 64.2401C206.075 64.3258 206.488 64.4114 206.935 64.4114C207.382 64.4114 208 64.4799 208.293 64.5655C208.602 64.6511 209.066 64.6682 209.324 64.5997C209.788 64.4799 209.702 64.3943 207.485 62.7503C204.735 60.7126 199.441 57.1336 195.368 54.565L192.446 52.7156L190.469 52.6985C188.871 52.6814 188.372 52.6129 187.891 52.356C187.238 51.9964 185.88 51.9622 184.178 52.219C183.577 52.3218 183.061 52.2875 182.563 52.1505C181.6 51.8594 179.761 51.7909 179.692 52.0307C179.572 52.356 180.38 52.767 181.102 52.767C181.91 52.767 182.563 53.1609 182.563 53.6403C182.563 54.0684 181.978 54.0684 181.102 53.6232C180.724 53.4348 180.122 53.2807 179.761 53.2807C179.4 53.2807 178.799 53.1095 178.421 52.8869C177.836 52.5615 177.75 52.4588 177.853 52.0478C177.939 51.6368 177.905 51.5854 177.63 51.6882C177.458 51.7396 177.097 51.9793 176.839 52.2019C176.255 52.6643 176.221 52.6643 173.213 52.3218C171.46 52.1163 170.721 52.0992 170.325 52.2362C170.033 52.3389 169.294 52.4245 168.71 52.4245C167.713 52.4245 167.558 52.3731 166.974 51.8423C166.046 51.0375 165.822 50.9518 163.639 50.4895C161.027 49.9244 157.778 49.7703 156.747 50.1299C155.853 50.4552 154.771 50.3696 153.688 49.873C153.258 49.6847 152.639 49.5134 152.313 49.5134C151.986 49.5134 151.264 49.3936 150.732 49.2737C150.199 49.1367 149.717 49.0682 149.666 49.1196C149.632 49.1709 149.494 49.1538 149.391 49.0853C149.253 48.9997 149.253 48.897 149.408 48.7257C149.511 48.5887 149.58 48.4517 149.546 48.4175C149.511 48.3661 148.892 48.2634 148.171 48.1606C147.466 48.0579 146.744 47.938 146.589 47.8695C146.366 47.7839 146.228 47.9209 146.039 48.3832C145.73 49.1024 145.18 49.2566 145.3 48.5716C145.438 47.8866 145.06 47.7325 143.066 47.6811C142.052 47.6469 140.385 47.5099 139.336 47.3558C137.549 47.116 137.428 47.116 137.222 47.4072C137.102 47.5784 136.861 47.6983 136.672 47.664C136.5 47.6298 136.311 47.6983 136.242 47.801C136.071 48.0921 136.483 48.486 136.981 48.486C137.222 48.486 137.583 48.6743 137.806 48.9312L138.219 49.3593L135.692 49.3079C134.283 49.2908 132.719 49.3251 132.203 49.4107C131.344 49.5305 131.138 49.5134 130.347 49.1024C129.866 48.8627 129.419 48.6572 129.367 48.6572C129.178 48.6572 129.299 49.0682 129.574 49.3764C129.814 49.6504 129.831 49.7189 129.608 49.9415C129.247 50.3011 127.047 50.01 126.428 49.5305C126.171 49.3422 125.844 49.1709 125.706 49.1709C125.552 49.1709 124.933 48.9141 124.314 48.6058C123.386 48.1606 122.991 48.0579 122.114 48.075C120.774 48.0921 120.499 47.7496 121.547 47.3387C122.561 46.9448 122.406 46.551 121.203 46.414C120.688 46.3626 120.121 46.2598 119.966 46.1913C119.811 46.1229 119.485 46.1742 119.227 46.2941C118.849 46.4996 118.591 46.4825 117.199 46.14C115.721 45.7632 114.844 45.7461 114.844 46.0544C114.844 46.2427 115.978 46.7736 116.356 46.7736C116.735 46.7736 117.388 47.2188 117.233 47.3558C117.181 47.4243 116.717 47.3558 116.202 47.2359C115.686 47.0989 114.242 46.9962 112.988 46.9791C110.822 46.9448 110.65 46.9106 109.67 46.4311C108.708 45.9687 108.519 45.9345 106.37 45.9002C104.892 45.8831 103.947 45.9345 103.706 46.0715C103.38 46.2427 103.242 46.2085 102.744 45.8317C102.091 45.3351 101.902 45.3009 101.61 45.6605C101.317 46.0201 100.699 45.9859 100.183 45.5749C99.6158 45.1297 98.172 45.2666 98.172 45.7632C98.172 45.9174 98.3095 46.1057 98.4814 46.14C98.6705 46.1913 98.6189 46.2256 98.3267 46.2427C98.0689 46.2427 97.5361 46.3797 97.1408 46.5167C96.0752 46.8934 95.7314 46.8592 95.8002 46.3968C95.8345 46.1742 95.9892 45.9859 96.1955 45.9516C96.3845 45.9174 96.7798 45.6605 97.0548 45.3865C97.347 45.1297 97.8455 44.8043 98.172 44.6844C99.547 44.2221 100.235 43.5714 99.7017 43.2631C99.6158 43.1946 99.4611 42.9549 99.3752 42.7494C99.2549 42.4412 99.0486 42.3213 98.5674 42.2357C98.2064 42.1843 97.2955 41.9446 96.5392 41.722C95.0439 41.2425 93.858 41.1911 91.8986 41.4822C89.8361 41.7905 89.8361 41.7905 89.8876 41.2254C89.9564 40.7288 89.9564 40.7288 89.183 40.8315C88.083 40.9856 87.172 40.7973 87.0173 40.3863C86.897 40.078 86.6908 40.0438 85.058 39.9753C83.3736 39.9068 83.2361 39.9239 83.0642 40.2493ZM61.7688 93.0086C61.8892 93.197 62.0782 93.3511 62.1985 93.3511C62.3188 93.3511 62.4907 93.197 62.5938 93.0086C62.697 92.8202 62.886 92.6661 63.0235 92.6661C63.3329 92.6661 63.3329 92.8031 63.0235 93.3511C62.5767 94.1217 62.697 94.8238 63.3501 95.3204C64.1579 95.9197 64.2267 96.2108 63.6938 96.6903C63.3329 97.0156 63.2642 97.2211 63.2985 97.8718C63.3329 98.2999 63.3157 98.6767 63.2642 98.7109C63.2298 98.7623 62.8688 98.8308 62.4907 98.8993C61.9235 98.9849 61.7517 98.9507 61.6657 98.728C61.5798 98.5054 61.3907 98.4712 60.6173 98.5739C59.6892 98.6767 59.672 98.6767 59.672 98.2486C59.672 97.9917 59.5345 97.7348 59.3282 97.6321C59.0017 97.4609 58.9673 97.3067 59.0188 96.0396L59.0704 94.6354L59.5688 94.584C59.8782 94.5498 60.0845 94.3957 60.136 94.1902C60.1876 94.0189 60.3767 93.8648 60.5657 93.8648C60.8235 93.8648 60.8751 93.7792 60.7892 93.5223C60.6688 93.1285 60.961 92.6661 61.322 92.6661C61.4595 92.6661 61.6485 92.8202 61.7688 93.0086Z" fill="#1AAB9B"/>
<path d="M76.5318 40.4208C76.4115 40.5064 76.3599 40.6606 76.4115 40.7633C76.549 40.9859 77.2021 40.7119 77.2021 40.4379C77.2021 40.2325 76.8584 40.2153 76.5318 40.4208Z" fill="#1AAB9B"/>
<path d="M126.086 42.2353C126.017 42.3723 126.189 42.7661 126.429 43.0915C126.825 43.5881 126.997 43.6908 127.547 43.6908C127.925 43.6908 128.389 43.8278 128.612 43.999C129.265 44.4956 129.557 44.547 130.52 44.3073C131.981 43.9305 133.356 43.8278 133.975 44.0162C134.576 44.2217 135.831 43.9134 135.951 43.5367C136.054 43.2113 135.625 42.8175 135.229 42.8689C134.542 42.9545 131.259 42.475 130.606 42.201C129.884 41.8928 129.626 42.0127 129.936 42.4921C130.193 42.9202 130.211 42.9202 128.836 42.4065C127.529 41.9099 126.24 41.8414 126.086 42.2353Z" fill="#1AAB9B"/>
<path d="M124.47 42.7497C124.47 43.0408 124.848 43.5203 125.088 43.5203C125.518 43.5203 125.312 42.7668 124.865 42.6983C124.642 42.6641 124.47 42.6812 124.47 42.7497Z" fill="#1AAB9B"/>
<path d="M137.016 43.3482C137.016 43.6735 137.548 43.8619 138.494 43.8619C139.181 43.8619 139.817 43.9818 140.298 44.2044C141.158 44.5811 142.842 44.6667 143.169 44.3414C143.616 43.8962 143.392 43.6907 142.447 43.6907C141.948 43.6907 141.261 43.5708 140.917 43.4338C140.333 43.1941 137.016 43.1084 137.016 43.3482Z" fill="#1AAB9B"/>
<path d="M133.235 45.1469C133.235 45.3353 133.424 45.4038 133.888 45.4038C134.49 45.3867 134.507 45.3696 134.198 45.1469C133.751 44.8216 133.235 44.8216 133.235 45.1469Z" fill="#1AAB9B"/>
<path d="M134.867 45.9168C134.695 46.1052 134.592 46.2936 134.627 46.3278C134.661 46.3621 135.469 46.4819 136.397 46.5847C137.342 46.6874 138.288 46.8244 138.528 46.8929C138.855 46.9614 138.924 46.9272 138.872 46.6874C138.803 46.3278 137.463 45.8483 136.088 45.6771C135.314 45.5744 135.142 45.6086 134.867 45.9168Z" fill="#1AAB9B"/>
<path d="M178.403 51.9274C177.991 52.1671 178.025 52.3555 178.472 52.4925C178.988 52.6124 179.28 52.3213 178.953 51.9959C178.764 51.8247 178.61 51.8075 178.403 51.9274Z" fill="#1AAB9B"/>
<path d="M206.798 77.7168C206.798 77.9394 207.709 78.7957 207.949 78.7957C208.413 78.7957 208.156 78.3333 207.451 77.8881C206.935 77.5798 206.798 77.5285 206.798 77.7168Z" fill="#1AAB9B"/>
<path d="M209.547 78.1793C209.547 78.4191 210.166 78.967 210.458 78.967C210.527 78.967 210.423 78.7273 210.2 78.4533C209.788 77.8882 209.547 77.8026 209.547 78.1793Z" fill="#1AAB9B"/>
<path d="M174.553 78.8814C174.484 79.0526 174.605 79.3266 174.88 79.6177C175.206 79.9431 175.309 80.1999 175.223 80.4739C175.155 80.7821 175.395 81.1246 176.478 82.2719C177.2 83.0425 178.111 83.8816 178.489 84.1385C179.159 84.6008 180.311 86.1933 180.328 86.6557C180.328 86.7756 180.638 87.1694 181.016 87.5119C181.445 87.9058 181.875 88.5222 182.133 89.1558C182.459 89.9949 182.631 90.2004 183.044 90.3031C183.473 90.423 183.559 90.5429 183.663 91.108C183.714 91.4847 184.023 92.1354 184.367 92.5635C184.694 93.0087 184.969 93.454 184.969 93.591C184.969 93.8992 185.536 94.3787 185.88 94.3787C186.069 94.3787 186.172 94.2417 186.172 93.9506C186.172 93.454 186.43 93.4026 187.323 93.7279C187.736 93.8821 187.942 93.8821 188.08 93.7451C188.217 93.6081 188.097 93.454 187.616 93.2142C186.584 92.6834 184.625 90.8169 184.625 90.3545C184.625 90.149 184.47 89.7723 184.281 89.5325C183.869 89.0188 183.852 88.7962 184.195 88.6592C184.573 88.5222 185.209 88.8133 185.691 89.3271C185.966 89.6182 186.206 89.738 186.395 89.6524C186.825 89.4983 186.756 89.3099 186.138 88.8818C185.828 88.6763 185.175 88.1284 184.677 87.666C184.195 87.2208 183.697 86.8441 183.577 86.8441C183.13 86.8441 182.253 85.9707 181.72 84.9775C181.273 84.1213 181.05 83.8987 180.655 83.8131C180.38 83.7617 180.07 83.5734 179.967 83.4021C179.881 83.2138 179.692 83.0768 179.572 83.0768C179.434 83.0768 179.159 82.7343 178.953 82.3062C178.575 81.5185 177.131 80.1657 176.667 80.1657C176.513 80.1657 176.22 79.9431 175.997 79.6691C175.773 79.4122 175.395 79.0526 175.138 78.8814C174.691 78.6074 174.656 78.6074 174.553 78.8814Z" fill="#1AAB9B"/>
<path d="M220.616 81.8952C220.496 82.1179 220.84 82.3918 221.235 82.3918C221.527 82.3918 222.043 82.1007 221.922 81.998C221.699 81.8096 220.719 81.7411 220.616 81.8952Z" fill="#1AAB9B"/>
<path d="M222.781 82.6483C222.781 82.9565 223.194 83.162 223.452 83.0079C223.727 82.8367 223.469 82.3914 223.108 82.3914C222.936 82.3914 222.781 82.5113 222.781 82.6483Z" fill="#1AAB9B"/>
<path d="M229.587 83.539C229.398 83.7274 229.484 83.9329 229.742 83.9329C229.88 83.9329 230 83.8644 230 83.7787C230 83.5561 229.725 83.402 229.587 83.539Z" fill="#1AAB9B"/>
<path d="M199.286 85.2511C199.011 85.3538 198.994 85.8162 199.235 85.8162C199.424 85.8162 199.682 85.3367 199.561 85.2339C199.527 85.1997 199.39 85.2168 199.286 85.2511Z" fill="#1AAB9B"/>
<path d="M200.044 85.9023C199.683 86.2619 199.511 86.8441 199.7 87.0325C200.009 87.3407 200.783 86.8955 200.783 86.4331C200.783 85.8509 200.387 85.5598 200.044 85.9023Z" fill="#1AAB9B"/>
<path d="M200.198 87.8369C200.146 87.9396 200.18 88.0766 200.283 88.128C200.541 88.2992 200.713 88.0766 200.49 87.854C200.369 87.7341 200.266 87.7341 200.198 87.8369Z" fill="#1AAB9B"/>
<path d="M197.756 94.6527C197.567 94.9267 197.516 95.1321 197.636 95.252C197.877 95.4917 198.375 95.252 198.375 94.8753C198.375 94.704 198.461 94.5499 198.547 94.5499C198.65 94.5499 198.719 94.4643 198.719 94.3787C198.719 94.0362 198.031 94.2246 197.756 94.6527Z" fill="#1AAB9B"/>
<path d="M195.522 96.0222C195.213 96.4675 195.127 97.3579 195.35 97.5805C195.539 97.7689 196.055 97.375 196.106 96.9983C196.141 96.7928 196.313 96.5017 196.502 96.3305C196.983 95.9024 196.914 95.577 196.313 95.577C195.952 95.577 195.711 95.714 195.522 96.0222Z" fill="#1AAB9B"/>
<path d="M186.516 96.0051C186.327 96.2277 186.396 96.3647 186.929 96.8442C187.324 97.238 187.548 97.5976 187.548 97.8716C187.548 98.1114 187.634 98.3169 187.72 98.3169C187.909 98.3169 188.166 98.8648 188.27 99.447C188.304 99.6697 188.218 99.7724 187.96 99.7895C187.341 99.8238 187.187 100.012 187.393 100.406C187.548 100.68 187.513 100.851 187.221 101.245C187.015 101.502 186.86 101.827 186.86 101.964C186.86 102.29 187.221 102.598 187.599 102.598C187.771 102.598 188.132 102.838 188.39 103.112C188.82 103.591 188.888 103.625 189.456 103.437C189.782 103.317 190.109 103.163 190.195 103.094C190.435 102.889 189.834 102.307 189.181 102.084C188.648 101.913 188.287 101.468 188.493 101.262C188.545 101.211 188.785 101.262 189.026 101.382C189.404 101.553 189.541 101.536 189.782 101.314C190.195 100.937 190.435 100.988 191.226 101.622C192.738 102.855 193.22 102.872 193.22 101.69C193.22 100.834 193.409 100.594 194.165 100.509C194.543 100.474 194.698 100.355 194.732 100.064C194.766 99.8409 194.715 99.5669 194.612 99.447C194.509 99.3272 194.474 98.9847 194.526 98.6936C194.663 97.9915 194.491 97.5291 194.199 97.7689C194.079 97.8716 193.46 98.0086 192.841 98.0771C191.793 98.1799 191.604 98.1456 190.573 97.6661C189.937 97.375 188.991 96.8271 188.459 96.4332C187.445 95.714 186.877 95.577 186.516 96.0051Z" fill="#1AAB9B"/>
<path d="M190.297 103.693C189.97 103.813 189.695 104.001 189.695 104.121C189.695 104.224 189.575 104.395 189.437 104.481C189.231 104.601 189.231 104.686 189.403 104.858C189.506 104.96 189.609 105.388 189.609 105.765C189.609 106.467 189.987 107.05 190.417 107.05C190.623 107.05 190.812 108.248 190.829 109.67C190.847 110.354 190.761 110.765 190.572 110.971C190.417 111.142 190.297 111.365 190.297 111.468C190.297 111.742 189.626 112.067 189.317 111.947C189.162 111.879 189.093 111.707 189.145 111.502C189.248 111.125 188.956 110.971 188.543 111.194C188.32 111.296 188.234 111.553 188.234 112.033C188.234 112.409 188.114 112.992 187.976 113.317C187.839 113.659 187.77 114.122 187.822 114.344C187.942 114.824 187.908 114.841 187.134 114.481C186.601 114.225 186.395 114.207 185.192 114.43C183.886 114.653 183.817 114.687 182.906 115.629C182.39 116.177 181.806 116.639 181.634 116.673C181.204 116.742 181.118 116.999 181.411 117.392C181.754 117.855 183.611 117.923 184.178 117.478C184.401 117.307 184.745 117.153 184.934 117.153C185.106 117.153 185.45 117.016 185.673 116.827C185.948 116.622 186.481 116.485 187.34 116.434L188.578 116.348V117.067C188.578 117.803 188.836 118.18 189.506 118.42C189.884 118.557 190.64 118.112 190.64 117.752C190.64 117.632 190.778 117.392 190.933 117.221C191.208 116.947 191.19 116.913 190.743 116.553C190.468 116.331 190.314 116.074 190.365 115.971C190.572 115.646 191.104 115.766 191.397 116.228C191.689 116.639 191.74 116.656 192.926 116.536C194.233 116.416 194.731 116.194 194.422 115.886C193.906 115.372 194.576 114.875 195.126 115.372C195.47 115.68 195.487 115.68 195.814 115.286C196.243 114.755 196.226 114.362 195.711 113.762C195.436 113.437 195.195 112.855 195.092 112.238C194.989 111.69 194.8 110.988 194.662 110.663C194.439 110.149 194.456 110.046 194.697 109.772C194.954 109.481 194.954 109.396 194.593 108.471C193.872 106.656 193.442 105.936 192.72 105.371C192.342 105.063 191.878 104.823 191.723 104.858C191.465 104.892 191.414 104.789 191.414 104.224C191.414 103.453 191.225 103.351 190.297 103.693Z" fill="#1AAB9B"/>
<path d="M23.4066 114.499C23.2863 114.636 22.9426 114.756 22.6332 114.756C22.0144 114.756 21.4129 115.287 21.5676 115.697C21.6363 115.869 21.8941 115.954 22.341 115.954C23.6129 115.954 25.1082 114.43 23.991 114.276C23.8019 114.242 23.5269 114.345 23.4066 114.499Z" fill="#1AAB9B"/>
<path d="M186.069 117.41C186 117.564 185.742 117.667 185.416 117.667C184.969 117.667 184.831 117.77 184.591 118.318C184.333 118.866 184.316 119.054 184.488 119.516C184.831 120.39 185.983 120.492 185.76 119.636C185.605 119.02 186.017 118.797 186.774 119.054C187.513 119.328 187.719 119.14 187.719 118.129C187.719 117.598 187.65 117.461 187.272 117.324C186.636 117.085 186.172 117.119 186.069 117.41Z" fill="#1AAB9B"/>
<path d="M180.535 118.489C180.174 118.797 180.037 119.02 180.14 119.122C180.226 119.225 180.329 119.482 180.363 119.722C180.432 120.321 180.93 120.355 181.223 119.773C181.48 119.225 181.996 119.139 182.288 119.585C182.426 119.807 182.426 119.979 182.271 120.218C182.134 120.424 182.134 120.595 182.254 120.715C182.357 120.818 182.357 120.989 182.202 121.212C182.03 121.503 182.048 121.622 182.271 121.965C182.443 122.188 182.563 122.496 182.563 122.667C182.563 122.958 183.182 123.489 183.509 123.489C183.715 123.472 184.454 122.359 184.454 122.033C184.454 121.896 184.368 121.742 184.265 121.691C184.162 121.622 184.093 121.177 184.11 120.681C184.144 119.431 184.162 119.465 183.663 118.883C183.337 118.489 183.079 118.352 182.649 118.352C182.323 118.352 182.013 118.266 181.962 118.181C181.773 117.872 181.119 118.009 180.535 118.489Z" fill="#1AAB9B"/>
<path d="M174.658 118.608C174.537 118.745 174.469 118.916 174.52 118.951C174.675 119.122 175.706 118.814 175.637 118.625C175.534 118.317 174.916 118.317 174.658 118.608Z" fill="#1AAB9B"/>
<path d="M183.577 124.619C183.388 124.859 183.405 124.876 183.766 124.825C183.99 124.808 184.196 124.671 184.247 124.551C184.333 124.26 183.852 124.294 183.577 124.619Z" fill="#1AAB9B"/>
<path d="M182.736 128.627C182.134 129.226 182.323 129.432 183.217 129.209C183.647 129.089 183.733 128.541 183.337 128.387C183.183 128.336 182.925 128.439 182.736 128.627Z" fill="#1AAB9B"/>
<path d="M61.3393 131.161C61.0643 131.469 61.0643 131.504 61.3221 131.709C61.6659 132 62.1643 131.743 62.1643 131.264C62.1643 130.819 61.7002 130.767 61.3393 131.161Z" fill="#1AAB9B"/>
<path d="M181.463 131.915C181.274 132.189 181.24 132.343 181.394 132.514C181.652 132.84 181.876 132.788 181.876 132.411C181.876 132.24 181.996 132.035 182.151 131.983C182.288 131.932 182.357 131.812 182.305 131.709C182.133 131.418 181.738 131.521 181.463 131.915Z" fill="#1AAB9B"/>
<path d="M52.625 132.291C52.625 132.428 52.6938 132.582 52.7797 132.634C52.9516 132.753 53.175 132.308 53.0203 132.154C52.8313 131.966 52.625 132.051 52.625 132.291Z" fill="#1AAB9B"/>
<path d="M171.013 134.911C170.497 135.527 169.981 137.359 170.05 138.318C170.136 139.329 170.91 140.664 171.356 140.579C171.494 140.544 171.7 140.168 171.82 139.705C171.941 139.243 172.113 138.798 172.233 138.678C172.508 138.404 172.474 137.941 172.147 137.616C171.906 137.394 171.889 137.257 172.061 136.914C172.663 135.595 171.82 133.969 171.013 134.911Z" fill="#1AAB9B"/>
<path d="M153.326 145.066C152.02 145.75 151.47 146.915 152.054 147.754C152.552 148.473 154.89 148.456 154.89 147.737C154.89 147.6 155.01 147.412 155.148 147.292C155.302 147.172 155.371 146.932 155.32 146.761C155.251 146.555 155.302 146.401 155.474 146.333C155.749 146.23 155.835 145.511 155.646 144.997C155.491 144.603 154.116 144.655 153.326 145.066Z" fill="#1AAB9B"/>
<path d="M172.457 147.856C172.113 148.25 172.061 148.952 172.233 150.219C172.336 150.922 172.474 151.675 172.525 151.915C172.629 152.274 172.594 152.309 172.405 152.12C172.096 151.846 171.649 151.863 171.391 152.172C171.236 152.36 171.322 152.651 171.855 153.627C172.268 154.381 172.629 154.86 172.852 154.911C174.244 155.185 174.193 155.151 174.107 155.733C173.969 156.624 174.072 156.709 175.275 156.709C176.29 156.709 176.393 156.744 176.754 157.223C177.201 157.84 177.51 157.874 177.63 157.36C177.733 157.001 177.751 157.001 178.094 157.309C178.455 157.634 178.558 158.079 178.266 158.079C177.991 158.079 178.077 158.559 178.386 158.747C178.661 158.901 178.661 158.936 178.352 159.518C178.163 159.843 178.06 160.151 178.094 160.186C178.146 160.237 178.541 160.323 179.005 160.374L179.813 160.494V159.877C179.813 159.535 179.899 159.107 180.002 158.901C180.157 158.627 180.122 158.49 179.83 158.234C179.624 158.045 179.469 157.686 179.469 157.394C179.469 156.846 178.661 156.127 178.215 156.298C178.077 156.35 177.922 156.264 177.871 156.127C177.785 155.922 177.51 155.853 176.805 155.853C175.98 155.853 175.86 155.819 175.86 155.511C175.86 155.34 175.722 155.1 175.533 155.014C175.327 154.894 175.19 154.569 175.121 154.072C175.018 153.422 175.104 153.148 175.722 152L176.41 150.665L175.894 149.62C175.602 149.038 175.293 148.37 175.207 148.13C175.035 147.719 174.949 147.685 173.832 147.668C173.058 147.651 172.56 147.719 172.457 147.856Z" fill="#1AAB9B"/>
<path d="M126.308 157.464C125.93 157.84 125.793 160.186 126.102 160.923C126.274 161.351 126.446 161.505 126.652 161.471C126.91 161.419 126.961 161.145 127.013 159.313C127.065 157.532 127.03 157.224 126.824 157.224C126.669 157.224 126.446 157.327 126.308 157.464Z" fill="#1AAB9B"/>
<path d="M173.797 157.429C173.797 157.532 173.986 157.823 174.227 158.114C174.673 158.645 174.777 159.176 174.484 159.364C174.175 159.553 174.295 159.792 174.708 159.792C174.931 159.792 175.241 159.655 175.395 159.484C175.756 159.09 175.773 158.029 175.43 157.738C175.086 157.446 173.797 157.224 173.797 157.429Z" fill="#1AAB9B"/>
<path d="M59.3797 158.696C59.2594 158.747 59.1562 158.936 59.1562 159.124C59.1562 159.381 59.2766 159.449 59.7578 159.449C60.0844 159.449 60.3594 159.381 60.3594 159.295C60.3594 159.21 60.5484 159.107 60.7891 159.073C61.5797 158.987 61.3219 158.679 60.4453 158.645C59.9813 158.628 59.4828 158.645 59.3797 158.696Z" fill="#1AAB9B"/>
<path d="M180.879 159.399C180.776 159.673 180.586 160.255 180.483 160.735C180.174 162.088 179.951 162.327 179.005 162.396C178.215 162.447 178.18 162.464 178.094 163.064C178.026 163.389 177.854 163.851 177.699 164.074C177.269 164.673 177.338 165.067 177.94 165.632C178.747 166.386 179.022 166.3 179.624 164.999C179.916 164.382 180.243 163.577 180.346 163.201C180.466 162.824 180.655 162.447 180.758 162.362C180.965 162.19 181.085 162.396 181.429 163.423C181.549 163.8 182.185 163.834 182.34 163.457C182.391 163.32 182.357 163.012 182.254 162.807C182.116 162.499 182.133 162.31 182.322 162.036C182.597 161.659 182.529 160.529 182.185 159.622C181.876 158.817 181.154 158.697 180.879 159.399Z" fill="#1AAB9B"/>
<path d="M176.478 159.415C176.409 159.535 176.444 159.912 176.547 160.289C176.667 160.751 176.667 161.111 176.547 161.419C176.289 162.104 176.341 162.823 176.65 162.943C176.994 163.08 178.386 162.224 178.489 161.813C178.627 161.35 178.128 160.802 177.613 160.854C177.234 160.905 177.148 160.819 177.063 160.391C176.908 159.655 176.616 159.193 176.478 159.415Z" fill="#1AAB9B"/>
<path d="M172.834 159.707C172.663 160.135 172.903 160.512 173.316 160.443C173.797 160.375 173.883 160.083 173.539 159.724C173.195 159.381 172.955 159.381 172.834 159.707Z" fill="#1AAB9B"/>
<path d="M171.908 162.344C171.908 162.635 171.822 162.909 171.736 162.961C171.633 163.029 171.341 163.389 171.1 163.783C170.842 164.176 170.189 164.964 169.639 165.529C168.694 166.505 168.436 167.019 168.797 167.242C169.072 167.396 170.155 166.779 170.258 166.403C170.309 166.197 170.567 165.923 170.842 165.769C171.203 165.563 171.375 165.307 171.461 164.879C171.53 164.502 171.684 164.245 171.891 164.194C172.063 164.159 172.338 163.851 172.509 163.509C172.767 162.961 172.767 162.858 172.509 162.378C172.166 161.711 171.908 161.693 171.908 162.344Z" fill="#1AAB9B"/>
<path d="M126.102 162.532C126.154 162.618 126.326 162.703 126.463 162.703C126.601 162.703 126.704 162.618 126.704 162.532C126.704 162.429 126.549 162.361 126.343 162.361C126.154 162.361 126.051 162.429 126.102 162.532Z" fill="#1AAB9B"/>
<path d="M180.467 164.09C180.088 164.296 180.071 165.032 180.432 165.169C180.57 165.221 180.879 165.135 181.12 164.981C181.945 164.45 181.309 163.577 180.467 164.09Z" fill="#1AAB9B"/>
<path d="M105.219 164.502C105.047 164.707 105.047 164.827 105.271 165.152C105.546 165.58 105.511 166.762 105.185 167.361C105.099 167.55 105.099 167.807 105.219 168.012C105.356 168.252 105.339 168.44 105.185 168.68C105.013 168.954 105.013 169.142 105.185 169.605C105.305 169.913 105.391 170.409 105.391 170.683C105.391 171.386 105.666 171.608 106.542 171.608C107.178 171.608 107.385 171.505 107.986 170.923C108.656 170.272 108.691 170.204 108.571 169.519C108.502 169.108 108.347 168.663 108.244 168.526C107.849 168.046 107.11 166.608 107.11 166.3C107.11 166.128 106.989 165.906 106.835 165.769C106.68 165.649 106.439 165.272 106.285 164.947C105.958 164.262 105.563 164.091 105.219 164.502Z" fill="#1AAB9B"/>
<path d="M182.684 164.707C182.615 164.759 182.563 165.05 182.563 165.358C182.563 166.009 182.34 166.3 181.481 166.779C180.707 167.224 180.501 167.242 180.501 166.916C180.501 166.522 180.192 166.437 179.556 166.642C179.178 166.762 178.851 167.036 178.696 167.344C178.542 167.618 178.318 167.841 178.198 167.841C178.078 167.841 177.768 167.995 177.51 168.2C177.167 168.474 177.063 168.697 177.063 169.211C177.063 170.084 177.579 170.444 177.992 169.862C178.146 169.656 178.267 169.348 178.267 169.177C178.267 168.766 178.507 168.663 179.006 168.851C179.315 168.971 179.521 168.954 179.745 168.783C180.123 168.509 181.807 168.44 181.962 168.697C182.013 168.783 181.876 168.954 181.635 169.057C181.068 169.314 180.948 169.707 181.188 170.564C181.343 171.129 181.515 171.334 182.288 171.762C183.784 172.618 184.179 172.43 183.595 171.146C183.406 170.718 183.285 170.204 183.354 170.033C183.492 169.553 184.007 169.725 184.076 170.272C184.145 170.82 184.523 171.18 184.884 171.026C185.09 170.957 185.142 170.615 185.142 169.502C185.142 168.2 185.107 168.029 184.712 167.67C184.403 167.379 184.317 167.156 184.385 166.882C184.488 166.471 184.093 165.683 183.423 164.964C183.045 164.57 182.873 164.502 182.684 164.707Z" fill="#1AAB9B"/>
<path d="M198.496 168.645C198.324 168.799 198.341 169.724 198.513 169.724C198.65 169.724 198.788 169.484 199.2 168.645C199.286 168.491 198.65 168.474 198.496 168.645Z" fill="#1AAB9B"/>
<path d="M128.715 169.416C128.629 169.69 128.887 170.238 129.128 170.238C129.368 170.238 129.248 169.348 129.007 169.262C128.887 169.228 128.767 169.296 128.715 169.416Z" fill="#1AAB9B"/>
<path d="M167.988 170.17C167.765 170.324 167.61 170.615 167.61 170.872C167.61 171.146 167.352 171.643 166.94 172.122C166.579 172.55 166.252 173.064 166.201 173.235C166.149 173.509 165.994 173.578 165.479 173.578C164.946 173.578 164.791 173.646 164.671 173.954C164.585 174.177 164.413 174.348 164.258 174.348C164.121 174.348 163.863 174.605 163.708 174.913C163.107 176.026 162.247 177.259 161.938 177.431C161.766 177.533 161.268 177.602 160.855 177.602C160.116 177.602 160.065 177.636 159.635 178.355C159.394 178.783 159.188 179.348 159.188 179.64C159.188 180.29 158.913 180.462 158.501 180.085C158.312 179.914 158.054 179.845 157.847 179.896C157.641 179.965 157.418 179.879 157.212 179.657C156.816 179.211 156.644 179.229 156.026 179.742C155.579 180.102 155.51 180.29 155.441 181.249C155.39 182.037 155.441 182.499 155.665 182.893C155.871 183.304 155.888 183.51 155.751 183.681C155.613 183.852 155.665 184.006 155.957 184.332C157.022 185.462 157.126 185.667 157.194 186.78C157.246 187.482 157.383 187.979 157.555 188.167C157.727 188.339 157.796 188.595 157.744 188.835C157.676 189.058 157.727 189.246 157.847 189.28C158.037 189.349 159.36 189.195 159.858 189.058C160.013 189.024 160.151 189.161 160.219 189.417C160.305 189.777 160.426 189.846 160.993 189.863C161.371 189.88 161.869 189.794 162.11 189.674C162.471 189.486 162.643 189.486 163.141 189.709C163.468 189.846 163.966 189.965 164.241 189.983C164.671 190.017 164.774 190.12 164.929 190.702C165.187 191.609 165.582 191.644 166.63 190.856C167.644 190.12 168.469 188.561 168.469 187.38C168.469 186.678 168.538 186.558 169.346 185.839L170.24 185.051L170.257 183.732C170.291 182.071 170.48 181.814 171.58 181.934C172.096 182.003 172.491 181.951 172.68 181.814C172.955 181.609 172.938 181.557 172.405 180.958C172.096 180.599 171.666 180.239 171.46 180.17C171.133 180.033 171.082 179.931 171.168 179.331C171.254 178.749 171.202 178.595 170.824 178.253C170.223 177.687 169.999 176.215 170.446 175.718C170.618 175.53 170.858 175.376 170.962 175.376C171.082 175.376 171.357 175.239 171.563 175.067L171.958 174.742L171.58 174.485C171.237 174.246 171.219 174.194 171.477 173.937C171.632 173.783 171.941 173.663 172.148 173.663C172.371 173.663 172.646 173.543 172.766 173.406C172.955 173.184 172.921 173.064 172.594 172.721C172.371 172.482 172.044 172.293 171.873 172.293C171.563 172.293 170.566 171.694 170.326 171.352C170.257 171.266 170.257 171.129 170.291 171.06C170.343 170.975 170.137 170.684 169.844 170.41C169.226 169.827 168.59 169.759 167.988 170.17Z" fill="#1AAB9B"/>
<path d="M177.097 170.958C177.2 171.266 177.475 171.3 177.836 171.009C178.163 170.769 178.146 170.769 177.613 170.752C177.235 170.752 177.063 170.821 177.097 170.958Z" fill="#1AAB9B"/>
<path d="M175.894 171.625C175.67 171.71 175.55 171.847 175.602 171.95C175.739 172.173 176.324 172.173 176.478 171.933C176.65 171.642 176.324 171.454 175.894 171.625Z" fill="#1AAB9B"/>
<path d="M131.929 172.379C131.74 172.841 132.032 173.834 132.531 174.399C132.788 174.691 133.115 175.119 133.218 175.341C133.338 175.564 133.768 175.889 134.181 176.06C134.593 176.232 135.023 176.557 135.143 176.78C135.263 177.002 135.487 177.276 135.676 177.396C135.865 177.55 135.985 177.841 135.985 178.218C135.985 179.074 136.243 179.451 136.948 179.588C137.704 179.725 137.928 180.085 138.323 181.78C138.615 182.961 138.701 183.15 139.131 183.287C139.388 183.39 139.595 183.527 139.595 183.612C139.595 183.698 139.767 183.938 139.973 184.143C140.179 184.349 140.523 184.999 140.729 185.581C140.935 186.164 141.296 186.969 141.537 187.379C141.778 187.79 142.173 188.51 142.396 188.989C142.62 189.452 142.981 189.999 143.204 190.188C143.41 190.376 143.685 190.736 143.823 190.993C143.96 191.267 144.321 191.575 144.631 191.712C145.232 191.969 146.985 193.63 146.985 193.955C146.985 194.058 147.14 194.298 147.312 194.452C147.621 194.726 147.673 194.726 148.188 194.469C148.687 194.212 148.756 194.212 149.168 194.469C149.804 194.88 149.907 194.623 149.907 192.517C149.907 190.873 149.942 190.684 150.354 190.154L150.784 189.589L150.045 188.732C149.581 188.201 149.168 187.876 148.945 187.876C148.481 187.876 147.501 186.438 147.501 185.787C147.501 185.29 147.14 184.914 146.728 184.999C146.195 185.102 146.04 184.571 146.349 183.664C146.59 182.893 146.59 182.807 146.349 182.533C146.195 182.345 145.834 182.225 145.49 182.225C144.923 182.225 144.906 182.208 145.009 181.66C145.146 180.924 144.768 180.513 143.978 180.513C143.445 180.513 143.393 180.461 143.342 179.948C143.29 179.451 143.238 179.4 142.757 179.434C142.345 179.468 142.138 179.383 141.932 179.057C141.76 178.783 141.485 178.629 141.21 178.629C140.935 178.629 140.592 178.424 140.317 178.132C140.059 177.841 139.612 177.362 139.32 177.037C139.01 176.711 138.684 176.283 138.581 176.078C138.46 175.889 138.254 175.718 138.117 175.718C137.738 175.718 136.673 174.828 136.673 174.502C136.673 174.348 136.415 173.937 136.106 173.595C135.556 173.012 135.487 172.978 134.404 172.978C133.442 172.978 133.184 172.91 132.754 172.55C132.153 172.053 132.049 172.036 131.929 172.379Z" fill="#1AAB9B"/>
<path d="M196.142 174.434C196.142 174.571 196.296 174.76 196.485 174.862C196.76 175.016 196.863 174.999 196.932 174.794C196.984 174.657 196.984 174.451 196.915 174.349C196.76 174.092 196.142 174.143 196.142 174.434Z" fill="#1AAB9B"/>
<path d="M185.553 174.947C185.433 175.238 185.622 175.581 185.845 175.461C186.051 175.324 186.051 174.69 185.828 174.69C185.725 174.69 185.605 174.81 185.553 174.947Z" fill="#1AAB9B"/>
<path d="M132.53 177.875C132.358 178.098 132.358 178.167 132.565 178.304C132.702 178.389 132.943 178.458 133.097 178.458C133.252 178.458 133.493 178.509 133.647 178.56C134.025 178.715 134.008 178.235 133.613 177.893C133.218 177.533 132.822 177.516 132.53 177.875Z" fill="#1AAB9B"/>
<path d="M188.596 178.526C188.425 178.732 188.425 178.903 188.562 179.228C188.837 179.845 189.009 179.828 189.061 179.16C189.129 178.475 188.889 178.167 188.596 178.526Z" fill="#1AAB9B"/>
<path d="M187.667 179.622C187.495 179.793 187.254 180.307 187.1 180.752C186.842 181.472 186.842 181.609 187.1 182.225C187.478 183.184 187.444 183.544 186.911 184.177L186.464 184.708L187.048 184.759C187.375 184.794 187.77 184.948 187.925 185.085C188.165 185.307 188.286 185.307 188.475 185.136C188.698 184.965 188.698 184.879 188.389 184.468C188.165 184.177 188.062 183.8 188.097 183.492C188.131 183.081 188.234 182.979 188.664 182.944C189.558 182.859 189.644 182.79 189.42 182.379C189.283 182.105 189.283 181.917 189.437 181.626C189.54 181.42 189.609 181.026 189.575 180.752C189.523 180.256 189.317 180.17 188.715 180.427C188.475 180.513 188.406 180.461 188.406 180.204C188.406 179.759 188.234 179.314 188.062 179.314C187.994 179.314 187.822 179.451 187.667 179.622Z" fill="#1AAB9B"/>
<path d="M182.529 180.427C182.426 180.666 182.237 180.855 182.099 180.855C181.979 180.855 181.79 181.043 181.704 181.283C181.549 181.677 181.48 181.711 180.295 181.677C179.607 181.677 178.885 181.591 178.696 181.488C178.507 181.386 177.854 181.197 177.252 181.077C176.152 180.855 176.135 180.855 175.74 181.266C175.516 181.506 175.035 181.797 174.657 181.899C173.987 182.105 173.763 182.413 173.832 183.081C173.901 183.92 173.763 184.965 173.54 185.17C173.402 185.29 173.179 185.495 173.024 185.615C172.852 185.769 172.766 186.146 172.766 186.763C172.766 187.379 172.646 187.876 172.405 188.287C172.199 188.646 172.079 189.109 172.113 189.451C172.165 189.965 172.216 190.016 172.715 189.982C173.798 189.896 174.107 191.146 173.437 192.927C173.248 193.458 173.127 193.989 173.179 194.126C173.299 194.451 174.743 194.486 174.932 194.177C175.018 194.058 175.087 192.79 175.087 191.335C175.121 188.663 175.207 188.304 175.791 188.424C176.066 188.475 176.118 188.646 176.118 189.674C176.118 190.787 176.135 190.855 176.548 190.958C176.857 191.044 176.96 191.164 176.926 191.403C176.891 191.575 176.84 191.951 176.84 192.242C176.805 192.688 176.874 192.756 177.27 192.807C177.648 192.859 177.785 192.773 177.923 192.414C178.06 192.037 178.18 191.968 178.645 192.02C179.126 192.071 179.212 192.003 179.263 191.66C179.315 191.403 179.16 191.095 178.851 190.77C178.421 190.324 178.404 190.239 178.61 189.845C178.816 189.451 178.782 189.366 178.026 188.475C177.098 187.413 177.08 186.985 177.974 186.694C178.266 186.574 178.782 186.249 179.091 185.941C179.401 185.632 179.83 185.393 180.037 185.393C180.484 185.393 180.655 184.776 180.295 184.502C179.985 184.245 178.266 184.434 178.266 184.725C178.266 184.862 177.991 184.965 177.545 184.999C176.96 185.033 176.805 185.119 176.805 185.376C176.805 185.855 176.307 186.112 175.946 185.821C175.791 185.701 175.705 185.495 175.757 185.376C175.809 185.256 175.671 185.016 175.448 184.845C175.173 184.639 175.018 184.297 174.949 183.817C174.829 182.807 175.035 182.67 176.445 182.927C177.39 183.098 177.665 183.098 178.249 182.875C178.645 182.721 179.005 182.67 179.143 182.756C179.487 182.961 181.824 182.944 182.237 182.738C182.58 182.55 183.595 180.701 183.595 180.256C183.595 179.81 182.752 179.93 182.529 180.427Z" fill="#1AAB9B"/>
<path d="M93.4793 182.259C93.3589 182.721 93.4621 182.927 93.7886 182.79C94.1152 182.67 94.1324 181.882 93.8058 181.882C93.6855 181.882 93.5308 182.053 93.4793 182.259Z" fill="#1AAB9B"/>
<path d="M147.742 183.612C147.69 183.715 147.708 183.869 147.811 183.972C148.069 184.229 148.601 184.057 148.67 183.715C148.722 183.509 148.619 183.424 148.292 183.424C148.051 183.424 147.811 183.509 147.742 183.612Z" fill="#1AAB9B"/>
<path d="M137.135 183.869C136.895 184.109 137.015 184.468 137.324 184.417C137.479 184.383 137.617 184.246 137.617 184.126C137.617 183.852 137.307 183.698 137.135 183.869Z" fill="#1AAB9B"/>
<path d="M192.291 184.913C192.136 185.068 192.171 185.479 192.343 185.479C192.549 185.479 192.721 184.999 192.549 184.896C192.463 184.845 192.36 184.845 192.291 184.913Z" fill="#1AAB9B"/>
<path d="M137.583 185.256C137.033 185.444 137.634 186.506 138.27 186.506C138.614 186.506 138.614 186.523 138.374 185.855C138.184 185.307 137.944 185.136 137.583 185.256Z" fill="#1AAB9B"/>
<path d="M179.418 185.958C179.005 186.403 179.057 186.506 179.693 186.506C180.363 186.506 180.827 186.249 180.586 186.027C180.208 185.667 179.693 185.65 179.418 185.958Z" fill="#1AAB9B"/>
<path d="M187.067 186.198C186.826 186.438 186.792 186.951 187.015 187.106C187.101 187.157 187.238 187.106 187.29 187.003C187.359 186.917 187.668 186.849 187.995 186.883C188.304 186.9 188.579 186.866 188.579 186.797C188.579 186.729 188.579 186.609 188.579 186.54C188.579 186.369 187.823 185.993 187.496 185.993C187.376 185.993 187.187 186.078 187.067 186.198Z" fill="#1AAB9B"/>
<path d="M149.476 186.523C149.029 186.797 148.754 187.174 148.719 187.568C148.702 187.636 148.994 187.705 149.338 187.739C149.871 187.773 149.991 187.876 150.094 188.27C150.232 188.801 151.212 189.88 151.384 189.708C151.452 189.657 151.538 189.28 151.573 188.869C151.659 188.201 151.607 188.099 151.212 187.893C150.971 187.756 150.765 187.499 150.765 187.328C150.765 186.9 150.49 186.403 150.215 186.301C150.094 186.249 149.768 186.352 149.476 186.523Z" fill="#1AAB9B"/>
<path d="M181.653 186.66C181.618 186.848 181.653 187.071 181.756 187.174C181.996 187.413 182.993 187.413 183.44 187.174C183.784 187.002 183.784 186.985 183.492 186.66C183.079 186.198 181.773 186.198 181.653 186.66Z" fill="#1AAB9B"/>
<path d="M191.225 186.746C191.071 187.174 191.277 187.516 191.758 187.636C192.291 187.773 192.738 187.431 192.669 186.951C192.635 186.677 192.48 186.575 191.964 186.54C191.518 186.506 191.294 186.557 191.225 186.746Z" fill="#1AAB9B"/>
<path d="M139.507 187.722C139.335 187.978 139.524 188.115 139.851 187.978C140.006 187.927 140.074 187.807 140.023 187.704C139.885 187.482 139.645 187.482 139.507 187.722Z" fill="#1AAB9B"/>
<path d="M184.573 187.825C184.367 188.013 184.436 188.219 184.711 188.219C184.848 188.219 184.968 188.099 184.968 187.962C184.968 187.688 184.762 187.619 184.573 187.825Z" fill="#1AAB9B"/>
<path d="M153.016 188.493C152.673 188.852 152.638 188.972 152.793 189.332C153.016 189.811 153.137 189.846 153.756 189.572C154.374 189.28 154.426 188.801 153.876 188.407C153.412 188.082 153.412 188.082 153.016 188.493Z" fill="#1AAB9B"/>
<path d="M188.613 188.92C188.287 189.04 188.218 189.177 188.269 189.708L188.321 190.359L189.627 190.307C190.83 190.256 190.968 190.273 191.466 190.701C192.137 191.266 192.927 191.249 193.013 190.667C193.151 189.742 192.102 189.023 190.555 188.989C190.091 188.972 189.541 188.92 189.352 188.869C189.163 188.8 188.837 188.835 188.613 188.92Z" fill="#1AAB9B"/>
<path d="M185.02 189.383C184.917 189.451 184.865 189.708 184.917 189.982C185.037 190.599 185.845 191.044 186.343 190.787C186.721 190.581 186.807 189.897 186.481 189.623C186.171 189.383 185.26 189.229 185.02 189.383Z" fill="#1AAB9B"/>
<path d="M179.4 192.243C179.348 192.38 179.159 192.499 179.005 192.499C177.99 192.499 177.578 193.664 178.334 194.366C178.97 194.965 179.4 194.726 179.52 193.75C179.572 193.219 179.726 192.859 179.967 192.688C180.259 192.465 180.294 192.362 180.122 192.191C179.847 191.917 179.52 191.934 179.4 192.243Z" fill="#1AAB9B"/>
<path d="M196.141 194.195C196.021 194.435 196.021 194.572 196.158 194.64C196.382 194.777 196.416 194.743 196.553 194.246C196.708 193.784 196.399 193.733 196.141 194.195Z" fill="#1AAB9B"/>
<path d="M198.909 194.417C198.823 194.64 198.6 194.948 198.411 195.137C197.998 195.496 197.603 196.507 197.775 196.781C197.964 197.089 198.514 196.969 198.857 196.541C199.029 196.301 199.322 195.77 199.476 195.325C199.717 194.709 199.734 194.486 199.579 194.298C199.287 193.938 199.081 193.972 198.909 194.417Z" fill="#1AAB9B"/>
<path d="M174.657 194.982C174.382 195.308 174.554 195.77 174.915 195.65C175.19 195.53 175.276 194.982 175.018 194.828C174.932 194.777 174.777 194.845 174.657 194.982Z" fill="#1AAB9B"/>
<path d="M149.785 195.086C149.682 195.223 149.545 195.531 149.476 195.805C149.39 196.147 149.253 196.267 148.943 196.267C148.582 196.267 148.531 196.318 148.634 196.729C148.806 197.414 148.874 197.483 149.235 197.38C149.407 197.329 149.717 197.26 149.889 197.192C150.146 197.123 150.301 197.243 150.507 197.637C150.748 198.099 150.834 198.151 151.349 198.065C151.693 197.997 152.157 198.048 152.57 198.219C152.982 198.39 153.721 198.493 154.632 198.493C155.526 198.493 156.248 198.579 156.557 198.733C158.259 199.572 158.585 199.658 160.27 199.675C161.284 199.675 162.264 199.795 162.71 199.949C163.673 200.274 163.948 200.154 164.189 199.332C164.378 198.75 164.36 198.613 164.085 198.322C163.828 198.031 163.587 197.98 162.831 198.014C161.903 198.065 161.903 198.065 161.714 197.466C161.542 196.969 161.404 196.866 160.82 196.747C160.442 196.661 160.046 196.473 159.926 196.336C159.789 196.147 159.582 196.096 159.29 196.164C158.964 196.25 158.843 196.199 158.843 196.01C158.843 195.582 158.379 195.719 157.984 196.267C157.571 196.849 157.331 196.901 156.557 196.49C156.248 196.336 155.629 196.199 155.148 196.181C154.409 196.164 154.289 196.096 154.237 195.788C154.151 195.24 153.773 195.103 151.779 194.983C150.353 194.88 149.94 194.897 149.785 195.086Z" fill="#1AAB9B"/>
<path d="M161.818 196.524C161.68 196.9 162.247 197.465 162.78 197.465C163.313 197.465 164.001 197.037 164.001 196.712C164.001 196.232 162.007 196.078 161.818 196.524Z" fill="#1AAB9B"/>
<path d="M193.185 197.636C192.222 198.869 192.068 199.109 192.136 199.297C192.291 199.743 192.841 199.503 193.58 198.647C193.993 198.167 194.371 197.756 194.405 197.705C194.525 197.602 194.044 197.123 193.821 197.123C193.7 197.123 193.408 197.345 193.185 197.636Z" fill="#1AAB9B"/>
<path d="M184.522 198.099C184.213 198.133 183.835 198.321 183.68 198.492C183.405 198.801 183.405 198.835 183.663 198.938C184.058 199.092 185.072 198.869 185.313 198.578C185.502 198.338 185.416 197.945 185.175 198.013C185.107 198.013 184.815 198.064 184.522 198.099Z" fill="#1AAB9B"/>
<path d="M168.899 199.709C167.851 200.411 167.593 200.754 167.954 200.976C168.229 201.148 171.512 200.548 171.872 200.274C172.285 199.966 171.941 199.452 171.288 199.384C171.013 199.35 170.721 199.247 170.635 199.161C170.343 198.887 169.947 199.007 168.899 199.709Z" fill="#1AAB9B"/>
<path d="M164.516 199.383C164.516 199.503 164.653 199.777 164.825 200C165.117 200.377 165.152 200.377 165.684 200.12C166.011 199.949 166.234 199.709 166.234 199.503C166.234 199.229 166.114 199.178 165.375 199.178C164.808 199.178 164.516 199.246 164.516 199.383Z" fill="#1AAB9B"/>
<path d="M166.664 199.863C166.114 200.736 166.131 200.839 166.75 200.925C167.386 201.027 167.609 200.788 167.729 199.863C167.815 199.247 167.781 199.178 167.454 199.178C167.231 199.178 166.956 199.418 166.664 199.863Z" fill="#1AAB9B"/>
<path d="M173.659 199.726C172.336 200.548 172.491 200.942 174.209 201.113C175.034 201.198 175.344 201.147 175.928 200.839C176.324 200.65 177.028 200.428 177.492 200.376C178.317 200.291 178.352 200.274 178.352 199.777C178.352 199.195 178.369 199.195 177.028 199.606C176.066 199.897 176.049 199.897 175.584 199.537C174.966 199.058 174.725 199.075 173.659 199.726Z" fill="#1AAB9B"/>
<path d="M179.331 199.383C178.97 199.743 179.108 200.034 179.64 200.034C180.036 200.034 180.156 199.948 180.156 199.709C180.156 199.537 180.036 199.332 179.881 199.28C179.537 199.143 179.572 199.143 179.331 199.383Z" fill="#1AAB9B"/>
<path d="M183.611 199.675C182.357 199.932 182.099 200.052 181.686 200.548C181.411 200.857 180.707 201.404 180.122 201.747C179.143 202.295 179.039 202.415 178.988 202.963C178.885 204.076 179.744 204.213 180.655 203.22C180.896 202.98 181.205 202.774 181.377 202.774C181.532 202.774 181.772 202.603 181.927 202.381C182.064 202.175 182.511 201.833 182.924 201.627C184.333 200.942 185.639 200.377 185.811 200.377C186.138 200.377 186.018 199.898 185.622 199.624C185.416 199.469 185.193 199.35 185.141 199.367C185.089 199.367 184.402 199.504 183.611 199.675Z" fill="#1AAB9B"/>
<path d="M171.854 201.472C171.717 201.798 172.215 202.431 172.593 202.431C172.765 202.431 173.075 202.62 173.298 202.86C173.831 203.408 174.278 203.408 174.415 202.86C174.553 202.294 174.398 201.918 174.02 201.918C173.848 201.918 173.625 201.781 173.504 201.592C173.264 201.216 171.992 201.113 171.854 201.472Z" fill="#1AAB9B"/>
<path d="M177.854 204.229C177.458 204.521 177.613 205 178.094 205C178.507 205 179.177 204.384 179.04 204.144C178.885 203.904 178.232 203.938 177.854 204.229Z" fill="#1AAB9B"/>
</svg>
