<svg width="240" height="240" viewBox="0 0 240 240" fill="none" xmlns="http://www.w3.org/2000/svg">
<path d="M153.078 16.1017C152.625 16.2192 152.81 16.5215 153.515 16.8741C153.851 17.0421 154.136 17.2436 154.136 17.3107C154.136 17.3779 153.918 17.5962 153.666 17.7809C153.078 18.2007 152.625 19.1243 152.625 19.8296C152.625 20.6189 152.273 21.1898 151.568 21.5424C150.661 22.0126 150.443 21.8951 150.627 20.9883C150.846 19.88 150.812 19.6617 150.443 19.5609C150.023 19.4434 150.023 19.4434 150.476 18.8389C150.846 18.3351 150.997 17.0253 150.695 16.9749C150.493 16.9245 149.452 18.6709 147.69 22.0294C145.927 25.3711 145.508 25.7238 145.289 24.0445C145.205 23.5072 145.273 23.1545 145.541 22.634C145.726 22.2477 146.078 21.4081 146.313 20.77C146.548 20.1151 147.052 19.1915 147.421 18.7045C148.21 17.6802 148.244 17.4619 147.673 17.1596C147.337 16.9749 147.22 16.9749 147.002 17.1596C146.867 17.2772 146.75 17.4619 146.75 17.5962C146.75 18.1336 146.397 17.9489 146.095 17.2436C145.827 16.639 145.675 16.4879 145.34 16.4879C144.903 16.4879 144.568 16.8909 144.568 17.4451C144.568 18.0664 144.198 19.0068 143.779 19.5106C143.409 19.9639 143.359 20.1319 143.443 20.8707C143.56 21.7607 143.544 21.7607 142.704 21.1562C142.469 20.9715 142.167 20.8875 142.033 20.9379C141.647 21.1058 141.177 21.8615 141.11 22.4324C141.093 22.7179 141.059 23.0034 141.059 23.0538C141.042 23.1041 140.858 23.2385 140.623 23.3392C140.119 23.5743 140.102 23.8598 140.539 25.136C140.723 25.6734 140.875 26.1436 140.875 26.1772C140.875 26.2107 140.673 26.1772 140.438 26.1268C140.136 26.0428 139.867 26.1268 139.515 26.3787L139.011 26.7481L139.129 26.3283C139.213 25.9757 139.112 25.8413 138.524 25.4551C137.97 25.0857 137.887 24.9681 138.088 24.8506C138.558 24.5819 138.373 24.3972 137.836 24.5819C137.467 24.6994 137.131 24.6994 136.577 24.5483C135.788 24.33 135.553 24.3804 135.771 24.7498C135.855 24.8674 135.923 25.3375 135.939 25.8077C135.939 26.2611 136.074 26.8992 136.241 27.2183C136.46 27.6381 136.493 27.8228 136.342 27.974C136.158 28.1587 136.023 28.0579 135.587 27.3191C135.486 27.1511 135.117 27 134.63 26.9496C133.992 26.8657 133.707 26.9328 133.119 27.2855C132.632 27.5709 132.246 27.6717 131.944 27.6213C130.971 27.4366 130.971 29.1158 131.927 30.1234L132.397 30.6104L131.642 30.2745C130.668 29.8211 130.299 29.8211 130.299 30.2577C130.299 30.7111 129.745 31.8026 129.359 32.1217C129.09 32.34 129.074 32.3232 129.208 32.0209C129.56 31.1813 129.98 29.2166 130.081 27.9572C130.165 26.7649 130.148 26.5634 129.93 26.5634C129.628 26.5634 129.426 27.0504 129.04 28.5785C128.889 29.183 128.486 30.157 128.134 30.7615C127.781 31.366 127.412 32.1049 127.277 32.3904C127.16 32.6926 127.042 32.9445 127.009 32.9445C126.959 32.9445 126.724 32.6926 126.455 32.4072C126.052 31.9538 125.851 31.853 125.297 31.853C124.86 31.853 124.491 31.9706 124.256 32.1889L123.887 32.5247L124.004 31.9706C124.071 31.6179 124.038 31.3325 123.92 31.1813C123.618 30.8119 123.417 31.047 123.417 31.7523C123.417 32.7766 123.131 33.3979 122.594 33.4987C122.174 33.5826 121.066 34.523 121.066 34.8085C121.066 34.8757 121.268 35.094 121.536 35.3123C121.855 35.5642 121.923 35.6985 121.755 35.7657C121.604 35.816 121.671 35.9504 122.007 36.2191L122.46 36.5885L121.654 36.6893C121.201 36.7564 120.227 37.1091 119.489 37.4617C117.491 38.4357 116.803 39.3257 118.062 39.3257C118.683 39.3257 118.683 39.5776 118.078 39.8966C117.239 40.3332 117.122 40.5851 117.525 41.1393L117.86 41.6262L117.457 42.0125L117.038 42.4155L117.39 42.7849C118.129 43.5742 117.323 44.0947 115.191 44.2459C113.58 44.3634 112.74 44.5985 112.505 45.0351C112.153 45.69 113.093 45.9251 113.798 45.371C114.302 44.9847 114.671 44.9512 115.107 45.2534C115.477 45.5389 115.258 45.7236 114.352 45.8747C113.932 45.9419 113.748 46.0595 113.714 46.3113C113.63 46.8655 114.05 47.1006 114.805 46.8991C115.644 46.664 115.796 46.8655 115.376 47.7051C115.007 48.4104 114.872 48.5112 114.587 48.2425C114.503 48.1585 114.167 48.0074 113.815 47.9066C113.479 47.7891 113.16 47.5876 113.11 47.4532C113.026 47.2349 112.959 47.2349 112.556 47.4532C111.901 47.7891 110.927 48.8302 111.062 49.0485C111.129 49.1493 111.33 49.2332 111.515 49.2332C111.7 49.2332 112.371 49.3508 113.026 49.5019C113.915 49.7034 114.268 49.8713 114.469 50.1736C114.822 50.7278 114.62 50.8957 114.134 50.4423C113.294 49.653 111.23 49.6698 110.575 50.4759C110.39 50.711 110.122 50.9125 109.987 50.9125C109.685 50.9125 108.812 51.7521 108.812 52.0208C108.812 52.1383 108.98 52.3566 109.182 52.491C109.568 52.7597 109.484 52.8436 108.644 52.978C108.258 53.0283 108.275 53.0619 108.896 53.3642L109.568 53.6832L108.947 53.7336C108.242 53.8008 108.124 54.0023 108.644 54.271C109.148 54.5397 109.064 54.674 108.141 55.1106C107.688 55.3289 107.134 55.6815 106.932 55.8998C106.362 56.5044 106.748 56.6387 108.846 56.5883C110.239 56.538 110.608 56.5715 110.441 56.7227C109.618 57.5119 108.376 58.4691 108.158 58.4691C108.023 58.4691 107.772 58.3348 107.604 58.1836C107.318 57.9149 107.268 57.9317 106.832 58.2508C106.21 58.7042 106.16 59.2919 106.714 59.8125C107.318 60.3666 107.234 60.501 106.479 60.1987C106.11 60.0476 105.707 59.9804 105.573 60.0308C105.304 60.1315 104.616 61.794 104.616 62.3146C104.616 62.4825 104.767 62.8183 104.951 63.0534C105.136 63.2885 105.287 63.5068 105.287 63.5572C105.287 63.6076 104.935 63.6412 104.498 63.6244C103.76 63.5908 103.692 63.6244 103.642 64.0106C103.609 64.3129 103.743 64.5816 104.095 64.9174C104.532 65.3204 104.632 65.354 104.968 65.1861C105.186 65.0685 105.539 64.8166 105.757 64.6319C105.959 64.4472 106.126 64.3632 106.126 64.464C106.126 64.7663 104.767 66.1936 103.575 67.134C102.954 67.6378 102.433 68.1583 102.433 68.2927C102.433 68.4102 102.031 68.8636 101.561 69.2834L100.671 70.0559H101.46C102.4 70.0559 102.618 70.2742 101.93 70.5597C101.645 70.6772 101.426 70.8955 101.426 71.0467C101.426 71.2146 101.258 71.5 101.04 71.7016L100.654 72.071L100.167 71.5672C99.5965 70.9627 99.0594 70.8955 99.1265 71.4329C99.1433 71.7016 99.0426 71.8191 98.6733 71.9199C97.9011 72.1382 97.4143 72.7259 97.0618 73.8846C96.8939 74.5059 96.5414 75.1776 96.2896 75.4463L95.8196 75.9333H96.3232C97.0282 75.9333 97.1121 76.0676 96.7093 76.6385C96.5078 76.9072 96.4071 77.1759 96.4575 77.2431C96.7764 77.5453 99.4119 76.3699 99.4119 75.9333C99.4119 75.8325 99.1601 75.7653 98.8747 75.7653L98.3208 75.7485L99.0258 75.0936C100.268 73.9182 101.091 74.0189 101.091 75.3623C101.091 75.9501 101.007 76.1348 100.671 76.3867C99.6805 77.0919 99.5462 77.2263 99.4287 77.7636C99.2944 78.4521 99.093 78.5697 97.8508 78.704C96.9275 78.8048 96.8771 78.8384 97.1289 79.107C97.515 79.5269 97.4647 79.6276 96.8603 79.6276C96.0714 79.6276 95.8196 79.4093 95.9539 78.8719C96.2225 77.8308 95.4335 77.411 94.5438 78.1163C94.1409 78.4353 94.1409 78.4689 94.4263 78.6872C94.6949 78.9055 94.6613 78.9727 93.9563 79.594C93.5366 79.9635 92.7141 80.4672 92.1098 80.7191L91.0354 81.1893L91.5222 81.6427C91.8412 81.9282 92.0258 82.2808 92.0258 82.5495C92.0258 83.0365 91.6901 83.1372 91.3544 82.7342C91.1026 82.4319 90.6829 82.3984 90.6829 82.6838C90.6829 82.8014 90.834 83.0869 91.0186 83.3219C91.2033 83.557 91.3544 83.8089 91.3544 83.8761C91.3544 83.9601 90.8508 83.9601 90.2297 83.9097C89.5079 83.8425 88.9036 83.8593 88.5846 83.9936C88.1314 84.1784 88.0978 84.212 88.3832 84.3967C88.5342 84.5142 88.6685 84.6486 88.6685 84.6989C88.6685 84.7493 87.7117 84.7829 86.5367 84.7661C84.6901 84.7493 84.388 84.7829 84.3376 85.018C84.3041 85.2363 84.4719 85.3035 85.1266 85.3706C86.0331 85.4546 86.906 86.0255 87.0906 86.6301C87.1578 86.882 87.0738 87.1842 86.822 87.5201C86.352 88.175 86.1506 88.1582 86.1506 87.4529C86.1506 86.5797 85.882 86.0087 85.4791 86.0087C85.0259 86.0087 84.3041 86.3782 83.9012 86.8316C83.6158 87.1506 83.599 87.201 83.8676 87.5872L84.1362 88.007L83.0283 87.9735C82.0043 87.9399 81.9036 87.9735 81.5175 88.4101C81.2993 88.6787 81.1482 88.9474 81.1985 89.0146C81.2321 89.0986 82.1218 89.1993 83.1626 89.2665C85.2273 89.4008 85.9827 89.5184 85.9827 89.7031C85.9827 89.9382 85.1266 90.2069 84.388 90.2069C83.9683 90.2069 83.5487 90.3076 83.3976 90.4587C83.1794 90.6771 83.1122 90.6603 82.8436 90.3244C82.1386 89.4344 81.4839 89.384 80.7117 90.1565C80.1578 90.7106 80.1578 90.845 80.7285 90.9121C81.0475 90.9457 81.2153 91.0801 81.2489 91.2984C81.2825 91.4831 81.4336 91.735 81.5846 91.8357C81.8196 92.0204 81.7861 92.0708 81.3161 92.2388C80.5774 92.4906 80.6446 92.7257 81.4503 92.7257C82.3736 92.7257 82.2897 92.944 81.2321 93.2799C80.2417 93.5989 79.6206 93.9852 79.8221 94.1699C79.8892 94.2371 80.7957 94.3378 81.8364 94.3714C84.7741 94.4889 84.8412 94.8416 81.9539 95.2614C80.4264 95.4797 80.1746 95.698 80.7789 96.3361C81.1818 96.7559 81.635 96.9742 82.189 96.991C82.6422 97.0078 82.7933 97.5955 82.5247 98.3512C82.1722 99.3923 82.2393 100.618 82.659 100.618C82.7597 100.618 83.0954 100.383 83.4312 100.098C83.8172 99.7618 84.069 99.6442 84.1026 99.7618C84.2201 100.131 83.6494 101.391 83.0954 101.945C82.4407 102.616 82.6422 102.835 83.8508 102.768C84.2873 102.734 84.6398 102.768 84.6398 102.818C84.6398 103.087 83.7669 103.809 83.4312 103.809C83.0618 103.809 81.0139 105.404 80.7285 105.908C80.5439 106.26 80.7285 106.496 81.165 106.496C81.6182 106.496 82.34 106.025 82.2057 105.824C82.0547 105.572 83.1458 104.816 84.0858 104.548C85.3448 104.178 85.5966 104.43 84.8076 105.236C84.2873 105.773 84.2705 105.824 84.6062 105.824C85.1266 105.824 85.0594 106.076 84.4719 106.529C84.1698 106.747 84.0019 106.999 84.0523 107.15C84.1026 107.268 84.0187 107.537 83.8508 107.705C83.5487 108.04 83.5654 108.04 84.5558 107.923L85.563 107.822L84.858 108.259C84.388 108.544 84.1362 108.813 84.1362 109.031C84.1362 109.367 84.1194 109.367 83.6158 108.998C83.1794 108.695 83.0618 108.679 82.9443 108.863C82.8604 108.998 82.7933 109.166 82.7933 109.266C82.7933 109.35 82.6422 109.266 82.4743 109.048C82.0547 108.561 81.9539 108.578 81.9539 109.149C81.9539 109.804 82.6925 110.845 83.8005 111.785C84.9084 112.726 85.2945 113.196 85.3112 113.582C85.3112 114.287 88.3832 114.069 89.5247 113.297C89.8436 113.061 90.2968 112.877 90.4983 112.877C91.1026 112.877 93.2009 110.677 93.2009 110.039C93.2009 109.669 93.3016 109.535 93.587 109.451C93.7884 109.401 94.3592 109.014 94.8628 108.595C95.3831 108.141 95.9203 107.839 96.1217 107.856C96.7764 107.906 96.8771 107.839 97.1625 107.285C97.3807 106.899 97.4479 106.277 97.4647 104.984C97.4815 103.07 97.75 102.297 98.3879 102.297C98.8244 102.297 98.9083 102.616 98.9083 104.363C98.9083 106.21 99.093 106.647 100.016 106.999C100.839 107.302 101.258 107.621 101.258 107.957C101.258 108.091 101.359 108.175 101.46 108.141C101.829 108.007 102.115 106.647 101.997 105.555C101.913 104.766 101.963 104.38 102.182 103.926C102.333 103.59 102.417 103.255 102.366 103.171C102.316 103.087 102.551 102.768 102.887 102.449C104.146 101.24 104.549 99.2916 104.028 96.7055C103.86 95.8995 103.76 95.211 103.793 95.1942C103.827 95.1774 104.079 95.0431 104.347 94.9088C104.985 94.5897 105.522 93.6829 105.388 93.1791C105.338 92.9608 104.918 92.3563 104.465 91.8357C103.844 91.1304 103.592 90.6771 103.441 90.0054C103.155 88.6116 103.004 79.7284 103.256 78.4353C103.642 76.5378 104.716 74.8921 106.026 74.2204C106.597 73.935 106.899 73.8846 107.939 73.9685C109.098 74.0525 109.215 74.0357 109.585 73.6663C110.239 73.0114 110.038 71.9702 109.081 71.0802C108.46 70.5093 108.527 69.9719 109.4 68.0912C110.592 65.5387 110.827 64.6151 111.062 61.2566C111.297 57.9149 111.347 57.7974 112.522 57.7974C112.891 57.7974 113.311 57.6631 113.596 57.428C114.016 57.0921 114.05 57.0081 113.949 56.2021C113.865 55.3961 113.882 55.2953 114.537 54.4389C115.325 53.381 117.206 50.2576 117.206 50.0057C117.206 49.9049 116.971 49.4851 116.702 49.0653C116.047 48.0746 116.064 47.7051 116.786 47.151C117.172 46.8487 117.575 46.2442 118.028 45.3038C118.7 43.91 119.489 42.8185 120.076 42.4994C120.311 42.3819 120.529 42.4155 120.882 42.6002C122.242 43.2887 122.712 42.7681 122.896 40.35C123.047 38.486 123.232 38.083 123.903 38.2006C124.138 38.251 125.28 38.7043 126.438 39.2081C129.292 40.4508 129.174 40.4508 129.309 39.3257C129.359 38.8219 129.577 38.0326 129.762 37.5793C130.215 36.5717 130.215 36.2526 129.795 35.3123C129.275 34.1872 129.342 34.0025 130.198 33.9185C130.702 33.8513 131.289 33.5994 131.978 33.146C133.556 32.0881 134.63 32.0377 135.217 32.9781C137.383 36.4877 138.088 37.2266 139.263 37.2266C139.767 37.2266 140.237 37.0419 140.992 36.5717L142.05 35.9168L143.393 36.706C144.131 37.1259 144.887 37.4785 145.071 37.4785C145.289 37.4785 145.508 37.2434 145.759 36.7564C146.229 35.8328 146.699 35.3123 147.388 35.0436C147.673 34.9092 147.942 34.7077 147.942 34.5902C147.958 34.4726 147.975 33.6498 147.992 32.7766C148.009 31.366 148.093 31.0134 148.647 29.6028C148.982 28.7464 149.268 27.8732 149.268 27.6549C149.268 27.3358 149.419 27.2015 150.074 26.9832C152.373 26.1772 153.213 25.8077 154.136 25.2032C154.69 24.8506 155.193 24.5483 155.244 24.5483C155.412 24.5483 157.879 26.6641 158.601 27.4366C159.659 28.5449 159.843 28.8975 159.843 29.8379C159.843 30.5264 159.726 30.8791 159.172 31.7691C158.433 32.9613 158.366 33.2972 158.752 33.6162C159.071 33.8849 159.054 33.9017 159.558 32.743C159.86 32.0545 160.179 31.6515 160.716 31.2821C162.546 30.0058 162.697 29.7036 162.026 28.6121C161.639 27.974 161.539 27.9572 160.968 28.4106C160.145 29.0655 159.826 28.5785 160.615 27.8564C161.186 27.3191 161.102 26.8153 160.448 26.8153C160.112 26.8153 159.944 26.7313 159.91 26.513C159.843 26.0764 159.558 25.7741 158.568 25.1192C157.594 24.4811 157.392 24.1621 157.745 23.8766C158.047 23.6247 158.735 23.7758 159.961 24.33C160.582 24.6155 161.002 24.7162 161.32 24.6323C161.69 24.5483 164.51 22.8355 165.097 22.3485C165.282 22.1973 164.275 21.0723 163.671 20.7532C163.285 20.5517 163.066 20.5349 162.663 20.6692C161.975 20.9211 161.925 20.8204 162.378 20.199C162.781 19.6449 162.731 19.4602 162.059 19.2587C161.74 19.1747 161.639 19.2251 161.572 19.4938C161.488 19.8464 161.186 19.9975 161.186 19.6785C161.186 19.5777 160.817 19.309 160.347 19.0404C159.591 18.6206 159.407 18.4022 159.105 17.4451C158.853 16.6726 157.862 17.5962 157.241 19.1747C156.788 20.3334 156.1 21.1898 155.613 21.1898C155.227 21.1898 155.227 21.0219 155.68 20.0983C155.882 19.6953 155.999 19.2922 155.932 19.2251C155.865 19.1579 155.462 19.2755 155.059 19.477C154.639 19.6785 154.304 19.8128 154.304 19.7624C154.304 19.7289 154.455 19.4434 154.639 19.1243C154.824 18.8053 154.958 18.3687 154.942 18.1504C154.891 17.8145 154.992 17.7473 155.63 17.6298C156.956 17.3947 157.275 16.6558 156.234 16.2192C155.697 16.0009 153.767 15.917 153.078 16.1017Z" fill="#1AAB9B"/>
<path d="M141.445 18.9223C141.294 19.3085 141.513 20.0138 141.832 20.1313C142.134 20.2489 142.788 19.5772 142.62 19.3253C142.57 19.2413 142.302 19.0566 142.033 18.9223C141.597 18.6872 141.529 18.6872 141.445 18.9223Z" fill="#1AAB9B"/>
<path d="M126.488 25.3713C126.388 25.5392 126.052 25.7239 125.767 25.7743L125.229 25.8918L125.599 26.3956C125.951 26.8994 126.606 27.1849 126.908 27.0001C127.194 26.8322 127.294 26.0262 127.093 25.5224C126.875 24.9682 126.757 24.9347 126.488 25.3713Z" fill="#1AAB9B"/>
<path d="M153.465 25.992C152.592 26.4958 151.551 26.9828 151.148 27.0836C150.376 27.2851 150.091 27.6041 149.386 29.0147C148.714 30.3581 148.379 31.8526 148.462 33.2296C148.563 34.6234 148.412 34.9592 147.489 35.3958C146.851 35.6981 146.179 36.6888 145.995 37.646C145.928 37.9651 145.844 38.2841 145.81 38.3513C145.76 38.4185 145.004 38.049 144.098 37.5285C143.208 37.0079 142.285 36.5881 142.05 36.5881C141.815 36.5881 141.261 36.8232 140.808 37.1087C138.894 38.3345 137.501 37.5621 135.503 34.1532C134.546 32.5411 134.446 32.4739 133.522 32.793C132.952 32.9945 132.733 33.4143 132.901 33.9685C133.019 34.3043 132.985 34.3211 132.163 34.2036C131.508 34.1196 131.307 34.1364 131.307 34.3043C131.307 34.6905 133.019 36.2019 135.1 37.646C137.769 39.5268 139.532 41.29 140.237 42.7677C140.707 43.7753 140.774 44.1615 140.875 45.8407C140.959 47.3521 141.043 47.8055 141.261 47.9566C141.462 48.1245 141.53 48.41 141.513 49.1656C141.496 49.9213 141.597 50.3747 141.932 51.08C142.453 52.1547 142.47 52.4066 142.117 54.556C141.563 58.0321 142.654 60.786 145.088 62.0119C145.676 62.2974 146.163 62.6836 146.314 62.9691C146.616 63.5568 147.12 66.5962 147.052 67.4526L147.002 68.1243L146.23 68.074C145.156 67.99 144.803 68.3427 142.503 71.7347C140.724 74.3376 140.556 74.5391 139.633 75.0261C139.079 75.3283 138.491 75.7313 138.323 75.9496C137.803 76.6045 137.014 78.3342 137.014 78.8379C137.014 79.3249 136.863 79.4257 135.554 79.7783C134.983 79.9295 134.815 80.0638 134.731 80.4332C134.53 81.34 134.463 81.4912 133.808 82.3476C133.069 83.3383 133.019 83.7749 133.405 85.4206C133.539 85.9747 133.657 86.9991 133.657 87.6876C133.657 88.6783 133.757 89.1317 134.093 89.8706C134.597 90.9453 134.647 91.8857 134.278 93.2291C133.909 94.4885 133.623 97.6455 133.825 98.1661C134.009 98.6866 134.127 98.7538 135.386 99.0057C136.41 99.224 136.427 99.224 136.376 99.7446C136.309 100.483 136.913 100.618 138.088 100.131C138.558 99.9461 139.012 99.7782 139.079 99.7782C139.129 99.7782 139.146 100.215 139.096 100.735C139.012 101.541 139.045 101.776 139.314 102.096L139.633 102.499L142.117 101.877C143.662 101.491 145.004 101.054 145.709 100.685C146.331 100.366 147.287 100.03 147.875 99.9461C148.446 99.8453 149.436 99.5431 150.108 99.2576C150.846 98.9553 151.82 98.6866 152.625 98.6027C153.364 98.5187 154.17 98.334 154.422 98.1997C155.177 97.7966 160.414 92.2719 162.546 89.6187C164.107 87.6876 165.82 85.1855 166.306 84.1444C166.827 83.0193 166.86 81.7934 166.407 81.0378C166.088 80.5172 165.501 79.9966 164.04 78.9051C163.251 78.3174 161.69 76.5038 161.69 76.1679C161.69 76.0504 162.076 75.7313 162.53 75.4291C163.956 74.5223 164.057 73.8506 163.016 72.6415C162.16 71.6508 162.009 71.2477 162.127 70.341C162.211 69.7364 162.16 69.5517 161.707 68.9976C161.103 68.2251 160.935 67.3519 160.952 65.2696C160.985 63.4896 161.237 62.4485 161.791 61.7768C162.127 61.3738 162.177 61.1723 162.093 60.6685C161.908 59.6945 161.153 57.5787 159.944 54.6568L158.803 51.9364L159.642 50.5426C160.095 49.7702 160.801 48.5107 161.187 47.7383L161.892 46.3277L161.522 45.6392C160.733 44.2287 159.844 43.2043 158.887 42.6334C157.578 41.8777 157.292 41.3572 157.191 39.4092C157.124 38.1834 157.175 37.6964 157.41 37.0751C157.695 36.3362 157.695 36.2858 157.41 35.9668C157.124 35.6477 157.141 35.6141 157.628 34.8417C157.98 34.2875 158.131 33.8509 158.115 33.4143C158.098 32.9945 158.266 32.5411 158.618 31.9702C159.659 30.2909 159.709 29.5185 158.836 28.2086C158.366 27.4866 155.513 25.0349 155.211 25.0685C155.127 25.0852 154.338 25.5051 153.465 25.992Z" fill="#1AAB9B"/>
<path d="M124.022 27.9398C123.887 28.1581 123.72 28.6451 123.652 29.0313C123.552 29.6862 123.568 29.7534 123.887 29.7534C124.307 29.7534 124.928 28.9978 124.928 28.4772C124.928 28.1581 124.542 27.5704 124.341 27.5704C124.29 27.5704 124.156 27.7383 124.022 27.9398Z" fill="#1AAB9B"/>
<path d="M126.774 27.8731C126.304 28.2593 126.153 29.418 126.471 30.3416C126.908 31.6682 127.63 31.0804 127.865 29.2332C128.049 27.7723 127.596 27.2014 126.774 27.8731Z" fill="#1AAB9B"/>
<path d="M121.638 30.2577C120.95 30.5264 120.261 32.8773 120.832 33.062C121.101 33.146 122.158 32.3735 122.158 32.1048C122.175 31.9705 122.309 31.6514 122.46 31.4164C122.695 31.0637 122.712 30.879 122.595 30.5264C122.41 30.073 122.225 30.0226 121.638 30.2577Z" fill="#1AAB9B"/>
<path d="M130.098 34.5565C130.031 34.6068 130.148 35.077 130.35 35.6144L130.702 36.5883L130.165 37.6127C129.695 38.5027 129.645 38.7042 129.829 38.9897C130.014 39.2751 129.997 39.4095 129.796 39.7789C129.292 40.6521 128.99 40.7025 127.731 40.1483C127.093 39.8629 126.119 39.5438 125.549 39.4263C124.844 39.2751 124.458 39.1072 124.29 38.8553C124.155 38.6538 123.937 38.4859 123.82 38.4859C123.568 38.4859 123.518 38.6706 123.266 40.7025C123.115 42.0627 122.645 43.3557 122.242 43.6076C122.158 43.658 121.705 43.5068 121.251 43.255C120.076 42.5833 119.774 42.768 118.884 44.6487C117.676 47.2012 117.625 47.2851 117.055 47.4699C116.769 47.5538 116.534 47.7217 116.534 47.8393C116.534 47.9401 116.786 48.4774 117.105 48.998C117.659 49.9216 117.676 49.9887 117.458 50.5261C117.323 50.8284 116.753 51.8023 116.182 52.6755C115.024 54.4723 114.369 55.9333 114.352 56.7225C114.352 57.3606 113.983 57.7133 112.942 58.0659C111.784 58.4689 111.666 58.7376 111.498 61.5252C111.331 64.128 110.995 65.5889 110.155 67.4529C109.853 68.1078 109.484 69.0146 109.316 69.4848L109.014 70.358L109.484 70.6938C110.474 71.4327 110.474 73.5654 109.484 74.2706C109.115 74.5225 108.947 74.5393 108.108 74.3882C106.765 74.1195 106.009 74.3714 105.136 75.3622C104.028 76.6216 103.743 77.6123 103.609 80.635C103.491 83.5569 103.676 88.8801 103.961 90.0556C104.079 90.5761 104.414 91.1639 104.968 91.8188C105.623 92.5912 105.791 92.9271 105.791 93.3973C105.791 94.1865 105.304 95.1101 104.75 95.3788C104.196 95.6307 104.196 95.6475 104.549 96.9909C104.868 98.2167 104.784 100.215 104.381 101.206C104.23 101.575 103.827 102.113 103.508 102.415C103.105 102.784 102.92 103.07 102.954 103.338C102.988 103.557 102.887 103.909 102.736 104.144C102.568 104.413 102.45 105.102 102.383 106.092C102.316 107.637 101.93 108.83 101.477 108.981C101.376 109.014 101.124 108.88 100.94 108.695C100.738 108.494 100.554 108.343 100.503 108.343C100.319 108.343 100.453 110.039 100.755 111.399C101.259 113.733 104.028 120.013 105.254 121.609C105.64 122.112 105.707 122.398 105.757 123.557C105.808 124.682 105.774 124.967 105.522 125.202C105.237 125.488 105.254 125.555 105.875 126.781C106.311 127.637 106.513 128.242 106.496 128.678C106.446 129.652 106.748 129.787 108.191 129.434C110.172 128.947 110.155 128.964 110.155 127.956C110.155 126.764 110.642 125.924 111.297 126.008C111.649 126.042 111.767 125.975 111.801 125.689C111.901 125.001 112.237 124.9 113.748 125.101C114.52 125.202 115.309 125.236 115.51 125.185C116.199 125.001 117.39 122.112 117.625 120.097C117.676 119.493 117.844 118.536 117.978 117.965C118.095 117.394 118.314 115.782 118.465 114.371C118.616 112.877 118.834 111.6 118.985 111.264C119.136 110.945 119.657 110.341 120.16 109.921C120.647 109.501 121.184 108.863 121.369 108.494C121.553 108.124 121.755 107.906 121.822 107.99C122.024 108.326 122.443 108.175 123.031 107.587C123.467 107.15 123.585 106.915 123.501 106.647C123.4 106.344 123.417 106.327 123.719 106.479C124.709 106.999 125.213 106.395 124.407 105.639C124.122 105.387 123.937 105.085 124.004 104.984C124.071 104.883 124.491 104.615 124.944 104.38C126.153 103.775 126.304 103.338 125.683 102.163C124.961 100.786 122.393 98.2167 121.402 97.8977C120.211 97.5282 119.992 96.9069 119.976 93.985C119.976 91.7516 120.009 91.5501 120.563 89.8709C121.134 88.1412 121.235 87.2176 120.983 86.3108C120.882 85.9078 120.949 85.8071 121.738 85.2361C122.326 84.8163 122.712 84.3797 122.913 83.9263C123.618 82.2639 126.791 79.0061 129.309 77.3605C131.055 76.2018 131.323 75.9163 132.112 74.2539C132.398 73.6493 133.019 72.7089 133.472 72.1548C133.942 71.6174 134.328 71.1137 134.328 71.0633C134.328 70.9961 134.026 70.6435 133.657 70.2572C132.784 69.384 132.784 68.8971 133.657 67.2514C134.043 66.5461 134.294 65.8576 134.244 65.6897C134.194 65.505 134.496 65.018 135.184 64.2455C136.275 63.0197 136.678 62.2976 136.678 61.542C136.678 60.6687 136.863 60.2993 137.199 60.4001C137.383 60.4672 137.517 60.4504 137.517 60.3665C137.517 60.2993 137.585 60.1146 137.685 59.9803C137.82 59.7787 137.87 59.7787 138.139 59.997C138.306 60.1482 138.693 60.3497 139.011 60.4672C139.7 60.6855 141.983 60.7191 142.134 60.484C142.184 60.4001 142.067 59.6276 141.865 58.788C141.496 57.2263 141.496 56.4706 141.815 53.0785C141.899 52.0878 141.865 51.8527 141.412 50.8116C141.076 50.0391 140.925 49.5018 140.992 49.1827C141.059 48.8804 140.992 48.6117 140.791 48.3934C140.556 48.1248 140.472 47.621 140.388 45.925C140.287 44.0946 140.203 43.6412 139.817 42.8016C139.213 41.4917 137.652 39.9468 134.999 38.0661C133.841 37.2432 132.431 36.0846 131.86 35.5136C130.92 34.5565 130.366 34.271 130.098 34.5565Z" fill="#1AAB9B"/>
<path d="M113.177 35.7992C113.177 35.9 112.858 36.1183 112.455 36.2862C112.069 36.4541 111.65 36.7228 111.515 36.8739C111.163 37.2938 111.734 37.4281 112.439 37.0922C113.144 36.7564 113.144 36.8572 112.506 37.8143C112.237 38.2341 112.002 38.6204 112.002 38.6875C112.002 38.8555 113.043 38.8555 113.261 38.6875C113.362 38.6204 113.446 38.4524 113.463 38.3181C113.479 38.1838 113.58 37.8311 113.681 37.5624C113.832 37.1762 113.849 36.8907 113.698 36.3366C113.513 35.7153 113.177 35.3458 113.177 35.7992Z" fill="#1AAB9B"/>
<path d="M115.141 36.0847C115.007 36.2526 114.805 36.706 114.705 37.0923C114.587 37.4785 114.386 37.8647 114.235 37.9487C114.1 38.0326 113.916 38.4021 113.865 38.7547C113.765 39.3928 113.748 39.4096 112.909 39.5104C111.566 39.6783 110.323 40.5011 110.542 41.0889C110.76 41.6262 111.666 41.3407 112.707 40.3668C112.942 40.1485 113.227 40.0141 113.328 40.0645C113.429 40.1317 113.798 39.9134 114.151 39.5775C114.52 39.2585 114.856 38.9898 114.906 38.9898C114.957 38.9898 114.923 39.2249 114.822 39.5104C114.721 39.779 114.688 40.0645 114.755 40.1149C114.873 40.2324 116.148 39.1913 117.072 38.2509C117.76 37.5121 117.978 37.0251 117.81 36.5045C117.609 35.9 117.223 35.9336 116.602 36.6053L116.031 37.2266V36.706C116.031 36.2358 115.779 35.7992 115.527 35.7992C115.46 35.7992 115.292 35.9336 115.141 36.0847Z" fill="#1AAB9B"/>
<path d="M128.62 100.182C128.318 100.551 128.469 101.206 128.872 101.206C129.292 101.206 129.678 100.467 129.426 100.165C129.191 99.8794 128.872 99.8962 128.62 100.182Z" fill="#1AAB9B"/>
<path d="M137.501 100.921C137.266 101.122 137.165 101.34 137.232 101.508C137.367 101.844 137.954 101.693 138.273 101.24C138.71 100.601 138.172 100.383 137.501 100.921Z" fill="#1AAB9B"/>
<path d="M146.868 105.051C146.683 105.202 146.314 105.253 145.844 105.202C144.769 105.068 143.359 105.538 142.705 106.244C142.403 106.563 141.932 106.865 141.681 106.932C140.791 107.117 140.64 108.443 141.379 109.401C141.714 109.82 141.714 109.82 141.379 109.904C140.942 110.022 140.959 110.106 141.563 111.164C142.218 112.306 142.738 112.574 143.292 112.054L143.695 111.667L143.98 112.104C144.199 112.423 144.249 112.725 144.165 113.196C144.098 113.683 144.132 113.934 144.333 114.119C144.568 114.354 144.652 114.354 145.206 114.102C145.542 113.951 146.045 113.834 146.314 113.851C147.019 113.884 148.211 114.64 149.419 115.849C150.007 116.437 150.561 116.907 150.645 116.907C150.729 116.907 151.031 116.789 151.299 116.638C151.602 116.487 151.988 116.42 152.273 116.487C152.844 116.604 153.733 116.05 154.17 115.295C154.472 114.774 154.472 114.741 154.136 113.901C153.414 112.037 153.801 109.552 155.211 107.167L155.949 105.908L153.817 105.79C152.256 105.723 151.333 105.572 150.292 105.253C148.748 104.783 147.338 104.699 146.868 105.051Z" fill="#1AAB9B"/>
<path d="M137.299 108.292C137.064 108.511 137.198 109.014 137.534 109.199C137.836 109.35 137.954 109.317 138.239 109.048C138.675 108.594 138.508 108.175 137.886 108.175C137.618 108.175 137.349 108.225 137.299 108.292Z" fill="#1AAB9B"/>
<path d="M137.232 111.046C136.477 111.264 136.057 111.902 136.326 112.473C136.493 112.843 136.594 112.893 136.98 112.792C137.551 112.658 138.726 111.97 139.028 111.6C139.23 111.365 139.23 111.298 138.944 111.096C138.592 110.828 138.021 110.811 137.232 111.046Z" fill="#1AAB9B"/>
<path d="M47.3068 111.567C47.055 112.171 46.6017 113.699 46.4506 114.421C46.3835 114.74 46.2324 114.925 45.947 114.992C45.2924 115.16 44.6881 115.983 44.6881 116.722C44.6881 117.427 45.0741 118.082 45.5106 118.082C46.0142 118.082 46.031 118.284 45.5777 118.821C44.6545 119.913 43.8152 122.28 44.3523 122.28C44.453 122.28 44.5202 122.347 44.5202 122.448C44.5202 122.532 44.3355 122.616 44.1173 122.616C43.8991 122.616 43.6305 122.734 43.513 122.868C43.2108 123.237 43.748 123.792 44.4195 123.792C44.8224 123.792 45.1245 123.59 45.8967 122.767C46.4339 122.213 46.8703 121.793 46.8703 121.827C46.8703 121.877 46.6017 122.465 46.2828 123.153C45.5777 124.631 45.4267 125.37 45.6952 126.059L45.8967 126.562L46.0478 126.159C46.1988 125.773 46.2156 125.773 46.5514 126.075C46.8032 126.294 47.1221 126.378 47.6425 126.361C48.4482 126.327 48.4147 126.26 48.1125 127.318C48.0621 127.519 48.1293 127.855 48.2804 128.074C48.6497 128.628 48.6329 128.678 47.9782 130.156C47.0885 132.137 47.1053 132.121 47.76 132.776C48.4818 133.498 48.6665 133.514 48.8008 132.859C48.935 132.272 48.9854 132.255 49.7072 132.624C50.3955 132.96 51.0166 132.826 51.6041 132.171C51.9734 131.768 52.1916 131.684 52.8127 131.684C53.5513 131.684 53.8031 131.869 53.4003 132.104C53.2995 132.171 52.9974 132.524 52.7288 132.893C52.3763 133.397 52.242 133.766 52.242 134.304C52.242 135.328 52.3763 135.546 53.182 135.882C53.8031 136.151 53.9374 136.302 54.1053 136.923C54.2396 137.477 54.2396 137.83 54.1053 138.401C53.9878 138.821 53.8535 139.325 53.8031 139.526C53.7528 139.778 53.8535 140.063 54.1556 140.433C54.676 141.037 54.6592 141.189 54.0381 141.659L53.5849 141.995L53.1988 141.625C52.9806 141.424 52.5777 141.222 52.3091 141.155C51.5873 141.021 50.429 141.373 49.959 141.877C49.4051 142.482 49.4386 142.868 50.0765 143.002C50.4794 143.069 50.5801 143.17 50.4962 143.372C50.429 143.523 50.513 143.791 50.6473 143.943C50.8823 144.211 50.8823 144.312 50.5633 145.152C50.1101 146.394 49.2876 147.2 48.0454 147.654C46.9039 148.073 46.6689 148.359 46.8032 149.182C46.9878 150.206 46.9878 150.223 47.6425 149.82C48.1125 149.518 48.3643 149.467 48.935 149.568C49.3211 149.618 50.043 149.736 50.513 149.803C51.2012 149.887 51.5369 150.055 51.9902 150.492L52.5609 151.046L53.2827 150.727C53.6856 150.559 54.3739 150.072 54.8271 149.652L55.6496 148.896L55.2803 149.602C54.8271 150.508 54.0046 151.449 53.4003 151.768C53.1485 151.885 52.5609 152.003 52.1245 152.003C50.5633 152.02 49.4554 152.876 47.3235 155.714C46.0142 157.46 46.0478 157.712 47.5082 156.973C48.935 156.251 49.5729 156.134 50.2947 156.436C51.3355 156.873 51.688 156.789 52.0573 156.05C52.4434 155.311 53.2492 154.572 53.8535 154.421C54.1053 154.354 54.5921 154.455 55.0957 154.673C56.1364 155.126 56.8751 155.143 56.9926 154.707C57.0933 154.32 57.4458 154.27 61.9782 154.052C64.5968 153.917 65.2179 153.85 65.9398 153.531C66.7623 153.178 68.1892 151.936 67.9877 151.751C67.9541 151.701 67.3666 151.6 66.7119 151.516C66.0573 151.432 65.453 151.314 65.3522 151.247C65.0333 151.063 65.1508 150.693 65.6712 150.324C65.9565 150.122 66.158 149.837 66.1412 149.686C66.1076 149.501 66.4434 149.165 67.0645 148.762C68.2731 147.956 68.8774 147.066 68.9949 145.974C69.146 144.379 68.1892 143.54 66.2083 143.523C65.3858 143.523 65.1004 143.59 64.9326 143.808C64.664 144.161 64.0093 144.194 63.5729 143.875C63.2707 143.657 63.2707 143.623 63.6904 143.12C64.2611 142.465 64.3786 142.045 64.2611 141.34C64.1268 140.634 63.3043 139.929 62.146 139.509C61.6928 139.341 61.3067 139.157 61.3067 139.09C61.3067 139.039 61.5249 138.72 61.7767 138.401C63.1532 136.722 62.935 135.849 60.8535 134.807C59.4937 134.136 59.3427 133.85 58.2012 129.82C57.899 128.745 57.0093 127.721 55.6832 126.965C54.995 126.579 54.6425 126.478 53.7696 126.478C52.5945 126.478 51.3691 126.176 51.453 125.924C51.4866 125.823 52.0238 125.538 52.6616 125.286C53.2995 125.017 53.971 124.648 54.1556 124.446L54.5082 124.094L53.6353 124.195C53.1485 124.262 52.7456 124.245 52.7456 124.161C52.7456 124.094 53.0981 123.808 53.5178 123.54C54.5753 122.868 55.2636 122.012 56.17 120.248C57.1269 118.384 57.5465 116.991 57.2779 116.655C56.7072 115.966 52.7288 116.252 50.8487 117.108C50.2276 117.394 49.6736 117.578 49.6065 117.511C49.5394 117.461 49.7408 116.907 50.043 116.319C50.3619 115.698 50.5633 115.127 50.4962 114.959C50.3955 114.673 50.9326 114.086 52.6449 112.591C53.5178 111.835 53.6185 111.382 52.9134 111.18C52.6784 111.113 51.3691 111.063 50.0094 111.046L47.525 111.029L47.3068 111.567Z" fill="#1AAB9B"/>
<path d="M125.667 114.64C125.113 114.858 124.139 115.967 123.686 116.857C123.4 117.428 123.333 118.855 123.568 119.241C124.021 119.963 125.264 118.351 125.264 117.025C125.264 116.235 125.348 116.084 126.237 115.362C126.976 114.774 126.556 114.271 125.667 114.64Z" fill="#1AAB9B"/>
<path d="M144.988 114.758C143.745 115.396 143.695 115.48 143.813 116.84C143.947 118.25 143.611 119.241 142.738 119.963C141.496 121.021 140.17 120.652 139.297 119.023C138.558 117.663 137.635 116.739 137.014 116.739C136.259 116.739 134.714 117.377 134.328 117.864C134.144 118.116 133.993 118.553 133.993 118.905C133.993 119.443 133.741 120.232 132.935 122.398C132.633 123.154 132.364 125.303 132.549 125.303C132.616 125.303 133.187 125.001 133.791 124.632C135.52 123.624 135.99 123.574 140.153 123.909C143.561 124.178 143.796 124.178 144.266 123.909C144.937 123.523 145.021 123.54 145.76 124.212C146.129 124.531 146.532 124.799 146.683 124.799C147.203 124.799 148.043 125.37 149.302 126.596L150.594 127.839L151.383 127.385C151.92 127.066 152.374 126.932 152.894 126.949C153.817 126.949 154.506 126.512 155.278 125.387C155.781 124.648 155.832 124.464 155.765 123.758C155.647 122.818 155.11 121.693 154.64 121.441C154.338 121.29 154.321 121.139 154.422 119.963C154.472 119.157 154.455 118.519 154.338 118.318C154.237 118.133 153.767 117.763 153.297 117.511C152.424 117.041 152.172 117.025 150.897 117.344C150.477 117.444 150.309 117.327 149.268 116.252C148.614 115.597 147.841 114.909 147.539 114.724C146.851 114.287 145.844 114.304 144.988 114.758Z" fill="#1AAB9B"/>
<path d="M95.9713 117.88C94.7291 118.989 94.0912 119.358 93.1679 119.509C92.4126 119.627 91.2039 120.517 90.8514 121.188C90.65 121.591 90.5996 122.397 90.5996 124.984V128.275L91.3214 129.047C91.8754 129.669 92.0265 129.954 92.0265 130.424C92.0265 130.76 92.1272 131.281 92.2615 131.583C92.4629 132.07 92.614 132.171 93.3526 132.355C93.9905 132.507 94.343 132.507 94.7794 132.355C95.367 132.171 95.9377 131.684 95.5852 131.684C95.3334 131.684 95.048 130.592 95.048 129.652C95.048 128.359 95.2159 127.805 95.6691 127.637C95.9713 127.519 96.0552 127.402 95.9713 127.15C95.8874 126.898 95.9713 126.797 96.4245 126.68C96.9281 126.562 96.9785 126.478 96.9953 125.924C97.0121 125.168 97.4653 124.631 98.0696 124.631C98.5564 124.631 99.3454 123.926 99.1607 123.64C99.1104 123.539 98.8418 123.455 98.5732 123.455C97.3142 123.455 96.9281 121.961 97.566 119.61C97.7674 118.921 97.9017 118.048 97.8682 117.679C97.7842 116.621 97.3478 116.671 95.9713 117.88Z" fill="#1AAB9B"/>
<path d="M144.534 124.346C144.115 124.665 143.997 124.665 141.513 124.48C136.024 124.077 134.63 124.245 133.59 125.488C133.136 126.008 133.12 126.109 133.22 127.15C133.355 128.661 133.757 129.77 134.429 130.425C134.983 130.979 135.167 131.046 136.88 131.264C137.383 131.331 137.87 131.533 138.206 131.802C138.676 132.205 138.726 132.322 138.642 133.011C138.609 133.431 138.508 133.918 138.441 134.069C138.374 134.253 138.458 134.455 138.693 134.656C138.911 134.824 139.532 135.429 140.119 136C141.328 137.209 141.714 137.394 143.091 137.394C143.997 137.394 144.148 137.343 144.585 136.873C144.836 136.588 145.34 136.285 145.693 136.184C146.532 135.966 147.858 134.606 148.06 133.75C148.16 133.397 148.278 132.927 148.328 132.692C148.378 132.44 148.63 132.171 148.966 132.02C149.302 131.869 149.554 131.6 149.604 131.348C149.671 131.063 149.872 130.878 150.225 130.761C150.712 130.593 150.729 130.559 150.51 130.257C150.359 130.055 150.309 129.753 150.359 129.484C150.645 128.225 147.976 125.303 146.566 125.303C146.347 125.303 145.944 125.034 145.592 124.648L144.988 124.01L144.534 124.346Z" fill="#1AAB9B"/>
<path d="M155.396 126.327C154.439 127.301 153.952 127.52 152.978 127.385C152.24 127.285 152.139 127.318 151.82 127.738C151.619 127.99 151.367 128.51 151.249 128.88C151.082 129.451 151.082 129.568 151.333 129.753C151.904 130.173 151.552 130.979 150.662 131.248C150.091 131.432 148.799 132.977 148.664 133.615C148.614 133.934 148.412 134.304 148.245 134.472C148.043 134.657 147.926 134.976 147.926 135.379C147.926 135.983 147.892 136.017 147.237 136.117C146.314 136.269 145.307 136.806 145.189 137.209C145.089 137.646 143.947 137.948 142.974 137.814C141.396 137.562 141.194 138.032 141.731 140.584C142.336 143.54 142.05 145.185 140.909 145.32C140.019 145.421 139.986 146.546 140.875 147.083C141.446 147.419 141.614 147.771 141.614 148.712C141.631 149.652 142.017 149.837 142.856 149.283C143.947 148.561 144.77 148.41 147.674 148.41C150.645 148.41 151.971 148.611 153.096 149.249C154.002 149.787 154.858 149.921 158.686 150.156C162.161 150.374 162.916 150.525 163.269 151.012C163.554 151.415 163.621 151.315 163.772 150.324C163.99 148.813 164.981 147.687 166.408 147.301C166.878 147.167 167.079 147.016 167.163 146.714C167.28 146.26 166.995 144.782 166.542 143.389C166.189 142.347 166.273 141.928 166.894 141.592C167.146 141.457 167.348 141.474 167.717 141.676C168.388 142.012 168.959 141.995 169.748 141.592C170.705 141.105 170.873 140.685 170.352 140.081C170.117 139.795 169.983 139.459 170.033 139.274C170.117 138.922 169.715 138.737 168.791 138.737C168.204 138.737 167.734 138.368 167.734 137.914C167.734 137.763 167.398 137.226 166.978 136.739C166.055 135.647 164.863 133.296 164.846 132.524C164.846 132.205 164.897 131.617 164.964 131.231C165.199 129.938 164.209 128.427 162.58 127.587C161.875 127.234 161.321 127.251 160.801 127.654C160.146 128.175 159.844 128.091 159.844 127.402C159.844 126.647 159.29 126.244 158.451 126.395C157.964 126.495 157.863 126.462 157.779 126.16C157.712 125.874 157.611 125.824 157.192 125.908C156.906 125.975 156.655 125.924 156.587 125.824C156.369 125.488 156.067 125.622 155.396 126.327Z" fill="#1AAB9B"/>
<path d="M102.384 126.545C100.151 127.536 99.9495 127.771 100.52 128.846C100.655 129.132 100.738 129.484 100.688 129.618C100.554 129.938 101.393 130.727 102.669 131.482C103.743 132.137 104.129 132.137 103.626 131.482C103.156 130.895 103.172 130.76 103.777 130.508C104.062 130.391 104.28 130.273 104.28 130.223C104.28 130.189 104.129 129.938 103.928 129.686C103.609 129.249 103.592 129.148 103.81 128.728C103.961 128.393 104.163 128.242 104.448 128.242C104.834 128.242 104.868 128.191 104.851 127.452C104.851 126.613 104.465 125.975 103.961 125.975C103.81 125.975 103.105 126.243 102.384 126.545Z" fill="#1AAB9B"/>
<path d="M38.645 130.391C37.386 131.012 36.2949 131.751 36.2949 132.003C36.2949 132.121 36.1438 132.49 35.9424 132.792L35.5898 133.363H36.5802C38.0407 133.363 38.7457 132.876 39.5682 131.315C40.2901 129.938 40.0551 129.703 38.645 130.391Z" fill="#1AAB9B"/>
<path d="M111.834 130.677C111.834 130.777 112.019 131.046 112.254 131.264C112.472 131.499 112.74 131.684 112.841 131.684C113.143 131.684 113.026 131.247 112.623 130.878C112.203 130.492 111.834 130.391 111.834 130.677Z" fill="#1AAB9B"/>
<path d="M132.011 131.281L131.272 132.02H131.927C132.28 132.02 132.666 131.936 132.783 131.819C133.001 131.6 133.069 130.492 132.867 130.525C132.783 130.542 132.397 130.878 132.011 131.281Z" fill="#1AAB9B"/>
<path d="M41.398 131.264C40.3404 131.801 37.8057 134.186 37.8057 134.656C37.8057 134.841 38.1246 135.395 38.5107 135.882C39.0814 136.604 39.2493 136.722 39.3836 136.52C39.7193 136.067 40.5922 135.093 40.7769 134.992C40.8776 134.925 41.1126 135.126 41.314 135.462C41.7169 136.151 42.573 136.722 43.2109 136.722C43.8488 136.722 44.8056 135.832 45.0574 135.009C45.2421 134.354 45.2421 134.304 44.8056 133.968C44.5035 133.733 44.302 133.346 44.1845 132.775C43.8152 131.046 42.8584 130.525 41.398 131.264Z" fill="#1AAB9B"/>
<path d="M92.3455 133.044C92.5469 133.363 92.8491 133.867 93.0002 134.169L93.2855 134.74L92.698 135.227C92.2951 135.546 92.1944 135.714 92.3959 135.714C92.5469 135.714 92.8155 136.017 93.017 136.42C93.4534 137.31 94.6788 138.737 95.686 139.493C96.1392 139.845 96.3239 140.08 96.156 140.08C95.7028 140.08 94.7627 139.644 94.0913 139.106C93.4534 138.603 92.5637 138.233 92.0098 138.233C91.758 138.233 91.7076 138.368 91.7412 139.19C91.7748 140.097 91.7412 140.164 91.3719 140.215C90.7843 140.299 90.18 140.114 90.18 139.829C90.18 139.493 89.6261 139.375 88.3335 139.442L87.2424 139.493L87.3095 141.34C87.3767 143.624 87.0913 144.53 86.252 144.749C85.547 144.933 85.4966 145.387 86.1345 145.756C87.192 146.344 86.5877 147.855 84.993 148.611L84.053 149.064L83.969 150.408C83.9187 151.147 83.818 151.852 83.734 151.969C83.4822 152.389 83.6165 153.649 84.0194 154.707C84.6741 156.369 84.6908 156.52 84.4055 156.957C84.053 157.494 84.0697 157.746 84.4726 158.435C84.6573 158.737 84.8587 159.375 84.9091 159.828C84.9762 160.282 85.0937 160.786 85.1777 160.953C85.3623 161.323 86.4199 161.843 88.7868 162.75L90.6668 163.472L89.9954 164.782C88.9043 166.965 88.1489 169.635 88.6357 169.635C88.7028 169.635 89.475 169.484 90.3479 169.299C92.2616 168.896 93.0841 168.879 93.3695 169.215C93.487 169.35 93.8395 169.467 94.1584 169.467C94.4942 169.467 95.216 169.719 95.9042 170.072C96.5421 170.408 97.2304 170.676 97.4486 170.676C97.8179 170.659 98.1536 170.609 101.679 169.837C104.566 169.232 104.65 169.215 105.456 169.635C105.842 169.837 106.194 169.954 106.245 169.904C106.295 169.87 106.161 169.316 105.959 168.712C105.489 167.301 105.556 167.133 107.168 165.773C107.839 165.202 108.494 164.631 108.628 164.497C108.83 164.312 108.578 163.976 106.849 162.179C104.7 159.996 103.777 158.653 103.777 157.763C103.777 157.36 103.911 157.125 104.398 156.722C105.221 156.05 109.166 154.085 110.206 153.833C110.743 153.699 111.264 153.397 111.801 152.927C112.573 152.221 112.59 152.188 112.573 151.231C112.54 150.022 111.633 146.226 111.146 145.236C110.945 144.849 110.559 144.279 110.307 143.976C109.72 143.321 109.72 143.137 110.173 142.23C110.844 140.92 110.542 138.586 109.552 137.276C109.182 136.789 109.048 136.739 108.41 136.755C107.789 136.789 107.554 136.705 106.95 136.201C105.691 135.177 105.59 135.143 104.449 135.614C103.223 136.117 101.612 137.075 101.226 137.545C100.89 137.948 100.604 137.965 99.7316 137.729C98.6069 137.41 98.5061 136.873 99.4294 136.336C100.252 135.882 99.8323 135.597 98.2208 135.513C97.1464 135.479 96.8275 135.395 96.71 135.16C96.6093 134.992 96.3407 134.875 96.0553 134.875C95.451 134.875 95.4342 134.774 95.9378 134.237L96.3071 133.834L95.921 133.531C95.5853 133.263 94.7292 133.028 92.5469 132.591L91.9762 132.49L92.3455 133.044Z" fill="#1AAB9B"/>
<path d="M121.906 133.296C120.227 133.649 118.532 134.321 117.34 135.093C116.702 135.513 115.477 136.067 114.335 136.453C113.278 136.823 112.069 137.293 111.633 137.511C110.726 137.948 110.676 138.099 111.028 139.778C111.213 140.685 111.196 140.802 110.776 141.844C110.525 142.448 110.323 143.053 110.323 143.204C110.323 143.355 110.592 143.775 110.911 144.144C111.817 145.219 112.724 148.275 112.942 150.995C113.059 152.507 113.227 153.011 113.563 153.011C113.681 153.011 114.05 153.279 114.352 153.598C114.738 154.001 115.242 154.287 115.863 154.472C117.474 154.925 118.246 155.597 117.34 155.731C116.971 155.781 117.004 155.832 117.659 156.52C118.515 157.377 118.985 157.393 118.935 156.554C118.918 156.033 118.952 156.016 119.354 156.117C120.949 156.503 124.525 158.602 125.599 159.778C126.186 160.399 126.304 160.466 126.606 160.265C127.177 159.912 127.513 160.03 128.369 160.903C128.822 161.356 129.292 161.743 129.393 161.743C129.51 161.743 130.031 161.508 130.568 161.222C131.508 160.735 131.642 160.702 133.086 160.769C134.529 160.836 134.731 160.886 136.426 161.709C137.417 162.196 138.29 162.549 138.373 162.482C138.457 162.431 138.373 162.095 138.189 161.743C138.004 161.373 137.853 160.97 137.853 160.819C137.853 160.349 138.776 159.19 140.69 157.293C141.714 156.285 142.553 155.328 142.553 155.177C142.553 155.009 142.335 154.388 142.05 153.783C141.361 152.238 141.194 151.533 141.059 149.518L140.925 147.788L140.22 147.066C139.397 146.226 139.414 146.126 140.539 145.034C141.546 144.077 141.781 143.556 141.647 142.498C141.513 141.39 140.69 138.132 140.203 136.856C139.851 135.916 139.834 135.899 139.062 135.765C137.987 135.58 128.973 135.597 127.58 135.782C126.657 135.899 126.304 135.882 125.683 135.647C124.894 135.345 124.256 134.69 124.256 134.203C124.256 133.817 123.752 133.246 123.333 133.145C123.148 133.095 122.51 133.162 121.906 133.296Z" fill="#1AAB9B"/>
<path d="M107.017 134.657C107.134 135.379 107.319 135.597 107.688 135.463C108.326 135.211 108.057 134.354 107.268 134.153C106.95 134.069 106.933 134.119 107.017 134.657Z" fill="#1AAB9B"/>
<path d="M35.8753 134.707C35.8081 134.807 35.7913 135.16 35.8249 135.513C35.8753 136.201 35.9424 136.184 34.482 135.949C33.8441 135.849 33.7434 135.882 33.6762 136.168C33.5923 136.504 33.5755 136.504 33.1894 136.117C32.9712 135.899 32.6691 135.714 32.518 135.714C32.0815 135.714 31.3261 136.168 31.024 136.621C30.5875 137.293 30.6715 137.561 31.3093 137.561C31.8969 137.561 32.2662 137.813 32.2662 138.2C32.2662 138.317 31.8969 138.821 31.4269 139.308C30.9736 139.795 30.5875 140.265 30.5875 140.349C30.5875 140.685 31.3597 140.954 32.8033 141.105C33.6259 141.189 34.3813 141.289 34.4652 141.34C34.717 141.508 34.4148 141.927 33.6762 142.448C32.9376 142.952 32.5851 143.657 32.8873 143.959C32.988 144.06 33.4244 144.228 33.8777 144.346L34.7002 144.564L33.6091 144.917C32.1319 145.42 31.7626 145.689 31.7626 146.31C31.7626 147.016 31.5108 147.452 30.705 148.191L30 148.829L30.7554 148.712C31.9472 148.527 32.0144 148.544 32.0144 148.88C32.0144 149.048 32.1822 149.249 32.4005 149.333C32.6523 149.434 32.7698 149.618 32.7698 149.904C32.7698 150.223 32.8537 150.324 33.1559 150.324C33.6595 150.324 35.4724 149.451 35.8585 148.997C36.0767 148.762 36.3789 148.644 36.7985 148.644C37.2686 148.644 37.5875 148.493 38.2757 147.889C38.8297 147.435 39.4004 147.1 39.7865 147.032C40.1223 146.982 40.5755 146.781 40.7769 146.596C41.1294 146.26 41.1462 146.26 41.6666 146.562C42.187 146.881 42.2038 146.881 42.4388 146.545C42.7242 146.159 43.2781 144.329 43.4292 143.271C43.5635 142.297 43.2613 139.929 42.8417 138.653C42.657 138.099 42.2206 137.293 41.8681 136.856C41.5323 136.436 41.1462 135.949 41.0455 135.781C40.8441 135.479 40.7769 135.53 40.0215 136.352L39.199 137.259L38.3765 136.336C37.1007 134.908 36.1439 134.27 35.8753 134.707Z" fill="#1AAB9B"/>
<path d="M82.8605 140.904C82.1219 141.088 81.954 141.223 81.6854 141.861C81.3329 142.684 81.4001 143.053 81.9372 143.54C82.508 144.044 82.9612 144.9 82.9612 145.454C82.9612 146.042 82.038 146.798 81.2826 146.798C80.3257 146.798 80.0404 146.361 79.9564 144.749C79.8893 143.087 79.5871 143.036 79.0332 144.615C78.8317 145.219 78.2946 146.411 77.8749 147.251C77.4385 148.108 77.0859 148.846 77.0859 148.88C77.0859 148.93 77.6567 149.048 78.3449 149.165C79.0332 149.266 79.6039 149.417 79.6039 149.468C79.5871 149.518 79.0835 149.804 78.4624 150.089L77.3377 150.61L78.4289 150.542C79.3185 150.475 79.6207 150.526 80.1075 150.828C81.3665 151.567 82.7598 152.171 83.0116 152.071C83.1626 152.02 83.3641 151.718 83.4648 151.399C83.6327 150.912 83.6159 150.643 83.3977 149.971C83.2466 149.518 83.1626 149.065 83.213 148.981C83.2634 148.897 83.5823 148.746 83.9348 148.628C84.8077 148.343 85.5463 147.822 85.966 147.218C86.436 146.529 86.4192 146.378 85.8149 145.924C85.1602 145.454 85.177 145.135 85.9156 144.43C87.4768 142.935 87.3089 141.424 85.5463 140.937C84.8245 140.736 83.6495 140.719 82.8605 140.904Z" fill="#1AAB9B"/>
<path d="M172.349 146.629C171.98 146.881 171.678 146.948 171.241 146.898C170.788 146.831 170.519 146.881 170.217 147.116C169.714 147.519 169.395 147.603 167.448 147.788C165.03 148.04 164.493 148.493 164.275 150.441C164.073 152.137 163.721 152.423 163.066 151.398C162.68 150.81 162.647 150.794 161.925 150.911C161.371 150.995 160.918 150.928 160.162 150.676C159.222 150.34 159.121 150.34 158.635 150.592C158.215 150.81 157.997 150.827 157.426 150.676C157.057 150.575 155.966 150.424 155.009 150.34C153.699 150.223 153.196 150.105 152.86 149.836C152.054 149.198 150.829 148.946 148.177 148.863C145.34 148.762 143.997 148.946 143.258 149.551C143.006 149.769 142.587 150.038 142.301 150.172C141.865 150.374 141.798 150.525 141.747 151.13C141.697 151.7 141.831 152.137 142.318 153.111C142.872 154.219 142.922 154.454 142.822 155.193C142.671 156.285 142.57 156.537 142.268 156.537C141.915 156.537 139.666 158.753 138.927 159.811L138.323 160.701L138.659 161.877C138.843 162.532 138.944 163.103 138.894 163.153C138.843 163.203 138.558 163.254 138.256 163.254C137.551 163.254 137.165 163.791 137.047 164.916C136.863 166.847 138.373 167.687 142.469 167.939C144.047 168.04 144.4 168.107 144.853 168.443L145.39 168.846L146.532 168.56C147.975 168.207 149.536 167.485 150.292 166.814C151.131 166.075 151.685 165.907 153.213 165.907C154.841 165.89 156.335 166.26 157.946 167.032C159.524 167.821 159.843 168.224 159.843 169.5C159.843 170.29 159.894 170.508 160.145 170.575C160.783 170.777 160.918 170.961 161.102 171.851C161.203 172.406 161.472 172.993 161.74 173.329C162.076 173.715 162.193 174.034 162.16 174.387C162.126 174.79 162.193 174.958 162.512 175.109C162.898 175.311 162.898 175.311 162.563 175.495C162.378 175.596 161.925 175.714 161.555 175.781C160.985 175.865 160.85 175.831 160.699 175.529C160.431 175.042 160.162 175.092 159.659 175.73C158.87 176.738 157.157 179.794 157.157 180.214C157.157 180.483 157.913 180.416 158.87 180.029C160.901 179.24 164.208 176.52 164.208 175.663C164.208 175.025 164.896 174.572 166.407 174.253C168.052 173.917 168.723 174.034 169.428 174.773L169.814 175.193L169.328 175.596L168.824 175.982L169.244 176.15C169.479 176.234 170.452 176.402 171.426 176.52C172.383 176.62 173.424 176.822 173.726 176.94C174.817 177.393 174.246 178.216 172.215 179.123C171.611 179.408 171.09 179.66 171.09 179.71C171.09 179.761 171.627 180.113 172.265 180.516C173.659 181.373 173.977 181.86 173.843 183.002C173.776 183.556 173.826 183.925 173.977 184.127C174.179 184.412 174.246 184.412 174.934 184.16C175.337 184.026 175.908 183.757 176.193 183.589C176.479 183.405 177.2 183.102 177.805 182.918C178.661 182.632 178.98 182.447 179.215 182.044L179.517 181.541L180.877 181.658C182.136 181.759 182.287 181.725 182.723 181.39C183.227 180.987 183.328 180.432 182.908 180.264C182.757 180.214 182.069 180.332 181.38 180.516C179.802 180.953 179.467 180.835 178.157 179.458C177.67 178.938 177.167 178.552 177.049 178.602C176.63 178.753 176.663 178.031 177.117 177.309C177.587 176.604 178.896 175.344 179.198 175.344C179.282 175.344 180.105 175.042 181.028 174.673C181.951 174.303 183.093 173.9 183.563 173.799C184.049 173.699 184.603 173.48 184.822 173.312C185.04 173.144 185.829 172.809 186.584 172.557C188.347 171.986 188.884 171.7 188.884 171.381C188.884 170.961 190.042 169.484 190.781 168.946C191.368 168.527 191.603 168.459 192.577 168.459C193.903 168.459 194.021 168.375 194.289 167.049C194.457 166.243 194.457 166.008 194.188 165.269C193.802 164.194 193.92 163.539 194.675 162.397C194.994 161.927 195.263 161.44 195.263 161.323C195.263 160.617 191.184 158.804 189.069 158.569C188.162 158.468 188.145 158.451 187.373 157.376C186.416 156.033 186.148 155.966 184.738 156.721C183.982 157.141 183.613 157.242 183.445 157.124C182.421 156.369 182.253 156.302 181.347 156.285C180.474 156.285 180.39 156.251 180.037 155.697C179.752 155.294 179.668 154.992 179.735 154.656C179.819 154.303 179.718 153.967 179.416 153.447C178.812 152.406 178.224 151.969 177.57 152.103C177.284 152.154 176.831 152.12 176.579 152.02C175.79 151.717 175.337 150.105 175.841 149.316C176.311 148.56 174.699 146.646 173.356 146.394C173.004 146.327 172.702 146.394 172.349 146.629Z" fill="#1AAB9B"/>
<path d="M78.9329 151.113C78.7986 151.164 78.1272 151.415 77.4389 151.701C76.4821 152.087 76.0624 152.171 75.5924 152.087C75.2567 152.02 74.6356 151.953 74.1991 151.953C73.5444 151.919 73.3262 152.003 72.8898 152.423C72.4701 152.826 72.3862 153.028 72.4197 153.514L72.4701 154.102L73.343 154.052C74.0984 154.001 74.2159 154.035 74.3166 154.337C74.5181 154.992 75.2902 155.714 76.1799 156.117C77.1368 156.537 77.4221 156.907 77.4221 157.696C77.4221 158.535 77.6403 158.485 79.084 157.41L79.6044 157.024V157.41C79.6212 158.384 80.9809 160.198 81.753 160.248C82.6595 160.315 82.7938 160.114 82.6763 158.955C82.5756 157.964 82.9281 157.142 83.3645 157.31C83.6499 157.41 83.9689 156.907 83.9689 156.336C83.9689 155.681 83.3478 154.858 82.7938 154.74C82.2063 154.64 81.9545 154.27 81.9545 153.565C81.9545 152.893 81.5516 152.389 80.6283 151.936C80.1919 151.701 79.7387 151.399 79.6212 151.264C79.3861 150.979 79.3358 150.979 78.9329 151.113Z" fill="#1AAB9B"/>
<path d="M70.5733 153.397C70.2712 153.498 69.7844 153.783 69.5158 154.035C69.1297 154.405 69.029 154.623 69.029 155.227C69.029 156.134 68.4079 157.461 67.6693 158.166C67.3503 158.452 66.6789 158.905 66.1753 159.157C64.7316 159.862 64.1609 160.349 64.1609 160.886C64.1609 161.592 63.8755 161.743 62.5662 161.743C60.9043 161.743 59.7461 161.407 59.2257 160.786C58.806 160.299 57.866 159.761 57.6981 159.929C57.6477 159.98 57.7149 160.265 57.8492 160.584C58.0506 161.088 58.7892 164.48 58.7892 164.95C58.7892 165.034 58.2185 165.101 57.5302 165.101C56.842 165.101 55.9355 165.185 55.5159 165.303L54.7605 165.504L53.9547 164.715C53.065 163.842 52.7797 163.758 52.3264 164.262C51.9739 164.648 51.2353 164.883 49.8756 165.017C49.3552 165.068 48.7845 165.219 48.6166 165.336C48.2977 165.572 48.348 165.656 49.3049 166.344C49.5567 166.529 49.6238 166.747 49.5902 167.335C49.5734 167.755 49.5399 168.191 49.5231 168.309C49.4895 168.443 49.7077 168.544 50.1106 168.577C50.4463 168.611 51.1682 168.829 51.7053 169.064C53.1657 169.719 53.9379 169.988 54.7605 170.106C55.4487 170.223 55.5159 170.273 55.5159 170.693C55.5326 170.996 55.7677 171.382 56.2545 171.886C56.7413 172.389 56.9595 172.725 56.8756 172.91C56.6238 173.565 57.9835 175.345 59.1753 175.899C60.3336 176.453 60.3336 176.419 60.0482 179.896C59.7461 183.489 59.2928 186.226 58.7053 188.057C58.2688 189.366 58.2856 189.534 58.8732 189.652C59.0746 189.686 59.2089 189.837 59.2089 190.055C59.2089 191.079 60.4007 191.466 64.1609 191.633C67.4678 191.801 68.559 192.053 69.4654 192.859C69.9858 193.296 70.204 193.38 70.9427 193.38C71.4127 193.38 72.0506 193.279 72.3527 193.162C72.8227 192.96 72.9402 192.792 73.2256 191.801C73.6285 190.458 74.216 189.837 75.8779 189.064C77.204 188.443 77.439 188.476 80.981 189.585L83.6165 190.408L84.2543 190.122C84.6069 189.954 85.3287 189.434 85.8658 188.963C86.403 188.493 87.1248 187.956 87.4606 187.788C88.0313 187.486 88.6692 186.696 88.6692 186.277C88.6692 186.176 88.4342 186.092 88.1488 186.092C87.0241 186.092 85.9834 184.833 85.9834 183.456C85.9834 182.985 85.8826 182.482 85.7316 182.297C85.3287 181.776 85.4462 181.424 86.1512 180.97C86.5205 180.735 86.8227 180.483 86.8227 180.399C86.8227 180.315 86.6212 179.828 86.3862 179.308C86.1009 178.686 85.9834 178.199 86.0505 177.931C86.1009 177.713 86.2016 177.343 86.2519 177.125C86.3191 176.839 86.2184 176.587 85.8323 176.168L85.3287 175.597L84.1536 176.235L82.9786 176.856L83.3143 176.268C83.4989 175.949 83.65 175.513 83.6332 175.311C83.5829 174.656 83.6165 174.572 84.0697 174.371C84.3047 174.253 84.6069 173.884 84.7579 173.548C84.8922 173.195 85.3119 172.574 85.6812 172.171C86.0505 171.751 86.3862 171.197 86.4366 170.962C86.4869 170.66 86.6548 170.475 86.9066 170.408C87.4438 170.273 87.7291 169.753 88.2663 168.023C88.5013 167.2 88.9042 166.109 89.1224 165.605C89.7771 164.144 89.861 163.792 89.5757 163.506C89.4246 163.372 89.2064 163.254 89.0553 163.254C88.921 163.254 87.9642 162.885 86.9234 162.448C85.1776 161.676 83.8683 161.206 82.1728 160.752C81.8035 160.651 81.0313 160.232 80.4774 159.829C79.252 158.922 78.5637 158.552 78.0937 158.552C77.523 158.552 77.0865 158.233 77.0865 157.83C77.0865 157.041 76.8851 156.705 76.4654 156.705C75.5422 156.705 74.2328 155.698 74.2328 154.976C74.2328 154.539 73.8299 154.354 73.2424 154.522C72.5206 154.724 72.2688 154.606 72.0506 153.934C71.7988 153.162 71.547 153.078 70.5733 153.397Z" fill="#1AAB9B"/>
<path d="M111.666 153.934C109.451 154.388 106.009 155.899 104.834 156.923C103.71 157.914 104.213 158.989 107.302 162.095C110.29 165.118 110.861 165.336 112.153 163.926C112.573 163.456 113.06 163.086 113.211 163.086C113.379 163.086 114.168 163.271 114.973 163.506C115.779 163.741 117.089 163.976 117.877 164.043C119.12 164.127 119.355 164.094 119.606 163.842C119.774 163.674 120.043 163.59 120.244 163.64C121.1 163.859 122.762 162.868 122.981 161.995C123.048 161.726 123.417 161.39 124.055 161.021C125.146 160.383 125.297 160.047 124.726 159.442C124.072 158.754 120.58 156.873 119.942 156.873C119.808 156.873 119.472 157.058 119.187 157.293C118.918 157.528 118.616 157.713 118.532 157.713C118.23 157.713 116.702 156.05 116.702 155.731C116.702 155.345 115.762 154.891 114.604 154.723C113.916 154.623 113.748 154.539 113.714 154.236C113.664 153.951 113.194 153.649 112.842 153.699C112.791 153.716 112.271 153.817 111.666 153.934Z" fill="#1AAB9B"/>
<path d="M83.1296 158.2C82.7267 158.955 83.18 160.567 83.7843 160.567C84.5565 160.567 84.7075 159.19 84.0361 158.401C83.5325 157.797 83.3814 157.763 83.1296 158.2Z" fill="#1AAB9B"/>
<path d="M126.64 160.819C126.103 161.273 125.667 161.357 125.566 161.038C125.516 160.92 125.331 160.886 125.079 160.954C124.29 161.172 123.619 161.726 123.25 162.482C122.83 163.355 121.89 164.027 120.681 164.295C119.808 164.48 119.422 164.833 119.288 165.521C119.103 166.562 120.144 168.141 121.453 168.779C122.091 169.081 122.276 169.098 123.333 168.947C124.76 168.728 124.928 168.645 125.264 168.023C125.499 167.62 125.684 167.519 126.389 167.435C126.842 167.368 127.413 167.2 127.648 167.049C127.916 166.881 128.369 166.781 128.856 166.814C129.612 166.831 129.696 166.797 130.3 166.092L130.938 165.353H132.616C134.127 165.353 134.345 165.387 134.698 165.723C134.933 165.941 135.185 166.109 135.269 166.109C135.621 166.109 136.343 165.135 136.914 163.875L137.518 162.566L136.293 161.995C133.909 160.903 131.827 160.836 130.317 161.844C129.947 162.079 129.41 162.297 129.125 162.297C128.655 162.331 128.571 162.263 128.369 161.659C128.151 161.038 127.597 160.399 127.278 160.399C127.194 160.399 126.909 160.584 126.64 160.819Z" fill="#1AAB9B"/>
<path d="M112.926 163.791C112.741 163.892 112.254 164.278 111.835 164.648C111.029 165.336 111.13 165.32 109.401 165C108.981 164.933 108.695 165.068 107.604 165.89C106.883 166.428 106.261 167.032 106.194 167.234C106.144 167.435 106.228 168.141 106.396 168.779C106.765 170.223 106.631 170.525 105.741 170.156C104.818 169.753 103.895 169.753 102.568 170.122C101.511 170.424 100.185 170.676 97.4653 171.096C97.1464 171.147 96.7099 171.063 96.391 170.895C95.6188 170.492 95.3838 170.66 95.3838 171.566C95.3838 172.843 96.3574 173.531 97.2974 172.91C97.65 172.675 97.7339 172.691 98.3046 173.078C99.06 173.581 99.2279 173.598 99.9833 173.145C100.47 172.859 103.072 172.154 103.643 172.154C103.71 172.154 103.962 172.456 104.197 172.826C104.432 173.195 104.801 173.615 105.036 173.766C105.674 174.186 107.739 174.673 109.401 174.774C112.07 174.958 116.266 173.783 117.089 172.641C117.307 172.356 117.441 171.801 117.492 171.046C117.592 169.719 117.71 169.534 118.583 169.182C118.935 169.047 119.221 168.812 119.237 168.644C119.305 167.687 118.868 165.622 118.465 165C118.297 164.732 117.995 164.614 117.307 164.53C116.787 164.48 115.779 164.245 115.074 164.01C113.597 163.54 113.396 163.523 112.926 163.791Z" fill="#1AAB9B"/>
<path d="M131.055 165.974C130.871 166.075 130.484 166.411 130.199 166.713C129.729 167.217 129.561 167.284 128.823 167.284C128.302 167.284 127.95 167.368 127.916 167.486C127.866 167.603 127.396 167.771 126.842 167.872C126.053 168.006 125.818 168.124 125.65 168.443C125.398 168.963 124.895 169.232 123.887 169.366C122.779 169.534 121.672 169.333 120.966 168.863C120.228 168.359 120.127 168.359 119.859 168.913C119.64 169.35 119.422 169.518 118.851 169.702C118.667 169.753 118.549 169.954 118.549 170.223C118.549 170.458 118.482 170.643 118.398 170.643C118.113 170.643 117.626 172.221 117.626 173.162C117.626 174.942 118.784 176.201 121.621 177.528C123.216 178.283 123.887 178.35 124.559 177.863C125.163 177.427 126.17 177.158 129.695 176.537C132.851 175.983 133.338 175.764 133.506 174.824C133.674 173.934 133.926 173.397 134.933 171.852C136.024 170.172 137.367 168.695 137.954 168.56C138.508 168.409 138.458 168.073 137.82 167.586C136.998 166.965 136.293 166.629 135.487 166.512C135.084 166.445 134.564 166.26 134.345 166.075C134.043 165.84 133.657 165.773 132.667 165.773C131.962 165.773 131.24 165.874 131.055 165.974Z" fill="#1AAB9B"/>
<path d="M152.726 166.293C152.357 166.377 152.038 166.478 152.005 166.512C151.904 166.595 154.741 171.281 155.345 172.036C156.033 172.909 156.151 173.396 156.268 176.15C156.335 177.595 156.453 178.652 156.57 178.82C156.755 179.072 156.822 179.055 157.192 178.669C157.41 178.417 157.913 177.578 158.283 176.805C159.206 174.941 159.307 174.841 160.532 174.841C161.422 174.841 161.556 174.79 161.674 174.454C161.791 174.169 161.741 174.001 161.422 173.715C161.22 173.497 160.901 173.01 160.717 172.624C160.549 172.221 160.096 171.532 159.71 171.096C158.921 170.189 158.87 169.954 159.34 169.349C159.894 168.644 159.71 168.292 158.803 168.292C158.618 168.292 158.434 168.157 158.383 167.956C158.283 167.603 158.199 167.569 157.477 167.62C157.208 167.637 156.99 167.536 156.94 167.385C156.789 167.015 155.681 166.495 154.556 166.293C154.019 166.192 153.532 166.108 153.482 166.125C153.431 166.142 153.079 166.209 152.726 166.293Z" fill="#1AAB9B"/>
<path d="M149.973 167.603C149.184 168.14 146.783 169.064 145.743 169.232C145.189 169.316 145.004 169.266 144.568 168.896C144.098 168.51 143.896 168.46 142.822 168.46C142.15 168.46 141.177 168.376 140.656 168.275C139.481 168.04 139.078 168.14 138.189 168.879C137.803 169.198 137.349 169.467 137.198 169.467C136.812 169.467 135.352 171.717 134.328 173.9C133.455 175.747 133.254 175.966 131.692 176.755C131.206 176.99 130.803 177.242 130.803 177.309C130.803 177.376 131.055 177.662 131.373 177.947C131.726 178.266 132.028 178.753 132.146 179.173C132.28 179.727 132.481 179.979 133.035 180.315C133.942 180.886 134.16 181.171 134.16 181.81C134.16 182.733 135.302 183.388 136.947 183.405C137.433 183.405 137.92 183.506 138.122 183.657C138.441 183.909 138.441 183.909 138.105 184.16C137.803 184.412 137.803 184.429 138.491 185.134C138.961 185.605 139.196 186.008 139.196 186.293C139.196 186.78 139.465 186.931 140.27 186.931C140.556 186.931 141.227 187.082 141.764 187.267C143.728 187.956 146.817 187.637 149.335 186.478C150.712 185.84 151.165 185.705 151.954 185.705C153.313 185.722 154.908 186.209 155.445 186.78C155.932 187.301 156.805 187.452 157.124 187.049C157.208 186.948 157.376 186.31 157.476 185.672C157.711 184.278 158.249 182.582 158.584 182.129C158.836 181.81 158.853 181.826 159.155 182.179C159.575 182.683 159.709 182.666 160.414 181.994C160.8 181.642 161.018 181.272 161.018 181.004C161.018 180.181 159.86 179.946 158.987 180.584C158.249 181.138 157.074 181.087 156.57 180.5C156.15 180.03 156.066 179.559 155.815 176.604C155.714 175.496 155.563 174.287 155.462 173.917C155.227 173.044 153.7 170.139 152.642 168.56C151.534 166.915 151.182 166.797 149.973 167.603Z" fill="#1AAB9B"/>
<path d="M91.5056 170.055C89.273 170.323 87.9637 170.693 87.074 171.314C86.3186 171.835 85.5968 172.691 85.2946 173.447C85.1771 173.699 84.8246 174.169 84.4889 174.471C83.9853 174.925 83.9181 175.042 84.1363 175.176C84.2706 175.277 84.6399 175.328 84.9421 175.277C85.7478 175.16 85.9493 175.294 86.4025 176.184C86.9565 177.275 87.2418 177.527 87.9301 177.527C88.8701 177.527 89.6255 177.124 89.9109 176.453C90.1627 175.848 91.0524 175.244 91.3713 175.445C91.472 175.495 91.6567 175.815 91.791 176.134C91.9253 176.436 92.1435 176.738 92.2778 176.805C92.6807 176.956 93.3018 176.419 93.8054 175.512C94.0572 175.059 94.309 174.673 94.3761 174.673C94.4432 174.673 94.695 174.824 94.9301 175.008C95.1651 175.193 95.484 175.344 95.6351 175.344C95.9205 175.344 97.5655 173.883 97.5655 173.631C97.5655 173.531 97.3305 173.497 97.0284 173.564C95.9037 173.766 94.9468 172.758 94.7622 171.129C94.5943 169.702 94.544 169.685 91.5056 170.055Z" fill="#1AAB9B"/>
<path d="M100.856 173.161C100.588 173.245 100.202 173.48 100 173.665C99.6979 173.951 99.4461 174.018 98.8922 173.967C98.2207 173.917 98.1536 173.951 98.1032 174.337C98.0696 174.572 97.8178 174.958 97.5492 175.21C97.2807 175.462 97.0624 175.781 97.0624 175.915C97.0624 176.486 95.6692 176.436 95.1152 175.831C94.9641 175.663 94.7291 175.512 94.6116 175.512C94.3262 175.512 93.7555 176.335 93.638 176.906C93.5876 177.158 93.5037 177.544 93.4533 177.779C93.403 178.014 93.2687 178.199 93.168 178.199C93.0505 178.199 92.5133 177.712 91.9426 177.108C90.7843 175.865 90.3478 175.714 90.3478 176.57C90.3478 177.359 89.945 177.662 88.4845 177.964C86.3862 178.384 86.4366 178.317 87.0577 179.761L87.3431 180.399L86.6212 181.071L85.8994 181.726L86.3694 182.548C86.8898 183.489 86.9234 183.741 86.5709 183.741C86.2351 183.741 86.2519 184.06 86.638 184.647C87.0241 185.218 87.7963 185.756 88.2495 185.756C88.686 185.756 89.0049 186.058 89.0049 186.461C89.0049 186.998 89.4246 186.797 91.2039 185.437L92.933 184.093L94.7459 185.034C96.9617 186.159 97.2807 186.545 97.7507 188.543C97.9521 189.366 98.1871 190.206 98.2711 190.407C98.5564 190.995 102.082 194.79 103.508 196.049C105.036 197.376 105.707 197.746 107 197.997C108.393 198.249 108.964 198.552 109.921 199.492C110.391 199.962 110.995 200.399 111.264 200.449C111.532 200.516 111.851 200.583 111.952 200.634C112.07 200.667 112.372 201.121 112.624 201.641C112.993 202.431 113.194 202.649 113.799 202.918C114.755 203.337 115.259 204.059 115.88 205.806C116.535 207.687 116.669 208.829 116.317 209.232C115.914 209.668 115.36 210.961 115.36 211.482C115.36 212.137 115.93 212.422 116.4 212.002C116.871 211.583 117.542 210.39 117.794 209.551C117.962 208.996 118.146 208.761 118.717 208.426C119.959 207.703 119.909 206.881 118.532 205.722C117.978 205.269 117.71 204.899 117.71 204.647C117.71 204.127 119.506 201.725 119.976 201.608C120.698 201.423 122.779 202.683 123.082 203.472C123.249 203.925 123.568 204.009 123.887 203.69C124.206 203.371 124.122 203.119 123.552 202.447C122.813 201.608 121.705 200.819 119.137 199.274C115.83 197.309 115.511 197.007 116.115 196.503C116.249 196.385 116.367 196.15 116.367 195.982C116.367 195.697 116.216 195.663 114.823 195.663C113.53 195.663 113.11 195.596 112.422 195.26C110.861 194.521 109.77 193.178 108.947 190.911C108.679 190.172 108.36 189.383 108.225 189.131C107.907 188.493 106.765 187.502 105.859 187.049C105.137 186.713 105.086 186.696 104.935 186.982C104.835 187.133 104.667 187.267 104.532 187.267C104.264 187.267 104.18 186.998 104.029 185.504C103.978 184.95 103.878 184.144 103.827 183.69C103.76 183.069 103.794 182.817 104.029 182.548C104.331 182.246 104.331 182.179 104.062 181.322C103.911 180.836 103.777 180.315 103.777 180.164C103.777 179.761 104.499 179.291 105.892 178.77C107.487 178.199 107.722 177.88 107.571 176.553C107.42 175.244 107.185 174.958 106.01 174.639C105.472 174.488 104.767 174.169 104.448 173.934C103.206 173.027 102.115 172.792 100.856 173.161Z" fill="#1AAB9B"/>
<path d="M115.527 174.186C114.419 174.572 111.851 175.109 110.256 175.277C109.014 175.395 108.309 175.832 108.309 176.47C108.309 176.94 109.131 178.569 109.618 179.072C110.105 179.593 110.944 179.711 111.095 179.291C111.229 178.972 111.951 178.972 112.505 179.291C112.74 179.425 113.093 179.526 113.277 179.543C113.58 179.543 113.647 179.459 113.613 179.005C113.596 178.552 113.68 178.434 114.268 178.132C114.889 177.796 114.939 177.729 114.939 177.041C114.939 176.335 114.99 176.268 115.946 175.512C116.685 174.942 116.954 174.622 116.954 174.32C116.954 173.8 116.668 173.783 115.527 174.186Z" fill="#1AAB9B"/>
<path d="M115.746 176.285C115.393 176.654 115.343 176.806 115.427 177.36C115.511 177.947 115.477 178.048 115.091 178.3C114.856 178.451 114.52 178.871 114.353 179.207C114.168 179.56 113.916 179.879 113.765 179.946C113.211 180.147 112.506 180.046 112.187 179.694C111.751 179.224 111.331 179.392 111.331 179.996C111.331 180.298 111.566 180.769 112.003 181.289C112.422 181.793 112.708 182.347 112.775 182.75C112.842 183.103 113.11 183.674 113.413 184.026C114.42 185.235 114.403 185.235 114.202 185.487C113.782 185.991 114.705 187.099 116.3 188.04C116.82 188.342 117.391 188.51 118.146 188.577L119.254 188.661L117.811 186.646C115.427 183.321 114.789 181.81 115.477 181.121C115.746 180.869 116.048 180.853 118.381 180.953C121.672 181.088 123.971 181.34 124.844 181.659C125.213 181.81 125.633 181.961 125.767 181.994C125.935 182.045 126.12 181.843 126.355 181.356C126.59 180.869 126.808 180.617 127.077 180.584C127.362 180.533 127.446 180.617 127.446 180.886C127.446 181.104 127.312 181.289 127.11 181.34C126.674 181.457 126.691 181.642 127.144 182.263C127.446 182.717 127.48 182.851 127.312 183.254C126.64 184.883 126.64 184.681 127.413 185.47C127.799 185.857 128.118 186.26 128.118 186.36C128.118 186.461 127.933 186.646 127.698 186.763C127.178 187.032 127.178 187.217 127.631 187.704C128.084 188.191 127.95 188.543 127.278 188.695C126.993 188.762 126.64 188.997 126.472 189.249C126.103 189.837 125.969 189.937 125.583 189.837C125.348 189.769 125.264 189.837 125.264 190.105C125.264 190.307 125.062 190.659 124.811 190.894C124.391 191.281 124.374 191.331 124.592 192.003C124.827 192.842 125.633 194.068 126.036 194.219C126.237 194.303 126.54 194.085 127.094 193.497C127.513 193.027 128.067 192.607 128.319 192.557C129.225 192.322 131.139 193.648 131.139 194.505C131.139 195.042 131.542 195.042 132.583 194.488C133.338 194.102 133.942 193.934 135.168 193.8C137.266 193.564 137.35 193.514 137.35 192.439C137.35 191.633 137.417 191.499 138.038 190.861L138.743 190.139L138.139 189.45C137.552 188.762 137.014 187.536 137.014 186.881C137.014 186.696 137.132 186.209 137.3 185.773C137.602 184.9 137.501 183.741 137.098 183.741C136.981 183.741 136.729 183.942 136.561 184.177L136.225 184.614L135.201 183.842C134.077 182.985 133.657 182.481 133.657 182.011C133.657 181.558 133.204 180.97 132.482 180.483C131.978 180.164 131.777 179.879 131.626 179.341C131.374 178.401 130.048 177.024 129.393 177.024C128.739 177.024 126.556 177.528 126.288 177.746C126.137 177.88 126.103 178.132 126.187 178.619C126.254 178.989 126.338 179.526 126.389 179.811C126.489 180.416 126.221 180.685 125.851 180.382C125.684 180.248 125.6 179.862 125.6 179.308C125.6 178.434 125.398 178.031 124.978 178.031C124.861 178.031 124.76 178.149 124.76 178.283C124.76 179.123 122.494 178.518 119.724 176.94C118.096 176.016 117.676 175.848 116.988 175.848C116.35 175.848 116.098 175.932 115.746 176.285Z" fill="#1AAB9B"/>
<path d="M115.578 181.306C115.528 181.457 115.528 181.809 115.595 182.112C115.813 183.22 118.532 187.301 119.741 188.325C120.127 188.678 120.48 189.148 120.58 189.484C120.664 189.803 121 190.34 121.319 190.676C121.923 191.297 123.786 192.641 124.038 192.641C124.105 192.641 124.173 192.238 124.173 191.734C124.173 190.961 124.257 190.726 124.693 190.172C124.995 189.803 125.381 189.517 125.633 189.484C126.002 189.433 126.069 189.349 126.036 188.896C126.019 188.392 126.053 188.359 126.657 188.308C127.345 188.241 127.412 188.123 127.009 187.519C126.858 187.284 126.741 186.797 126.741 186.411C126.758 185.957 126.64 185.621 126.422 185.403C125.952 184.933 126.019 184.328 126.607 183.741C127.144 183.186 127.177 183.103 126.959 182.75C126.858 182.599 126.657 182.565 126.304 182.649C125.952 182.716 125.566 182.649 125.029 182.414C124.055 181.961 123.216 181.793 120.261 181.474C117.71 181.188 117.374 181.239 117.374 181.91C117.374 182.38 117.122 182.296 116.635 181.642C116.149 181.02 115.746 180.886 115.578 181.306Z" fill="#1AAB9B"/>
<path d="M137.87 186.176C137.585 186.427 137.35 186.78 137.35 186.982C137.35 187.519 138.273 189.047 138.86 189.484C139.213 189.736 139.364 189.987 139.364 190.307C139.364 190.71 139.263 190.81 138.709 190.961C137.971 191.163 137.853 191.448 137.853 193.228C137.853 194.202 137.904 194.354 138.458 195.008C139.196 195.882 139.364 196.285 139.246 196.889C139.179 197.242 139.246 197.376 139.599 197.527C139.952 197.695 140.254 197.678 141.16 197.427C142.99 196.94 143.913 196.923 144.853 197.343C145.39 197.594 146.112 197.746 147.019 197.796C148.68 197.897 149.587 197.544 150.091 196.537C150.544 195.647 151.081 195.21 151.987 194.975C152.676 194.79 152.86 194.79 153.381 195.042C154.22 195.445 154.623 195.411 154.808 194.908C155.043 194.286 154.707 193.48 154.203 193.48C153.649 193.48 153.683 193.01 154.304 192.221C154.573 191.885 154.959 191.18 155.143 190.659C155.563 189.551 156.016 189.014 156.788 188.678C157.46 188.409 157.477 187.888 156.822 187.804C156.587 187.771 155.647 187.401 154.724 186.965C153.23 186.26 152.911 186.176 151.87 186.176C150.779 186.176 150.594 186.226 149.184 187.015L147.673 187.855L144.904 187.838C142.117 187.838 140.002 187.603 139.213 187.217C138.877 187.049 138.776 186.881 138.776 186.444C138.776 185.705 138.525 185.638 137.87 186.176Z" fill="#1AAB9B"/>
<path d="M37.1343 188.157C36.8993 188.275 36.5971 188.627 36.446 188.93C36.1103 189.635 35.4388 190.021 34.7674 189.87C34.3645 189.786 34.1631 189.836 33.8441 190.139C33.3573 190.592 33.3238 191.18 33.777 191.801C34.2302 192.439 34.4652 193.094 34.5995 194.068L34.7002 194.908L35.741 194.857C36.4964 194.807 36.7986 194.857 36.9161 195.042C37.2854 195.663 38.8297 195.882 39.5515 195.411C40.0551 195.076 41.3141 194.924 41.8681 195.143C42.2038 195.26 42.3381 195.462 42.422 195.982C42.4892 196.352 42.6403 196.738 42.7745 196.856C43.1271 197.141 43.0767 197.292 42.3213 198.468C41.717 199.391 41.5995 199.71 41.4988 200.785C41.4316 201.49 41.247 202.229 41.0959 202.464C40.928 202.716 40.8105 203.102 40.8273 203.354C40.8945 204.261 40.8105 204.53 40.3237 205.151C39.7194 205.907 39.7026 206.159 40.2062 206.914C40.8273 207.838 40.8273 207.989 40.2901 209.013L39.7866 209.987L40.1391 210.726C40.3237 211.129 40.4916 211.532 40.4916 211.633C40.4916 211.734 40.223 212.12 39.9041 212.506C39.4172 213.06 39.3165 213.329 39.3501 213.799C39.4005 214.337 39.5012 214.437 40.6259 215.059C41.9017 215.764 42.0527 215.932 43.6642 218.551C44.6211 220.113 45.2422 220.214 45.9808 218.921C46.1822 218.551 46.6019 218.132 46.904 217.981C47.7937 217.527 49.7745 217.174 52.5779 216.973C56.4891 216.704 56.1366 216.822 57.7145 215.227C58.5539 214.37 59.2925 213.766 59.5778 213.698C59.8296 213.648 60.1821 213.564 60.3332 213.514C60.5011 213.48 60.7025 213.161 60.82 212.741C61.0215 211.969 61.374 211.415 62.3644 210.273C63.4219 209.064 63.4387 208.997 62.7505 207.435C62.4147 206.679 62.1462 205.991 62.1462 205.907C62.1462 205.806 62.868 204.698 63.7409 203.438C64.6306 202.179 65.537 200.785 65.772 200.348C66.2589 199.492 67.0646 198.955 68.6929 198.434C70.2205 197.947 72.1509 196.856 72.8727 196.083C73.6113 195.294 73.8464 194.488 73.5778 193.766C73.3763 193.228 73.0742 193.195 72.6713 193.648C72.3188 194.068 71.2277 194.102 70.1198 193.715C69.6833 193.581 69.1797 193.48 68.9783 193.48C68.3068 193.547 68.1893 193.48 68.1893 193.06C68.1893 192.456 67.7361 192.305 65.9735 192.305C62.549 192.305 59.9303 191.717 58.8057 190.71C57.9495 189.937 57.3117 189.803 53.5851 189.618C48.5995 189.366 46.3333 189.148 45.5443 188.862C45.0239 188.678 44.1343 188.61 42.5228 188.61C40.6091 188.61 40.1223 188.543 39.5012 188.275C38.6786 187.888 37.7386 187.855 37.1343 188.157Z" fill="#1AAB9B"/>
<path d="M93.0506 192.758C92.1944 193.178 92.1273 193.531 92.4462 195.428C92.5973 196.335 92.782 197.158 92.8659 197.242C93.1345 197.511 93.8395 196.873 94.3095 195.899C94.9474 194.606 94.981 193.262 94.3935 192.792C93.9234 192.406 93.7892 192.406 93.0506 192.758Z" fill="#1AAB9B"/>
<path d="M127.714 193.329C127.194 193.732 127.194 193.799 127.614 195.999C127.832 197.175 127.731 199.29 127.429 200.18C127.278 200.6 127.295 200.852 127.513 201.389C127.664 201.776 127.748 202.212 127.698 202.363C127.631 202.565 127.832 202.817 128.369 203.186C128.889 203.556 129.158 203.875 129.242 204.227C129.292 204.513 129.393 204.782 129.46 204.815C129.662 204.933 130.535 203.824 131.139 202.699C131.424 202.162 131.81 201.608 132.012 201.473C132.364 201.222 132.364 201.222 131.575 199.66C130.82 198.132 130.803 198.065 130.837 196.671C130.887 194.975 130.568 194.169 129.645 193.564C128.722 192.96 128.268 192.892 127.714 193.329Z" fill="#1AAB9B"/>
<path d="M133.874 194.32C133.656 194.404 133.488 194.555 133.488 194.656C133.488 194.74 133.304 194.824 133.069 194.824C132.531 194.824 131.894 195.445 131.474 196.385C131.054 197.292 131.054 197.745 131.474 198.619C132.129 199.962 133.807 200.281 135.234 199.324C135.704 199.022 136.392 198.736 136.896 198.669C138.071 198.484 138.608 197.93 138.591 196.923C138.575 195.982 137.886 194.891 137.097 194.555C136.376 194.253 134.361 194.102 133.874 194.32Z" fill="#1AAB9B"/>
<path d="M151.887 195.327C151.014 195.596 150.611 196.133 150.611 197.023C150.611 197.46 150.544 197.863 150.46 197.913C149.94 198.249 150.191 199.962 150.863 200.634C151.467 201.221 151.937 201.137 153.095 200.214C154.203 199.324 155.11 199.022 156.705 199.022C157.191 199.022 157.846 198.971 158.182 198.921L158.786 198.82L157.611 198.199C156.688 197.729 156.251 197.376 155.681 196.62C155.043 195.781 154.875 195.646 154.539 195.73C154.287 195.797 153.884 195.713 153.465 195.495C152.743 195.126 152.609 195.109 151.887 195.327Z" fill="#1AAB9B"/>
<path d="M177.469 195.328C177.234 195.395 176.361 195.462 175.522 195.479C173.591 195.495 171.308 196.066 169.294 197.007C167.531 197.83 166.608 198.434 166.474 198.871C166.273 199.475 165.836 199.542 164.174 199.274C162.512 199.005 159.172 198.921 159.172 199.156C159.172 199.475 160.196 200.231 160.867 200.432L161.589 200.651L160.599 201.02C159.373 201.457 159.071 201.625 159.121 201.86C159.189 202.112 158.735 202.179 156.066 202.296C151.416 202.481 149.604 203.27 149.604 205.067C149.604 205.722 149.839 205.806 151.114 205.571C151.685 205.47 152.189 205.42 152.239 205.47C152.289 205.521 152.172 205.756 151.97 206.008C151.5 206.595 151.517 206.797 152.121 207.468C152.709 208.157 152.743 208.325 152.289 208.879C152.105 209.114 151.954 209.416 151.954 209.534C151.954 209.651 152.105 209.836 152.289 209.937C152.474 210.038 152.625 210.189 152.625 210.256C152.625 210.34 152.474 210.441 152.289 210.491C152.038 210.558 151.954 210.726 151.954 211.096C151.954 211.549 152.021 211.633 152.457 211.734C153.095 211.851 153.38 212.322 153.129 212.792C153.028 212.976 152.877 213.128 152.793 213.128C152.474 213.128 152.642 213.43 153.38 214.236C153.8 214.689 154.186 215.227 154.237 215.445C154.337 215.798 154.404 215.814 155.126 215.714C155.546 215.663 155.932 215.613 155.982 215.613C156.486 215.613 156.738 215.747 157.258 216.318C157.627 216.704 158.03 216.99 158.249 216.99C158.635 216.99 159.172 217.46 159.172 217.796C159.172 217.897 159.424 218.249 159.743 218.568C160.213 219.072 160.414 219.173 161.002 219.173C162.328 219.173 163.536 218.3 163.788 217.175C163.973 216.335 164.241 216.234 165.433 216.553C166.894 216.956 169.025 218.014 170.016 218.837C171.057 219.71 171.409 219.777 172.635 219.442C173.978 219.072 175.085 218.484 176.042 217.662C176.462 217.292 176.999 216.939 177.234 216.889C177.838 216.738 178.963 216.923 179.299 217.225C179.702 217.594 179.954 217.561 180.591 217.074C181.347 216.503 181.867 216.318 182.22 216.503C182.639 216.738 182.555 217.309 182.001 218.148C181.447 218.971 181.38 219.442 181.733 219.945C181.968 220.264 181.985 220.248 182.421 219.845C183.059 219.257 183.344 218.635 183.344 217.863C183.344 217.46 183.479 217.04 183.663 216.805L183.982 216.402L184.838 216.721C185.778 217.057 186.332 217.023 188.045 216.57C189.119 216.301 189.186 216.301 190.63 216.637C192.577 217.107 192.795 217.091 194.826 216.402C196.606 215.814 197.663 215.596 200.097 215.327C201.004 215.227 201.608 215.075 201.81 214.891C202.112 214.622 202.145 214.622 202.615 214.908C203.069 215.159 203.186 215.176 203.69 214.958C204.109 214.79 204.949 214.74 207.064 214.773C209.464 214.807 209.884 214.773 209.968 214.555C210.119 214.152 209.716 213.329 209.145 212.876C208.658 212.506 208.642 212.456 208.843 212.053C209.179 211.448 208.994 209.148 208.491 207.586C208.037 206.175 208.054 205.907 208.574 205.907C209.145 205.907 209.363 205.672 209.481 205.017C209.598 204.228 209.33 203.892 208.541 203.892C207.618 203.892 207.181 203.573 206.778 202.582C206.459 201.826 206.426 201.574 206.56 201.037C206.728 200.432 206.711 200.348 206.04 199.458C205.654 198.955 205.066 198.333 204.714 198.065C204.16 197.628 203.992 197.595 202.8 197.628C201.239 197.662 199.929 198.014 198.838 198.686C197.747 199.358 195.431 199.945 194.524 199.761C193.836 199.643 193.433 199.643 189.639 199.727C187.675 199.778 187.575 199.761 185.829 199.139C184.855 198.804 183.882 198.518 183.68 198.518C183.093 198.518 182.421 198.065 181.951 197.359C181.481 196.671 181.263 196.537 181.078 196.839C180.91 197.091 179.937 197.04 179.517 196.738C179.299 196.587 178.946 196.184 178.711 195.815C178.292 195.143 178.191 195.092 177.469 195.328Z" fill="#1AAB9B"/>
<path d="M35.0861 195.445C34.6497 195.562 34.5993 195.966 34.8847 197.057C35.4722 199.274 34.784 203.74 33.4243 206.511C32.585 208.241 32.585 208.795 33.4411 208.929C34.1125 209.047 34.8847 209.517 35.1197 209.937C35.2204 210.122 35.2204 210.592 35.1365 211.146C35.0526 211.633 34.9351 212.607 34.8847 213.295C34.7504 215.025 34.9183 215.327 36.2108 215.596C37.6713 215.898 37.772 215.881 38.4099 215.243C38.8799 214.773 38.9638 214.572 38.8799 214.219C38.796 213.917 38.947 213.446 39.3835 212.54L40.0046 211.28L39.6521 210.609L39.2996 209.92L39.8199 209.03C40.4075 207.989 40.3907 207.855 39.3667 206.192C38.7456 205.185 38.7792 204.916 39.4842 204.899C39.6353 204.899 39.9207 204.782 40.1389 204.63C40.4578 204.395 40.5082 204.244 40.441 203.707C40.3907 203.27 40.4578 202.884 40.6761 202.464C40.8775 202.078 40.995 201.541 40.995 200.919C40.995 200.264 41.1125 199.744 41.3307 199.358C42.2876 197.611 42.3883 197.326 42.1868 196.654C42.0861 196.301 41.8343 195.898 41.6161 195.747C41.0789 195.378 40.1053 195.428 39.7192 195.848C39.4339 196.167 39.2492 196.184 38.0741 196.133C36.9327 196.083 36.7144 196.033 36.4962 195.697C36.2612 195.344 35.7912 195.26 35.0861 195.445Z" fill="#1AAB9B"/>
<path d="M141.798 197.779C141.428 197.913 140.64 198.081 140.052 198.132C139.28 198.199 138.877 198.333 138.592 198.602C138.323 198.854 137.853 199.022 137.215 199.106C136.158 199.24 135.57 199.492 135.1 200.013C134.865 200.264 134.58 200.365 134.042 200.365C133.153 200.365 132.632 200.617 132.75 200.953C132.817 201.087 132.599 201.507 132.246 201.91C131.911 202.296 131.642 202.783 131.642 203.002C131.642 203.254 131.474 203.472 131.138 203.64C130.702 203.875 130.635 203.992 130.635 204.614C130.652 206.041 131.843 207.737 132.867 207.771L133.405 207.787L132.733 207.989C131.944 208.241 131.81 208.594 132.229 209.383C132.616 210.105 133.186 210.256 135.335 210.239C136.762 210.222 137.316 210.29 138.189 210.592C139.599 211.079 141.328 212.053 141.932 212.674C142.486 213.262 142.637 213.178 142.486 212.372C142.318 211.465 141.21 210.39 139.381 209.299C137.803 208.375 137.786 208.358 138.273 208.207C138.927 207.989 138.911 208.039 138.575 207.452C138.323 207.015 138.323 206.914 138.524 206.662C138.692 206.461 138.894 206.41 139.33 206.494C139.817 206.578 139.884 206.562 139.834 206.31C139.8 206.142 139.548 205.957 139.246 205.873C138.726 205.739 138.675 205.655 138.44 204.664C138.39 204.395 138.189 203.976 138.004 203.757C137.584 203.22 137.601 202.985 138.105 201.91C138.491 201.07 138.86 200.869 138.86 201.507C138.86 202.078 139.347 202.548 139.951 202.548C141.009 202.548 141.328 202.33 141.412 201.457C141.479 200.97 141.63 200.6 141.815 200.449C142.117 200.231 145.424 199.526 146.162 199.526C146.347 199.526 147.153 199.694 147.958 199.895C149.167 200.197 149.452 200.231 149.671 200.046C150.023 199.744 150.006 199.307 149.637 198.854C149.368 198.518 149.1 198.451 147.572 198.333C146.565 198.266 145.407 198.065 144.836 197.863C143.695 197.46 142.738 197.427 141.798 197.779Z" fill="#1AAB9B"/>
<path d="M92.4462 199.828C90.9354 200.55 90.9018 200.634 91.3383 202.196C91.758 203.774 91.7747 204.496 91.4054 205.672C91.0697 206.763 91.2208 207.2 92.1105 207.67L92.7316 208.006L93.1177 207.519C93.3191 207.25 93.6716 207.032 93.8898 207.015C94.2256 206.998 94.3599 206.814 94.6956 205.823C95.2831 204.093 95.2831 202.112 94.6956 200.869C94.2927 199.979 93.8227 199.358 93.5709 199.358C93.5037 199.358 93.0002 199.576 92.4462 199.828Z" fill="#1AAB9B"/>
<path d="M134.412 211.415C134.042 211.684 133.606 212.053 133.421 212.254C133.119 212.607 133.136 212.624 134.076 213.548C134.865 214.303 135.016 214.538 134.915 214.857C134.647 215.714 134.647 216.083 134.898 216.301C135.083 216.469 135.234 216.469 135.52 216.301C135.855 216.134 135.939 216.167 136.241 216.52C136.443 216.755 136.728 217.208 136.913 217.511C137.198 218.031 137.232 218.048 137.416 217.779C137.954 216.889 137.97 216.889 138.306 217.208C138.843 217.678 139.028 217.561 139.028 216.738C139.028 216.251 138.877 215.663 138.608 215.143C138.373 214.689 138.189 214.186 138.189 214.034C138.189 213.732 138.256 213.749 139.548 214.236C140.354 214.555 140.874 214.471 140.874 214.051C140.874 213.883 140.707 213.799 140.404 213.799C140.085 213.799 139.75 213.615 139.347 213.195C138.541 212.355 136.46 211.096 135.721 210.995C135.201 210.928 134.949 211.012 134.412 211.415Z" fill="#1AAB9B"/>
<path d="M106.463 211.868C106.312 212.053 106.077 212.12 105.774 212.053C105.523 212.002 105.187 212.07 105.019 212.204C104.717 212.422 104.734 212.473 105.288 213.027C106.144 213.883 108.376 215.109 109.518 215.327C110.34 215.495 110.626 215.646 111.314 216.335C112.22 217.242 112.657 217.342 113.194 216.805C113.463 216.536 113.53 216.318 113.446 215.848C113.127 213.816 113.127 213.9 113.664 212.808C114.084 211.986 114.151 211.75 113.949 211.683C113.815 211.633 112.707 211.717 111.465 211.868C109.686 212.086 109.065 212.103 108.477 211.952C107.067 211.583 106.714 211.566 106.463 211.868Z" fill="#1AAB9B"/>
<path d="M141.546 222.447C141.546 222.632 142.318 222.901 143.258 223.052C143.829 223.153 144.467 223.354 144.685 223.539C145.189 223.942 146.33 224.11 147.085 223.925C147.858 223.724 147.908 223.421 147.22 223.136C146.263 222.733 141.546 222.162 141.546 222.447Z" fill="#1AAB9B"/>
</svg>
