<svg width="240" height="240" viewBox="0 0 240 240" fill="none" xmlns="http://www.w3.org/2000/svg">
<path d="M210.993 46.1583C209.472 46.2361 208.391 46.3723 208.137 46.5279C207.816 46.7419 207.563 46.7419 206.87 46.5668C206.228 46.3917 205.552 46.3917 204.15 46.5474C203.136 46.6641 201.514 46.7614 200.568 46.7614C199.013 46.7614 198.794 46.8003 198.219 47.2672C197.611 47.7341 197.56 47.7341 197.121 47.4423C196.412 46.9559 195.854 47.0532 195.448 47.7147C195.009 48.4151 194.84 48.4345 193.827 47.812C192.796 47.1894 192.559 47.2089 192.154 47.9676C191.731 48.7458 191.326 48.8431 190.701 48.3178C190.312 47.9871 190.16 47.9482 189.907 48.1232C189.653 48.3178 189.501 48.2789 189.096 47.9287C188.623 47.5396 188.521 47.5201 186.24 47.6952C184.128 47.8703 183.706 47.9676 182.27 48.6096C180.766 49.2711 180.53 49.3295 178.637 49.3684C176.441 49.4073 174.565 49.7575 174.43 50.1466C174.396 50.2828 174.464 50.633 174.599 50.9248C174.734 51.2166 174.836 51.4695 174.836 51.5085C174.836 51.6641 173.231 51.9948 172.538 51.9948C171.474 51.9948 166.506 52.773 166.337 52.9676C166.253 53.0454 166.236 53.2983 166.303 53.5123C166.405 53.9014 166.523 53.9209 168.99 53.9014C170.392 53.882 171.659 53.9403 171.795 54.0376C171.947 54.1544 171.507 54.3489 170.477 54.6407C169.057 55.0493 168.855 55.0688 168.23 54.8158C167.334 54.4462 166.523 54.6213 166.591 55.1855C166.641 55.5357 166.743 55.594 167.351 55.5357C168.077 55.4579 168.077 55.4579 167.976 56.0415C167.875 56.5863 167.909 56.6057 168.584 56.7419C169.108 56.8392 169.412 56.7808 169.699 56.5668C170.24 56.1777 171.051 56.1972 171.288 56.6057C171.44 56.917 171.49 56.8975 171.879 56.3722C172.268 55.847 172.335 55.8275 172.487 56.1193C172.707 56.5863 173.163 56.5668 173.704 56.0804C174.228 55.6135 174.532 55.5746 174.464 56.0026C174.413 56.275 174.599 56.3333 175.528 56.3528C176.306 56.3722 176.762 56.4695 176.965 56.6835C177.15 56.8586 177.505 57.0532 177.759 57.131C178.13 57.2283 178.215 57.3645 178.181 57.6952C178.147 58.0259 178.232 58.1427 178.57 58.1816C178.941 58.2399 179.026 58.3761 179.212 59.3489C179.465 60.6524 179.262 61.8975 178.62 63.201C178.029 64.3489 178.08 64.6991 178.772 64.5434C179.06 64.4851 179.516 64.3294 179.752 64.2321C180.107 64.0765 180.327 64.1349 180.969 64.5823C181.864 65.2049 182 65.4384 181.679 65.9247C181.476 66.2555 181.425 66.2555 180.817 65.9442C179.955 65.5162 178.637 65.4189 178.637 65.7886C178.637 65.9442 178.958 66.1582 179.398 66.2749C181.357 66.8586 182 67.6173 181.51 68.7068C181.239 69.3294 181.239 69.3294 180.259 69.1932C179.33 69.0765 179.262 69.0959 178.739 69.6796C178.451 70.0103 178.13 70.2827 178.046 70.2827C177.978 70.2827 177.674 70.5162 177.387 70.7885C176.745 71.3917 176.644 72.4033 177.201 72.559C177.573 72.6757 177.657 73.0064 177.319 73.0064C177.015 73.0064 176.525 73.6485 176.525 74.0376C176.525 74.2127 176.728 74.5629 176.982 74.8352C177.438 75.3216 177.438 75.3411 177.252 76.6251C177.015 78.1426 177.218 78.9792 177.945 79.5239C178.299 79.7963 178.333 79.913 178.164 80.2049C178.012 80.5161 178.029 80.6718 178.316 81.1193C178.519 81.4111 178.756 81.9947 178.874 82.4033C178.992 82.7924 179.229 83.2204 179.398 83.3177C179.871 83.6095 181.357 83.5511 181.577 83.2399C181.746 83.0064 181.881 83.0259 182.439 83.3955C182.946 83.7068 183.132 83.9597 183.216 84.4266C183.334 85.127 183.469 85.2243 183.79 84.7768C183.959 84.5434 184.196 84.5045 184.703 84.5823C185.379 84.699 185.412 84.6796 186.19 83.5706C186.629 82.948 187.17 82.2477 187.355 82.0142C187.643 81.6835 187.71 81.45 187.626 80.9052C187.524 80.2049 187.862 79.5628 188.099 80.0103C188.285 80.341 188.504 80.2243 188.775 79.6212C188.927 79.2905 189.163 79.0375 189.332 79.0375C189.788 79.0375 190.38 78.4733 190.38 78.0453C190.38 77.8119 190.262 77.6757 190.042 77.6757C189.518 77.6757 189.636 77.2866 190.194 77.1698C190.65 77.0531 190.684 76.9948 190.599 76.3916C190.498 75.7302 190.498 75.7302 191.191 75.7302C191.596 75.7302 191.9 75.6329 191.951 75.4578C192.002 75.3021 192.458 75.1465 193.1 75.0687C194.384 74.8936 194.739 74.699 194.806 74.1348C194.84 73.8819 194.992 73.6679 195.161 73.629C195.415 73.5706 195.465 73.629 195.364 73.9792C195.263 74.3683 195.296 74.3878 196.158 74.3294C196.817 74.2905 197.054 74.1932 197.054 73.9792C197.054 73.7652 197.256 73.6874 197.78 73.6485C198.642 73.6095 198.997 73.3761 200.213 71.9559C200.821 71.2555 201.311 70.8664 201.632 70.8275C202.055 70.7885 202.122 70.6718 202.173 70.1271C202.241 69.3683 202.308 69.3683 202.899 70.0103C203.356 70.5162 203.356 70.5162 204.251 70.2049C204.758 70.0492 205.822 69.8352 206.633 69.7185C207.58 69.6018 208.391 69.3489 208.914 69.057C209.641 68.629 210.925 68.0259 213.24 67.0726C214.068 66.7419 214.22 66.5084 213.763 66.3139C213.273 66.0998 209.573 66.4306 209.168 66.7224C208.948 66.8781 208.644 66.9559 208.509 66.8975C208.086 66.703 208.729 66.0415 209.455 65.9053C210.553 65.6913 210.824 65.4773 210.824 64.8353C210.824 64.2516 210.857 64.2321 211.449 64.2905C211.939 64.3294 212.125 64.4656 212.344 64.9325C212.581 65.4189 212.733 65.5162 213.29 65.5356C213.645 65.5356 214.084 65.6135 214.237 65.6913C214.845 66.0026 215.132 65.7497 215.115 64.9325C215.098 64.2516 215.048 64.1543 214.726 64.2127C214.473 64.2516 214.372 64.1738 214.372 63.882C214.372 63.4345 214.068 63.1621 213.645 63.2399C213.476 63.2788 213.155 63.1816 212.952 63.0065C212.547 62.7146 211.905 61.3917 212.074 61.1971C212.158 61.0804 212.817 61.2944 214.524 62.0143C214.98 62.2088 215.335 62.2477 215.419 62.1504C215.521 62.0337 215.521 61.917 215.402 61.8392C214.811 61.4111 215.858 60.38 216.906 60.3411C217.227 60.3411 217.835 60.1855 218.258 59.9715C218.917 59.6602 219.018 59.5629 218.967 59.096L218.917 58.5707L219.829 58.7069C220.539 58.8041 220.775 58.7652 220.944 58.5318C221.214 58.1427 221.045 57.8314 220.555 57.8314C220.336 57.8314 220.066 57.6952 219.947 57.5201C219.761 57.2672 219.778 57.2088 220.066 57.131C220.336 57.0532 220.403 56.8781 220.387 56.3139C220.37 55.7108 220.437 55.594 220.758 55.5357C221.012 55.4968 221.13 55.3606 221.096 55.1466C221.062 54.8937 220.826 54.7964 220.234 54.7575C219.795 54.7186 219.44 54.6213 219.44 54.5046C219.44 54.4073 219.508 54.3295 219.592 54.3295C219.694 54.3295 220.116 53.9793 220.539 53.5512C220.961 53.1232 221.434 52.773 221.569 52.773C221.907 52.773 221.856 52.3839 221.451 51.8781C221.029 51.3528 221.181 50.9443 221.738 51.0804C221.958 51.1193 222.228 51.0415 222.33 50.9053C222.431 50.7497 222.701 50.633 222.921 50.633C223.124 50.633 223.428 50.4968 223.563 50.3217C223.749 50.1077 223.985 50.0493 224.323 50.1466C224.678 50.2244 224.915 50.1466 225.286 49.7964C225.624 49.4657 226.097 49.2906 226.79 49.1933C227.905 49.0571 228.344 48.7653 227.702 48.6096C225.59 48.1038 224.442 48.0454 223.563 48.3762C223.107 48.5318 222.228 48.7069 221.62 48.7458C220.843 48.7847 220.403 48.9209 220.201 49.1349C220.049 49.31 219.795 49.4657 219.626 49.4657C219.474 49.4657 218.934 49.6408 218.427 49.8353C217.92 50.0493 217.447 50.166 217.379 50.1271C217.109 49.9326 217.261 49.6991 217.886 49.3684C218.46 49.0376 218.748 48.7458 218.765 48.4929C218.765 48.4345 218.038 48.4151 217.159 48.454C215.588 48.5318 215.267 48.4151 215.774 47.9482C215.892 47.8314 216.754 47.6952 217.666 47.6758C218.748 47.6369 219.356 47.5396 219.39 47.384C219.44 47.2478 219.17 47.1116 218.646 47.0338C216.923 46.7808 215.605 46.5085 214.895 46.2361C214.473 46.0805 213.983 45.9832 213.797 46.0026C213.594 46.0221 212.344 46.0805 210.993 46.1583Z" fill="#1AAB9B"/>
<path d="M169.04 46.6835C168.956 46.7613 167.385 46.8391 165.526 46.8586L162.147 46.8975L161.742 47.4033C161.319 47.9286 160.745 48.0648 160.559 47.7146C160.424 47.4617 158.937 47.6368 158.092 48.0064C157.687 48.1815 156.521 48.2982 154.747 48.3372C153.26 48.3566 152.027 48.4344 152.027 48.5123C152.027 48.5901 152.263 48.9014 152.533 49.2126L153.04 49.7768L156.014 49.8158C157.653 49.8547 159.072 49.913 159.156 49.9714C159.241 50.0298 159.224 50.2049 159.106 50.3605C158.869 50.6912 156.234 50.7496 155.71 50.4189C155.439 50.2438 155.287 50.3021 154.916 50.6912C154.679 50.9442 154.257 51.236 153.97 51.2943C153.48 51.4305 153.48 51.4305 153.784 51.0414C154.105 50.6329 154.054 50.0492 153.682 50.0492C153.581 50.0492 153.311 50.2438 153.091 50.4772L152.685 50.9052L152.584 50.4772C152.516 50.1465 152.364 50.0492 151.925 50.0492C151.469 50.0492 151.317 49.9519 151.182 49.5823C151.097 49.2905 150.81 49.0181 150.455 48.9014C149.948 48.7068 149.678 48.7457 148.428 49.2516C147.634 49.5628 146.84 49.913 146.654 50.0298C146.468 50.1465 146.045 50.2438 145.724 50.2438C144.93 50.2438 144.271 50.8663 144.525 51.3527C144.778 51.8196 146.451 52.0726 147.414 51.8002C147.803 51.7029 148.259 51.6056 148.428 51.6056C148.698 51.6056 148.698 51.6251 148.445 51.9169C148.242 52.1504 147.819 52.2477 146.806 52.2671C145.623 52.2866 145.437 52.3255 145.437 52.6173C145.437 53.162 146.113 53.4928 147.482 53.629C148.63 53.7457 148.783 53.7068 149.07 53.3566C149.239 53.1426 149.543 52.9675 149.729 52.9675C149.931 52.9675 150.641 52.7924 151.317 52.5784C151.976 52.3644 152.854 52.1893 153.26 52.1893C154.291 52.1893 155.051 51.8391 155.169 51.3333C155.254 50.9442 155.321 50.9831 156.098 51.8391C156.555 52.3644 156.926 52.7924 156.926 52.8313C156.926 52.8508 155.828 52.8508 154.476 52.8119L152.043 52.734L151.638 53.2399C151.384 53.5512 151.047 53.7457 150.742 53.7457C150.151 53.7457 149.915 53.9208 149.762 54.4266C149.695 54.7379 149.509 54.8352 149.036 54.8546C148.14 54.913 146.552 55.5939 146.485 55.9636C146.4 56.45 146.907 56.5472 148.309 56.2943C149.273 56.0998 149.712 56.0998 149.965 56.2554C150.219 56.4111 150.455 56.3916 150.945 56.1581C151.469 55.9052 151.705 55.8858 152.229 56.0609C152.736 56.236 153.04 56.236 153.682 56.0025C154.578 55.7107 155.152 55.8663 154.764 56.3138C154.662 56.4305 154.561 56.664 154.561 56.8196C154.561 57.1115 154.628 57.1115 156.25 56.5667C156.757 56.3916 157.602 56.1971 158.109 56.1192C158.937 56.0025 159.038 55.9247 159.089 55.4967C159.173 54.8741 159.427 54.5239 159.799 54.5239C159.951 54.5239 160.221 54.3488 160.407 54.1154C160.61 53.8624 160.863 53.7457 161.116 53.8041C161.353 53.8624 161.775 53.8235 162.063 53.7457C162.35 53.6484 162.789 53.5317 163.059 53.4733C163.364 53.3955 163.516 53.2204 163.516 52.9675C163.516 52.7535 163.701 52.4422 163.921 52.2866C164.141 52.1115 164.529 51.6251 164.766 51.2165C165.307 50.2827 165.83 50.2049 167.03 50.9052C167.672 51.2749 167.993 51.3527 168.753 51.2749C169.294 51.2165 169.818 51.022 170.02 50.8274C170.257 50.594 170.747 50.4578 171.541 50.3994C172.284 50.341 172.994 50.1465 173.433 49.8741C173.822 49.6601 174.38 49.4656 174.65 49.4656C175.376 49.4656 175.68 49.2905 175.68 48.8624C175.68 48.4928 175.816 48.4733 178.232 48.5123C179.82 48.5317 180.851 48.4539 180.952 48.3372C181.29 47.9481 180.952 47.5395 180.209 47.4422C179.803 47.3839 178.84 47.2477 178.046 47.1115C177.252 46.9948 175.089 46.8586 173.231 46.8391C171.372 46.8197 169.699 46.7418 169.514 46.664C169.328 46.5862 169.108 46.5862 169.04 46.6835Z" fill="#1AAB9B"/>
<path d="M133.998 52.3055C133.694 52.6946 133.44 53.1032 133.44 53.181C133.44 53.4923 134.201 53.5701 135.214 53.395C136.363 53.181 136.769 53.3367 136.921 54.0371C136.972 54.3094 137.039 54.5234 137.073 54.5234C137.208 54.5234 138.695 53.4923 138.779 53.3367C138.83 53.2199 138.763 52.9476 138.644 52.7336C138.374 52.2666 137.039 51.8192 135.468 51.683C134.572 51.5857 134.522 51.6052 133.998 52.3055Z" fill="#1AAB9B"/>
<path d="M126.987 52.4617C126.818 52.5979 126.683 52.8313 126.683 52.987C126.683 53.201 126.97 53.2594 128 53.2399C129.808 53.201 129.758 53.2204 129.69 52.7146C129.639 52.3255 129.538 52.2866 128.457 52.2477C127.663 52.2088 127.173 52.2866 126.987 52.4617Z" fill="#1AAB9B"/>
<path d="M140.538 52.8693C140.149 53.3946 140.639 53.7058 141.94 53.7642C143.951 53.842 143.917 52.9082 141.89 52.6747C140.96 52.558 140.741 52.5969 140.538 52.8693Z" fill="#1AAB9B"/>
<path d="M123.439 53.493C123.27 53.5319 123.135 53.7459 123.135 53.9599C123.135 54.2323 123.253 54.3296 123.557 54.3296C124.064 54.3296 124.993 53.8238 124.993 53.5514C124.993 53.3568 123.996 53.3179 123.439 53.493Z" fill="#1AAB9B"/>
<path d="M127.191 53.5504C127.055 53.6476 126.549 53.7449 126.092 53.7449C125.231 53.7449 124.487 54.134 124.487 54.6009C124.487 54.9317 126.464 54.776 126.971 54.4064C127.174 54.2507 127.545 54.134 127.782 54.134C128.255 54.134 128.373 53.6671 127.934 53.4725C127.579 53.3169 127.495 53.3364 127.191 53.5504Z" fill="#1AAB9B"/>
<path d="M130.975 54.2323C130.756 54.6019 130.739 54.777 130.891 54.991C131.296 55.5552 131.905 54.9521 131.921 53.9794C131.921 53.5514 131.262 53.7264 130.975 54.2323Z" fill="#1AAB9B"/>
<path d="M119.248 54.3094C119.012 54.4067 118.336 54.5818 117.744 54.6986C116.832 54.9126 116.646 54.8931 116.393 54.6402C116.004 54.2316 115.768 54.2511 115.497 54.6791C115.311 54.9709 112.304 56.0799 111.054 56.3133C110.851 56.3522 110.716 56.5273 110.716 56.7413C110.716 57.0526 110.885 57.111 111.966 57.1694C112.878 57.2277 113.318 57.1694 113.605 56.9554C113.825 56.7997 114.196 56.6635 114.45 56.6635C114.703 56.6635 115.193 56.5662 115.548 56.4495C116.055 56.2744 116.258 56.2744 116.443 56.4495C116.663 56.6635 116.798 56.6246 117.204 56.2939C117.474 56.0604 117.913 55.8853 118.184 55.8853C118.437 55.8853 118.893 55.7102 119.164 55.4962C119.451 55.2822 119.839 55.1071 120.042 55.1071C120.549 55.1071 120.718 54.718 120.346 54.3873C119.992 54.0954 119.856 54.0954 119.248 54.3094Z" fill="#1AAB9B"/>
<path d="M141.213 54.4065C141.213 54.7762 141.601 54.8929 142.784 54.8734C143.595 54.8734 143.747 54.8151 143.713 54.5427C143.646 54.0952 141.213 53.9591 141.213 54.4065Z" fill="#1AAB9B"/>
<path d="M145.977 54.3488C145.251 54.6018 145.369 55.0298 146.129 54.9714C147.076 54.8741 147.464 54.7185 147.464 54.4267C147.464 54.0959 146.856 54.057 145.977 54.3488Z" fill="#1AAB9B"/>
<path d="M139.152 55.4377C138.628 55.5933 138.831 56.0603 139.507 56.2743C139.878 56.391 140.588 56.4299 141.078 56.3521C141.821 56.2548 142.024 56.2937 142.227 56.5661C142.48 56.9163 142.497 56.9163 141.365 57.8501C140.841 58.2782 141.044 58.8034 141.737 58.8034C142.041 58.8034 142.43 58.9591 142.599 59.1342C142.886 59.426 142.953 59.426 143.511 59.1342C144.322 58.6867 144.643 58.7062 144.508 59.1925C144.373 59.6789 144.677 59.6984 146.028 59.2315C147.397 58.7645 150.083 58.784 150.725 59.2898C151.317 59.7373 153.446 59.6206 154.071 59.1342C154.29 58.9396 154.594 58.8034 154.763 58.8034C154.966 58.8034 155.068 58.6478 155.068 58.356C155.068 57.1692 153.496 56.6828 151.131 57.1497C150.32 57.3054 149.441 57.4416 149.171 57.4416C148.884 57.4416 148.613 57.5194 148.563 57.6361C148.411 57.928 147.397 57.8696 147.025 57.5389C146.603 57.1692 146.113 57.1692 145.657 57.5389C145.336 57.8112 145.302 57.7918 145.234 57.3443C145.184 57.0914 145.251 56.7606 145.386 56.605C145.589 56.3715 145.522 56.2937 144.947 55.9824C144.558 55.7879 144.068 55.6906 143.815 55.749C143.562 55.8073 143.004 55.7295 142.582 55.5739C141.855 55.321 139.794 55.2431 139.152 55.4377Z" fill="#1AAB9B"/>
<path d="M124.283 55.8076C123.743 56.1384 123.743 56.1578 124.013 56.6442C124.3 57.1695 124.064 57.6364 123.523 57.6364C122.712 57.617 121.411 57.1306 121.175 56.7609C120.854 56.2551 118.404 56.0995 117.812 56.5469C117.593 56.722 117.255 56.8582 117.086 56.8582C116.917 56.8582 116.596 57.0138 116.41 57.2279C116.207 57.4224 115.869 57.5391 115.667 57.5002C115.193 57.4029 114.129 58.1422 114.23 58.473C114.264 58.6092 114.416 58.6675 114.535 58.6286C114.67 58.5703 114.991 58.5313 115.244 58.5313C115.498 58.5119 115.768 58.4146 115.835 58.2979C115.903 58.1812 116.511 58.0839 117.187 58.0644C118.133 58.045 118.404 58.1033 118.404 58.3173C118.404 58.6481 117.846 58.8426 117.221 58.7648C116.951 58.7259 116.799 58.8232 116.748 59.0372C116.663 59.5041 117.457 59.6987 118.353 59.4263C118.758 59.2901 119.299 59.1928 119.553 59.1928C119.806 59.1928 120.549 59.0177 121.191 58.8037C122.019 58.5313 122.881 58.4146 124.03 58.4146C126.784 58.4146 128.609 57.5975 127.831 56.7026C127.544 56.3718 127.24 56.4107 126.683 56.8971C126.024 57.4613 125.669 57.15 126.091 56.4107C126.243 56.1189 126.328 55.8076 126.26 55.6909C126.108 55.3991 124.807 55.4574 124.283 55.8076Z" fill="#1AAB9B"/>
<path d="M133.795 55.9046C132.934 56.2937 132.292 57.4026 132.748 57.7139C132.832 57.7723 132.866 57.9863 132.832 58.1808C132.765 58.4532 132.883 58.5116 133.677 58.5699C134.421 58.6088 134.792 58.5116 135.603 58.0252C136.735 57.3637 137.496 56.6244 137.496 56.1769C137.496 55.7295 137.073 55.6127 136.6 55.9629C136.228 56.2548 136.161 56.2548 135.975 55.9824C135.738 55.6516 134.454 55.5933 133.795 55.9046Z" fill="#1AAB9B"/>
<path d="M130.062 56.1783C130.062 56.3534 130.18 56.5285 130.315 56.5869C130.45 56.6647 130.568 56.8787 130.568 57.0732C130.568 57.5596 130.94 57.7347 131.396 57.4623C131.734 57.2483 131.785 56.6258 131.515 56.1199C131.329 55.7697 130.062 55.8087 130.062 56.1783Z" fill="#1AAB9B"/>
<path d="M128.068 57.8699C127.663 58.3368 127.832 58.6675 128.406 58.5314C128.964 58.4146 129.386 58.0839 129.386 57.8115C129.386 57.5586 128.305 57.5975 128.068 57.8699Z" fill="#1AAB9B"/>
<path d="M137.124 58.0452C136.718 58.3176 136.735 58.7456 137.175 59.0179C137.665 59.3098 139.033 59.1152 139.27 58.7261C139.388 58.551 139.608 58.4148 139.777 58.4148C140.013 58.4148 140.03 58.3565 139.861 58.123C139.608 57.7728 137.597 57.7144 137.124 58.0452Z" fill="#1AAB9B"/>
<path d="M105.074 59.5621C104.888 59.7761 104.719 60.1457 104.719 60.3403C104.719 60.6127 104.534 60.7878 104.094 60.9434C103.739 61.0796 102.861 61.566 102.151 62.0329C101.425 62.5193 100.597 62.9473 100.327 63.0251C99.6507 63.1613 99.5663 63.3947 99.9887 63.8033C100.175 63.9979 100.327 64.2897 100.327 64.4648C100.327 65.1846 100.783 65.3014 101.83 64.8539C102.371 64.6399 103.148 64.4453 103.571 64.4453C104.128 64.4453 104.415 64.3286 104.652 64.0368C105.091 63.4726 105.835 63.064 106.139 63.2002C106.291 63.2586 106.764 63.064 107.203 62.7333C107.659 62.422 108.352 62.0912 108.774 62.0134C109.197 61.9551 109.873 61.78 110.295 61.6243C110.717 61.4881 111.478 61.313 111.985 61.2352C113.539 61.0407 113.742 60.5932 112.593 59.8734C112.069 59.5426 111.9 59.5232 111.224 59.7372C110.211 60.0485 109.771 60.029 109.315 59.6594C109.062 59.4648 108.369 59.3286 107.186 59.2508C105.564 59.1535 105.412 59.173 105.074 59.5621Z" fill="#1AAB9B"/>
<path d="M137.665 60.1657C137.141 60.2435 136.567 60.3992 136.364 60.5159C136.161 60.6521 135.806 60.7493 135.57 60.7493C135.3 60.7493 135.131 60.8661 135.131 61.0217C135.131 61.1774 134.945 61.3525 134.708 61.4108C134.151 61.5665 133.762 62.9478 134.134 63.3758C134.472 63.7649 135.435 63.4536 135.891 62.8116C136.296 62.2474 136.516 62.189 137.395 62.403C137.986 62.5392 138.223 62.4614 139.338 61.8194C140.047 61.4108 140.808 60.9828 141.044 60.8661C141.281 60.7299 141.467 60.5159 141.467 60.3602C141.467 60.1268 141.179 60.0684 140.03 60.049C139.236 60.049 138.172 60.0879 137.665 60.1657Z" fill="#1AAB9B"/>
<path d="M145.267 60.36C145.031 60.4378 143.966 60.8464 142.902 61.2355C141.111 61.8775 140.891 62.0137 139.979 63.0059C138.999 64.1148 138.898 64.4456 139.59 64.4456C140.063 64.4456 141.06 64.8152 141.297 65.0876C141.415 65.2043 141.026 65.2238 140.199 65.146C139.219 65.0487 138.847 65.0876 138.593 65.3016C138.272 65.574 138.272 65.5934 138.678 65.9825C138.999 66.2744 139.337 66.3716 140.131 66.3911C140.688 66.3911 141.212 66.4689 141.314 66.5662C141.398 66.6635 142.04 66.7802 142.733 66.8386C143.426 66.8775 144.575 67.0331 145.267 67.1887C145.96 67.3444 147.024 67.4417 147.633 67.4417C148.883 67.4028 150.032 66.9358 149.897 66.5078C149.846 66.3522 149.897 66.1771 149.998 66.0993C150.116 66.0214 150.488 66.3327 150.91 66.8969C151.299 67.4028 151.89 67.928 152.211 68.0642L152.786 68.2977L152.262 68.3172C151.62 68.3366 150.91 68.9397 151.046 69.3288C151.164 69.6985 152.515 69.5817 152.651 69.1926C152.752 68.8814 153.158 68.823 153.242 69.1148C153.276 69.2121 153.631 69.5039 154.053 69.7568C154.796 70.2043 154.813 70.2432 154.813 71.1771C154.813 71.9358 154.763 72.1304 154.526 72.1304C154.374 72.1304 154.104 72.286 153.935 72.4806C153.749 72.6557 153.411 72.8113 153.174 72.8113C152.938 72.8113 152.701 72.928 152.651 73.0837C152.6 73.2393 152.279 73.4728 151.958 73.609C151.35 73.8619 151.181 74.2899 151.536 74.6985C151.806 75.0097 151.569 75.107 150.167 75.3405C149.187 75.4961 148.815 75.4767 148.207 75.2432C147.227 74.8735 147.075 74.8735 146.72 75.321C146.551 75.535 146.18 75.7296 145.875 75.7685C145.419 75.8269 145.335 75.9047 145.267 76.5078C145.081 77.7918 145.335 77.9086 147.075 77.3638C147.616 77.2082 148.765 77.0525 149.609 77.0331C150.978 76.9942 151.164 77.0331 151.096 77.3054C150.995 77.6751 151.316 78.0447 151.958 78.2393C152.549 78.4144 152.668 78.784 152.161 78.8813C151.924 78.9202 151.755 79.0953 151.721 79.3482C151.688 79.679 151.772 79.7568 152.228 79.7568C153.225 79.7957 153.867 80.0292 153.969 80.4183C154.087 80.8074 154.306 80.8852 155.574 81.0603C155.979 81.0992 156.401 81.2938 156.52 81.4494C156.756 81.8191 157.432 81.858 157.838 81.5078C158.125 81.2549 158.125 81.2159 157.871 80.6323C157.719 80.2821 157.517 80.0097 157.432 80.0097C157.145 80.0097 155.743 78.7646 155.743 78.5117C155.743 78.2198 156.182 78.1615 156.334 78.4533C156.385 78.5506 156.655 78.6479 156.908 78.6479C157.263 78.6479 157.517 78.823 157.838 79.3093C158.142 79.7763 158.361 79.9514 158.598 79.8735C158.818 79.8152 158.987 79.9124 159.122 80.2237L159.341 80.6712L159.578 80.1459C159.696 79.8541 159.882 79.6206 159.966 79.6206C160.068 79.6206 160.135 79.4455 160.135 79.2315C160.135 78.9786 160.254 78.8424 160.473 78.8424C160.93 78.8424 161.082 78.356 160.811 77.7724C160.693 77.5195 160.642 77.1693 160.71 76.9747C160.845 76.5662 160.524 76.1187 160.102 76.1187C159.696 76.1187 158.784 75.0486 158.784 74.5817C158.801 74.1537 159.544 73.2004 159.899 73.2004C160.507 73.2004 161.47 74.037 161.808 74.8735C162.112 75.5934 162.214 75.6907 162.822 75.7685C163.633 75.8463 163.852 75.7879 163.852 75.4377C163.852 74.9903 164.326 74.679 164.731 74.893C165.035 75.0486 165.204 74.9708 165.66 74.4455C165.964 74.0953 166.218 73.7062 166.218 73.609C166.218 73.5117 166.421 73.4339 166.657 73.4533C167.215 73.4922 167.57 72.9669 167.299 72.4611C167.164 72.2276 166.759 72.072 165.914 71.9553C164.849 71.7996 164.697 71.7218 164.697 71.3716C164.697 70.6323 164.41 70.3794 163.565 70.3599C163.126 70.3405 162.383 70.1848 161.943 69.9903C160.558 69.4066 160.71 68.6673 162.146 68.8424C162.585 68.9008 163.025 68.8619 163.143 68.7646C163.447 68.5312 163.21 67.9475 162.771 67.928C162.416 67.928 162.416 67.928 162.805 67.753C163.261 67.5389 163.278 67.072 162.856 66.2744C162.585 65.7685 162.399 65.6518 161.656 65.5545C160.963 65.4572 160.642 65.2821 160.102 64.7179C159.426 64.0176 159.324 63.9981 158.328 64.3483C158.023 64.465 157.888 64.3483 157.534 63.6868C156.959 62.6557 156.435 62.286 155.641 62.3444C155.269 62.3639 154.661 62.3055 154.273 62.2277C153.631 62.0915 153.546 62.1304 153.293 62.5779C152.989 63.1032 152.397 63.2393 152.076 62.8697C151.941 62.7141 151.688 62.7724 151.181 63.0837C150.708 63.3755 150.488 63.4144 150.539 63.2393C150.572 63.1032 150.893 62.8308 151.231 62.6362C151.569 62.4417 151.857 62.2082 151.857 62.1499C151.857 62.072 151.704 61.7413 151.536 61.4106C151.096 60.574 150.184 60.4183 148.849 60.9242C148.308 61.1382 147.683 61.2549 147.464 61.1966C147.21 61.1187 147.041 61.1771 146.923 61.3911C146.855 61.5662 146.518 61.7608 146.213 61.8191C145.825 61.9164 145.453 62.2277 145.031 62.7919C144.372 63.7063 144.27 64.0565 144.659 64.0565C145.014 64.0565 145.166 64.4261 144.929 64.7374C144.777 64.9514 144.642 64.9514 144.321 64.7958C143.679 64.4456 143.645 63.8035 144.203 62.753C144.625 61.9748 144.828 61.7997 145.538 61.5662C146.822 61.1382 147.126 60.9825 147.126 60.6713C147.126 60.5351 146.889 60.36 146.602 60.2822C145.96 60.146 145.808 60.146 145.267 60.36Z" fill="#1AAB9B"/>
<path d="M123.727 60.536C123.558 60.7111 123.659 61.1002 123.946 61.5282C124.233 61.9368 124.284 61.9368 125.213 61.7033C125.923 61.5088 126.176 61.3531 126.176 61.1002C126.176 60.9251 126.075 60.7111 125.974 60.6138C125.737 60.4582 123.845 60.3804 123.727 60.536Z" fill="#1AAB9B"/>
<path d="M131.244 60.5737C129.892 60.6321 128.743 60.7099 128.676 60.7294C128.355 60.7878 128.591 61.1185 129.064 61.313C129.74 61.5854 129.622 61.9551 128.811 62.1885C128.304 62.3442 128.068 62.3053 127.611 62.0329C127.172 61.7605 126.986 61.7216 126.699 61.9162C126.209 62.208 126.31 62.4998 127.104 63.0251C127.476 63.2586 127.848 63.706 127.966 64.0562C128.186 64.6204 128.253 64.6788 128.743 64.5621C129.048 64.5037 129.774 64.387 130.365 64.2702C132.038 63.9979 133.44 62.5971 132.494 62.1691C132.241 62.0523 132.241 62.0134 132.528 61.78C132.697 61.6438 133.018 61.527 133.255 61.527C133.846 61.527 134.167 61.2547 134.082 60.8461C134.015 60.3986 134.133 60.3986 131.244 60.5737Z" fill="#1AAB9B"/>
<path d="M151.907 60.7689C151.586 61.158 151.637 61.4887 152.093 61.8194C152.448 62.0918 152.617 62.0918 153.242 61.8973C153.681 61.7611 154.425 61.7222 155.118 61.8C156.148 61.9167 156.25 61.8973 156.25 61.5471C156.25 60.8661 155.793 60.691 153.918 60.5938C152.583 60.5354 152.059 60.5743 151.907 60.7689Z" fill="#1AAB9B"/>
<path d="M120.651 61.9557C120.364 62.3059 120.094 62.8506 120.06 63.1813C119.992 63.8817 119.215 64.4848 118.894 64.1152C118.742 63.9401 118.759 63.765 118.979 63.3954C119.35 62.7144 119.317 62.4031 118.827 62.1502C118.252 61.8389 117.982 61.8584 117.728 62.2086C117.593 62.3837 117.238 62.5004 116.799 62.5004C116.309 62.5004 116.039 62.4031 115.971 62.2086C115.836 61.8 115.262 61.8389 114.4 62.3253C113.572 62.7922 113.302 62.695 113.758 62.1113C114.197 61.5471 113.944 61.4109 113.031 61.7027C112.592 61.8389 111.443 62.1697 110.463 62.4031C109.483 62.6561 108.25 63.0841 107.726 63.3759C106.662 63.9401 106.425 64.4459 107.219 64.4459C107.659 64.4459 108.098 64.7378 108.098 65.049C108.098 65.1269 107.642 65.2241 107.084 65.263C105.969 65.3603 105.817 65.4576 105.969 65.9051C106.07 66.2358 106.155 66.2358 110.227 65.8856C111.207 65.8078 111.494 65.8662 111.713 66.1191C112.187 66.6444 111.933 66.8778 110.953 66.8584C110.446 66.8389 108.993 66.8584 107.709 66.9167C105.817 66.9946 105.344 67.0724 105.276 67.3253C105.073 67.8895 105.732 68.1619 107.118 68.1035C107.827 68.0841 108.47 68.123 108.537 68.2008C108.605 68.2786 108.486 68.5704 108.25 68.8428C107.912 69.2514 107.895 69.3681 108.098 69.5237C108.436 69.7767 110.277 69.621 111.646 69.2125C112.254 69.0374 113.471 68.8233 114.349 68.7455C115.329 68.6677 116.174 68.4732 116.512 68.2591C117.036 67.9479 117.103 67.9479 117.441 68.2202C117.644 68.3953 117.965 68.6483 118.151 68.8039C118.421 69.0374 118.793 69.0568 120.178 68.8817C122.29 68.6483 122.392 68.6093 122.121 68.2397C121.733 67.7144 122.206 67.3642 123.304 67.3642C124.639 67.3642 124.74 66.9751 123.591 66.372C123.118 66.1191 122.577 65.9051 122.392 65.9051C121.851 65.9051 121.817 64.9518 122.341 64.5432C122.679 64.2903 122.78 64.0179 122.865 63.0452C123.017 61.6444 122.814 61.3331 121.783 61.3331C121.31 61.3331 121.057 61.4887 120.651 61.9557Z" fill="#1AAB9B"/>
<path d="M132.849 63.9984C132.663 64.0567 132.376 64.2318 132.224 64.4069C132.055 64.5626 131.92 64.6209 131.92 64.5236C131.92 64.4264 131.582 64.7766 131.159 65.3019C130.754 65.8271 130.247 66.3524 130.044 66.4692C129.504 66.7804 129.588 67.0334 130.331 67.3641C131.328 67.8116 131.463 67.9283 131.227 68.259C131.126 68.4147 130.872 68.5314 130.669 68.5314C130.196 68.5314 129.825 68.8232 129.96 69.0956C130.027 69.2123 130.264 69.3096 130.5 69.3096C130.72 69.3096 130.906 69.3874 130.906 69.5042C130.906 69.6015 130.686 69.6987 130.416 69.6987C130.146 69.6987 129.841 69.8349 129.723 69.9906C129.605 70.1462 129.284 70.2824 128.997 70.2824C128.709 70.2824 128.236 70.3797 127.915 70.5158C127.493 70.6909 127.392 70.8271 127.442 71.1384C127.561 71.6832 127.307 72.0917 126.919 71.9944C126.429 71.8972 126.429 71.2746 126.952 70.652C127.459 70.0489 127.459 70.0295 126.175 69.7182C125.33 69.5042 124.959 69.6793 124.131 70.7104C123.675 71.2941 123.675 71.2941 122.745 71.0411C122.019 70.866 121.579 70.866 120.836 71.0411C119.907 71.2551 119.822 71.2357 119.214 70.7688C118.758 70.4186 118.454 70.3018 118.133 70.3991C117.643 70.5353 116.849 69.8349 117.001 69.3874C117.136 68.9594 116.274 68.8427 115.311 69.1734C114.821 69.3485 114.078 69.5431 113.639 69.6209C113.081 69.6987 112.828 69.8349 112.828 70.0295C112.828 70.3213 113.47 70.3213 115.362 70.0295C115.919 69.9516 115.683 70.3991 115.075 70.5353C113.503 70.9439 113.064 71.1384 112.625 71.6832L112.152 72.2668L111.493 71.4302L110.851 70.5937L110.023 70.8077C109.144 71.0606 104.971 71.2162 104.802 71.0217C104.734 70.9439 104.734 70.7104 104.802 70.4964C104.887 70.1462 105.039 70.0878 105.799 70.0878C106.931 70.0878 107.286 69.7376 106.745 69.1151C106.424 68.7454 106.255 68.7065 105.427 68.8232C104.768 68.9011 104.143 68.8427 103.45 68.6092C102.893 68.4341 102.116 68.2201 101.727 68.1229C101.338 68.045 100.73 67.7921 100.375 67.5587C99.4968 67.0334 98.652 67.0528 97.8748 67.6754C97.1821 68.2007 96.7766 68.1812 96.7766 67.5976C96.7766 67.3836 96.6583 67.1112 96.5232 66.975C96.3035 66.761 96.1684 66.8194 95.6953 67.3447C95.3067 67.7727 95.0026 67.9672 94.7322 67.9089C94.3943 67.8699 94.3267 67.7143 94.276 67.0139C94.2085 66.0412 93.8706 65.9244 93.1102 66.6637C92.5865 67.1696 91.8262 67.4808 90.6604 67.6754C90.2211 67.7338 89.6128 68.0061 89.3256 68.259C88.8694 68.6287 88.5653 68.726 87.7036 68.726C86.7744 68.726 86.5716 68.8038 86.1999 69.2318C85.6592 69.8349 85.051 69.796 84.9834 69.154C84.9327 68.8427 85.0172 68.726 85.2369 68.726C85.4058 68.726 85.9296 68.512 86.3858 68.2396C86.9602 67.9283 87.5178 67.7727 88.126 67.7532C88.9708 67.7532 90.3562 67.1112 90.3562 66.7221C90.3562 66.5275 88.5146 66.7804 87.8895 67.0723C87.2812 67.3641 86.1661 67.5976 85.2031 67.6559C83.7331 67.7532 82.7194 68.0839 82.297 68.6287C81.9253 69.0762 81.7732 69.1345 81.2495 69.0373C80.9116 68.9789 80.185 68.6676 79.6444 68.3369C78.9517 67.9283 78.411 67.7532 77.8365 67.7532C77.2283 67.7532 76.9073 67.6365 76.5356 67.2668C75.9442 66.7026 75.7246 66.6637 74.9981 67.0917C74.5081 67.3641 74.3898 67.3641 73.6633 67.0917C72.413 66.6248 69.1353 66.1384 68.0201 66.2552C67.1585 66.333 66.9726 66.2941 66.7023 65.9633C66.4319 65.6326 66.2461 65.5742 65.6209 65.6715C65.0127 65.7688 64.7931 65.7104 64.4382 65.3991C63.7624 64.796 62.7825 64.6987 62.1911 65.1851C61.8025 65.4964 61.3801 65.5742 59.8595 65.652C58.2882 65.7104 57.8996 65.7882 57.2914 66.1968C56.6493 66.6054 56.5142 66.6248 56.1594 66.3913C55.7032 66.119 55.247 66.2162 53.4898 66.9555C52.9492 67.189 52.324 67.3641 52.0706 67.3641C51.8172 67.3641 51.3779 67.617 51.04 67.9478C50.6345 68.3758 50.2966 68.5314 49.8404 68.5314C49.4856 68.5314 48.928 68.7065 48.5732 68.9205C48.1846 69.1734 47.6101 69.3096 47.0695 69.3096C46.5457 69.3291 46.0388 69.4458 45.853 69.6015C45.6671 69.7571 45.3799 69.8933 45.2109 69.8933C44.7717 69.8933 44.8392 70.2629 45.3292 70.4769C45.9037 70.7299 46.1909 71.4691 45.9375 72.0139C45.7516 72.3835 45.7854 72.4225 46.2585 72.4225C46.8498 72.4225 46.9005 72.6559 46.4612 73.4925C46.1909 73.9983 46.0388 74.0761 45.3968 74.0761C44.9913 74.0956 44.5182 74.1734 44.3662 74.2512C44.1465 74.368 44.062 74.3291 44.062 74.1151C44.062 73.94 44.2141 73.7454 44.4 73.687C45.0927 73.4341 44.7041 73.2007 43.6059 73.2007C42.7273 73.2007 42.3218 73.2979 41.8656 73.6287C41.5446 73.8621 40.9701 74.0761 40.5984 74.0956C40.0071 74.154 37.743 74.9711 37.5234 75.224C37.3207 75.4575 37.7093 75.7298 38.2837 75.7493C38.7399 75.7687 38.8075 75.8077 38.4865 75.866C38.2668 75.9244 37.8951 76.1189 37.6755 76.3135C37.3376 76.6442 37.3207 76.6831 37.5741 76.8582C37.912 77.0722 41.6628 76.9166 42.0852 76.6637C42.3387 76.508 42.3725 76.547 42.2711 77.0333C42.1021 77.8699 42.0515 77.9088 41.3418 77.7726C40.7167 77.6559 40.666 77.6754 40.4464 78.259C40.0916 79.2707 38.2499 79.9127 36.9152 79.5236C36.5266 79.4069 36.2731 79.5041 35.5466 80.0878C35.0566 80.4769 34.4653 80.7882 34.2287 80.7882C33.9753 80.7882 33.4853 81.08 33.0798 81.4691C32.6237 81.9166 32.2013 82.15 31.8802 82.15C31.2889 82.15 31.103 82.5586 31.3734 83.2395C31.5254 83.6481 31.5085 83.7454 31.2551 83.8232C30.4441 84.115 30.2583 84.4847 30.461 85.3991C30.5793 85.9438 30.7482 85.9438 32.2688 85.438C32.7081 85.3018 33.1305 85.2434 33.1812 85.3212C33.3333 85.4963 32.5899 86.4302 32.2857 86.4302C32.1675 86.4302 31.9816 86.6442 31.8971 86.9166C31.8127 87.1695 31.5085 87.5197 31.2213 87.6948C30.951 87.8504 30.7144 88.045 30.7144 88.1033C30.7144 88.259 32.7757 87.9671 33.1136 87.7726C33.6205 87.4613 34.2287 87.7726 34.2963 88.3368L34.347 88.8621L34.8708 88.2201C35.327 87.6559 35.4283 87.617 35.8845 87.7921C36.2393 87.9282 36.5435 87.9477 36.8476 87.8115C37.2193 87.6364 37.3038 87.6559 37.3038 87.8893C37.3038 88.0839 37.1179 88.1812 36.7462 88.1812C36.3069 88.1812 36.138 88.2979 35.9859 88.6675C35.8676 88.9399 35.648 89.1539 35.4621 89.1539C35.2763 89.1539 34.989 89.3679 34.8032 89.6403C34.5329 90.0294 34.3132 90.1267 33.7726 90.1267C32.9954 90.1267 32.3195 90.4574 31.8296 91.08C31.6437 91.3134 31.3058 91.4885 31.0017 91.4885C30.7144 91.4885 30.1062 91.7025 29.6331 91.9555C28.3152 92.6558 27.6732 92.8893 26.6595 93.0255C26.1526 93.1033 25.5613 93.259 25.3585 93.3951C25.1558 93.5313 24.784 93.6286 24.5306 93.6286C24.0913 93.6286 22.4524 94.7376 22.4355 95.0294C22.4355 95.2823 23.1452 95.4185 23.5845 95.2239C23.8379 95.1072 24.2603 94.971 24.5306 94.8932C24.784 94.8348 25.2064 94.6208 25.443 94.4457C25.6964 94.2512 26.254 94.0955 26.7439 94.0955C27.876 94.0566 28.7039 93.8426 29.0587 93.4924C29.2445 93.2979 29.5148 93.2395 29.8528 93.3368C30.2752 93.4341 30.461 93.3562 31.0017 92.792C31.5592 92.2084 31.7958 92.0916 32.8264 91.9749C34.1781 91.7998 34.8708 91.4691 35.0228 90.9049C35.0735 90.6909 35.2594 90.5158 35.4114 90.5158C35.5804 90.5158 35.8845 90.3796 36.0873 90.2045C36.3069 90.0294 36.7631 89.8932 37.101 89.8738C37.4389 89.8738 37.8444 89.757 37.9965 89.6014C38.1485 89.4457 38.6723 89.2706 39.1454 89.1734C39.7367 89.0761 40.176 88.8426 40.497 88.4924C40.7505 88.2006 41.2405 87.9282 41.5784 87.8504C42.1021 87.7531 42.1866 87.6753 42.2373 87.1306C42.288 86.4691 42.4232 86.3913 44.1127 86.0216C44.7548 85.8854 45.2785 85.6325 45.6333 85.2823C46.3599 84.5625 47.154 84.0956 47.6946 84.0956C47.948 84.0956 48.3873 83.8816 48.6746 83.6286C49.3166 83.0644 50.3979 82.8699 50.3979 83.3174C50.3979 83.5119 50.1614 83.6481 49.6207 83.7065C49.1814 83.7648 48.5056 84.0761 48.0156 84.4263C47.5594 84.757 46.9681 85.0878 46.6978 85.1461C46.4105 85.224 45.9544 85.5353 45.6502 85.8465C45.3461 86.1384 45.0082 86.4302 44.8899 86.4691C44.7717 86.508 44.721 86.6831 44.7886 86.8777C44.9406 87.364 45.7685 87.2862 46.6978 86.722C47.2215 86.4107 47.7622 86.2356 48.2691 86.2356C48.8435 86.2356 49.1307 86.1384 49.3504 85.8465C49.57 85.5547 49.8573 85.4574 50.5162 85.438C52.0368 85.3991 52.2565 85.2629 52.2565 84.3874C52.2565 83.7259 52.3071 83.6092 52.6619 83.5508C53.2871 83.4341 53.7771 83.6676 54.3008 84.2707C54.8077 84.8738 56.058 85.5158 56.6493 85.4963C56.8352 85.4769 57.2576 85.4185 57.5786 85.3602C58.2713 85.224 60.265 85.9633 60.8395 86.5664C61.0422 86.7804 61.3294 87.0138 61.4984 87.0722C61.6505 87.1306 61.8194 87.4419 61.887 87.7531C61.9546 88.1812 62.1573 88.4146 62.6642 88.6675C63.4076 89.0566 63.4076 89.2123 62.6304 89.1928C62.1742 89.1734 62.1235 89.2317 62.2249 89.6014C62.3939 90.224 62.377 90.5158 62.0729 91.4691C61.9039 91.936 61.8194 92.4418 61.8701 92.5975C62.0222 93.006 62.7994 92.4613 63.4076 91.508C63.7455 90.9827 64.0496 90.7103 64.3031 90.7103C64.5903 90.7103 64.7593 90.5158 64.9451 90.0099C65.1817 89.3679 65.1817 89.2706 64.9113 88.9399C64.641 88.5897 64.641 88.5703 65.0127 88.5703C65.3675 88.5703 65.3844 88.6286 65.283 89.4457C65.1986 90.0878 65.2323 90.438 65.4182 90.7492C65.8744 91.4885 65.773 92.7337 65.1817 93.4924C64.7424 94.0761 64.7255 94.1734 64.9451 94.4263C65.0803 94.6014 65.2323 95.1656 65.283 95.6909C65.3844 96.6053 65.3506 96.7025 64.9113 97.0916C63.8976 97.9671 63.83 98.1033 64.1679 98.687C64.32 98.9399 64.3876 98.901 64.6917 98.5119C65.1817 97.8115 65.4858 98.2589 65.0803 99.0566L64.7593 99.6792L65.3168 100.166C65.942 100.749 66.0264 101.216 65.4858 101.216C65.1986 101.216 65.0127 101.43 64.7931 102.014C64.3876 103.006 64.5058 103.356 65.2492 103.356C65.6716 103.356 65.8575 103.453 65.942 103.726C65.9927 103.94 66.3475 104.232 66.7023 104.407C67.3105 104.679 67.3781 104.776 67.3781 105.399C67.3781 105.885 67.4795 106.158 67.7836 106.372C68.0539 106.586 68.206 106.917 68.2736 107.5C68.3581 108.201 68.3074 108.395 67.9357 108.843C67.5302 109.329 67.4626 109.348 67.1416 109.095C66.7361 108.765 66.094 108.706 65.942 108.998C65.7561 109.329 65.2155 109.212 65.0972 108.804C65.0465 108.59 64.8437 108.415 64.6579 108.415C64.4045 108.415 64.3369 108.57 64.3031 109.232C64.2693 110.341 64.2693 110.38 64.4214 110.983C64.5227 111.43 64.4551 111.605 64.0159 112.072C63.6948 112.403 63.4752 112.85 63.4245 113.239C63.3907 113.629 63.1035 114.173 62.6642 114.737C62.2925 115.204 61.9715 115.691 61.9715 115.788C61.9715 116.041 60.6874 117.85 59.9102 118.667C59.2175 119.426 59.0316 119.815 58.5923 121.45C58.2713 122.656 57.9334 123.453 57.6124 123.862C57.1393 124.426 57.1055 124.582 57.0379 126.45C56.9704 128.025 57.0041 128.492 57.2069 128.706C57.4772 129.018 57.5279 130.282 57.3252 131.333C57.2238 131.897 57.2407 131.994 57.5617 132.092C58.1024 132.247 58.001 133.239 57.4603 133.181C57.2238 133.142 57.0717 133.239 57.0717 133.395C57.0717 133.92 57.7644 135.457 58.1024 135.652C58.3558 135.827 58.4234 136.041 58.3896 136.683L58.3389 137.5L59.0485 137.442C59.623 137.383 59.7581 137.442 59.8595 137.753C59.9102 137.967 60.1298 138.2 60.3326 138.259C60.5353 138.317 60.9915 138.765 61.3463 139.251C61.9546 140.088 62.0053 140.224 62.056 141.644C62.0897 142.461 62.2249 143.648 62.377 144.27C62.529 144.893 62.6473 145.788 62.6473 146.255C62.6473 146.936 62.7487 147.267 63.1542 147.772C63.4414 148.142 63.661 148.57 63.661 148.726C63.661 148.881 63.8131 149.173 63.999 149.368C64.4551 149.835 64.4214 150.165 63.8976 150.749C63.5428 151.158 63.3738 151.235 62.9007 151.138C62.1573 150.963 61.9546 151.352 62.5121 151.897C62.7318 152.111 62.9683 152.442 63.0359 152.636C63.1542 153.006 64.2355 153.589 64.5565 153.434C64.6748 153.395 65.0972 153.687 65.5027 154.115C66.2292 154.893 66.2292 154.912 66.1278 155.924C65.9927 157.286 66.2799 158.161 67.1922 159.173C67.8005 159.854 67.9019 160.068 67.8343 160.516C67.6484 161.547 68.2736 161.819 69.1353 161.08C69.4563 160.807 69.4563 160.73 69.2366 159.951C68.9494 158.92 68.6453 158.453 68.1553 158.375C67.7836 158.317 67.716 158.006 67.4457 154.932C67.395 154.348 67.1922 153.609 67.0233 153.278C66.8543 152.947 66.7023 152.539 66.7023 152.364C66.7023 152.189 66.584 151.936 66.4488 151.8C66.2968 151.644 66.1954 151.216 66.1954 150.652C66.1954 150.088 66.0602 149.504 65.8406 149.095C65.5703 148.57 65.5365 148.395 65.7223 148.259C65.8913 148.123 65.8744 148.025 65.6041 147.811C64.6241 146.955 64.641 147.014 64.7424 145.418C64.7931 144.601 64.8437 143.667 64.8437 143.356L64.8606 142.792L65.2492 143.22C65.5365 143.531 65.773 143.628 66.0095 143.531C66.2461 143.453 66.3981 143.512 66.4657 143.706C66.5164 143.881 66.7192 144.018 66.8881 144.018C67.1754 144.018 67.2091 144.173 67.2091 145.302C67.2091 146.216 67.3612 147.091 67.6991 148.278C67.9694 149.193 68.2229 150.165 68.2567 150.438C68.2905 150.807 68.4425 150.944 68.9494 151.08C69.5239 151.235 69.5745 151.313 69.5745 151.936C69.5745 152.461 69.7097 152.772 70.1828 153.317C70.7741 153.998 70.791 154.037 70.5207 154.543C70.3686 154.835 70.2504 155.224 70.2504 155.438C70.2504 155.632 71.0276 156.702 72.0075 157.811C72.9875 158.94 73.8154 160.068 73.8829 160.321C73.9336 160.593 74.2209 161.196 74.5081 161.644C74.8967 162.267 74.9981 162.617 74.9305 163.025C74.8798 163.375 74.9643 163.823 75.2008 164.309L75.5725 165.068L75.1501 165.418C74.7446 165.768 74.7446 165.807 75.0319 166.041C75.3191 166.294 75.3022 166.333 74.8967 166.975C74.356 167.811 74.356 168.045 74.9643 168.745C75.2515 169.056 75.5218 169.484 75.5725 169.698C75.6401 169.912 75.8259 170.087 76.0118 170.087C76.2483 170.087 76.4342 170.321 76.6032 170.788C76.8059 171.333 76.9242 171.469 77.1945 171.391C77.3804 171.333 77.7858 171.449 78.0731 171.644C78.3772 171.838 78.9517 172.052 79.3403 172.13C79.7458 172.208 80.2019 172.442 80.354 172.656C80.9116 173.395 82.3984 174.562 82.8039 174.562C83.0235 174.562 83.4966 174.776 83.8514 175.068C85.4227 176.294 87.4333 176.994 88.4639 176.663C88.8187 176.566 89.2918 176.216 89.5453 175.905C89.9001 175.477 90.1535 175.34 90.6435 175.34C91.3024 175.34 92.0458 175.768 92.0458 176.138C92.0458 176.547 93.1271 178.2 94.1747 179.368C95.1884 180.515 95.3067 180.593 96.0332 180.593C96.5401 180.593 97.03 180.749 97.4018 181.002C97.7059 181.235 98.4324 181.566 99.0068 181.78C100.037 182.13 100.071 182.13 100.629 181.761C101.338 181.255 101.389 181.274 101.305 181.858C101.237 182.247 101.423 182.617 102.234 183.667C103.636 185.496 103.721 185.691 103.755 186.955C103.771 187.889 103.839 188.142 104.211 188.512C104.447 188.745 104.768 188.959 104.954 188.959C105.208 188.959 105.241 188.862 105.157 188.453C105.005 187.753 105.343 188.045 105.647 188.881C105.782 189.251 106.069 189.62 106.306 189.737C106.661 189.893 106.728 190.068 106.779 190.846L106.83 191.78L108.046 191.722C109.398 191.663 109.888 191.858 110.124 192.578C110.226 192.87 110.411 193.045 110.631 193.045C110.851 193.045 111.037 193.239 111.138 193.531C111.324 194.115 111.797 194.154 112.338 193.648L112.743 193.278L112.371 192.811C111.898 192.227 111.881 192.072 112.304 192.072C112.49 192.072 112.675 191.897 112.743 191.702C112.895 191.099 113.503 190.321 113.807 190.321C113.943 190.321 114.433 190.613 114.889 190.963C115.649 191.547 115.903 192.091 115.531 192.364C115.277 192.539 115.328 192.967 115.632 193.317C115.869 193.609 115.936 193.609 116.376 193.298C116.832 193.006 117.22 192.325 117.22 191.838C117.22 191.391 115.818 189.504 115.294 189.251C115.007 189.115 114.416 188.94 113.993 188.862C113.267 188.745 113.165 188.784 112.675 189.329C112.371 189.659 111.966 189.932 111.729 189.932C111.51 189.932 111.053 190.087 110.732 190.263C109.955 190.671 109.279 190.399 109.279 189.64C109.279 189.348 109.127 189.037 108.874 188.842C108.637 188.687 108.435 188.395 108.401 188.22C108.367 188.045 108.198 187.889 108.029 187.889C107.776 187.889 107.657 187.597 107.387 186.469L107.066 185.029L107.488 183.648C107.793 182.597 107.877 182.014 107.81 181.313C107.725 180.554 107.776 180.263 108.046 179.835C108.232 179.543 108.452 178.959 108.502 178.531C108.637 177.656 108.367 177.247 107.556 177.014C107.235 176.936 107.083 176.761 107.083 176.508C107.083 175.944 106.188 175.593 104.971 175.671C104.008 175.749 103.163 175.749 101.727 175.71C101.372 175.71 100.815 175.768 100.477 175.827C99.5306 176.021 99.4799 175.613 100.308 174.737C100.865 174.134 101.001 173.862 101.001 173.298C101.001 172.908 101.119 172.325 101.271 171.994C101.423 171.663 101.507 171.255 101.457 171.06C101.423 170.885 101.457 170.574 101.541 170.379C101.676 170.107 101.744 170.087 101.862 170.301C101.93 170.438 102.048 170.516 102.099 170.438C102.268 170.243 102.504 168.92 102.521 168.2C102.521 167.772 102.623 167.5 102.876 167.364C103.062 167.228 103.332 166.838 103.467 166.488C103.602 166.119 103.856 165.73 104.059 165.613C104.329 165.438 104.38 165.282 104.295 164.873C104.126 164.095 103.873 163.842 103.467 163.979C103.265 164.056 102.91 164.115 102.656 164.095C102.403 164.076 101.812 164.231 101.338 164.445C100.865 164.659 100.257 164.835 99.9868 164.835C98.8717 164.835 98.2972 165.632 98.2972 167.189C98.2972 167.539 98.1959 167.733 97.9593 167.811C97.7735 167.87 97.5707 168.064 97.52 168.278C97.2835 169.095 97.0638 169.465 96.8442 169.368C96.4556 169.193 96.0839 169.679 96.2022 170.204C96.2866 170.574 96.236 170.671 95.9656 170.671C95.7798 170.671 95.5263 170.477 95.3912 170.243C95.1377 169.815 95.1377 169.815 94.3436 170.165C93.9043 170.36 93.0765 170.632 92.502 170.768C91.4714 171.021 91.4545 171.021 90.9983 170.535C90.7448 170.243 90.2549 169.971 89.9001 169.912C89.2749 169.796 89.258 169.757 89.1229 168.823C89.0384 168.278 88.937 167.656 88.9032 167.422C88.8694 167.189 88.6498 166.78 88.447 166.547C88.1767 166.255 87.9233 165.496 87.6698 164.348L87.2981 162.597L87.636 161.333C87.805 160.632 88.0077 159.679 88.0753 159.193C88.2274 158.161 88.4977 157.481 89.2749 156.255C89.748 155.496 89.8494 155.165 89.8494 154.348C89.8494 153.784 89.7311 153.084 89.5959 152.753C89.3425 152.189 89.3425 152.169 89.9508 151.547C90.2887 151.216 90.7448 150.807 90.9814 150.671C91.201 150.535 91.4545 150.204 91.5389 149.932C91.6741 149.543 91.8093 149.465 92.3499 149.465C92.8568 149.465 93.1102 149.329 93.4988 148.862C93.7692 148.531 94.1747 148.181 94.3943 148.084C94.614 147.986 94.7491 147.831 94.6815 147.772C94.5802 147.636 96.3035 146.936 96.7428 146.936C96.8611 146.936 97.1821 147.13 97.4524 147.364C97.9424 147.772 97.9593 147.772 98.5338 147.422C99.0237 147.111 99.1589 147.091 99.3785 147.305C99.5306 147.461 99.6489 147.792 99.6489 148.045C99.6489 148.492 99.6996 148.531 100.291 148.414C101.862 148.123 102.183 148.142 102.369 148.512C102.454 148.726 102.724 148.881 102.96 148.881C103.366 148.881 103.4 148.823 103.298 148.259C103.231 147.909 103.163 147.461 103.146 147.267C103.112 147.091 102.944 146.8 102.758 146.663C102.251 146.235 102.673 145.924 103.991 145.73C104.937 145.613 105.174 145.632 105.326 145.866C105.495 146.119 105.647 146.119 106.34 145.944C107.303 145.691 108.722 145.924 108.637 146.333C108.553 146.819 108.975 147.13 109.702 147.13C110.141 147.13 110.496 147.014 110.631 146.819C110.986 146.352 111.679 146.566 111.983 147.228C112.118 147.539 112.371 147.928 112.54 148.103C112.777 148.337 112.861 148.745 112.895 150.107C112.912 151.041 112.878 151.858 112.794 151.916C112.557 152.091 112.642 152.656 112.996 153.161C113.182 153.434 113.334 153.784 113.334 153.959C113.334 154.134 113.52 154.601 113.757 154.99C113.993 155.379 114.179 155.924 114.179 156.177C114.179 156.702 114.348 156.8 115.125 156.702C115.514 156.644 115.7 156.527 115.7 156.294C115.7 156.119 115.818 155.593 115.97 155.107C116.426 153.609 116.443 150.827 116.021 148.59C115.497 145.788 115.548 144.951 116.325 143.628C117.068 142.383 118.167 141.099 118.488 141.099C118.606 141.099 118.944 140.885 119.214 140.613C119.501 140.341 119.873 140.127 120.076 140.127C120.312 140.127 120.431 140.01 120.431 139.757C120.431 139.193 121.343 138.181 121.833 138.181C122.103 138.181 122.576 137.87 123.033 137.422C123.455 136.994 123.945 136.605 124.131 136.527C124.317 136.469 124.604 136.06 124.756 135.632C125.009 134.971 125.128 134.874 125.601 134.874C126.175 134.874 126.598 134.465 126.462 134.018C126.412 133.881 126.445 133.395 126.547 132.948C126.665 132.403 126.665 132.072 126.547 131.897C126.429 131.741 126.429 131.352 126.513 130.788C126.598 130.302 126.665 129.582 126.682 129.173C126.682 128.181 127.256 126.897 127.696 126.897C128.118 126.897 128.118 127.014 127.611 127.948C127.324 128.492 127.24 128.881 127.307 129.271C127.358 129.601 127.29 129.99 127.121 130.302C126.851 130.788 126.75 131.839 126.986 131.722C127.054 131.683 127.594 131.06 128.186 130.341C129.301 128.94 129.368 128.648 128.963 127.422C128.845 127.111 128.895 127.072 129.419 127.189C129.926 127.306 130.112 127.228 130.619 126.722C130.94 126.372 131.362 125.71 131.531 125.243L131.835 124.368H132.714C133.457 124.368 133.66 124.29 134.032 123.843C134.268 123.551 134.454 123.259 134.454 123.181C134.454 123.123 134.758 122.87 135.147 122.636C135.772 122.228 135.907 122.208 136.887 122.403C138.289 122.695 138.256 122.695 138.475 122.111C138.627 121.761 138.627 121.508 138.492 121.236C138.323 120.866 138.289 120.866 138.019 121.138C137.799 121.372 137.681 121.391 137.529 121.216C137.242 120.885 137.276 120.341 137.58 120.204C137.715 120.146 137.833 119.932 137.833 119.718C137.833 119.504 138.188 118.94 138.644 118.453C139.252 117.772 139.573 117.558 139.979 117.558C140.722 117.558 141.381 117.247 141.381 116.878C141.381 116.664 141.567 116.586 142.023 116.586C142.378 116.586 142.817 116.45 143.003 116.294C143.172 116.138 143.595 115.924 143.933 115.808C144.287 115.691 144.591 115.457 144.642 115.243C144.693 115.01 144.879 114.893 145.217 114.874C145.487 114.874 146.112 114.679 146.619 114.465C147.717 113.979 147.633 113.998 147.633 114.329C147.633 114.621 146.67 115.341 146.028 115.535C145.791 115.594 145.605 115.749 145.605 115.846C145.605 115.963 145.419 116.255 145.183 116.508C144.811 116.897 144.794 117.014 144.946 117.539C145.284 118.629 146.264 118.473 147.582 117.15C147.886 116.858 148.41 116.547 148.765 116.469C149.103 116.391 149.626 116.177 149.897 116.002C150.184 115.808 150.758 115.594 151.147 115.535C152.059 115.38 153.208 114.718 153.208 114.368C153.208 113.881 152.786 113.687 151.434 113.551C150.15 113.415 149.153 112.928 148.782 112.247C148.545 111.819 148.63 110.36 148.9 110.243C149.187 110.107 149.238 109.465 148.967 109.29C148.883 109.212 148.579 109.271 148.292 109.387C147.903 109.582 147.751 109.582 147.548 109.387C147.126 108.979 147.531 108.726 148.545 108.784C149.356 108.823 149.542 108.745 150.032 108.239C150.522 107.734 150.573 107.617 150.42 107.131C150.15 106.274 149.677 106.099 148.41 106.411C146.349 106.897 145.436 107.228 144.896 107.695C144.034 108.434 142.581 109.095 142.361 108.843C142.226 108.687 142.429 108.492 143.088 108.123C143.595 107.85 144.254 107.422 144.575 107.15C144.912 106.858 145.369 106.664 145.723 106.664C146.18 106.664 146.467 106.469 147.261 105.574L148.224 104.485L152.989 104.582C157.55 104.66 157.77 104.66 158.057 104.29C158.209 104.076 158.818 103.531 159.392 103.064C160.169 102.422 160.676 102.15 161.42 102.014C162.535 101.8 164.258 100.808 164.596 100.185C165.001 99.4457 165.069 98.3757 164.782 97.7142C164.562 97.2473 164.41 97.1305 163.954 97.1305C163.464 97.1305 163.379 97.0527 163.295 96.6053C163.244 96.3134 163.295 95.9243 163.413 95.7298C163.565 95.4185 163.532 95.3018 163.278 95.0683C163.092 94.9127 162.737 94.7959 162.484 94.7959C162.163 94.7959 161.977 94.6792 161.91 94.4068C161.825 94.115 161.656 94.0177 161.149 94.0177C160.558 94.0177 160.49 93.9593 160.44 93.4924C160.406 93.1033 160.237 92.8699 159.882 92.6948C158.97 92.2278 158.868 92.1306 158.818 91.6247C158.767 91.1967 158.835 91.1189 159.24 91.0605C159.696 91.0022 159.713 90.9632 159.646 90.0294C159.612 89.5041 159.493 88.8815 159.358 88.6675C159.223 88.473 159.122 88.1033 159.122 87.8893C159.122 87.6753 158.97 87.15 158.784 86.722C158.598 86.294 158.446 85.652 158.446 85.2629C158.446 84.5819 158.209 84.0956 157.871 84.0956C157.652 84.0956 156.249 85.8465 156.249 86.1384C156.249 86.4302 155.067 87.4029 154.678 87.4029C154.526 87.4029 154.104 87.578 153.732 87.8115C153.005 88.2395 152.718 88.1617 152.144 87.4419C151.958 87.2084 151.705 87.0917 151.502 87.15C151.215 87.2473 151.181 87.15 151.181 86.3718C151.181 85.4769 151.671 84.329 152.296 83.8037C152.448 83.687 152.549 83.4146 152.499 83.2006C152.448 82.8893 152.279 82.831 151.384 82.7726C150.556 82.7337 150.319 82.6559 150.404 82.4419C150.454 82.2862 150.268 82.0139 149.947 81.7804C149.643 81.5664 149.204 81.1967 148.951 80.9633C148.511 80.5547 148.427 80.5353 147.548 80.7687C146.906 80.9438 146.028 80.9633 144.777 80.8855C143.037 80.7493 142.919 80.7687 142.75 81.1384C142.648 81.3524 142.564 81.8388 142.564 82.189C142.564 82.5586 142.378 83.1423 142.142 83.5508C141.905 83.9399 141.719 84.5236 141.719 84.8349C141.719 85.3991 141.026 86.1189 139.573 87.1111C138.914 87.5586 138.864 88.2395 139.472 88.3368C140.351 88.4924 140.672 90.2045 140.013 91.1773C139.793 91.508 139.692 91.8776 139.742 92.1695C139.793 92.5586 139.742 92.6558 139.455 92.6558C139.067 92.6558 138.526 93.0255 137.833 93.7453C137.411 94.1928 136.566 94.6014 135.13 95.0683C133.711 95.5352 133.609 95.6519 133.609 96.8582C133.609 97.4418 133.491 98.2395 133.339 98.648C133.204 99.0372 133.052 99.6014 133.018 99.8932C132.967 100.38 132.241 101.703 131.852 102.033C131.768 102.092 131.599 102.111 131.48 102.053C131.345 101.994 131.126 102.092 130.99 102.267C130.652 102.636 130.163 102.675 129.943 102.325C129.774 102.072 129.385 100.963 129.098 99.9126C128.946 99.3873 129.014 99.0372 129.588 97.3835C129.96 96.3329 130.331 95.3601 130.433 95.2434C130.855 94.6597 130.467 94.4652 128.693 94.4457C127.746 94.4263 126.919 94.3485 126.868 94.2901C126.817 94.2317 126.766 93.9399 126.766 93.6675C126.766 93.1422 126.75 93.1422 125.719 93.2006C124.688 93.2784 124.655 93.259 124.469 92.7142C124.114 91.6636 124.029 91.5858 123.151 91.4302C122.576 91.3134 122.238 91.1383 122.12 90.8854C121.901 90.438 120.684 90.3601 120.16 90.7882C119.772 91.0994 119.18 91.2551 119.113 91.0411C119.096 90.9632 119.197 90.6909 119.349 90.4185C119.518 90.1072 119.586 89.757 119.518 89.4457C119.451 89.1734 119.484 88.7843 119.586 88.5508C119.89 87.8893 119.636 87.4224 118.893 87.2862C118.048 87.1306 118.015 86.5858 118.842 86.08C119.045 85.9633 119.248 85.5936 119.299 85.2823C119.4 84.7181 120.042 84.0761 121.258 83.3368C121.495 83.2006 121.884 82.8699 122.12 82.6364C122.357 82.403 122.678 82.15 122.847 82.0917C122.999 82.0139 123.134 81.8582 123.134 81.722C123.134 81.5858 123.708 81.2162 124.401 80.9049C125.584 80.3796 125.668 80.3213 125.668 79.7765C125.668 79.2512 125.719 79.1929 126.091 79.3096C126.327 79.368 126.699 79.4847 126.935 79.5431C127.73 79.7765 128.186 78.8816 127.493 78.4925C127.155 78.3174 127.206 78.2785 127.949 78.259C128.422 78.259 128.98 78.2396 129.216 78.2396C129.436 78.2201 129.723 78.0839 129.825 77.9088C129.96 77.6754 130.298 77.5781 130.855 77.5586C131.295 77.5392 131.903 77.4613 132.173 77.3835C132.883 77.1695 134.741 75.6131 134.843 75.1462C134.893 74.9127 135.079 74.7571 135.265 74.7571C135.468 74.7571 135.654 74.6793 135.704 74.582C135.755 74.4847 136.076 74.3485 136.414 74.2902C136.938 74.1734 137.005 74.0956 136.955 73.6287C136.904 73.1423 136.955 73.1034 137.597 73.045C138.07 73.0061 138.391 73.0839 138.56 73.2785C138.712 73.4536 139.05 73.5898 139.337 73.5898C139.742 73.5898 139.861 73.5119 139.861 73.2201C139.861 72.6559 140.131 72.5586 140.689 72.9283C141.128 73.2201 141.263 73.2396 141.973 73.0061C142.615 72.7921 143.696 72.0528 144.422 71.3135C144.473 71.2551 144.372 71.119 144.203 70.9828C143.544 70.4186 144.085 68.9789 144.76 69.4653C145.149 69.7376 145.538 69.6015 145.656 69.154C145.707 68.9789 145.791 68.6676 145.859 68.4731C145.96 68.2201 145.892 68.1423 145.571 68.1423C145.335 68.1423 145.014 67.9672 144.862 67.7727C144.524 67.3447 143.274 67.1501 142.446 67.403C142.006 67.5392 141.854 67.7143 141.702 68.3563C141.5 69.0956 141.094 69.4264 140.57 69.2707C140.452 69.2318 140.266 69.4264 140.148 69.6793C140.03 69.9711 139.607 70.3018 139.016 70.5548C138.509 70.7882 137.901 71.119 137.664 71.2941C137.107 71.761 136.532 71.7415 136.313 71.2357C135.992 70.5548 136.177 70.0489 136.819 69.796C137.309 69.6015 137.411 69.4653 137.411 68.9983C137.411 68.4925 137.343 68.4341 136.786 68.3758C136.346 68.3369 136.11 68.4147 135.941 68.6676C135.654 69.1345 134.792 69.7571 134.657 69.6209C134.488 69.4069 135.113 68.1423 135.4 68.1423C135.552 68.1423 135.637 68.0061 135.603 67.7921C135.535 67.4419 134.961 67.3641 134.42 67.6559C134.184 67.7532 134.116 67.6948 134.116 67.3836C134.116 67.0723 134.251 66.9361 134.589 66.8583C135.062 66.7415 135.079 66.7026 135.079 65.5937C135.096 64.5042 135.062 64.4069 134.606 64.154C134.133 63.8622 133.508 63.8233 132.849 63.9984Z" fill="#1AAB9B"/>
<path d="M177.91 66.5275C177.437 66.6248 177.302 66.9944 177.437 67.6559C177.556 68.1618 177.556 68.1618 178.975 68.0645C180.58 67.9672 180.817 67.8699 180.597 67.4225C180.343 66.8777 178.721 66.333 177.91 66.5275Z" fill="#1AAB9B"/>
<path d="M126.463 67.7532C126.108 68.1034 125.686 68.3368 125.399 68.3368C124.824 68.3368 124.351 68.6287 124.537 68.8621C124.622 68.94 124.96 69.0178 125.297 69.0372C125.635 69.0567 126.429 69.1345 127.038 69.2123C128.406 69.3874 128.93 69.154 128.846 68.3758C128.812 68.0061 128.677 67.831 128.423 67.7921C128.22 67.7532 127.967 67.5975 127.866 67.4419C127.545 67.0139 127.088 67.1112 126.463 67.7532Z" fill="#1AAB9B"/>
<path d="M149.408 67.9477C149.357 68.045 149.002 68.2201 148.647 68.3368C147.819 68.5897 147.718 69.115 148.478 69.115C148.985 69.115 149.83 68.3951 149.83 67.9477C149.83 67.6948 149.543 67.6948 149.408 67.9477Z" fill="#1AAB9B"/>
<path d="M150.405 70.1458C149.73 70.5932 148.969 71.4493 149.071 71.6438C149.121 71.7411 149.628 71.8384 150.186 71.8384C151.081 71.8384 151.25 71.78 151.808 71.1964C152.602 70.3403 152.5 69.8929 151.487 69.8929C151.081 69.9123 150.608 70.0096 150.405 70.1458Z" fill="#1AAB9B"/>
<path d="M152.634 70.4573C152.567 70.5741 152.685 70.8464 152.871 71.0604C153.158 71.3912 153.276 71.4106 153.564 71.255C154.071 70.9242 153.902 70.399 153.26 70.3211C152.972 70.2822 152.685 70.3406 152.634 70.4573Z" fill="#1AAB9B"/>
<path d="M136.836 75.0685C136.347 75.4187 135.823 75.8856 135.688 76.0996C135.552 76.3331 135.35 76.5082 135.231 76.5082C135.113 76.5082 134.927 76.7222 134.826 76.9945C134.674 77.3836 134.505 77.4809 134.049 77.4809C133.457 77.4809 132.934 77.8895 132.934 78.3369C132.934 78.4926 133.204 78.5704 133.745 78.5704C134.437 78.551 134.539 78.6093 134.589 78.979C134.657 79.5432 134.758 79.5432 135.941 78.8428C136.499 78.512 137.022 78.2591 137.124 78.2591C137.225 78.2591 137.462 78.084 137.631 77.87C137.935 77.4809 137.952 77.4809 138.34 77.9673C138.813 78.551 139.827 78.9011 140.469 78.7261C140.756 78.6482 140.959 78.6871 141.06 78.8622C141.246 79.2319 141.517 78.9011 141.652 78.1229C141.753 77.5198 141.736 77.5004 141.111 77.442C140.604 77.4031 140.435 77.2864 140.401 76.9945C140.3 76.4109 139.861 75.905 139.067 75.5159C138.543 75.263 138.34 75.049 138.34 74.7572C138.34 74.2124 137.918 74.2903 136.836 75.0685Z" fill="#1AAB9B"/>
<path d="M145.099 78.1816C145.099 78.4929 145.487 79.0376 145.69 79.0376C146.062 79.0376 145.994 78.4929 145.622 78.2594C145.251 78.0454 145.099 78.0065 145.099 78.1816Z" fill="#1AAB9B"/>
<path d="M143.613 78.8816C143.647 79.1345 143.799 79.3485 143.968 79.3874C144.339 79.4652 144.559 78.8621 144.238 78.6287C143.816 78.3174 143.545 78.4341 143.613 78.8816Z" fill="#1AAB9B"/>
<path d="M136.196 80.1272C135.469 80.633 135.266 81.061 135.689 81.2166C136.449 81.5279 138.51 80.633 138.51 80.0104C138.51 79.4073 137.125 79.4851 136.196 80.1272Z" fill="#1AAB9B"/>
<path d="M139.98 81.0798C139.659 81.3522 139.642 82.1693 139.946 82.286C140.183 82.3638 141.045 81.4105 141.045 81.0798C141.045 80.7102 140.386 80.7102 139.98 81.0798Z" fill="#1AAB9B"/>
<path d="M158.397 81.8975C158.329 81.9559 158.278 82.1894 158.278 82.3839C158.278 82.9287 158.853 82.7536 158.92 82.1894C158.971 81.7808 158.65 81.5863 158.397 81.8975Z" fill="#1AAB9B"/>
<path d="M27.5388 84.6206C26.863 84.7179 26.7109 85.0875 27.1164 85.6323C27.505 86.1576 27.6402 86.1381 28.3498 85.4572C28.8397 84.9708 28.8904 84.8541 28.6877 84.679C28.5525 84.5817 28.3667 84.5039 28.2653 84.5233C28.1808 84.5428 27.8429 84.5817 27.5388 84.6206Z" fill="#1AAB9B"/>
<path d="M41.9502 88.2594C41.7644 88.3956 41.5447 88.5318 41.4434 88.5512C41.3589 88.5512 41.2744 88.6874 41.2744 88.8041C41.2744 88.9792 41.511 89.0376 42.0178 89.0182C42.9133 88.9598 43.1667 88.7458 42.795 88.2983C42.4571 87.9092 42.3726 87.9092 41.9502 88.2594Z" fill="#1AAB9B"/>
<path d="M39.6697 89.7381C39.3824 90.0688 39.3655 90.205 39.5007 90.5357C39.6865 90.9054 39.7203 90.9248 40.1258 90.5941C40.3793 90.419 40.7679 90.205 41.0044 90.1272C41.714 89.9132 41.5451 89.4462 40.7341 89.3879C40.1934 89.349 39.94 89.4268 39.6697 89.7381Z" fill="#1AAB9B"/>
<path d="M64.067 91.3716C63.5433 91.644 63.2391 92.1498 63.425 92.4806C63.4757 92.5779 63.6446 92.5779 63.8305 92.4611C63.9994 92.3638 64.4218 92.2666 64.7598 92.2666C65.4187 92.2666 65.689 91.8775 65.3511 91.3911C65.0977 91.0409 64.7598 91.0409 64.067 91.3716Z" fill="#1AAB9B"/>
<path d="M135.3 92.3055C134.911 93.0448 135.012 93.3172 135.604 93.1421C136.465 92.8892 136.837 91.683 136.06 91.683C135.756 91.683 135.536 91.8775 135.3 92.3055Z" fill="#1AAB9B"/>
<path d="M63.5427 92.986C63.4244 93.0249 63.323 93.2195 63.323 93.3945C63.323 93.5502 63.2047 93.8615 63.0358 94.056C62.7823 94.3868 62.7823 94.4257 63.0358 94.7564C63.2047 94.951 63.323 95.3206 63.323 95.5541C63.323 96.1766 63.6947 95.9821 64.0326 95.165C64.6409 93.7253 64.7085 93.4529 64.624 93.1611C64.5226 92.8693 63.9819 92.772 63.5427 92.986Z" fill="#1AAB9B"/>
<path d="M20.1554 95.1846C19.7837 95.3986 19.3951 95.5737 19.2768 95.5737C18.9896 95.5737 18.9896 96.3324 19.2937 96.4686C19.412 96.527 19.7668 96.3908 20.0878 96.1768C20.4088 95.9628 20.9495 95.7293 21.3043 95.671C21.7774 95.5542 21.9295 95.457 21.8619 95.2429C21.8112 95.0873 21.7605 94.9122 21.7605 94.8733C21.7605 94.6398 20.7299 94.8344 20.1554 95.1846Z" fill="#1AAB9B"/>
<path d="M62.4785 95.3797C62.4785 95.4769 62.563 95.5742 62.6475 95.5742C62.7488 95.5742 62.8164 95.4769 62.8164 95.3797C62.8164 95.2629 62.7488 95.1851 62.6475 95.1851C62.563 95.1851 62.4785 95.2629 62.4785 95.3797Z" fill="#1AAB9B"/>
<path d="M14.5966 97.5587C14.3431 97.9283 14.2249 98.2591 14.3262 98.3758C14.529 98.6093 15.2048 98.3758 15.6948 97.9283C16.0327 97.6171 16.0496 97.5198 15.8638 97.2474C15.5089 96.761 15.0697 96.8778 14.5966 97.5587Z" fill="#1AAB9B"/>
<path d="M60.7898 97.2868C60.3843 97.6759 60.3674 97.6759 60.6884 98.0844C61.1277 98.6487 61.7359 98.6097 62.0739 98.0066C62.2428 97.6953 62.5131 97.5202 62.7835 97.5202C63.5269 97.5202 62.9693 97.1311 62.0401 97.0144C61.3642 96.9171 61.1277 96.9755 60.7898 97.2868Z" fill="#1AAB9B"/>
<path d="M12.2989 98.2003C12.0792 98.4726 11.961 98.745 12.0116 98.8228C12.1975 99.0174 12.9747 98.531 12.9747 98.2197C12.9747 97.7139 12.7044 97.7139 12.2989 98.2003Z" fill="#1AAB9B"/>
<path d="M129.69 98.5118C129.521 98.6091 129.386 98.8814 129.386 99.076C129.386 99.3873 129.504 99.4651 129.943 99.4651C130.602 99.4651 131.244 98.9982 130.991 98.7063C130.721 98.3951 129.994 98.2783 129.69 98.5118Z" fill="#1AAB9B"/>
<path d="M60.8401 98.8229C60.3839 98.9202 60.367 99.0953 60.7725 100.224C60.9584 100.73 61.1273 101.002 61.1949 100.866C61.2625 100.73 61.2794 100.632 61.2287 100.632C61.178 100.632 61.2456 100.243 61.3639 99.7762C61.5835 98.9786 61.5666 98.6478 61.3132 98.7062C61.2625 98.7257 61.0429 98.784 60.8401 98.8229Z" fill="#1AAB9B"/>
<path d="M163.026 102.052C162.316 102.305 160.627 104.095 159.715 105.554C159.292 106.235 158.802 106.761 158.414 106.975C157.991 107.189 157.772 107.441 157.772 107.675C157.772 108.278 157.451 108.803 157.096 108.803C156.64 108.803 156.369 109.426 156.656 109.873C156.825 110.146 156.994 110.185 157.366 110.068C157.636 109.99 158.143 109.932 158.498 109.951C160.171 110.01 160.779 110.01 161.269 109.873C161.573 109.796 161.945 109.796 162.097 109.854C162.35 109.971 162.35 110.01 162.08 110.36C161.911 110.574 161.641 110.749 161.455 110.749C161.032 110.749 161.066 111.08 161.556 111.43C162.063 111.819 162.519 111.605 162.942 110.749C163.246 110.185 164.107 109.601 164.31 109.854C164.378 109.912 164.243 110.243 164.04 110.574C163.702 111.099 163.685 111.216 163.888 111.449C164.479 112.13 165.544 112.111 165.544 111.41C165.544 111.294 165.662 111.08 165.814 110.924C166.219 110.535 166.608 109.562 166.439 109.368C166.338 109.251 166.05 109.27 165.729 109.406C165.02 109.698 164.918 109.543 165.391 108.823C165.746 108.278 165.746 108.2 165.493 107.889C165.273 107.578 165.256 107.5 165.476 107.169C165.797 106.644 165.78 106.216 165.375 105.671C165.104 105.301 165.02 105.262 164.885 105.476C164.8 105.613 164.648 105.671 164.547 105.613C164.445 105.535 164.243 105.613 164.091 105.788C163.685 106.235 163.28 106.06 163.178 105.399C163.094 104.893 163.009 104.815 162.621 104.873C162.367 104.893 162.164 104.834 162.164 104.718C162.164 104.484 163.178 103.336 163.82 102.831C164.276 102.48 164.327 101.799 163.905 101.819C163.736 101.838 163.347 101.936 163.026 102.052Z" fill="#1AAB9B"/>
<path d="M62.5477 103.803C62.6152 104.134 62.8856 104.66 63.1559 104.951C63.4431 105.243 63.6628 105.613 63.6628 105.788C63.6628 105.944 63.8486 106.177 64.0514 106.255C64.271 106.352 64.5414 106.683 64.6596 107.014C64.8117 107.422 65.1158 107.695 65.7916 108.006C66.9236 108.551 67.2109 108.453 67.2109 107.519C67.2109 106.994 67.1264 106.8 66.873 106.722C66.6533 106.663 66.535 106.449 66.535 106.158C66.535 105.224 66.214 104.698 65.403 104.29C64.9469 104.076 64.4569 103.745 64.2879 103.589C64.119 103.414 63.6459 103.259 63.2066 103.22L62.4463 103.181L62.5477 103.803Z" fill="#1AAB9B"/>
<path d="M151.014 105.321C151.014 105.535 151.149 105.769 151.318 105.827C151.47 105.905 151.774 106.158 151.977 106.411C152.315 106.819 152.5 106.878 153.328 106.819C154.106 106.78 154.325 106.683 154.359 106.43C154.393 106.197 154.258 106.002 153.937 105.866C153.683 105.749 153.244 105.516 152.957 105.38C152.686 105.243 152.129 105.088 151.74 105.029C151.115 104.971 151.014 104.99 151.014 105.321Z" fill="#1AAB9B"/>
<path d="M153.242 109.815C153.006 110.088 152.972 110.555 153.208 110.555C153.36 110.555 153.715 109.952 153.715 109.699C153.715 109.504 153.462 109.562 153.242 109.815Z" fill="#1AAB9B"/>
<path d="M149.323 111.235C149.002 111.683 149.256 112.48 149.796 112.617C150.05 112.694 150.405 112.87 150.59 113.006C151.047 113.375 151.418 113.336 151.773 112.889C151.942 112.675 152.195 112.5 152.314 112.5C152.449 112.5 152.533 112.383 152.483 112.247C152.449 112.111 152.094 112.014 151.587 112.014C150.557 111.994 149.796 111.644 149.931 111.235C150.067 110.846 149.61 110.846 149.323 111.235Z" fill="#1AAB9B"/>
<path d="M154.054 111.469C153.733 111.722 153.412 112.111 153.344 112.325C153.277 112.52 153.142 112.695 153.04 112.695C152.736 112.695 152.854 113.239 153.243 113.551C153.632 113.862 154.324 113.959 154.797 113.745C155.085 113.609 155.169 112.695 154.899 112.695C154.814 112.695 154.73 112.558 154.73 112.403C154.73 112.247 154.797 112.111 154.882 112.111C155.068 112.111 155.203 111.527 155.118 111.177C155 110.846 154.73 110.905 154.054 111.469Z" fill="#1AAB9B"/>
<path d="M119.992 154.134C119.975 154.952 120.042 155.302 120.178 155.302C120.482 155.302 120.752 154.854 120.87 154.134C120.972 153.629 120.921 153.434 120.685 153.22C120.127 152.773 120.009 152.928 119.992 154.134Z" fill="#1AAB9B"/>
<path d="M121.174 156.177C120.886 156.43 120.886 156.45 121.157 156.469C121.326 156.469 121.444 156.625 121.444 156.878C121.444 157.15 121.528 157.247 121.731 157.209C122.052 157.131 122.17 156.489 121.917 156.139C121.697 155.808 121.579 155.827 121.174 156.177Z" fill="#1AAB9B"/>
<path d="M120.195 156.605C120.009 156.819 120.094 157.052 120.347 157.052C120.482 157.052 120.601 156.975 120.601 156.877C120.601 156.624 120.33 156.449 120.195 156.605Z" fill="#1AAB9B"/>
<path d="M118.353 157.189C118.134 157.442 118.235 158.182 118.522 158.298C118.911 158.473 119.266 158.026 119.147 157.481C119.046 157.073 118.59 156.898 118.353 157.189Z" fill="#1AAB9B"/>
<path d="M118.606 158.842C118.707 159.192 119.079 159.25 119.079 158.919C119.079 158.744 118.961 158.608 118.809 158.608C118.657 158.608 118.572 158.705 118.606 158.842Z" fill="#1AAB9B"/>
<path d="M122.797 160.438C122.797 161.177 123.067 161.547 123.236 161.061C123.371 160.652 123.185 159.777 122.966 159.777C122.864 159.777 122.797 160.069 122.797 160.438Z" fill="#1AAB9B"/>
<path d="M110.496 160.866C109.821 161.002 109.043 161.313 108.773 161.527C108.232 161.975 107.506 163.453 107.709 163.687C107.962 163.959 108.773 163.628 108.773 163.259C108.773 162.967 108.891 162.889 109.432 162.889C109.939 162.889 110.142 162.792 110.361 162.403C110.648 161.897 111.493 161.547 112.101 161.683C112.541 161.78 112.625 162.111 112.237 162.111C111.882 162.111 111.916 162.617 112.287 162.792C112.439 162.87 113.132 162.967 113.825 163.025C114.889 163.123 115.024 163.181 114.771 163.395C114.315 163.784 114.636 164.056 115.548 164.056C116.63 164.056 117.052 164.309 117.052 164.99C117.052 165.613 117.204 165.885 117.609 166.06C117.762 166.138 117.964 166.391 118.066 166.663C118.268 167.325 118.556 167.383 121.039 167.325C123.523 167.267 123.895 167.053 123.101 166.197C122.881 165.963 122.509 165.807 122.154 165.807C121.732 165.807 121.563 165.71 121.496 165.418C121.445 165.204 121.31 165.029 121.191 165.029C121.073 165.029 120.887 164.913 120.769 164.757C120.668 164.601 120.482 164.504 120.347 164.562C120.059 164.698 119.4 164.29 118.015 163.181C117.322 162.636 116.731 162.306 116.427 162.306C115.869 162.306 115.514 161.994 115.65 161.625C115.683 161.469 115.582 161.274 115.413 161.158C115.126 161.002 114.619 160.905 112.321 160.671C112 160.632 111.172 160.73 110.496 160.866Z" fill="#1AAB9B"/>
<path d="M124.25 162.014C124.317 162.306 124.284 162.5 124.165 162.5C124.064 162.5 123.979 162.578 123.979 162.695C123.979 163.006 124.774 162.909 124.892 162.578C125.027 162.17 125.027 162.189 124.723 161.839C124.334 161.392 124.132 161.469 124.25 162.014Z" fill="#1AAB9B"/>
<path d="M109.719 163.589C109.296 164.056 109.668 164.484 110.445 164.406C110.969 164.348 111.053 164.27 111.053 163.862C111.053 163.453 110.969 163.356 110.53 163.317C110.209 163.278 109.888 163.375 109.719 163.589Z" fill="#1AAB9B"/>
<path d="M125.466 167.519C124.672 167.578 124.03 168.044 124.503 168.22C124.638 168.258 124.976 168.395 125.246 168.492C125.635 168.628 125.736 168.764 125.702 169.095C125.669 169.328 125.736 169.659 125.855 169.815C126.243 170.379 125.787 170.554 124.689 170.301C123.405 169.97 122.898 170.068 122.83 170.613C122.78 170.963 122.881 171.06 123.337 171.138C123.641 171.177 124.047 171.235 124.233 171.235C125.517 171.255 127.02 171.527 127.02 171.741C127.02 171.994 127.375 172.227 127.798 172.227C127.916 172.227 128.135 171.916 128.271 171.546C128.541 170.846 128.828 170.71 129.42 171.079C129.69 171.255 129.825 171.216 130.078 170.885L130.416 170.476L131.075 170.865C131.954 171.391 132.021 171.371 132.359 170.574C132.697 169.718 132.478 169.309 131.667 169.309C131.329 169.309 131.008 169.153 130.805 168.9C130.636 168.686 130.095 168.278 129.605 168.025C128.727 167.539 127.392 167.383 125.466 167.519Z" fill="#1AAB9B"/>
<path d="M134.286 170.36C133.509 171.255 135.283 172.072 136.533 171.391C137.344 170.963 137.057 170.671 135.502 170.379C134.81 170.243 134.404 170.223 134.286 170.36Z" fill="#1AAB9B"/>
<path d="M116.883 170.827C116.883 171.021 117.069 171.391 117.305 171.644C117.677 172.052 117.795 172.072 118.302 171.897C118.623 171.78 119.062 171.721 119.282 171.78C119.789 171.897 120.211 171.41 119.89 171.118C119.671 170.943 117.728 170.476 117.153 170.476C117.001 170.476 116.883 170.632 116.883 170.827Z" fill="#1AAB9B"/>
</svg>
