<svg width="240" height="240" viewBox="0 0 240 240" fill="none" xmlns="http://www.w3.org/2000/svg">
<path d="M83.4047 40.1779C82.305 41.7224 82.7353 42.3594 84.5841 41.9772C86.0185 41.6747 86.0823 41.6428 86.0185 41.1651C85.9707 40.6874 85.8592 40.6237 84.6957 40.2416C83.7394 39.939 83.58 39.9231 83.4047 40.1779Z" fill="#1AAB9B"/>
<path d="M87.8196 42.0723C87.3415 42.4067 86.7677 42.6933 86.5446 42.6933C85.6999 42.6933 85.413 42.8685 85.2218 43.5054C85.1261 43.8557 84.9508 44.206 84.8233 44.3016C84.5524 44.5404 84.5524 45.464 84.8393 45.7028C84.9827 45.8302 85.174 45.8302 85.4768 45.7187C85.7637 45.6073 86.0665 45.6232 86.4809 45.7665C87.0387 45.9417 87.0865 46.0054 87.1662 46.6741C87.2459 47.3588 87.2937 47.4066 88.1224 47.8365C88.9512 48.2665 89.0947 48.2824 90.7522 48.2346L92.5053 48.1868L92.5531 48.6964C92.6169 49.2856 92.3778 49.3811 91.8519 48.983C91.4534 48.6805 90.7681 48.6805 90.4972 48.9989C90.3378 49.2059 90.035 49.2378 89.015 49.19L87.724 49.1422L87.6762 49.5881C87.6124 50.1454 87.9471 50.5435 88.8556 50.9893C89.764 51.4193 89.9234 51.7377 89.78 52.8205C89.6365 53.9829 89.9394 54.4765 90.8 54.4765C91.3897 54.4765 92.1069 54.0307 92.1069 53.6804C92.1069 53.4734 92.7603 52.8842 92.9994 52.8842C93.111 52.8842 93.3022 53.0753 93.4138 53.3141C93.5732 53.6644 93.7644 53.7759 94.2744 53.8555C95.151 53.967 95.6132 54.3014 95.8363 54.9542C95.9798 55.4001 96.1073 55.5275 96.4898 55.5593C96.7607 55.5912 97.717 55.8459 98.6414 56.1485C99.5658 56.451 100.984 56.8013 101.797 56.9287C103.263 57.1357 103.295 57.1676 104.06 57.9159C104.491 58.3459 105.096 58.9191 105.415 59.2057C105.829 59.572 105.973 59.8267 105.973 60.2089C105.973 60.5114 106.276 61.2598 106.706 62.0719C107.407 63.3458 107.455 63.5209 107.567 65.0336C107.63 65.9253 107.614 66.9603 107.519 67.3584C107.391 67.9476 107.407 68.0909 107.646 68.266C107.853 68.4253 108.045 68.4094 108.634 68.2183C110.531 67.5654 112.093 68.696 112.3 70.8615C112.412 71.9762 112.619 72.1672 113.511 71.9602C113.878 71.8806 114.707 71.8488 115.344 71.9125C117.113 72.0717 118.643 72.0399 118.978 71.8329C119.568 71.4666 120.189 70.3838 120.094 69.938C120.03 69.7151 119.966 69.4284 119.95 69.317C119.934 69.1896 120.189 69.0144 120.54 68.8871C121.225 68.6482 121.432 68.4253 121.432 67.8998C121.432 67.645 121.56 67.5177 121.879 67.438C122.118 67.3903 122.691 67.1673 123.154 66.9444L123.982 66.5304L124.987 66.817C125.528 66.9603 126.102 67.1673 126.277 67.247C126.437 67.3266 126.995 67.4699 127.537 67.5336C128.748 67.7087 129.003 67.9635 129.003 68.9667C129.003 69.8902 129.369 70.3679 130.214 70.5431C130.708 70.6386 130.756 70.7023 130.788 71.2755C130.804 71.6258 130.82 72.008 130.82 72.1195C130.836 72.2309 131.123 72.422 131.473 72.5653C132.206 72.8679 132.748 73.457 132.748 73.9825C132.748 74.5239 133.067 74.6831 134.103 74.6513C134.82 74.6194 135.25 74.715 135.792 74.9697C136.191 75.1767 136.812 75.336 137.195 75.336C137.737 75.336 138.024 75.4633 138.725 75.9888C139.793 76.8009 140.669 76.9761 141.179 76.4665C141.355 76.2914 141.514 76.0366 141.514 75.9251C141.514 75.5907 140.845 75.0493 140.159 74.8264C139.57 74.6353 139.522 74.5716 139.474 73.9825C139.41 72.8679 139.299 72.629 138.916 72.629C138.454 72.629 138.183 72.4061 137.641 71.5462C137.227 70.9093 137.163 70.8775 136.525 70.9093L135.856 70.9571L135.776 70.2405C135.649 69.3011 135.298 68.6482 134.549 68.0272C133.402 67.0559 133.29 66.9285 132.876 66.0846C132.143 64.6037 132.143 64.3012 132.892 63.5687C133.577 62.8999 133.736 62.2789 133.386 61.6261C133.29 61.4668 132.429 60.9254 131.489 60.4477C129.8 59.6038 129.752 59.572 129.465 58.8236C128.907 57.2472 128.62 56.7217 128.031 56.0688C127.393 55.3682 126.405 54.8109 125.783 54.795C125.56 54.795 125.114 54.4288 124.508 53.7281C123.998 53.139 123.281 52.3587 122.915 51.9925L122.245 51.3237L120.444 51.3396L118.643 51.3715L116.571 50.3683C114.181 49.2059 114.308 49.2856 113.559 48.6964C113.097 48.3142 112.714 48.2028 111.36 48.0117C109.352 47.7251 109.256 47.7092 108.363 47.1518C107.965 46.913 107.471 46.6582 107.248 46.5945C107.041 46.5308 106.674 46.3238 106.435 46.1646C105.542 45.4958 103.71 45.671 103.407 46.4671C103.327 46.6741 103.263 47.0245 103.263 47.2474C103.263 47.5658 103.12 47.7092 102.594 47.948C102.211 48.1232 101.701 48.2665 101.462 48.2665C101.144 48.2665 100.841 48.4416 100.442 48.8875C100.14 49.2378 99.7092 49.5562 99.4861 49.6199C99.1355 49.6996 99.1036 49.7792 99.1833 50.225C99.2311 50.5116 99.2151 50.8142 99.1514 50.9097C98.9601 51.2123 98.3704 51.4511 97.8445 51.4511C96.2985 51.4511 95.1669 49.7632 94.8004 46.9289C94.5613 45.1137 94.0354 43.187 93.7166 43.0277C93.5732 42.9481 93.1747 42.8207 92.84 42.757C92.4894 42.6933 91.9635 42.4863 91.6606 42.2793C91.3419 42.0564 90.8637 41.8972 90.5291 41.8972C90.2103 41.8812 89.78 41.7857 89.5568 41.6583C88.9831 41.3239 88.7759 41.3717 87.8196 42.0723Z" fill="#1AAB9B"/>
<path d="M98.1314 42.7091C97.7648 42.9161 97.7648 43.1549 98.1473 43.5689C98.3226 43.7441 98.6414 44.0785 98.8645 44.3173C99.1514 44.6358 99.4223 44.7632 99.8208 44.7632C100.474 44.7632 100.618 44.604 100.474 43.967C100.283 43.1072 98.7848 42.311 98.1314 42.7091Z" fill="#1AAB9B"/>
<path d="M131.999 46.2763C131.186 46.6266 130.867 47.6457 131.409 48.1712C131.776 48.5374 132.971 48.4896 133.72 48.0756C134.756 47.5024 134.724 46.8973 133.641 46.3718C132.86 45.9897 132.684 45.9738 131.999 46.2763Z" fill="#1AAB9B"/>
<path d="M141.227 48.6169C140.669 49.1742 141.243 49.8589 142.247 49.8589C142.853 49.8589 142.948 49.8111 143.044 49.4608C143.187 48.8716 142.741 48.4258 141.992 48.4258C141.673 48.4258 141.339 48.5054 141.227 48.6169Z" fill="#1AAB9B"/>
<path d="M144.43 49.9546C144.382 50.082 144.43 50.4801 144.526 50.8304C144.669 51.324 144.812 51.4673 145.227 51.5788C145.561 51.6584 145.88 51.9291 146.151 52.3272C146.629 53.0278 147.139 53.2826 147.586 53.0437C147.984 52.8208 148 51.8654 147.617 51.531C145.561 49.7795 144.669 49.3336 144.43 49.9546Z" fill="#1AAB9B"/>
<path d="M149.738 53.8088C149.419 54.4138 149.244 55.5762 149.388 56.1176C149.435 56.3406 149.627 56.5476 149.818 56.5953C150.296 56.7227 151.013 56.3246 151.141 55.8629C151.268 55.3215 150.965 54.3661 150.455 53.7928L150.009 53.2992L149.738 53.8088Z" fill="#1AAB9B"/>
<path d="M145.737 54.7C145.498 55.0503 145.498 55.13 145.721 55.5758C145.864 55.8306 145.976 56.1968 145.976 56.372C145.976 56.786 145.514 57.2318 145.195 57.1044C145.019 57.0407 144.717 57.2478 144.223 57.821C143.362 58.7923 142.629 58.9993 141.768 58.5375C141.242 58.2509 141.226 58.2509 140.653 58.6171C140.158 58.9038 139.919 58.9515 139.266 58.8719C138.836 58.8242 138.134 58.7286 137.688 58.6808C136.7 58.5535 136.413 58.7605 136.413 59.5725C136.413 60.2891 136.971 60.8464 137.704 60.8464C137.959 60.8464 138.708 61.0375 139.378 61.2604C140.35 61.5948 140.78 61.6744 141.577 61.6107C142.693 61.5152 144.446 60.7827 145.259 60.0662C145.561 59.8114 146.024 59.5566 146.326 59.4929C147.107 59.3178 147.506 58.9993 148.207 57.9484C148.733 57.1681 148.845 56.8497 148.845 56.2287C148.845 55.4007 148.701 55.1937 147.968 55.0185C147.697 54.9548 147.315 54.7796 147.107 54.6045C146.581 54.2064 146.04 54.2383 145.737 54.7Z" fill="#1AAB9B"/>
<path d="M132.174 58.2027C132.127 58.3301 132.111 58.6008 132.143 58.8078C132.174 59.1103 132.302 59.19 132.78 59.2218C133.258 59.2696 133.386 59.2059 133.465 58.9352C133.673 58.2664 132.414 57.5658 132.174 58.2027Z" fill="#1AAB9B"/>
<path d="M155.046 58.7285C155.03 58.8081 155.046 59.0151 155.062 59.2221C155.077 59.4132 154.902 59.7954 154.679 60.0661C154.456 60.3368 154.265 60.6234 154.265 60.703C154.265 60.8941 154.854 61.4832 155.046 61.4832C155.285 61.4832 155.699 62.5342 155.699 63.1233C155.699 63.8717 156.145 64.1902 157.181 64.1902C157.819 64.1902 158.026 64.1106 158.424 63.7284C159.205 62.9482 159.03 62.1998 157.819 61.0692C157.452 60.7189 157.133 60.2731 157.133 60.0979C157.133 59.7317 156.751 59.3495 156.225 59.1903C156.05 59.1266 155.795 58.9833 155.699 58.8559C155.492 58.6011 155.077 58.5374 155.046 58.7285Z" fill="#1AAB9B"/>
<path d="M134.182 59.572C133.958 59.986 134.166 60.2727 134.596 60.1771C134.803 60.1453 134.899 59.986 134.899 59.7313C134.899 59.2217 134.421 59.1262 134.182 59.572Z" fill="#1AAB9B"/>
<path d="M160.272 63.1874C160.017 63.4262 160.177 64.1587 160.559 64.509C160.798 64.7319 160.958 65.0663 160.958 65.337C160.958 65.5759 161.101 65.9262 161.261 66.0854C161.595 66.4198 162.807 66.6746 163.412 66.5153C163.89 66.4039 164.05 65.8306 163.731 65.337C163.476 64.9548 163.412 64.923 162.679 64.7638C162.424 64.7001 162.217 64.5249 162.137 64.302C161.898 63.5377 161.436 63.0759 160.894 63.0759C160.607 63.0759 160.32 63.1237 160.272 63.1874Z" fill="#1AAB9B"/>
<path d="M104.651 66.6102C103.312 68.0593 103.152 68.314 103.423 68.8076C103.647 69.2057 103.838 69.2057 104.619 68.7917C104.969 68.6006 105.575 68.3936 105.958 68.3459C106.818 68.2344 107.248 67.7249 107.36 66.7058C107.472 65.7026 107.233 65.3045 106.483 65.3045C105.958 65.3045 105.782 65.4319 104.651 66.6102Z" fill="#1AAB9B"/>
<path d="M165.197 65.8779C165.054 66.0212 164.942 66.3875 164.942 66.7378C164.942 67.2155 165.038 67.4225 165.436 67.7568C165.707 67.9798 165.978 68.1709 166.042 68.1709C166.106 68.1709 166.472 68.4575 166.871 68.8078C167.253 69.1581 167.843 69.5243 168.162 69.6358C168.688 69.795 168.815 69.7791 169.086 69.5243C169.517 69.1422 169.501 68.553 169.054 68.3142C168.847 68.2186 168.289 67.7568 167.811 67.2951C166.951 66.4671 165.819 65.6231 165.564 65.6231C165.5 65.6231 165.325 65.7346 165.197 65.8779Z" fill="#1AAB9B"/>
<path d="M162.105 68.0435C161.994 68.1549 161.914 68.4097 161.914 68.6167C161.914 68.8237 161.786 69.2059 161.643 69.4765C161.356 69.9383 161.356 69.9542 161.739 70.2568C162.185 70.623 162.312 70.6389 162.583 70.3046C162.695 70.1612 163.014 69.8269 163.3 69.5562C163.89 68.9988 163.826 68.6804 162.982 68.1708C162.376 67.8046 162.36 67.7887 162.105 68.0435Z" fill="#1AAB9B"/>
<path d="M142.342 69.4764C141.864 69.9541 142.263 70.8777 142.948 70.8777C143.362 70.8777 143.426 70.814 143.426 70.4318C143.426 69.9382 143.028 69.2854 142.725 69.2854C142.629 69.2854 142.454 69.365 142.342 69.4764Z" fill="#1AAB9B"/>
<path d="M171.429 70.0337C171.365 70.0815 171.317 70.5114 171.317 70.9572C171.317 71.626 171.413 71.9126 171.78 72.4381C172.353 73.2183 172.497 73.3139 172.927 73.1865C173.485 73.0113 173.549 72.47 173.134 71.6738C172.927 71.2757 172.752 70.8139 172.752 70.6388C172.752 70.4477 172.672 70.2248 172.561 70.1133C172.353 69.9063 171.604 69.8585 171.429 70.0337Z" fill="#1AAB9B"/>
<path d="M147.571 71.0367C146.965 71.6418 147.284 72.1673 148.177 72.0399C148.878 71.9284 149.117 71.4666 148.687 71.0367C148.288 70.6386 147.969 70.6386 147.571 71.0367Z" fill="#1AAB9B"/>
<path d="M168.065 71.817C168.002 71.8966 168.002 72.0718 168.049 72.1832C168.097 72.3106 168.065 72.6131 167.97 72.852C167.747 73.4571 168.002 73.8552 168.814 74.2373C169.675 74.6195 170.313 74.6195 170.966 74.2214C171.412 73.9507 171.492 73.8233 171.444 73.3775C171.396 72.8838 171.364 72.8679 170.52 72.7724C169.548 72.6609 169.149 72.5017 168.703 72.0081C168.368 71.6418 168.193 71.5941 168.065 71.817Z" fill="#1AAB9B"/>
<path d="M140.828 72.2471C140.637 72.4382 140.701 73.5051 140.908 73.7121C141.147 73.9509 142.055 73.9668 142.486 73.7439C143.091 73.4095 142.693 72.5974 141.832 72.4382C141.609 72.3904 141.322 72.3108 141.179 72.2471C141.051 72.1834 140.892 72.1994 140.828 72.2471Z" fill="#1AAB9B"/>
<path d="M142.502 74.4127C141.944 74.97 142.629 75.6706 143.426 75.3363C143.952 75.1133 144.143 74.7471 143.888 74.4446C143.665 74.1739 142.757 74.1579 142.502 74.4127Z" fill="#1AAB9B"/>
<path d="M173.293 75.7499C173.15 76.3232 173.341 77.2627 173.66 77.5811C174.074 77.9633 175.732 77.7404 176.146 77.2308C176.561 76.7053 176.401 76.5302 175.493 76.4824C174.792 76.4346 174.584 76.355 174.122 75.8773C173.835 75.5907 173.549 75.3359 173.501 75.3359C173.437 75.3359 173.341 75.5111 173.293 75.7499Z" fill="#1AAB9B"/>
<path d="M145.594 76.8642C145.243 77.1986 145.275 77.4534 145.706 77.8514C146.168 78.2814 146.55 78.2973 146.773 77.8992C146.997 77.4534 146.981 77.2941 146.614 76.9279C146.232 76.5457 145.929 76.5298 145.594 76.8642Z" fill="#1AAB9B"/>
<path d="M115.726 77.0399C115.36 77.3743 114.898 78.5208 114.898 79.1259C114.898 79.3647 114.738 79.8424 114.563 80.1927C113.941 81.3392 113.75 82.0876 113.639 83.8869C113.543 85.4792 113.479 85.7181 113.065 86.3232C112.65 86.9123 112.635 87.0238 112.794 87.5015C113.065 88.2339 113.033 88.4569 112.571 89.3645C111.997 90.5269 111.344 92.5969 110.754 95.2402C110.132 97.9949 109.814 98.5522 108.363 99.4121C106.467 100.527 105.096 100.383 103.98 98.9344C103.582 98.393 103.024 97.9153 102.466 97.6127C101.988 97.358 101.016 96.5777 100.315 95.8771C99.3743 94.9535 98.7687 94.4918 97.9877 94.1415C96.7764 93.6001 96.633 93.4408 96.362 92.5173C96.1867 91.9122 96.0911 91.8007 95.5333 91.6415C94.9276 91.4823 94.338 90.8294 94.338 90.3517C94.338 90.2403 94.8001 89.6352 95.3739 88.9983C96.4258 87.804 96.5533 87.4856 96.1867 86.8168C95.6448 85.8614 96.5214 84.7945 97.8124 84.8423C98.7846 84.8741 98.9918 84.699 98.8643 83.9187C98.7846 83.4092 98.8324 83.234 99.183 82.82C99.4062 82.5334 99.5974 82.2468 99.5974 82.1513C99.5974 82.0717 99.3424 81.7373 99.0396 81.4347C98.5455 80.9411 98.418 80.8933 97.8761 80.9729C96.6808 81.18 96.6489 81.164 96.6011 80.75C96.5214 80.1768 96.3461 80.0653 95.7883 80.1927C95.4855 80.2564 95.1986 80.4793 95.0233 80.7659C94.8639 81.0207 94.577 81.2755 94.3858 81.3233C93.9873 81.4347 92.8398 81.0844 91.3098 80.3997C90.736 80.1449 89.9391 79.8742 89.5247 79.7946C89.0625 79.6991 88.4728 79.4125 87.9469 79.0144C86.64 78.0272 85.094 77.7883 84.855 78.5367C84.6797 79.0462 84.9187 79.4284 85.5722 79.6991C85.9069 79.8265 86.2256 80.0176 86.2894 80.1131C86.4966 80.4316 86.0184 81.2436 85.4287 81.5621C85.11 81.7373 84.6478 82.008 84.4087 82.1513C83.9625 82.422 83.9625 82.422 83.6437 81.9761C83.2293 81.4347 82.9743 81.4347 82.4643 81.992C82.2093 82.2787 81.6515 82.5812 80.9343 82.82C79.4521 83.3296 78.9899 83.871 79.0696 85.0652C79.1174 85.941 79.0855 85.9888 78.177 86.2595C77.8423 86.3709 77.667 86.562 77.5236 86.9601C77.412 87.3104 77.1251 87.6607 76.7586 87.8996C76.4398 88.1066 76.1689 88.3932 76.1689 88.5365C76.1689 88.8072 76.6789 89.89 76.9976 90.3358C77.3005 90.7498 76.9817 91.1479 76.2486 91.2912C75.7545 91.4027 75.5314 91.3549 74.9576 91.0205C74.1448 90.5428 74.0173 90.5269 73.5073 90.9409C73.2841 91.116 73.0132 91.2594 72.9016 91.2594C72.7263 91.2594 72.3438 90.6224 71.531 88.9505C71.3557 88.6002 71.1644 88.2021 71.0847 88.0747C71.021 87.9473 70.4791 87.597 69.8894 87.2945C68.5984 86.6416 68.2159 86.7053 67.674 87.6289C67.1003 88.6161 66.7178 88.9027 65.8571 88.9823C64.9009 89.0938 64.6299 89.3326 63.9765 90.6384C63.3549 91.8644 63.2274 91.9759 62.3827 92.1033C61.5061 92.2307 60.9164 92.9154 60.7889 93.9185C60.7411 94.3325 60.6295 94.8421 60.5499 95.0332C60.3427 95.5268 59.3864 95.893 58.6214 95.7816C57.8723 95.6542 57.6811 95.9567 58.0795 96.6414C58.3345 97.0713 58.3345 97.135 58.0795 97.6446C57.4739 98.8229 56.932 99.0458 56.4538 98.3133C56.2467 97.9949 56.1829 97.6127 56.1988 96.9599C56.2307 96.1637 56.1988 96.0363 55.9598 96.0363C55.5613 96.0363 54.8919 96.7688 54.5732 97.549C54.4298 97.8993 54.1429 98.377 53.9197 98.6C53.4575 99.0777 53.2185 99.8261 53.2185 100.781C53.2185 101.721 53.091 101.896 51.6566 103.09C50.6366 103.918 50.3019 104.332 49.7919 105.288C48.8675 107.087 48.6284 107.342 47.4968 107.883C46.5087 108.345 46.3334 108.377 44.4368 108.393C42.3967 108.409 42.062 108.472 42.062 108.839C42.062 109.316 41.5202 109.571 40.6595 109.46C39.6554 109.348 38.9382 109.603 38.6195 110.224C38.3326 110.797 37.8545 110.909 36.5476 110.781C35.7029 110.702 35.416 110.733 34.906 110.988C34.5553 111.163 33.9975 111.354 33.631 111.418C33.1528 111.498 32.7703 111.721 32.1328 112.342C31.6069 112.851 30.7622 113.425 29.9015 113.839C28.6743 114.444 28.4193 114.651 27.8455 115.479C27.1762 116.434 26.8733 116.609 26.698 116.179C26.5705 115.813 26.1561 115.893 25.8852 116.323C25.678 116.625 25.6461 116.928 25.7418 117.66C25.8533 118.743 25.678 119.268 24.5305 121.115C23.6858 122.485 23.5583 123.313 24.0205 124.475C24.7217 126.227 24.7695 128.79 24.1161 129.332C23.7655 129.618 23.6061 129.38 23.4945 128.392C23.367 127.214 23.2076 126.943 22.8251 127.182C22.5861 127.341 22.5542 127.548 22.5861 128.583C22.6339 129.603 22.602 129.794 22.3948 129.794C22.2514 129.794 22.0601 129.65 21.9486 129.475C21.837 129.3 21.6139 129.157 21.4704 129.157C20.9764 129.157 21.0879 130.399 21.6457 131.067C22.5542 132.182 22.6658 132.58 22.5701 134.3L22.4904 135.876L23.112 137.086C23.9567 138.742 24.0205 139.125 23.5105 139.825C23.2873 140.128 22.9845 140.558 22.8251 140.781C22.4267 141.322 22.3629 143.312 22.6817 145.446C23.112 148.344 22.9686 149.427 21.9486 151.003C21.5979 151.545 21.1995 152.277 21.072 152.627C20.7692 153.519 20.4823 153.774 19.4941 154.092C17.8047 154.618 17.486 155.78 18.8566 156.465C19.0957 156.592 19.1913 156.783 19.1913 157.166C19.2073 157.85 19.526 158.073 20.7532 158.201C21.8051 158.312 26.1083 157.93 26.5705 157.675C26.7299 157.596 26.9849 157.389 27.1443 157.197C27.4471 156.863 28.9452 156.226 29.4393 156.226C29.5828 156.226 30.1087 155.971 30.5868 155.669C31.2562 155.239 31.6228 155.112 32.1966 155.112C32.595 155.112 33.2484 155 33.631 154.857C34.1728 154.666 34.6988 154.634 35.926 154.698C36.8026 154.745 38.5557 154.809 39.8307 154.825C42.5083 154.873 42.0939 155.048 44.5165 152.85C45.7437 151.72 46.0146 151.545 46.7159 151.433C47.2418 151.354 47.6881 151.147 48.0546 150.828C48.3575 150.557 48.7718 150.335 48.979 150.335C49.1703 150.335 49.6962 150.096 50.1266 149.809C50.8119 149.363 51.0509 149.3 52.2144 149.236C53.2982 149.204 53.6807 149.252 54.366 149.538C55.1788 149.873 55.2426 149.873 56.3263 149.634C56.9798 149.491 58.2708 148.965 59.4183 148.376L61.3946 147.389L63.9605 147.293C65.379 147.245 66.7975 147.102 67.1162 146.991C67.6262 146.816 67.7537 146.816 68.1203 147.054C68.3434 147.214 68.6781 147.644 68.8375 148.042C69.0128 148.424 69.1722 148.758 69.1881 148.758C69.22 148.774 70.3197 148.854 71.6266 148.965L74.0173 149.14L74.1767 149.65C74.2723 149.936 74.5432 150.366 74.7823 150.621C75.2764 151.147 75.3082 151.242 74.9576 151.624C74.7185 151.879 74.7345 151.991 75.0373 152.882C75.4039 153.933 75.5314 156.369 75.3082 157.516C75.2126 157.962 75.2445 158.153 75.4676 158.36C75.7226 158.631 75.7704 158.615 76.3761 157.914C76.7108 157.5 77.2686 157.038 77.6033 156.863C78.1292 156.592 78.2249 156.465 78.2727 155.955C78.3205 155.287 78.3842 155.239 80.7111 154.268C81.763 153.822 82.034 153.631 82.2571 153.185C82.6396 152.452 83.054 152.134 83.835 152.006C84.6797 151.863 84.8868 152.086 84.3768 152.564C84.1059 152.819 83.9784 153.105 83.9784 153.456C83.9784 154.124 83.5003 154.682 82.4643 155.239C81.8905 155.541 81.6196 155.812 81.508 156.162C81.4283 156.433 81.1733 156.863 80.9502 157.15C80.7271 157.42 80.4243 157.818 80.2808 158.041C80.0896 158.296 79.8027 158.455 79.4999 158.487C78.9421 158.535 78.6074 158.901 78.7667 159.315C78.8464 159.506 79.0696 159.57 79.6752 159.57C80.8705 159.57 81.3487 159.267 81.8427 158.137C82.1296 157.468 82.5121 157.022 82.799 157.022C82.9265 157.022 83.1337 157.213 83.2931 157.436C83.5481 157.85 83.5481 157.882 83.0381 158.869C82.7034 159.522 82.3209 160 81.9702 160.223C81.3965 160.573 81.3168 160.971 81.8427 160.86C82.799 160.653 82.9265 160.716 83.1337 161.64C83.3887 162.755 83.2134 163.439 82.4484 164.315C81.9543 164.904 81.8905 165.064 81.9702 165.541C82.034 165.844 82.3209 166.369 82.6237 166.735C82.9265 167.102 83.2134 167.659 83.2771 167.977C83.4365 168.837 83.5959 169.076 84.345 169.506C85.2534 170.016 85.8112 170.127 86.4806 169.904C87.0703 169.713 87.421 169.888 88.7757 171.051C89.1422 171.353 89.6044 171.576 90.0029 171.624C90.5926 171.704 90.7041 171.656 91.4213 171.003C92.3935 170.095 92.8079 169.872 93.3657 170C93.7961 170.095 94.0192 169.952 95.4855 168.79C96.1549 168.248 96.4099 168.567 96.4099 169.92C96.4099 170.86 96.4577 171.035 96.8242 171.417C97.0633 171.64 97.5255 171.911 97.8761 172.022C98.434 172.181 98.5296 172.165 98.928 171.847C99.8843 171.083 100.841 170.525 101.637 170.302C102.387 170.079 102.53 169.968 102.817 169.363C103.024 168.949 103.327 168.598 103.566 168.503C104.379 168.184 105.941 168.057 107.04 168.232C108.602 168.455 109.527 168.439 110.021 168.169C110.339 168.009 110.674 167.5 111.184 166.417C112.252 164.14 112.252 164.156 113.224 163.471C113.814 163.057 114.276 162.564 114.579 162.022C114.834 161.56 115.28 161.051 115.567 160.876C116.316 160.398 117.129 159.522 119.44 156.624C122.054 153.36 122.133 153.264 123.185 152.596C124.508 151.752 127.839 148.822 128.54 147.898C128.891 147.452 129.831 146.29 130.66 145.319C132.063 143.679 132.891 142.293 133.162 141.163C133.338 140.383 133.672 139.873 134.469 139.077C135.155 138.392 135.282 138.137 135.617 136.959C135.92 135.813 135.951 135.383 135.872 134.157C135.776 132.93 135.808 132.596 136.079 131.911C136.621 130.51 136.748 129.411 136.589 126.896C136.462 124.619 136.446 124.523 135.92 123.647C135.617 123.154 134.852 122.23 134.214 121.593C132.907 120.287 132.907 120.351 133.242 118.026C133.449 116.561 133.449 116.53 133.099 116.259C132.907 116.1 132.35 115.909 131.871 115.861C130.485 115.686 130.134 115.192 129.863 113.026C129.784 112.342 129.529 111.307 129.321 110.733C129.098 110.16 128.923 109.38 128.923 108.998C128.923 108.297 128.907 108.281 128.094 107.915C127.17 107.517 126.803 107.167 126.548 106.498C126.373 106.052 126.309 106.004 125.512 105.829C125.018 105.718 123.663 104.396 123.233 103.616C122.93 103.043 123.042 100.973 123.424 100.065C123.743 99.3006 123.727 98.7592 123.345 97.9312C123.074 97.3102 123.026 96.8803 123.026 93.9026V90.5747L122.325 89.9218C121.847 89.476 121.592 89.1097 121.56 88.7913C121.496 88.1225 121.002 88.0906 119.854 88.7276C118.547 89.4441 118.324 89.3326 118.452 87.9473C118.5 87.3582 118.643 86.4824 118.771 86.0047C118.946 85.3518 118.962 84.8901 118.85 84.1735C118.771 83.6481 118.659 82.613 118.595 81.8647C118.484 80.7659 118.388 80.3997 118.021 79.8742C117.655 79.3329 117.591 79.1418 117.687 78.5526C117.814 77.6609 117.687 77.2947 117.129 77.0081C116.523 76.6896 116.125 76.7055 115.726 77.0399Z" fill="#1AAB9B"/>
<path d="M143.124 78.1544C142.375 78.7595 143.219 79.2531 144.303 78.8391C144.622 78.7276 144.718 78.5843 144.67 78.3136C144.606 77.8359 143.65 77.7404 143.124 78.1544Z" fill="#1AAB9B"/>
<path d="M79.9625 78.4731C79.7234 78.7757 79.8828 79.3808 80.2653 79.54C80.4406 79.6355 80.7115 79.9381 80.855 80.2247C81.1578 80.8457 81.5403 80.8935 82.5763 80.4476C83.9469 79.8584 84.7438 78.8075 84.1063 78.4094C83.7716 78.2024 80.1537 78.2502 79.9625 78.4731Z" fill="#1AAB9B"/>
<path d="M148.081 79.1895C147.969 79.3009 147.889 79.5398 147.889 79.7468C147.889 79.9538 147.794 80.113 147.698 80.113C147.411 80.1289 148.336 80.9092 148.622 80.9092C148.75 80.9092 149.148 80.6385 149.515 80.3041C150.328 79.5398 150.28 79.1576 149.34 79.1576C148.989 79.1576 148.622 79.1258 148.495 79.078C148.383 79.0302 148.192 79.078 148.081 79.1895Z" fill="#1AAB9B"/>
<path d="M168.512 79.8105C168.464 79.906 168.496 80.1449 168.607 80.336C168.751 80.6067 168.894 80.6863 169.197 80.6226C169.675 80.527 169.835 80.1926 169.564 79.8742C169.325 79.6035 168.671 79.5557 168.512 79.8105Z" fill="#1AAB9B"/>
<path d="M168.082 83.0915C168.034 83.1552 168.082 83.4736 168.194 83.7762C168.417 84.4609 168.943 84.6042 169.309 84.0628C169.708 83.4896 169.644 83.1552 169.134 83.1711C168.879 83.187 168.576 83.1393 168.433 83.0756C168.273 83.0119 168.13 83.0119 168.082 83.0915Z" fill="#1AAB9B"/>
<path d="M186.251 91.578C185.996 91.785 185.789 92.1672 185.693 92.6449C185.502 93.5047 185.662 94.0461 186.124 94.2054C186.506 94.3168 187.303 93.9347 187.638 93.457C187.941 93.043 187.973 91.7213 187.702 91.4506C187.415 91.164 186.714 91.2277 186.251 91.578Z" fill="#1AAB9B"/>
<path d="M186.937 94.9215C186.586 95.2718 186.554 95.3833 186.762 95.7018C186.841 95.8291 187.017 95.8769 187.224 95.8132C187.67 95.6699 188.403 94.9534 188.292 94.7623C188.116 94.4916 187.272 94.5871 186.937 94.9215Z" fill="#1AAB9B"/>
<path d="M188.099 96.4025C187.812 96.5936 187.589 96.8642 187.621 96.9916C187.717 97.6445 189.008 97.119 189.008 96.4343C189.008 95.9566 188.785 95.9566 188.099 96.4025Z" fill="#1AAB9B"/>
<path d="M219.848 96.7527C219.178 97.4055 219.386 99.0615 220.135 99.0615C220.772 99.0615 221.999 97.7877 221.999 97.1189C221.999 96.3068 220.533 96.052 219.848 96.7527Z" fill="#1AAB9B"/>
<path d="M217.297 99.2369C217.122 99.3165 216.548 99.7305 216.022 100.144C215.193 100.813 215.066 101.004 215.018 101.53C214.954 102.215 215.225 102.979 215.56 103.106C215.911 103.234 217.68 102.82 218.572 102.39C219.194 102.087 219.401 101.896 219.513 101.498C219.704 100.781 219.146 99.6668 218.429 99.3165C217.823 99.0299 217.744 99.0299 217.297 99.2369Z" fill="#1AAB9B"/>
<path d="M173.262 101.959C172.816 102.405 173.262 103.361 173.915 103.361C174.186 103.361 174.505 102.899 174.505 102.501C174.505 101.928 173.66 101.561 173.262 101.959Z" fill="#1AAB9B"/>
<path d="M216.788 104.475C216.326 104.682 216.103 104.873 216.103 105.096C216.103 105.478 216.405 105.59 217.138 105.478C217.76 105.383 218.27 104.81 218.111 104.396C217.999 104.077 217.617 104.109 216.788 104.475Z" fill="#1AAB9B"/>
<path d="M172.593 107.326C172.322 107.835 172.402 108.186 172.992 109.157C173.294 109.651 173.581 110.335 173.645 110.638C173.725 111.052 173.98 111.434 174.554 111.943C174.984 112.342 175.542 112.979 175.797 113.345C176.052 113.711 176.514 114.141 176.801 114.268C177.199 114.459 177.438 114.746 177.677 115.287C177.853 115.701 178.092 116.115 178.203 116.211C178.442 116.386 180.562 116.386 180.849 116.211C181.184 115.988 181.072 114.985 180.642 114.412C179.972 113.52 179.303 113.154 178.41 113.154H177.614L177.518 112.039C177.39 110.415 176.896 109.73 175.86 109.73C175.079 109.73 174.346 108.934 174.346 108.106C174.346 107.198 172.992 106.593 172.593 107.326Z" fill="#1AAB9B"/>
<path d="M181.47 117.023C181.024 117.501 181.135 117.819 181.757 117.947C182.442 118.074 182.825 117.803 182.761 117.23C182.729 116.896 182.618 116.8 182.219 116.768C181.9 116.736 181.645 116.816 181.47 117.023Z" fill="#1AAB9B"/>
<path d="M180.545 159.013C180.099 159.252 179.334 160.78 179.175 161.688C179.079 162.309 179.302 162.548 180.083 162.627C180.721 162.691 180.944 163.137 180.402 163.312C179.637 163.551 179.462 164.331 179.446 167.627C179.446 167.802 178.92 168.567 178.266 169.331C177.613 170.095 176.944 170.907 176.768 171.162C176.402 171.656 176.099 171.831 174.744 172.325C173.676 172.707 172.274 173.949 172.274 174.506C172.274 174.729 172.561 175.032 173.198 175.446C173.756 175.812 174.123 176.178 174.154 176.385C174.266 177.181 172.911 178.582 171.509 179.156C170.839 179.41 170.6 179.968 170.871 180.557C171.142 181.114 171.652 181.162 173.166 180.828C174.553 180.525 175.971 179.57 176.848 178.328C177.39 177.579 177.422 177.563 178.282 177.563C179.478 177.563 179.764 177.388 179.764 176.608C179.764 176.067 179.86 175.923 180.641 175.254C181.263 174.729 181.565 174.315 181.709 173.869C181.996 172.898 182.33 172.754 183.924 172.93C185.55 173.121 186.044 172.914 186.554 171.847C186.921 171.083 187.16 170.876 187.702 170.876C187.972 170.876 188.132 170.716 188.307 170.27C188.451 169.952 188.753 169.474 188.977 169.235C189.343 168.853 189.407 168.646 189.407 167.802V166.815L188.849 166.831C188.53 166.831 188.004 167.022 187.654 167.261C186.522 168.009 184.912 168.216 184.386 167.691C183.988 167.293 183.988 166.974 184.371 166.592C185.12 165.844 185.279 164.697 184.673 164.283C184.1 163.869 183.813 163.981 183.159 164.809C182.825 165.255 182.458 165.637 182.346 165.685C181.741 165.939 181.661 165.143 182.235 164.57C182.84 163.965 182.968 163.63 182.936 162.564C182.92 162.006 182.968 161.242 183.032 160.844L183.143 160.127L182.315 159.443C181.406 158.726 181.183 158.662 180.545 159.013Z" fill="#1AAB9B"/>
<path d="M76.7746 160.987C76.0096 161.099 75.3721 161.513 75.3721 161.911C75.3721 162.054 75.643 162.118 76.2965 162.134C76.7905 162.149 77.2687 162.149 77.3324 162.134C77.4121 162.118 77.8902 162.07 78.4162 162.006C79.3725 161.911 79.8028 161.608 79.5478 161.21C79.4043 160.987 77.7149 160.844 76.7746 160.987Z" fill="#1AAB9B"/>
<path d="M99.4381 174.777C99.0078 175.478 98.944 176.258 99.2946 176.497C99.6931 176.752 100.378 176.481 100.713 175.924C101.112 175.287 101.112 174.825 100.745 174.491C100.267 174.061 99.8206 174.156 99.4381 174.777Z" fill="#1AAB9B"/>
<path d="M88.6008 174.872C87.7083 175.477 87.6605 175.875 88.4574 175.939C88.9355 175.987 89.1587 175.891 89.6368 175.445C90.7524 174.426 89.9237 173.981 88.6008 174.872Z" fill="#1AAB9B"/>
<path d="M166.281 177.468C165.628 177.786 164.943 178.343 164.257 179.076C163.699 179.681 162.807 180.429 162.297 180.732C160.352 181.862 159.747 182.308 159.444 182.866C159.093 183.534 158.838 183.662 157.531 183.917C156.687 184.06 156.496 184.171 155.954 184.808C155.619 185.206 155.236 185.525 155.109 185.525C154.966 185.525 154.487 185.732 154.041 185.987C153.595 186.257 152.511 186.639 151.635 186.878C150.439 187.181 149.786 187.451 149.005 187.977C147.491 188.996 147.14 189.139 145.865 189.219C144.367 189.33 143.379 189.872 143.108 190.732C142.869 191.48 142.566 191.735 141.897 191.735C141.578 191.735 141.179 191.91 140.797 192.213C140.462 192.483 140 192.738 139.777 192.77C139.554 192.818 139.076 192.945 138.725 193.056C138.151 193.232 138.071 193.327 137.912 193.964L137.737 194.681L136.988 194.633C136.255 194.569 136.255 194.585 135.952 195.27C135.665 195.907 135.665 195.97 135.92 196.161C136.095 196.305 136.414 196.337 136.908 196.273C137.593 196.177 137.657 196.209 138.135 196.735C138.406 197.053 138.741 197.515 138.884 197.77C139.012 198.025 139.267 198.295 139.442 198.343C140.112 198.55 143.251 197.324 145.212 196.098C145.546 195.891 146.216 195.556 146.694 195.381C147.347 195.142 147.73 194.856 148.176 194.314C149.244 192.993 150.184 192.021 150.614 191.814C150.838 191.687 151.316 191.353 151.666 191.05C152.16 190.652 152.527 190.477 153.133 190.413C154.105 190.302 154.774 189.967 155.348 189.314C155.762 188.853 155.81 188.837 156.814 188.932C157.388 188.98 158.121 188.948 158.44 188.869C158.934 188.725 159.062 188.582 159.301 187.977C159.587 187.229 160.655 186.162 161.102 186.162C161.787 186.162 162.552 185.795 162.807 185.381C163.173 184.76 164.178 184.139 165.469 183.757C166.234 183.518 166.632 183.296 166.855 182.977C167.03 182.722 167.413 182.372 167.7 182.197C168.003 182.022 168.321 181.687 168.417 181.464C168.529 181.225 168.895 180.939 169.31 180.764C169.692 180.589 170.122 180.286 170.266 180.095C170.616 179.585 170.585 178.789 170.202 178.439C169.867 178.136 169.612 178.152 168.417 178.63C167.477 178.98 167.269 178.837 167.524 178.009C167.7 177.436 167.62 176.91 167.381 176.942C167.317 176.958 166.807 177.181 166.281 177.468Z" fill="#1AAB9B"/>
<path d="M89.6678 177.993C89.5403 178.152 89.094 178.917 88.6956 179.681C88.0103 180.971 87.9625 181.146 88.0581 181.878C88.1697 182.659 88.1537 182.675 87.5003 183.28L86.8468 183.885L86.9424 184.904C87.0062 185.461 87.0699 185.955 87.1018 185.987C87.1337 186.018 87.0062 186.321 86.8149 186.655C86.1137 187.897 86.8787 188.088 88.839 187.133C90.4488 186.353 92.425 185.541 93.4451 185.27C94.4173 184.999 94.6085 184.84 94.8316 184.076C95.0548 183.343 95.3257 183.089 96.1385 182.818C96.792 182.611 97.0151 182.261 97.3658 180.875C97.6208 179.888 98.0511 179.235 98.593 178.964C98.8639 178.837 99.0392 178.63 99.0392 178.439C99.0392 178.009 98.1786 177.929 97.2542 178.28C96.8079 178.455 96.3617 178.519 95.9632 178.439C95.4532 178.359 95.262 178.423 94.5766 178.917C93.5726 179.617 92.9988 179.649 92.6641 178.996C92.4091 178.487 91.8832 178.121 91.6282 178.28C91.5485 178.328 91.1341 178.232 90.7356 178.057C89.8431 177.659 89.9706 177.659 89.6678 177.993Z" fill="#1AAB9B"/>
<path d="M135.728 198.072C135.569 198.232 135.457 198.455 135.457 198.566C135.457 198.678 135.202 198.869 134.9 198.996C134.246 199.267 134.214 199.378 134.677 199.792C134.995 200.079 135.011 200.079 135.585 199.728C135.904 199.537 136.446 199.267 136.78 199.123C137.147 198.964 137.37 198.757 137.37 198.582C137.37 197.85 136.238 197.515 135.728 198.072Z" fill="#1AAB9B"/>
</svg>
