<svg width="240" height="240" viewBox="0 0 240 240" fill="none" xmlns="http://www.w3.org/2000/svg">
<path d="M124.652 34.1317C124.184 34.4006 124.425 34.9248 125.013 34.9248C125.307 34.9248 125.534 34.414 125.334 34.1721C125.16 33.957 124.973 33.9435 124.652 34.1317Z" fill="#1AAB9B"/>
<path d="M125.134 35.53C124.934 35.6779 124.907 35.7585 125.027 35.9601C125.241 36.3096 125.803 36.2828 125.856 35.9064C125.909 35.5031 125.468 35.2746 125.134 35.53Z" fill="#1AAB9B"/>
<path d="M125.789 37.707C125.522 37.8011 125.589 38.3925 125.869 38.5538C126.016 38.621 126.164 38.6882 126.19 38.6882C126.311 38.6882 126.551 37.8548 126.471 37.7339C126.391 37.5994 126.057 37.586 125.789 37.707Z" fill="#1AAB9B"/>
<path d="M103.357 43.3795C102.996 43.4602 102.903 43.5677 102.488 44.4683C102.422 44.6027 102.194 44.67 101.833 44.6834C101.406 44.6834 101.178 44.7775 100.844 45.1001C100.229 45.6781 99.9351 45.8125 98.9325 45.9066C98.224 45.9738 98.0235 46.041 97.863 46.2964C97.6358 46.6459 97.0342 46.8879 96.4059 46.8879C95.4568 46.8879 94.8285 47.8154 94.8017 49.2537C94.775 50.4231 94.7082 50.5441 94.1333 50.4366C93.7457 50.3693 93.6521 50.4097 93.4516 50.7323C93.3179 50.9339 93.2109 51.3103 93.1976 51.5791C93.1976 52.0227 93.1575 52.063 92.6628 52.1975C92.195 52.3319 92.1281 52.4125 92.088 52.7889C92.0479 53.2056 92.0078 53.2325 91.6602 53.1653C91.3127 53.0846 91.2859 53.125 91.2057 53.5954C91.1523 53.9584 90.9785 54.2406 90.6576 54.5364C90.3903 54.7649 90.1363 54.9531 90.0828 54.9531C90.0293 54.9531 89.909 55.0068 89.8021 55.074C89.6417 55.1816 89.6417 55.2353 89.8288 55.4235C89.9625 55.5445 90.0561 55.8537 90.0561 56.136C90.0561 56.4317 90.163 56.7274 90.3368 56.9156C90.5908 57.1844 90.6175 57.3861 90.6309 59.2007C90.6576 61.1767 90.6576 61.1901 90.2967 61.6472C90.0293 61.9832 89.9224 62.2655 89.9224 62.6688C89.9224 62.9645 89.8288 63.7307 89.7352 64.3624C89.6149 65.0614 89.5882 65.7201 89.6417 66.0561C89.7887 66.8089 89.6283 67.0509 89 67.0509C88.0642 67.0509 87.5161 67.8036 87.5161 69.094C87.5161 69.4838 87.4092 69.6989 87.0482 70.0753C86.6338 70.4786 86.4868 70.5458 85.9253 70.5458C85.5644 70.5458 85.2168 70.6264 85.1366 70.7071C85.0698 70.8012 84.9361 71.2716 84.8559 71.7555C84.6687 72.8578 84.388 73.2342 83.5725 73.4896C82.7972 73.745 82.3961 74.2557 82.1822 75.2639C81.9684 76.272 82.0218 77.2399 82.356 78.1405C82.6234 78.8798 82.6902 78.9604 83.1715 79.1083C83.4656 79.2024 83.9335 79.3099 84.2142 79.3503C84.9762 79.4712 84.8291 79.8476 83.6394 80.8558C82.8908 81.4741 82.5833 81.837 82.4229 82.2672C82.3026 82.5898 82.0887 83.0603 81.9283 83.3156C81.5539 83.9205 81.5539 84.0953 81.9684 84.4717C82.2224 84.7136 82.2758 84.8615 82.2224 85.1706C82.1822 85.3857 82.209 85.7755 82.2758 86.0578C82.3694 86.3939 82.3694 86.6761 82.2758 86.9584C82.0218 87.7112 82.7571 88.3161 84.2677 88.558C85.1633 88.7059 85.3505 88.8672 85.5243 89.6334C85.7248 90.5474 86.5403 92.0933 87.2354 92.8729C87.583 93.2762 87.9573 93.8407 88.0509 94.1364C88.1444 94.4322 88.4252 94.9026 88.6658 95.1715C89.2139 95.7898 89.4545 96.2737 89.5748 96.9593C89.7352 97.8599 91.1389 100.79 91.9543 101.946C92.3821 102.538 92.9035 103.438 93.1441 103.963C93.3714 104.473 93.6655 105.132 93.8125 105.441C93.9462 105.737 94.0665 106.194 94.0665 106.449C94.0665 106.974 94.2269 107.242 95.283 108.533C96.6599 110.227 98.8389 112.014 99.6544 112.149C100.376 112.27 100.831 112.471 101.111 112.78C101.245 112.928 101.833 113.291 102.422 113.574C103.01 113.856 103.732 114.219 104.026 114.38C104.32 114.528 104.654 114.703 104.761 114.756C104.881 114.824 104.975 115.106 105.002 115.469C105.055 116.249 105.363 116.544 106.499 116.921C107.435 117.243 107.568 117.351 107.568 117.848C107.568 118.023 107.755 118.722 107.983 119.394C108.317 120.348 108.437 120.98 108.517 122.23C108.584 123.117 108.664 124.058 108.705 124.314C108.771 124.636 108.651 125.308 108.37 126.397C107.876 128.252 107.836 128.857 108.156 129.69C108.33 130.134 108.397 130.672 108.397 131.666C108.397 132.849 108.437 133.091 108.664 133.4C108.918 133.723 108.932 133.804 108.785 134.436C108.651 135 108.651 135.511 108.812 137.151C108.985 138.818 109.012 140.054 108.918 141.345C108.905 141.439 108.731 141.681 108.504 141.882C108.009 142.313 107.996 142.716 108.451 143.253C108.771 143.643 108.785 143.737 108.705 144.517C108.651 145.014 108.491 145.512 108.33 145.74C108.063 146.13 108.063 146.143 108.29 147.259C108.424 147.891 108.678 148.792 108.852 149.262C109.025 149.746 109.172 150.257 109.172 150.431C109.172 150.593 109.32 151.05 109.507 151.44C109.934 152.367 109.921 152.609 109.426 153.563C109.012 154.343 108.999 154.37 109.119 155.566C109.32 157.798 109.186 161.172 108.852 162.072C108.571 162.838 108.584 163.188 108.905 163.605C109.44 164.29 109.707 165.07 109.707 166.011C109.707 166.575 109.787 167.1 109.934 167.395C110.148 167.852 110.148 167.879 109.868 168.269C109.52 168.726 109.507 168.914 109.761 169.277C109.854 169.425 109.975 169.842 110.015 170.191C110.108 170.904 110.977 172.691 111.285 172.799C111.392 172.853 111.646 172.772 111.859 172.651C112.194 172.449 112.301 172.449 112.608 172.597C112.809 172.691 112.996 172.893 113.022 173.041C113.049 173.189 113.276 173.498 113.53 173.74C113.985 174.17 114.105 174.6 113.865 174.977C113.798 175.071 113.811 175.313 113.891 175.528C113.998 175.81 113.972 176.025 113.798 176.469C113.571 177.06 113.664 177.41 114.065 177.41C114.346 177.41 114.386 177.598 114.226 178.122C114.092 178.552 114.105 178.66 114.319 178.888C114.453 179.036 114.64 179.157 114.734 179.157C115.041 179.157 115.455 179.735 115.455 180.152C115.455 180.38 115.308 180.891 115.121 181.281C114.747 182.101 114.72 182.437 114.988 182.921C115.108 183.136 115.175 183.673 115.188 184.48C115.188 185.515 115.148 185.757 114.921 186.053C114.774 186.241 114.653 186.443 114.653 186.523C114.653 186.59 114.774 186.752 114.921 186.886C115.068 187.021 115.188 187.195 115.188 187.276C115.201 187.639 115.469 187.814 116.057 187.827C116.418 187.841 116.766 187.948 116.886 188.069C117.073 188.257 117.06 188.298 116.685 188.486C116.271 188.701 116.204 188.862 116.057 189.937C115.963 190.529 115.99 190.596 116.324 190.878C117.26 191.658 117.327 191.766 117.327 192.397C117.327 192.975 117.568 193.405 117.969 193.553C118.036 193.58 118.236 193.97 118.41 194.414C118.677 195.072 118.824 195.26 119.225 195.449C119.493 195.583 119.813 195.865 119.947 196.08C120.081 196.296 120.321 196.551 120.495 196.645C120.709 196.766 120.883 197.048 121.017 197.532C121.137 197.935 121.351 198.406 121.511 198.594L121.805 198.944L122.527 198.567C123.196 198.218 123.276 198.204 124.051 198.339C124.506 198.419 125.107 198.581 125.375 198.702C125.802 198.89 125.883 198.984 125.883 199.32C125.883 200.153 124.773 200.207 124.305 199.401C123.864 198.661 122.942 198.675 122.942 199.441C122.942 199.871 123.249 200.18 123.784 200.315C124.278 200.436 124.238 200.664 123.73 200.664C123.196 200.664 123.289 200.906 123.918 201.148C124.185 201.256 124.639 201.43 124.92 201.538C125.535 201.766 126.177 201.793 126.391 201.578C126.484 201.484 126.551 201.202 126.551 200.933C126.551 200.584 126.725 200.18 127.153 199.522C128.249 197.788 128.062 197.935 129.171 198.03C130.147 198.124 130.16 198.124 130.16 197.801C130.16 197.371 129.759 197.035 129.251 197.035C128.89 197.035 128.824 196.981 128.824 196.726C128.824 196.551 128.677 196.269 128.503 196.107C128.048 195.677 127.754 195.005 127.754 194.427C127.754 193.782 128.182 192.962 128.61 192.76C128.984 192.586 128.997 192.532 128.957 190.852L128.931 189.83L129.612 189.198C129.987 188.849 130.441 188.499 130.628 188.405C131.337 188.082 131.524 187.007 131.016 186.174C130.856 185.932 130.709 185.878 130.107 185.878C129.532 185.878 129.291 185.797 128.85 185.488C128.556 185.273 128.276 185.018 128.222 184.95C128.182 184.87 127.901 184.682 127.62 184.534C126.979 184.198 126.685 183.673 126.685 182.84C126.685 182.316 126.752 182.155 127.126 181.778C127.42 181.482 127.754 181.294 128.102 181.24C128.382 181.2 128.717 181.106 128.824 181.052C129.051 180.931 129.251 180.044 129.238 179.224C129.238 178.928 129.225 178.256 129.211 177.746C129.211 177.221 129.211 176.764 129.211 176.697C129.225 176.643 129.372 176.603 129.559 176.603C129.987 176.603 129.987 176.361 129.545 175.944C129.131 175.541 129.171 175.205 129.666 175.151C129.92 175.124 130.027 175.03 130.027 174.856C130.027 174.533 129.799 174.399 129.345 174.425C129.144 174.439 128.824 174.399 128.636 174.318C128.329 174.197 128.289 174.116 128.289 173.484C128.289 172.785 128.276 172.772 127.647 172.369C126.939 171.912 126.765 171.428 127.166 171.025C127.487 170.715 128.449 170.823 129.011 171.24C129.372 171.522 129.612 171.562 130.722 171.603C131.885 171.643 132.032 171.629 132.286 171.374C132.593 171.065 132.674 170.205 132.42 170.124C132.339 170.097 132.206 169.559 132.126 168.914C132.005 167.906 132.019 167.678 132.219 167.14C132.5 166.401 132.807 166.28 133.69 166.575C134.625 166.898 134.532 166.911 137.312 166.038C137.901 165.863 138.529 165.715 138.689 165.715C139.398 165.715 139.785 165.298 140.614 163.631C141.617 161.602 141.617 161.629 140.186 159.747C139.946 159.424 139.785 159.061 139.785 158.806C139.785 158.577 139.679 158.08 139.545 157.717L139.304 157.045L138.676 157.085C137.86 157.139 137.366 156.857 136.992 156.144C136.738 155.674 136.711 155.499 136.831 155.19C137.018 154.706 137.246 154.733 137.82 155.284C138.181 155.62 138.449 155.741 138.97 155.808C139.692 155.889 140.307 156.171 140.895 156.655C141.363 157.058 141.617 157.058 142.392 156.682L143.007 156.386L143.569 156.682C144.277 157.058 144.344 157.058 144.745 156.628C144.919 156.44 145.253 156.185 145.467 156.077C146.256 155.674 146.603 155.23 146.603 154.612C146.603 154.115 146.683 153.953 147.125 153.523C147.78 152.851 147.98 152.461 148.408 150.915C148.809 149.477 148.889 149.356 149.464 149.208C149.745 149.141 149.945 148.953 150.079 148.684C150.186 148.455 150.44 148.133 150.64 147.972C150.881 147.797 151.028 147.515 151.082 147.192C151.402 145.176 151.817 144.127 153.007 142.339C154.29 140.404 154.263 140.484 154.156 138.844C154.076 137.702 153.996 137.312 153.742 136.869C153.341 136.183 153.314 135.255 153.675 134.556C153.942 134.032 154.637 133.333 155.694 132.527C156.028 132.271 156.456 131.841 156.656 131.559C157.124 130.914 157.632 130.645 158.688 130.51C159.49 130.416 159.597 130.363 160.426 129.596C161.749 128.387 162.003 128.279 163.955 128.252C164.864 128.252 165.733 128.198 165.893 128.158C166.054 128.118 166.361 127.809 166.562 127.473C166.776 127.137 167.284 126.572 167.685 126.222L168.42 125.577L168.46 124.569C168.487 124.018 168.514 123.494 168.514 123.413C168.527 123.319 168.727 123.158 168.968 123.064C169.596 122.795 169.797 122.486 169.757 121.787C169.73 121.101 169.837 120.926 170.572 120.456C171.254 120.026 171.348 119.703 171.12 118.722C171.027 118.292 170.933 117.579 170.933 117.149C170.933 116.437 170.973 116.329 171.414 115.899C171.709 115.59 171.856 115.334 171.802 115.2C171.441 114.232 171.441 113.318 171.829 112.996C172.19 112.7 172.27 112.256 172.069 111.584C171.976 111.235 171.842 110.455 171.802 109.864C171.749 109.272 171.615 108.546 171.521 108.251C171.281 107.552 171.294 107.323 171.548 106.812C171.735 106.436 171.735 106.355 171.548 105.844C171.428 105.549 171.374 105.145 171.428 104.957C171.535 104.473 172.11 103.909 172.658 103.734C173.192 103.559 173.607 103.25 173.607 103.008C173.607 102.928 173.781 102.618 173.994 102.323C174.208 102.04 174.422 101.664 174.462 101.503C174.516 101.328 174.823 100.615 175.157 99.9165C175.665 98.8143 175.799 98.6395 176.067 98.6395C176.321 98.6395 176.534 98.4244 177.029 97.6851C177.377 97.1475 178.032 96.3006 178.473 95.7764L179.275 94.8354L179.368 93.4778C179.422 92.6309 179.556 91.8244 179.743 91.3271C180.104 90.3055 180.104 90.1979 179.622 88.8269C179.409 88.1951 179.221 87.4289 179.221 87.1063C179.221 86.5955 179.141 86.4342 178.566 85.8293L177.898 85.1303L176.588 85.09C175.318 85.0497 175.264 85.0362 174.917 84.633C174.716 84.4045 174.422 84.2028 174.248 84.1894C174.075 84.1759 173.901 84.149 173.861 84.1356C173.821 84.1356 173.433 83.6517 173.005 83.0737C172.257 82.0655 170.96 80.923 170.038 80.4391C169.797 80.3181 169.503 80.0358 169.396 79.8207C169.142 79.3234 168.741 79.2965 167.391 79.6863C166.883 79.8342 166.228 79.9551 165.933 79.9551C165.412 79.9551 163.34 79.3234 162.565 78.9201C162.03 78.6378 161.228 78.7454 160.332 79.2024C159.61 79.5922 159.396 79.5653 159.757 79.1621C160.185 78.6916 160.065 78.1674 159.37 77.3609C158.995 76.9173 158.581 76.5678 158.367 76.5275C158.167 76.4871 157.846 76.272 157.645 76.0435C157.365 75.7209 157.191 75.6537 156.709 75.6537C156.255 75.6537 156.014 75.5596 155.694 75.2908C155.292 74.9547 154.878 74.8338 153.461 74.6321C152.512 74.4843 152.271 74.6187 151.844 75.5462C151.362 76.5409 149.999 77.8044 149.384 77.8044C149.063 77.8044 149.009 77.7507 149.009 77.4281C149.009 76.9576 149.223 76.7291 149.678 76.7291C150.172 76.7291 150.507 76.4468 150.854 75.7344C151.015 75.3983 151.282 74.8338 151.442 74.4977C151.844 73.6777 151.696 73.4627 150.667 73.3551C150.239 73.3014 149.21 73.261 148.381 73.2476C147.191 73.2342 146.844 73.2745 146.683 73.4492C146.456 73.6643 146.456 73.7046 146.416 75.0488C146.403 75.8553 146.403 75.8553 145.988 75.8957C145.748 75.9226 145.333 76.1376 145.026 76.4065C144.598 76.7694 144.371 76.8635 143.916 76.8635H143.341L144.371 75.8688C144.932 75.3177 145.4 74.78 145.4 74.6456C145.4 74.5246 145.547 74.1079 145.734 73.7181C145.975 73.2073 146.216 72.9384 146.59 72.7234C146.964 72.5083 147.165 72.2798 147.272 71.9437C147.365 71.6749 147.606 71.2716 147.806 71.0431C148.301 70.4517 148.635 69.7796 148.582 69.4301C148.555 69.2016 148.354 69.0806 147.699 68.8655C147.232 68.7042 146.804 68.4891 146.737 68.3951C146.683 68.2875 146.603 67.7229 146.563 67.1449C146.496 66.2712 146.429 66.0158 146.109 65.5991C145.801 65.1824 145.721 64.927 145.667 64.1071L145.601 63.0989L145.159 62.9914C144.772 62.8838 144.651 62.7494 144.291 61.9698C143.809 60.9213 143.729 60.8407 143.208 60.9348C142.927 60.9885 142.726 60.9079 142.432 60.6659C142.178 60.4508 141.871 60.3299 141.59 60.3299C141.243 60.3299 141.069 60.2358 140.842 59.9132C140.427 59.3217 139.505 58.9319 138.796 59.0394C138.435 59.0932 138.034 59.0529 137.66 58.9185C136.965 58.6765 136.123 58.6631 135.107 58.8781C134.157 59.0663 133.663 58.9185 133.275 58.3001C133.115 58.0447 132.66 57.5205 132.273 57.1441C131.711 56.5796 131.47 56.4317 131.136 56.4317C130.535 56.4317 130.16 56.0284 130.16 55.3832C130.16 54.4557 129.011 53.0443 127.701 52.3722C127.246 52.1302 127.112 52.1168 126.645 52.2647C125.602 52.5738 124.88 51.9017 125.522 51.2162C126.551 50.0871 125.615 49.0386 123.557 49.0386C122.5 49.0386 122.407 48.9714 122.407 48.2993C122.407 47.8691 122.741 47.56 123.209 47.56C123.851 47.56 123.851 47.2777 123.209 46.8476C122.754 46.5249 122.166 46.5653 121.485 46.9551C121.11 47.1702 120.696 47.2911 120.321 47.2911C119.974 47.2911 119.56 47.3987 119.306 47.56C119.065 47.7078 118.757 47.8288 118.624 47.8288C118.49 47.8288 118.263 48.0304 118.116 48.2858C117.969 48.5412 117.768 48.7698 117.675 48.8101C117.461 48.8907 116.605 48.5144 115.562 47.8826L114.774 47.3987L113.343 47.4793C112.555 47.5331 111.672 47.6003 111.365 47.6406C110.696 47.7347 110.376 47.4659 110.376 46.8207C110.376 46.5384 110.255 46.2292 110.068 46.0007C109.774 45.6647 109.667 45.6378 108.758 45.6243L107.769 45.6109L107.809 44.9119C107.862 44.1457 107.755 44.0247 106.887 43.8634C106.539 43.7962 106.365 43.8365 106.231 43.9978C106.084 44.186 106.125 44.2801 106.566 44.7506C107.047 45.2345 107.074 45.2883 106.873 45.4899C106.766 45.6109 106.312 45.7453 105.871 45.7991C104.975 45.9066 104.387 46.2561 103.959 46.9551C103.571 47.6003 103.224 47.5869 103.331 46.9416C103.397 46.5787 103.344 46.404 103.143 46.2023C103.01 46.0679 102.889 45.8663 102.889 45.7722C102.889 45.5437 103.264 45.1942 103.638 45.0867C104.133 44.9388 104.627 44.3742 104.627 43.9575C104.627 43.3123 104.333 43.1645 103.357 43.3795Z" fill="#1AAB9B"/>
<path d="M124.278 44.119C124.278 44.4013 124.559 44.5357 124.679 44.3207C124.746 44.2266 124.76 44.0921 124.733 44.0384C124.613 43.8502 124.278 43.9174 124.278 44.119Z" fill="#1AAB9B"/>
<path d="M124.907 47.0495C124.559 47.1705 124.532 47.2377 124.599 47.641C124.679 48.0039 124.639 48.1114 124.412 48.2324C124.185 48.3534 124.158 48.4206 124.292 48.5819C124.532 48.8776 125.268 48.7701 125.321 48.434C125.361 48.2862 125.495 48.0577 125.629 47.9232C125.936 47.6275 125.963 47.0764 125.669 46.9689C125.415 46.8748 125.375 46.8748 124.907 47.0495Z" fill="#1AAB9B"/>
<path d="M110.776 173.781C110.442 174.117 110.442 174.197 110.79 174.896C111.044 175.38 111.057 175.541 110.95 176.16C110.883 176.55 110.857 176.926 110.897 176.993C110.937 177.06 111.311 177.141 111.712 177.168L112.447 177.208L112.487 176.375C112.514 175.81 112.461 175.407 112.314 175.138C112.207 174.91 112.113 174.614 112.113 174.453C112.113 174.13 111.552 173.512 111.244 173.512C111.137 173.512 110.923 173.633 110.776 173.781Z" fill="#1AAB9B"/>
<path d="M130.253 174.143C130.213 174.197 130.186 174.506 130.186 174.829C130.173 175.326 130.227 175.42 130.561 175.595C130.775 175.703 131.095 175.797 131.296 175.797C131.577 175.797 131.63 175.729 131.63 175.407C131.63 175.192 131.55 174.99 131.47 174.95C131.376 174.923 131.296 174.721 131.296 174.506C131.296 174.157 131.242 174.116 130.801 174.076C130.534 174.049 130.293 174.089 130.253 174.143Z" fill="#1AAB9B"/>
<path d="M114.279 179.816C114.012 179.978 114.319 180.663 114.626 180.609C114.947 180.542 115.001 180.018 114.693 179.843C114.546 179.776 114.359 179.762 114.279 179.816Z" fill="#1AAB9B"/>
<path d="M112.648 180.797C112.14 181.644 112.394 182.021 113.41 181.953C113.984 181.913 114.051 181.886 114.091 181.563C114.145 181.133 113.543 180.367 113.169 180.367C113.022 180.367 112.795 180.555 112.648 180.797Z" fill="#1AAB9B"/>
<path d="M113.115 183.512C113.008 183.674 112.607 183.983 112.233 184.184C111.872 184.386 111.591 184.628 111.618 184.709C111.645 184.803 111.992 184.883 112.46 184.897C112.888 184.91 113.53 184.951 113.864 185.004C114.345 185.072 114.519 185.045 114.706 184.857C115.013 184.547 114.893 184.037 114.372 183.553C113.891 183.096 113.396 183.082 113.115 183.512Z" fill="#1AAB9B"/>
<path d="M113.356 188.244C113.116 188.352 112.915 188.459 112.915 188.486C112.915 188.513 113.196 188.701 113.543 188.889C114.252 189.293 114.426 189.225 114.359 188.553C114.305 188.016 114.038 187.935 113.356 188.244Z" fill="#1AAB9B"/>
<path d="M113.583 190.018C113.356 190.099 113.436 190.395 113.797 190.731C114.078 190.986 114.118 191.134 114.051 191.483C113.984 191.873 114.011 191.94 114.319 192.061C114.693 192.209 115.321 192.249 115.321 192.129C115.321 192.088 115.241 191.913 115.134 191.752C114.92 191.416 115.054 190.892 115.388 190.771C115.629 190.677 115.655 190.233 115.428 190.085C115.254 189.991 113.851 189.937 113.583 190.018Z" fill="#1AAB9B"/>
<path d="M144.598 195.919C144.143 196 143.969 196.201 144.237 196.309C144.558 196.43 144.518 196.645 144.103 196.981L143.742 197.263L144.063 197.438C144.344 197.586 144.411 197.559 145.012 196.887C145.36 196.484 145.64 196.094 145.614 196.027C145.574 195.879 145.092 195.825 144.598 195.919Z" fill="#1AAB9B"/>
<path d="M146.242 196.39C145.721 196.955 145.787 197.438 146.389 197.438C146.83 197.438 147.271 197.156 147.271 196.887C147.271 196.82 147.405 196.766 147.579 196.766C147.9 196.766 148.461 196.43 148.341 196.323C148.301 196.282 147.886 196.215 147.405 196.161C146.603 196.081 146.509 196.094 146.242 196.39Z" fill="#1AAB9B"/>
<path d="M117.113 196.686C117.006 196.981 117.1 197.479 117.287 197.546C117.488 197.6 117.768 196.941 117.675 196.672C117.581 196.444 117.207 196.444 117.113 196.686Z" fill="#1AAB9B"/>
<path d="M128.342 199.025C128.114 199.172 127.887 199.67 127.887 200.046C127.887 200.53 128.395 200.853 128.876 200.664C129.077 200.597 129.331 200.53 129.438 200.53C129.745 200.53 129.652 201.027 129.277 201.256C129.037 201.431 128.957 201.579 128.983 201.847C129.023 202.21 129.104 202.251 130.2 202.479C130.414 202.519 130.561 202.627 130.521 202.721C130.44 202.963 129.424 202.99 128.93 202.761C128.689 202.654 128.021 202.533 127.459 202.493C126.537 202.412 126.43 202.425 126.363 202.654C126.229 203.071 126.417 203.353 126.818 203.353C127.018 203.353 127.446 203.447 127.767 203.568C128.088 203.675 128.89 203.783 129.531 203.81C130.2 203.837 130.775 203.917 130.855 203.998C131.042 204.186 131.523 204.213 131.71 204.038C131.884 203.85 133.448 203.568 134.237 203.568C134.638 203.581 135.092 203.675 135.373 203.837C135.721 204.012 136.122 204.079 136.884 204.092C137.98 204.092 138.221 203.971 138.154 203.42C138.114 203.205 138.033 203.165 137.659 203.192C137.405 203.205 137.111 203.138 136.991 203.044C136.87 202.936 136.483 202.815 136.135 202.761C135.159 202.64 133.609 201.861 132.793 201.081C132.392 200.705 131.951 200.396 131.804 200.396C131.443 200.396 131.189 200.073 131.296 199.737C131.349 199.562 131.283 199.374 131.109 199.199C130.868 198.957 130.668 198.917 129.665 198.917C129.01 198.917 128.422 198.971 128.342 199.025Z" fill="#1AAB9B"/>
<path d="M119.159 199.146C119.039 199.334 119.426 199.831 119.854 200.046C120.242 200.261 121.819 200.194 121.953 199.966C121.993 199.912 121.672 199.697 121.258 199.495C120.442 199.119 119.293 198.931 119.159 199.146Z" fill="#1AAB9B"/>
<path d="M127.031 200.382C126.751 200.692 126.844 201.149 127.219 201.27C127.579 201.377 127.753 201.243 127.753 200.866C127.753 200.127 127.446 199.925 127.031 200.382Z" fill="#1AAB9B"/>
<path d="M122.14 200.88C121.872 201.189 122.166 201.713 122.634 201.767C122.875 201.794 123.009 201.888 123.009 202.036C123.009 202.385 123.276 202.587 123.597 202.479C124.024 202.345 123.971 201.767 123.516 201.592C123.316 201.525 123.075 201.337 122.982 201.202C122.688 200.772 122.327 200.638 122.14 200.88Z" fill="#1AAB9B"/>
<path d="M132.967 204.052C132.713 204.119 132.419 204.253 132.326 204.334C132.232 204.401 131.938 204.509 131.684 204.549C131.229 204.63 131.229 204.643 131.43 204.926C131.564 205.127 131.777 205.235 132.018 205.235C132.232 205.235 132.62 205.329 132.874 205.436C133.141 205.544 133.515 205.638 133.689 205.638C133.997 205.638 134.023 205.598 133.956 205.248L133.876 204.858L134.585 204.885C135.24 204.899 135.307 204.872 135.347 204.589C135.427 204.065 135.16 203.89 134.251 203.904C133.809 203.904 133.221 203.971 132.967 204.052Z" fill="#1AAB9B"/>
<path d="M136.243 205.1C135.427 205.275 134.973 205.477 134.973 205.692C134.973 205.987 135.36 206.055 136.47 205.961C137.553 205.867 137.767 205.719 137.513 205.221C137.366 204.952 137.112 204.926 136.243 205.1Z" fill="#1AAB9B"/>
</svg>
